<svg width="48" height="48" viewBox="0 0 48 48" fill="none" xmlns="http://www.w3.org/2000/svg">
<path d="M43.6148 20.2416L24.0037 33.0187L4.39259 20.2416L0.0078125 22.5239L24.0037 38.0973L47.9996 22.5239L43.6148 20.2416Z" fill="#505A63"/>
<path d="M43.6148 28.6747L24.0037 41.4519L4.39259 28.6747L0.0078125 30.9571L24.0037 46.5305L47.9996 30.9571L43.6148 28.6747ZM14.5461 6.40297L10.1793 8.72572L16.9181 13.0859L21.1654 10.5007L14.5461 6.40297ZM16.8722 16.4047L10.0335 20.5674L14.7552 23.6439L21.4076 19.3393L16.8722 16.4047ZM23.8458 12.16L19.5388 14.7816L23.9951 17.6651L28.2701 14.8988L23.8458 12.16ZM30.9147 16.5361L26.5826 19.3393L33.2354 23.6439L37.699 20.7357L30.9147 16.5361ZM33.3694 6.36304L26.5393 10.5204L30.882 13.2088L37.8108 8.72544L33.3694 6.36304Z" fill="#505A63"/>
<path d="M23.9955 21.0134L17.3343 25.3237L23.9959 29.6641L30.6573 25.3238L23.9955 21.0134ZM7.33978 10.2364L0 14.0908L7.42256 18.8659L14.252 14.709L7.33978 10.2364ZM23.9959 1.46948L17.4196 4.87448L23.8593 8.86101L30.4847 4.82798L23.9959 1.46948ZM40.6513 10.236L33.5272 14.8458L40.3019 19.0399L47.9917 14.0908L40.6513 10.236Z" fill="#505A63"/>
</svg>
