<svg width="48" height="48" viewBox="0 0 48 48" fill="none" xmlns="http://www.w3.org/2000/svg">
<g clip-path="url(#clip0_976_10579)">
<path d="M19.6648 8.75414L19.1232 11.9128C19.0789 12.1714 19.1078 12.4372 19.2067 12.6803C19.3056 12.9233 19.4705 13.1338 19.6827 13.288C19.895 13.4422 20.1462 13.534 20.4079 13.5529C20.6696 13.5718 20.9314 13.5171 21.1636 13.395L24 11.9039L26.8368 13.3952C27.0386 13.5013 27.2631 13.5568 27.4911 13.5568H27.4949C28.2707 13.5557 28.8994 12.9265 28.8994 12.1505C28.8994 12.0448 28.8876 11.9394 28.864 11.8363L28.3352 8.75405L30.63 6.51727C30.8179 6.3341 30.9508 6.10203 31.0137 5.84728C31.0765 5.59252 31.0669 5.32526 30.9858 5.07571C30.9047 4.82616 30.7554 4.60428 30.5548 4.43515C30.3542 4.26602 30.1102 4.1564 29.8506 4.11867L26.6796 3.6578L25.261 0.783798C25.1448 0.548566 24.9652 0.350525 24.7423 0.212059C24.5195 0.0735939 24.2623 0.000224639 23.9999 0.000244145C23.7376 0.00026365 23.4804 0.0736711 23.2576 0.21217C23.0348 0.350668 22.8551 0.548736 22.739 0.783986L21.3208 3.6577L18.1493 4.11858C17.8896 4.15634 17.6457 4.26599 17.4451 4.43513C17.2446 4.60426 17.0953 4.82614 17.0142 5.07567C16.9331 5.32522 16.9235 5.59247 16.9864 5.84721C17.0492 6.10195 17.1821 6.33401 17.37 6.51717L19.6648 8.75414ZM45.3654 34.687C43.4543 36.2897 40.9927 37.2563 38.3092 37.2563C37.4148 37.2563 36.5451 37.1483 35.7119 36.9457C36.2228 38.3084 36.503 39.783 36.503 41.322V42.8281C36.503 44.7998 35.7832 46.6055 34.5945 48H42.828C45.6799 48 48 45.6799 48 42.8281V41.322C48 38.7571 46.998 36.4222 45.3654 34.687ZM24 34.4438C28.5128 34.4438 32.1842 30.7724 32.1842 26.2594C32.1842 21.7465 28.5128 18.075 24 18.075C19.4871 18.075 15.8155 21.7465 15.8155 26.2594C15.8155 30.7724 19.4872 34.4438 24 34.4438ZM38.3093 34.4438C42.8224 34.4438 46.4938 30.7724 46.4938 26.2594C46.4938 21.7465 42.8224 18.075 38.3093 18.075C36.3033 18.075 34.4637 18.801 33.0386 20.0035C34.2724 21.7806 34.9968 23.9369 34.9968 26.2593C34.9968 28.5818 34.2724 30.7381 33.0386 32.5153C34.4637 33.7178 36.3032 34.4438 38.3093 34.4438ZM9.69047 34.4438C11.6967 34.4438 13.5362 33.7178 14.9613 32.5154C13.7274 30.7382 13.003 28.582 13.003 26.2594C13.003 23.937 13.7274 21.7807 14.9613 20.0036C13.5363 18.8011 11.6968 18.0751 9.69047 18.0751C5.17762 18.0751 1.50619 21.7466 1.50619 26.2595C1.50619 30.7725 5.17772 34.4438 9.69047 34.4438ZM24 37.2563C21.3166 37.2563 18.8549 36.2896 16.9439 34.687C15.3113 36.4222 14.3093 38.7571 14.3093 41.322V42.8281C14.3093 45.6799 16.6295 48 19.4812 48H28.5187C31.3705 48 33.6905 45.6799 33.6905 42.8281V41.322C33.6905 38.7571 32.6885 36.4221 31.0559 34.687C29.1449 36.2897 26.6834 37.2563 24 37.2563ZM11.4968 41.3221C11.4968 39.7831 11.7771 38.3085 12.2879 36.9458C11.4376 37.1524 10.5656 37.2567 9.69047 37.2564C7.00706 37.2564 4.54556 36.2897 2.63447 34.6871C1.002 36.4222 0 38.7571 0 41.3221V42.8282C0 45.68 2.32003 48 5.17181 48H13.4055C12.2168 46.6056 11.4968 44.7999 11.4968 42.8282V41.3221Z" fill="#505A63"/>
</g>
<defs>
<clipPath id="clip0_976_10579">
<rect width="48" height="48" fill="white"/>
</clipPath>
</defs>
</svg>
