<svg width="48" height="48" viewBox="0 0 48 48" fill="none" xmlns="http://www.w3.org/2000/svg">
<rect width="48" height="48" rx="24" fill="#505A63"/>
<g clip-path="url(#clip0_1077_7886)">
<path d="M35.1785 21.8939C34.9295 21.7499 34.6462 21.6744 34.358 21.6754C34.0698 21.6763 33.787 21.7536 33.5389 21.8993L30.5455 23.6337V29.4918L33.5389 31.2263C33.7969 31.3758 34.08 31.4505 34.3636 31.4505C34.6498 31.4498 34.9308 31.3745 35.1785 31.2322C35.4293 31.0912 35.6376 30.8862 35.782 30.6386C35.9264 30.3909 36.0016 30.1095 36 29.8233V23.3038C36 22.715 35.6929 22.188 35.1785 21.895V21.8939ZM27.6011 21.0305C28.1764 20.6028 28.6434 20.0479 28.9651 19.4097C29.2868 18.7716 29.4544 18.0678 29.4545 17.3542C29.4545 16.1331 28.9661 14.962 28.0966 14.0985C27.2271 13.2351 26.0478 12.75 24.8182 12.75C23.5885 12.75 22.4093 13.2351 21.5398 14.0985C20.6703 14.962 20.1818 16.1331 20.1818 17.3542C20.1814 18.0252 20.3291 18.6882 20.6144 19.2965C20.8998 19.9048 21.3159 20.4436 21.8335 20.875H18.8656C19.2807 20.4959 19.612 20.0354 19.8385 19.5226C20.0651 19.0098 20.182 18.4558 20.1818 17.8958C20.1818 16.8184 19.7508 15.7851 18.9836 15.0232C18.2164 14.2613 17.1759 13.8333 16.0909 13.8333C15.0059 13.8333 13.9654 14.2613 13.1982 15.0232C12.431 15.7851 12 16.8184 12 17.8958C12 18.5199 12.1451 19.1356 12.4241 19.6949C12.7031 20.2541 13.1085 20.7418 13.6085 21.1198C12.6627 21.5456 12 22.487 12 23.5833V29.5417C12 31.035 13.2235 32.25 14.7273 32.25H26.7273C28.2311 32.25 29.4545 31.035 29.4545 29.5417V23.5833C29.4545 22.3949 28.6751 21.3945 27.6011 21.0305ZM14.4545 17.8958C14.4545 17.6824 14.4969 17.4711 14.5791 17.274C14.6613 17.0768 14.7819 16.8977 14.9338 16.7468C15.0858 16.5959 15.2662 16.4762 15.4647 16.3945C15.6632 16.3129 15.876 16.2708 16.0909 16.2708C16.3058 16.2708 16.5186 16.3129 16.7171 16.3945C16.9157 16.4762 17.096 16.5959 17.248 16.7468C17.3999 16.8977 17.5205 17.0768 17.6027 17.274C17.6849 17.4711 17.7273 17.6824 17.7273 17.8958C17.7273 18.3268 17.5549 18.7401 17.248 19.0449C16.9411 19.3496 16.5249 19.5208 16.0909 19.5208C15.6569 19.5208 15.2407 19.3496 14.9338 19.0449C14.6269 18.7401 14.4545 18.3268 14.4545 17.8958ZM17.4545 29.5417H15.2727C15.1281 29.5417 14.9893 29.4846 14.887 29.383C14.7847 29.2814 14.7273 29.1437 14.7273 29C14.7273 28.8563 14.7847 28.7186 14.887 28.617C14.9893 28.5154 15.1281 28.4583 15.2727 28.4583H17.4545C17.5992 28.4583 17.7379 28.5154 17.8402 28.617C17.9425 28.7186 18 28.8563 18 29C18 29.1437 17.9425 29.2814 17.8402 29.383C17.7379 29.4846 17.5992 29.5417 17.4545 29.5417ZM24.8182 19.5208C24.2395 19.5208 23.6846 19.2926 23.2754 18.8862C22.8662 18.4799 22.6364 17.9288 22.6364 17.3542C22.6364 16.7795 22.8662 16.2284 23.2754 15.8221C23.6846 15.4158 24.2395 15.1875 24.8182 15.1875C25.3968 15.1875 25.9518 15.4158 26.361 15.8221C26.7701 16.2284 27 16.7795 27 17.3542C27 17.9288 26.7701 18.4799 26.361 18.8862C25.9518 19.2926 25.3968 19.5208 24.8182 19.5208Z" fill="white"/>
</g>
<defs>
<clipPath id="clip0_1077_7886">
<rect width="24" height="24" fill="white" transform="translate(12 12)"/>
</clipPath>
</defs>
</svg>
