<svg width="48" height="48" viewBox="0 0 48 48" fill="none" xmlns="http://www.w3.org/2000/svg">
<rect width="48" height="48" rx="24" fill="#505A63"/>
<g clip-path="url(#clip0_1077_9814)">
<path d="M31.5313 16.461C29.2283 16.461 27.3269 18.2121 27.088 20.4527C28.7594 21.4896 29.875 23.3411 29.875 25.4486V28.4611C29.875 29.56 29.3798 30.5702 28.5688 31.2432V35.2892C28.5688 35.6775 28.8836 35.9923 29.2719 35.9923H33.7906C34.1789 35.9923 34.4938 35.6775 34.4938 35.2892V28.2963C35.3684 28.002 36 27.1742 36 26.2016V20.9298C36 18.4657 33.9953 16.461 31.5313 16.461ZM31.5313 16.461C32.7633 16.461 33.7657 15.4587 33.7657 14.2266C33.6533 11.2665 29.4088 11.2673 29.2969 14.2267C29.2969 15.4587 30.2992 16.461 31.5313 16.461ZM26.2344 18.7454C26.2344 17.5133 25.2321 16.511 24 16.511C21.0398 16.6233 21.0406 20.8679 24 20.9798C25.232 20.9798 26.2344 19.9774 26.2344 18.7454Z" fill="white"/>
<path d="M24 25.4668C21.6971 25.4668 19.7956 27.2179 19.5568 29.4585C21.2282 30.4954 22.3438 32.3469 22.3438 34.4543V35.2074C22.3438 36.3063 21.8485 37.3166 21.0375 37.9896V39.7762C21.0375 40.1645 21.3523 40.4793 21.7406 40.4793H26.2594C26.6477 40.4793 26.9625 40.1645 26.9625 39.7762V35.0427C27.8371 34.7484 28.4687 33.9207 28.4687 32.948V29.9355C28.4687 27.4715 26.4641 25.4668 24 25.4668Z" fill="white"/>
<path d="M16.4687 32.2451C13.9963 32.2451 12 34.2464 12 36.7139V37.4669C12 38.4396 12.6316 39.2673 13.5062 39.5616V42.0357C13.5062 42.424 13.821 42.7388 14.2094 42.7388H18.7281C19.1164 42.7388 19.4312 42.424 19.4312 42.0357V39.5616C20.3059 39.2673 20.9375 38.4396 20.9375 37.4669V36.7139C20.9375 34.2418 18.9368 32.2451 16.4687 32.2451Z" fill="white"/>
<path d="M16.4687 24.7706C17.7008 24.7706 18.7031 23.7683 18.7031 22.5362C18.5908 19.576 14.3462 19.5769 14.2343 22.5362C14.2344 23.7683 15.2367 24.7706 16.4687 24.7706Z" fill="white"/>
</g>
<defs>
<clipPath id="clip0_1077_9814">
<rect width="24" height="24" fill="white" transform="translate(12 12)"/>
</clipPath>
</defs>
</svg>
