<svg width="48" height="48" viewBox="0 0 48 48" fill="none" xmlns="http://www.w3.org/2000/svg">
<g clip-path="url(#clip0_976_10587)">
<path d="M19.3034 13.5913C19.4161 15.2154 21.2718 16.1048 22.613 15.1821C23.7929 14.3698 25.4035 15.2158 25.4035 16.6494V22.5472H29.8219C29.0372 19.343 31.5777 16.2214 34.9571 16.4547C37.9305 16.6608 40.1355 19.5238 39.393 22.5472H43.8559C47.5904 16.9009 43.8294 8.73189 36.5522 8.3582C37.375 4.01279 34.0245 0.00732422 29.6335 0.00732422C28.0474 0.00732422 26.582 0.534574 25.4035 1.42276V10.2252C25.4035 11.6577 23.7941 12.5051 22.6129 11.6925C21.1776 10.7051 19.179 11.7958 19.3034 13.5913Z" fill="#505A63"/>
<path d="M10.175 22.5472C11.6078 22.5472 12.455 24.157 11.6421 25.3381C10.6594 26.7661 11.7384 28.7709 13.5415 28.6464C15.1694 28.5336 16.0543 26.6765 15.1327 25.3377C14.3202 24.1572 15.167 22.5472 16.6001 22.5472H22.5927V18.2211C19.5626 18.9655 16.7051 16.7522 16.4993 13.7857C16.266 10.4206 19.3745 7.86317 22.5927 8.65114V1.42283C17.5476 -2.37929 10.3203 1.96208 11.4274 8.26517C4.1067 8.65414 0.401985 16.8409 4.16877 22.5472H10.175ZM43.8096 25.3589H37.8219C36.3885 25.3589 35.5421 23.7487 36.3546 22.5683C37.2769 21.229 36.3896 19.3725 34.7634 19.2597C32.9606 19.1346 31.8809 21.1394 32.864 22.5681C33.6767 23.7491 32.8301 25.3589 31.397 25.3589H25.4044V29.6826C28.6133 28.8968 31.7316 31.4437 31.4977 34.8171C31.2919 37.7846 28.4336 39.9962 25.4044 39.2526V46.5772C30.4494 50.3794 37.6768 46.038 36.5697 39.7349C43.7144 39.3551 47.6857 31.3396 43.8096 25.3589Z" fill="#505A63"/>
<path d="M28.692 34.6224C28.8164 32.8279 26.8178 31.7361 25.3826 32.7239C24.202 33.5357 22.5918 32.6903 22.5918 31.2566V25.3589H18.1711C18.9363 28.4733 16.5642 31.4637 13.3805 31.4637C10.1669 31.4637 7.8461 28.4355 8.59994 25.3589H4.16838C0.40366 31.0646 4.10116 39.2647 11.4433 39.6418C10.6204 43.9872 13.971 47.9927 18.3619 47.9927C19.9481 47.9927 21.4134 47.4654 22.5919 46.5772V37.6808C22.5919 36.2485 24.2014 35.4008 25.3823 36.2135C26.7209 37.1347 28.5791 36.2499 28.692 34.6224Z" fill="#505A63"/>
</g>
<defs>
<clipPath id="clip0_976_10587">
<rect width="48" height="48" fill="white"/>
</clipPath>
</defs>
</svg>
