<svg width="48" height="48" viewBox="0 0 48 48" fill="none" xmlns="http://www.w3.org/2000/svg">
<rect width="48" height="48" rx="24" fill="#505A63"/>
<path d="M24.882 18H23.118C22.8392 17.9989 22.5657 18.0759 22.3286 18.2225C22.0914 18.369 21.9002 18.5792 21.7765 18.829L21.691 19H26.309L26.2235 18.829C26.0998 18.5792 25.9086 18.369 25.6714 18.2225C25.4343 18.0759 25.1608 17.9989 24.882 18ZM14.4735 28.4975C14.1628 27.8774 14.0007 27.1936 14 26.5V22.5C14 22.1705 14.049 21.853 14.1345 21.5505C13.8112 21.6317 13.5242 21.8183 13.3188 22.0808C13.1133 22.3433 13.0012 22.6667 13 23V27C13.0006 27.3929 13.1553 27.7698 13.4308 28.0498C13.7063 28.3298 14.0807 28.4906 14.4735 28.4975ZM33.8655 21.5505C33.951 21.853 34 22.1705 34 22.5V26.5C33.9993 27.1936 33.8372 27.8774 33.5265 28.4975C33.9193 28.4906 34.2937 28.3298 34.5692 28.0498C34.8447 27.7698 34.9994 27.3929 35 27V23C34.9988 22.6667 34.8867 22.3433 34.6812 22.0808C34.4758 21.8183 34.1888 21.6317 33.8655 21.5505ZM30.5 20H17.5C15.757 20 15 21.514 15 22.5V26.5C15 27.2335 15.2245 27.916 15.6145 28.477C15.7995 28.743 16.7185 30 18.5 30H21.3335C22.3535 30 23.1005 29.3 23.1005 29.3C23.972 28.687 24.7725 29.204 24.9 29.3C24.9 29.3 25.6165 30 26.667 30H29.5C31.359 30 33 28.5005 33 26.5V22.5C33 21.354 32.0885 20 30.5 20ZM18.4995 23.001H17.4995C16.825 23.001 16.8465 22.001 17.4995 22.001H18.4995C19.187 22.016 19.1515 23.001 18.4995 23.001Z" fill="white"/>
</svg>
