<svg width="48" height="48" viewBox="0 0 48 48" fill="none" xmlns="http://www.w3.org/2000/svg">
<rect width="48" height="48" rx="24" fill="#505A63"/>
<g clip-path="url(#clip0_1077_9149)">
<path d="M14.7224 32.0371L12.2569 34.5026C11.9144 34.8452 11.9144 35.4006 12.2569 35.7431C12.5995 36.0856 13.1549 36.0856 13.4974 35.7431L15.9629 33.2776C15.6827 33.1659 15.4282 32.9983 15.2149 32.7851C15.0017 32.5718 14.8341 32.3173 14.7224 32.0371ZM34.3818 13.8232L34.3597 13.6403L34.1768 13.6182C32.7029 13.4397 30.9927 14.1235 29.7135 15.4027C28.4345 16.6819 27.7507 18.3921 27.929 19.8659L27.9511 20.0488L28.134 20.071C28.289 20.0897 28.4467 20.099 28.6061 20.099C29.9628 20.099 31.4527 19.431 32.5972 18.2864C33.8764 17.0073 34.5602 15.297 34.3818 13.8232ZM28.1155 12.2085C27.8375 11.9305 27.3867 11.9305 27.1087 12.2085L24.981 14.3363C23.87 15.1553 23.0684 16.6208 22.8561 18.2608C22.6239 20.0548 23.1264 21.8269 24.1675 22.8852L24.2967 23.0166L24.4551 22.9225C25.7313 22.164 26.6684 20.5783 26.9005 18.7843C27.0751 17.4355 26.8343 16.0992 26.2616 15.0692L28.1155 13.2153C28.3935 12.9373 28.3935 12.4866 28.1155 12.2085ZM17.0063 22.7428L16.8772 22.6114L16.7188 22.7056C15.4425 23.4641 14.5055 25.0497 14.2732 26.8437C14.041 28.6378 14.5435 30.4097 15.5846 31.4681L15.7138 31.5995L15.8722 31.5054C17.1484 30.7468 18.0855 29.1612 18.3177 27.3672C18.5498 25.5732 18.0474 23.8012 17.0063 22.7428ZM21.2981 18.4511L21.1689 18.3197L21.0105 18.4138C19.7343 19.1723 18.7972 20.758 18.565 22.552C18.3328 24.3461 18.8353 26.118 19.8764 27.1764L20.0055 27.3078L20.1639 27.2136C21.4402 26.4551 22.3772 24.8695 22.6094 23.0755C22.8416 21.2815 22.3392 19.5095 21.2981 18.4511ZM25.2573 30.9936C24.1988 29.9526 22.4267 29.4501 20.6329 29.6823C18.8389 29.9145 17.2532 30.8516 16.4947 32.1278L16.4006 32.2862L16.5319 32.4154C17.4194 33.2883 18.8086 33.7826 20.2918 33.7826C20.5774 33.7826 20.8666 33.7642 21.1563 33.7267C22.9504 33.4945 24.536 32.5575 25.2945 31.2812L25.3886 31.1228L25.2573 30.9936ZM29.549 26.7019C28.4906 25.6608 26.7184 25.1583 24.9246 25.3906C23.1306 25.6228 21.5449 26.5599 20.7864 27.8361L20.6923 27.9945L20.8237 28.1237C21.7111 28.9966 23.1003 29.4909 24.5835 29.4909C24.8692 29.4909 25.1584 29.4725 25.4481 29.435C27.2421 29.2028 28.8278 28.2658 29.5862 26.9895L29.6804 26.8311L29.549 26.7019ZM35.7915 19.8845C35.5135 19.6065 35.0627 19.6065 34.7847 19.8845L32.9309 21.7384C31.9008 21.1657 30.5644 20.9248 29.2157 21.0995C27.4217 21.3317 25.836 22.2687 25.0775 23.545L24.9834 23.7034L25.1147 23.8325C26.0022 24.7055 27.3914 25.1997 28.8746 25.1997C29.1602 25.1997 29.4495 25.1814 29.7391 25.1439C31.3792 24.9316 32.8448 24.1301 33.6638 23.019L35.7915 20.8913C36.0695 20.6133 36.0695 20.1626 35.7915 19.8845Z" fill="white"/>
</g>
<defs>
<clipPath id="clip0_1077_9149">
<rect width="24" height="24" fill="white" transform="translate(12 12)"/>
</clipPath>
</defs>
</svg>
