<svg width="48" height="48" viewBox="0 0 48 48" fill="none" xmlns="http://www.w3.org/2000/svg">
<rect width="48" height="48" rx="24" fill="#505A63"/>
<path d="M30.5439 28.6241H25.3525V21.6238H27.5528C27.5279 19.7139 27.1768 17.7702 26.5806 16.2592C26.0308 14.8657 25.3149 14 24.712 14C24.1092 14 23.3932 14.8657 22.8435 16.2592C22.2473 17.7702 21.8963 19.7139 21.8713 21.6238H24.0716V28.6241H19.9553L18.0753 26.7057C16.7277 25.3305 14.5351 25.3305 13.1876 26.7057C13.0675 26.8282 13 26.9944 13 27.1677C13 27.3411 13.0675 27.5073 13.1876 27.6298L17.8148 32.3518C17.8048 32.3767 17.7964 32.4022 17.7895 32.4283L17.3361 34.1794C17.2458 34.5283 17.4497 34.886 17.7917 34.9782C17.8465 34.9929 17.9015 35 17.9557 35C18.2393 35 18.4986 34.8063 18.5745 34.5132L19.0169 32.8044H31.3877V34.3463C31.3877 34.7073 31.6745 34.9999 32.0282 34.9999C32.3819 34.9999 32.6686 34.7073 32.6686 34.3463V32.8044H33.3596C33.7133 32.8044 34 32.5118 34 32.1509C34 30.2062 32.4496 28.6241 30.5439 28.6241Z" fill="white"/>
<path d="M27.7032 16.1019C28.3893 17.7743 28.7926 19.9122 28.8192 22H32.3289C32.6995 22 33 21.7051 33 21.3414C33 16.742 29.1869 13 24.5 13C25.745 13 26.8826 14.1016 27.7032 16.1019ZM21.2968 16.1019C22.1175 14.1016 23.255 13 24.5 13C19.8131 13 16 16.742 16 21.3414C16 21.7051 16.3005 22 16.6711 22H20.1808C20.2074 19.9123 20.6107 17.7744 21.2968 16.1019Z" fill="white"/>
</svg>
