<svg width="48" height="48" viewBox="0 0 48 48" fill="none" xmlns="http://www.w3.org/2000/svg">
<rect width="48" height="48" rx="24" fill="#505A63"/>
<g clip-path="url(#clip0_1077_2554)">
<path d="M29.25 16.75C29.8467 16.75 30.419 16.5129 30.841 16.091C31.2629 15.669 31.5 15.0967 31.5 14.5C31.5 13.9033 31.2629 13.331 30.841 12.909C30.419 12.4871 29.8467 12.25 29.25 12.25C28.6533 12.25 28.081 12.4871 27.659 12.909C27.2371 13.331 27 13.9033 27 14.5C27 15.0967 27.2371 15.669 27.659 16.091C28.081 16.5129 28.6533 16.75 29.25 16.75ZM12 30.25C11.9999 29.1536 12.4 28.0948 13.1253 27.2726C13.8506 26.4503 14.8511 25.9212 15.939 25.7845L19.5 28.159V33.604C18.8525 34.1831 18.0513 34.5625 17.1929 34.6962C16.3346 34.83 15.4559 34.7125 14.6629 34.3578C13.8699 34.0032 13.1965 33.4266 12.724 32.6977C12.2515 31.9688 12 31.1187 12 30.25ZM28.5 33.604C29.1475 34.1832 29.9487 34.5625 30.8071 34.6963C31.6654 34.8301 32.5441 34.7126 33.3372 34.358C34.1302 34.0033 34.8036 33.4267 35.2761 32.6978C35.7487 31.9688 36.0001 31.1187 36.0001 30.25C36.0001 29.3813 35.7487 28.5312 35.2761 27.8022C34.8036 27.0733 34.1302 26.4967 33.3372 26.1421C32.5441 25.7874 31.6654 25.6699 30.8071 25.8037C29.9487 25.9375 29.1475 26.3168 28.5 26.896V33.604Z" fill="white"/>
<path d="M24.4215 20.5205C24.4368 20.5103 24.4541 20.5035 24.4723 20.5006C24.4905 20.4976 24.5091 20.4986 24.5268 20.5035C24.5446 20.5083 24.5611 20.5169 24.5753 20.5286C24.5894 20.5403 24.6009 20.555 24.609 20.5715L26.073 23.4995H31.5V20.4995H27.927L27.2925 19.229C27.0941 18.8322 26.8136 18.482 26.4695 18.2018C26.1255 17.9216 25.7258 17.7178 25.2969 17.6039C24.8681 17.49 24.4199 17.4686 23.9822 17.5411C23.5445 17.6136 23.1272 17.7784 22.758 18.0245L19.293 20.3345C18.8951 20.5994 18.5688 20.9584 18.3431 21.3797C18.1174 21.801 17.9993 22.2716 17.9993 22.7495C17.9993 23.2275 18.1174 23.6981 18.3431 24.1194C18.5688 24.5407 18.8951 24.8997 19.293 25.1645L22.5 27.3005V32.4995H25.5V25.697L21.0795 22.7495L24.4215 20.5205Z" fill="white"/>
</g>
<defs>
<clipPath id="clip0_1077_2554">
<rect width="24" height="24" fill="white" transform="translate(12 12)"/>
</clipPath>
</defs>
</svg>
