<svg width="48" height="48" viewBox="0 0 48 48" fill="none" xmlns="http://www.w3.org/2000/svg">
<rect width="48" height="48" rx="24" fill="#505A63"/>
<path d="M33.7447 23.1145C33.8447 22.8193 33.8956 22.5097 33.8955 22.1981C33.8955 21.223 33.394 20.3286 32.6094 19.8054C32.7361 19.4766 32.8012 19.1273 32.8015 18.7749C32.8015 17.3335 31.7342 16.1369 30.3483 15.9337C29.9864 14.7541 28.8827 13.901 27.6026 13.901C27.4548 13.901 27.3072 13.9124 27.1611 13.9352C26.7704 12.8115 25.6978 12 24.4479 12C23.198 12 22.1252 12.8115 21.7344 13.9352C21.5884 13.9124 21.4408 13.901 21.293 13.901C20.013 13.901 18.9091 14.7541 18.5473 15.9337C17.1614 16.1369 16.0941 17.3335 16.0941 18.7749C16.0941 19.1283 16.1603 19.4782 16.2863 19.8054C15.5016 20.3286 15 21.223 15 22.1981C15 22.5097 15.051 22.8193 15.1509 23.1145L33.7447 23.1145ZM20.0669 19.9665C19.6707 19.9665 19.3771 19.6426 19.3599 19.2598C19.3429 18.878 19.697 18.553 20.0669 18.553C20.4631 18.553 20.7564 18.8767 20.7737 19.2598C20.7907 19.6413 20.4366 19.9665 20.0669 19.9665ZM21.8132 22.0942C21.417 22.0942 21.1236 21.7703 21.1064 21.3875C21.0893 21.0057 21.4434 20.6807 21.8132 20.6807C22.2094 20.6807 22.5029 21.0044 22.52 21.3875C22.5372 21.769 22.1828 22.0942 21.8132 22.0942ZM28.6146 20.9601C28.2242 20.9601 27.9078 20.6437 27.9078 20.2533C27.9078 19.6578 27.4233 19.1735 26.8279 19.1735C26.4375 19.1735 26.1211 18.8569 26.1211 18.4667C26.1211 18.0764 26.4375 17.76 26.8279 17.76C28.2028 17.76 29.3214 18.8784 29.3214 20.2533C29.3214 20.6437 29.0048 20.9601 28.6146 20.9601ZM22.6377 36H26.2579L26.9692 24.5281H21.9265L22.6377 36ZM28.3856 24.5281L27.6742 36H30.5678C30.7332 36 30.8934 35.942 31.0204 35.836C31.1474 35.7301 31.2333 35.583 31.263 35.4203L33.253 24.5281H28.3856ZM20.51 24.5281H15.6425L17.6325 35.4203C17.6623 35.583 17.7481 35.7301 17.8752 35.836C18.0022 35.942 18.1623 36 18.3277 36H21.2213L20.51 24.5281Z" fill="white"/>
</svg>
