<svg width="48" height="48" viewBox="0 0 48 48" fill="none" xmlns="http://www.w3.org/2000/svg">
<g clip-path="url(#clip0_1114_4323)">
<path d="M42.3796 15.2216H41.5104C41.438 15.2216 41.3656 15.1351 41.3475 15.0659C41.037 14.1221 40.6369 13.2073 40.1523 12.333C40.1161 12.2638 40.098 12.16 40.1705 12.1081L40.7861 11.52C41.3214 10.9981 41.6206 10.2961 41.6191 9.56541C41.6228 9.20313 41.5511 8.84377 41.4081 8.50821C41.2651 8.17266 41.0536 7.86761 40.7861 7.61081L37.3094 4.28973C36.7649 3.77468 36.0296 3.48575 35.2633 3.48575C34.4969 3.48575 33.7616 3.77468 33.2171 4.28973L32.6014 4.87784C32.5471 4.94703 32.4384 4.92973 32.366 4.89513C31.4503 4.4331 30.4927 4.05101 29.505 3.75351C29.4326 3.73622 29.342 3.66703 29.342 3.59784V2.76757C29.3396 2.03426 29.0336 1.33165 28.4908 0.813121C27.948 0.294596 27.2124 0.0022809 26.4448 0H21.5557C20.788 0.0022809 20.0525 0.294596 19.5097 0.813121C18.9669 1.33165 18.6608 2.03426 18.6585 2.76757V3.59784C18.6585 3.66703 18.5679 3.73622 18.4955 3.75351C17.5078 4.05101 16.5502 4.4331 15.6345 4.89513C15.562 4.92973 15.4534 4.94703 15.3991 4.87784L14.7834 4.28973C14.2389 3.77468 13.5035 3.48575 12.7372 3.48575C11.9709 3.48575 11.2356 3.77468 10.691 4.28973L7.21436 7.61081C6.94683 7.86761 6.73541 8.17266 6.59241 8.50821C6.44942 8.84377 6.37769 9.20313 6.3814 9.56541C6.37987 10.2961 6.67902 10.9981 7.21436 11.52L7.83002 12.1081C7.90245 12.16 7.88435 12.2638 7.84813 12.333C7.36355 13.2073 6.96352 14.1221 6.65302 15.0659C6.63491 15.1351 6.56248 15.2216 6.49005 15.2216H5.62088C4.85322 15.2239 4.11768 15.5162 3.57486 16.0347C3.03204 16.5533 2.72603 17.2559 2.72364 17.9892V22.6595C2.72271 23.068 2.81829 23.4715 3.00327 23.8399C3.18825 24.2083 3.45785 24.532 3.792 24.787C4.29698 23.546 5.17146 22.4735 6.30743 21.7019C7.44339 20.9303 8.79108 20.4935 10.184 20.4454C11.8729 20.4626 13.4915 21.0935 14.711 22.2097C14.5664 21.5908 14.4935 20.9585 14.4937 20.3243C14.4937 17.9159 15.4953 15.6061 17.2781 13.903C19.0609 12.2 21.4789 11.2432 24.0002 11.2432C26.5215 11.2432 28.9396 12.2 30.7224 13.903C32.5052 15.6061 33.5068 17.9159 33.5068 20.3243C33.507 20.9585 33.4341 21.5908 33.2895 22.2097C34.509 21.0935 36.1276 20.4626 37.8164 20.4454C39.2094 20.4935 40.5571 20.9303 41.693 21.7019C42.829 22.4735 43.7035 23.546 44.2085 24.787C44.5426 24.532 44.8122 24.2083 44.9972 23.8399C45.1822 23.4715 45.2778 23.068 45.2768 22.6595V17.9892C45.2744 17.2559 44.9684 16.5533 44.4256 16.0347C43.8828 15.5162 43.1473 15.2239 42.3796 15.2216ZM31.3791 41.0309L27.7739 39.8841C27.6643 39.8482 27.567 39.7845 27.4924 39.6999C27.4178 39.6153 27.3686 39.5128 27.3502 39.4036C27.3318 39.2943 27.3448 39.1824 27.3879 39.0796C27.4309 38.9769 27.5024 38.8873 27.5946 38.8203C28.4872 38.0713 29.1975 37.1448 29.6758 36.1059C30.1541 35.067 30.3887 33.9407 30.3633 32.8061C30.3633 28.7792 27.5131 25.5135 24.0002 25.5135C20.4873 25.5135 17.6372 28.7792 17.6372 32.8061C17.6118 33.9407 17.8464 35.067 18.3247 36.1059C18.8029 37.1448 19.5133 38.0713 20.4059 38.8203C20.4981 38.8873 20.5696 38.9769 20.6126 39.0796C20.6557 39.1824 20.6687 39.2943 20.6503 39.4036C20.6319 39.5128 20.5827 39.6153 20.5081 39.6999C20.4335 39.7845 20.3362 39.8482 20.2266 39.8841L16.6213 41.0309C15.7436 41.3098 14.9401 41.7683 14.2671 42.3745C13.594 42.9807 13.0676 43.7199 12.7245 44.5405L11.9731 46.3325C11.8958 46.5171 11.8671 46.7169 11.8894 46.9145C11.9118 47.1121 11.9844 47.3014 12.1011 47.466C12.2178 47.6305 12.3749 47.7652 12.5587 47.8583C12.7426 47.9514 12.9475 48.0001 13.1555 48H34.845C35.053 48.0001 35.2579 47.9514 35.4417 47.8583C35.6255 47.7652 35.7827 47.6305 35.8993 47.466C36.016 47.3014 36.0887 47.1121 36.111 46.9145C36.1334 46.7169 36.1046 46.5171 36.0274 46.3325L35.2759 44.5405C34.9329 43.7199 34.4065 42.9807 33.7334 42.3745C33.0604 41.7683 32.2569 41.3098 31.3791 41.0309Z" fill="#505A63"/>
<path d="M17.8977 38.7978L16.0507 39.3859C14.9388 39.7391 13.9197 40.3173 13.0629 41.081H1.05751C0.883444 41.0801 0.712256 41.0385 0.558991 40.9596C0.405726 40.8808 0.275076 40.7672 0.178518 40.6289C0.0819609 40.4905 0.0224519 40.3316 0.00522078 40.1662C-0.0120104 40.0007 0.0135634 39.8337 0.079695 39.6799L0.695359 38.175C0.988115 37.4866 1.43224 36.8663 1.99768 36.356C2.56313 35.8457 3.23671 35.4573 3.97286 35.2172L7.01496 34.2486C7.10771 34.2208 7.19049 34.1688 7.25394 34.0984C7.3174 34.0281 7.35901 33.9422 7.37407 33.8504C7.38913 33.7587 7.37706 33.6648 7.3392 33.5792C7.30134 33.4937 7.23921 33.42 7.15982 33.3664C6.4112 32.7332 5.81603 31.9518 5.41575 31.0765C5.01546 30.2013 4.81968 29.2532 4.84203 28.2983C4.71086 26.8118 5.19789 25.3357 6.19766 24.1897C7.19743 23.0436 8.6295 22.3199 10.1838 22.175C11.7395 22.3199 13.1733 23.0431 14.176 24.1886C15.1786 25.334 15.6699 26.81 15.5437 28.2983C15.5663 29.2549 15.3688 30.2045 14.9652 31.0802C14.5616 31.9559 13.9617 32.7364 13.2078 33.3664C13.1319 33.422 13.0732 33.4962 13.0377 33.581C13.0022 33.6659 12.9913 33.7583 13.0061 33.8486C13.0209 33.9388 13.0609 34.0236 13.1219 34.094C13.1829 34.1644 13.2626 34.2178 13.3527 34.2486L16.1232 35.1307C16.4219 36.4639 17.0281 37.7167 17.8977 38.7978ZM46.9425 41.081H34.9371C34.0804 40.3173 33.0613 39.7391 31.9493 39.3859L30.1023 38.7978C30.9719 37.7167 31.5782 36.4639 31.8769 35.1307L34.6474 34.2486C34.7374 34.2178 34.8171 34.1644 34.8781 34.094C34.9391 34.0236 34.9791 33.9388 34.994 33.8486C35.0088 33.7583 34.9979 33.6659 34.9624 33.581C34.9269 33.4962 34.8681 33.422 34.7922 33.3664C34.0384 32.7364 33.4385 31.9559 33.0349 31.0802C32.6313 30.2045 32.4338 29.2549 32.4563 28.2983C32.3302 26.81 32.8214 25.334 33.8241 24.1886C34.8267 23.0431 36.2605 22.3199 37.8162 22.175C39.3705 22.3199 40.8026 23.0436 41.8024 24.1897C42.8022 25.3357 43.2892 26.8118 43.158 28.2983C43.1804 29.2532 42.9846 30.2013 42.5843 31.0765C42.184 31.9518 41.5888 32.7332 40.8402 33.3664C40.7608 33.42 40.6987 33.4937 40.6608 33.5792C40.623 33.6648 40.6109 33.7587 40.626 33.8504C40.641 33.9422 40.6826 34.0281 40.7461 34.0984C40.8096 34.1688 40.8923 34.2208 40.9851 34.2486L44.0272 35.2172C44.7633 35.4573 45.4369 35.8457 46.0024 36.356C46.5678 36.8663 47.0119 37.4866 47.3047 38.175L47.9203 39.6799C47.9865 39.8337 48.0121 40.0007 47.9948 40.1662C47.9776 40.3316 47.9181 40.4905 47.8215 40.6289C47.725 40.7672 47.5943 40.8808 47.4411 40.9596C47.2878 41.0385 47.1166 41.0801 46.9425 41.081Z" fill="#505A63"/>
</g>
<defs>
<clipPath id="clip0_1114_4323">
<rect width="48" height="48" fill="white"/>
</clipPath>
</defs>
</svg>
