<svg width="48" height="48" viewBox="0 0 48 48" fill="none" xmlns="http://www.w3.org/2000/svg">
<path d="M30.2307 18.3871C22.0669 18.3871 15.4243 25.0297 15.4243 33.1935C15.4243 41.3574 22.0669 48 30.2307 48C38.3946 48 45.0372 41.3574 45.0372 33.1935C45.0372 25.0297 38.3946 18.3871 30.2307 18.3871ZM27.0488 27.3184C28.183 27.3184 29.1062 28.2406 29.1062 29.3748C29.1062 30.5099 28.183 31.4332 27.0488 31.4332C25.9146 31.4332 24.9914 30.51 24.9914 29.3748C24.9914 28.2406 25.9146 27.3184 27.0488 27.3184ZM33.4127 39.0687C32.2785 39.0687 31.3552 38.1465 31.3552 37.0123C31.3552 35.8772 32.2785 34.9539 33.4127 34.9539C34.5469 34.9539 35.4701 35.8771 35.4701 37.0123C35.4701 38.1465 34.5469 39.0687 33.4127 39.0687ZM35.144 30.4703L27.5075 38.1067C27.3638 38.2506 27.1931 38.3647 27.0052 38.4426C26.8173 38.5205 26.6159 38.5606 26.4125 38.5606C26.2091 38.5606 26.0077 38.5205 25.8198 38.4426C25.6319 38.3647 25.4612 38.2506 25.3175 38.1067C24.7127 37.5018 24.7127 36.5215 25.3175 35.9167L32.954 28.2803C33.5588 27.6755 34.5391 27.6755 35.144 28.2803C35.7488 28.8852 35.7488 29.8655 35.144 30.4703ZM26.0694 0H16.0049C14.8287 0 14.0823 1.26252 14.6472 2.29258L17.6046 7.68968C15.4986 8.94271 14.8223 11.6237 15.9991 13.7032C10.7811 15.48 6.72234 19.9442 5.6375 25.5968L3.10395 38.7987C2.18789 43.5764 5.85002 48 10.7075 48H17.1564C18.3218 48 18.8921 46.5833 18.0548 45.7727C8.13079 36.1652 12.7571 19.4923 25.9999 16.1955C27.2317 15.8888 27.3643 14.1392 26.0752 13.7031C27.2519 11.6239 26.576 8.94271 24.4698 7.68958L27.4272 2.29248C27.9929 1.26097 27.2439 0 26.0694 0ZM22.1985 12.871H19.8759C18.9865 12.871 18.2946 12.0087 18.5907 11.0768C18.7659 10.5242 19.2962 10.1613 19.8759 10.1613H22.1985C22.7781 10.1613 23.3085 10.5242 23.4836 11.0768C23.7798 12.0087 23.0878 12.871 22.1985 12.871Z" fill="#505A63"/>
</svg>
