<?xml version="1.0" standalone="no"?>
<!DOCTYPE svg PUBLIC "-//W3C//DTD SVG 1.1//EN" "http://www.w3.org/Graphics/SVG/1.1/DTD/svg11.dtd" >
<svg xmlns="http://www.w3.org/2000/svg" xmlns:xlink="http://www.w3.org/1999/xlink" version="1.1">
<metadata>
Created by FontForge 20201107 at Tue Mar 21 23:03:08 2023
 By 
Copyright 2022 The NT Somic project
</metadata>
<defs>
<font id="NTSomic-Bold" horiz-adv-x="550" >
  <font-face 
    font-family="NT Somic Bd"
    font-weight="400"
    font-stretch="normal"
    units-per-em="1000"
    panose-1="0 0 0 0 0 0 0 0 0 0"
    ascent="800"
    descent="-200"
    x-height="500"
    cap-height="700"
    bbox="-107 -239 1167 1022"
    underline-thickness="50"
    underline-position="-125"
    unicode-range="U+000A-20BD"
  />
<missing-glyph horiz-adv-x="938" 
d="M311 187q-10 -17 -17.5 -35t-7.5 -40q0 -26 11.5 -49t33.5 -40t53 -27t71 -10q45 0 82 14t64 38.5t41.5 59t14.5 76.5h-125q0 -25 -17 -42t-44 -17q-25 0 -39 14t-14 34q0 23 17 35.5t38 12.5h184v116h-201l-24 -86h-9v145h-128v-166h117v-9zM545 546q0 -12 -13.5 -18.5
t-29 -14.5t-29 -21t-13.5 -39q0 -45 43.5 -67t119.5 -22h34v111h-25q-20 0 -32.5 10t-12.5 25t12 25.5t26.5 22t26.5 25.5t12 36q0 15 -7 30.5t-22 28t-38.5 20.5t-57.5 8q-25 0 -46 -5t-41 -17l-29 -104h-8v117h-120v-274h128v58q0 49 21.5 75.5t53.5 26.5q25 0 36 -13
t11 -24zM106 624q0 128 66 192t187 64h220q121 0 187 -64t66 -192v-548q0 -128 -66 -192t-187 -64h-220q-121 0 -187 64t-66 192v548z" />
    <glyph glyph-name="uni04570457" unicode="&#x457;&#x457;" horiz-adv-x="492" 
d="M60 500h126v-500h-126v500zM306 500h126v-500h-126v500zM451 661q0 31 21.5 52.5t52.5 21.5t52.5 -21.5t21.5 -52.5t-21.5 -52.5t-52.5 -21.5t-52.5 21.5t-21.5 52.5zM265 661q0 31 21.5 52.5t52.5 21.5t52.5 -21.5t21.5 -52.5t-21.5 -52.5t-52.5 -21.5t-52.5 21.5
t-21.5 52.5zM79 661q0 31 21.5 52.5t52.5 21.5t52.5 -21.5t21.5 -52.5t-21.5 -52.5t-52.5 -21.5t-52.5 21.5t-21.5 52.5zM-107 661q0 31 21.5 52.5t52.5 21.5t52.5 -21.5t21.5 -52.5t-21.5 -52.5t-52.5 -21.5t-52.5 21.5t-21.5 52.5z" />
    <glyph glyph-name="uni04070407" unicode="&#x407;&#x407;" horiz-adv-x="596" 
d="M78 700h142v-700h-142v700zM376 700h142v-700h-142v700zM-85 855q0 -32 22.5 -54t54.5 -22t54.5 22t22.5 54t-22.5 54t-54.5 22t-54.5 -22t-22.5 -54zM119 855q0 -32 22.5 -54t54.5 -22t54.5 22t22.5 54t-22.5 54t-54.5 22t-54.5 -22t-22.5 -54zM323 855q0 -32 22.5 -54
t54.5 -22t54.5 22t22.5 54t-22.5 54t-54.5 22t-54.5 -22t-22.5 -54zM527 855q0 -32 22.5 -54t54.5 -22t54.5 22t22.5 54t-22.5 54t-54.5 22t-54.5 -22t-22.5 -54z" />
    <glyph glyph-name="uni04560457" unicode="&#x456;&#x457;" horiz-adv-x="508" 
d="M60 500h128v-500h-128v500zM308 500h128v-500h-128v500zM46 660q0 31 21.5 52.5t52.5 21.5t52.5 -21.5t21.5 -52.5t-21.5 -52.5t-52.5 -21.5t-52.5 21.5t-21.5 52.5zM228 660q0 31 21.5 52.5t52.5 21.5t52.5 -21.5t21.5 -52.5t-21.5 -52.5t-52.5 -21.5t-52.5 21.5
t-21.5 52.5zM410 660q0 31 21.5 52.5t52.5 21.5t52.5 -21.5t21.5 -52.5t-21.5 -52.5t-52.5 -21.5t-52.5 21.5t-21.5 52.5z" />
    <glyph glyph-name=".notdef" horiz-adv-x="938" 
d="M311 187q-10 -17 -17.5 -35t-7.5 -40q0 -26 11.5 -49t33.5 -40t53 -27t71 -10q45 0 82 14t64 38.5t41.5 59t14.5 76.5h-125q0 -25 -17 -42t-44 -17q-25 0 -39 14t-14 34q0 23 17 35.5t38 12.5h184v116h-201l-24 -86h-9v145h-128v-166h117v-9zM545 546q0 -12 -13.5 -18.5
t-29 -14.5t-29 -21t-13.5 -39q0 -45 43.5 -67t119.5 -22h34v111h-25q-20 0 -32.5 10t-12.5 25t12 25.5t26.5 22t26.5 25.5t12 36q0 15 -7 30.5t-22 28t-38.5 20.5t-57.5 8q-25 0 -46 -5t-41 -17l-29 -104h-8v117h-120v-274h128v58q0 49 21.5 75.5t53.5 26.5q25 0 36 -13
t11 -24zM106 624q0 128 66 192t187 64h220q121 0 187 -64t66 -192v-548q0 -128 -66 -192t-187 -64h-220q-121 0 -187 64t-66 192v548z" />
    <glyph glyph-name=".null" horiz-adv-x="0" 
 />
    <glyph glyph-name=".null" horiz-adv-x="0" 
 />
    <glyph glyph-name="uni000D" unicode="&#xd;" horiz-adv-x="0" 
 />
    <glyph glyph-name="uni000A" unicode="&#xa;" horiz-adv-x="333" 
 />
    <glyph glyph-name="space" unicode=" " horiz-adv-x="260" 
 />
    <glyph glyph-name="exclam" unicode="!" horiz-adv-x="260" 
d="M50 71q0 34 23.5 56.5t56.5 22.5t56.5 -22.5t23.5 -56.5t-23.5 -56.5t-56.5 -22.5t-56.5 22.5t-23.5 56.5zM59 700h142l-6 -494h-130z" />
    <glyph glyph-name="quotedbl" unicode="&#x22;" horiz-adv-x="412" 
d="M54 700h110l-11 -298h-88zM248 700h110l-11 -298h-88z" />
    <glyph glyph-name="numbersign" unicode="#" horiz-adv-x="668" 
d="M385 288l21 130h-124l-22 -130h125zM24 190v98h127l21 130h-114v98h131l31 188l107 -15l-29 -173h125l31 188l107 -15l-29 -173h114v-98h-130l-22 -130h117v-98h-133l-33 -196l-107 15l30 181h-124l-33 -196l-107 15l30 181h-110z" />
    <glyph glyph-name="dollar" unicode="$" horiz-adv-x="652" 
d="M395 -100h-130v90q-78 13 -137 55.5t-94 118.5l114 65q28 -61 77.5 -90t110.5 -29q58 0 95 23t37 63q0 35 -29.5 53.5t-74 32t-96.5 26.5t-96.5 35.5t-74 60.5t-29.5 101q0 41 14 75.5t39.5 61.5t62 45t81.5 25v88h130v-91q69 -13 122.5 -51t86.5 -99l-115 -70
q-24 51 -66.5 78t-97.5 27t-85 -24t-30 -56q0 -24 17.5 -39t45.5 -25.5t64 -19t74 -19t74 -25t64 -38t45.5 -58t17.5 -83.5q0 -89 -58.5 -147t-158.5 -72v-88z" />
    <glyph glyph-name="percent" unicode="%" horiz-adv-x="841" 
d="M215 -22l487 702l-75 49l-487 -702zM210 354q-38 0 -69 14t-52.5 38t-33 57t-11.5 70q0 38 11.5 70.5t33 56.5t52.5 38t69 14t69 -14t52.5 -38t33 -56.5t11.5 -70.5q0 -37 -11.5 -70t-33 -57t-52.5 -38t-69 -14zM210 450q30 0 48 22.5t18 60.5t-18 60.5t-48 22.5
t-48 -22.5t-18 -60.5t18 -60.5t48 -22.5zM631 -12q-38 0 -69 14t-52.5 38t-33 57t-11.5 70q0 38 11.5 70.5t33 56.5t52.5 38t69 14t69 -14t52.5 -38t33 -56.5t11.5 -70.5q0 -37 -11.5 -70t-33 -57t-52.5 -38t-69 -14zM631 84q30 0 48 22.5t18 60.5t-18 60.5t-48 22.5
t-48 -22.5t-18 -60.5t18 -60.5t48 -22.5z" />
    <glyph glyph-name="ampersand" unicode="&#x26;" horiz-adv-x="701" 
d="M253 309q-35 -18 -57 -41.5t-22 -59.5q0 -45 35.5 -74t95.5 -29q31 0 58.5 8.5t51.5 23.5zM286 437q23 10 42.5 20.5t33.5 22.5t22.5 27t8.5 33q0 32 -22.5 50t-56.5 18q-36 0 -57.5 -21t-21.5 -55q0 -23 11.5 -44t39.5 -51zM317 714q51 0 88 -15t61.5 -40t36.5 -57
t12 -66q0 -37 -12.5 -64.5t-33.5 -48.5t-48.5 -36.5t-57.5 -28.5l134 -136q17 25 30.5 53t25.5 59l107 -45q-35 -90 -79 -153l75 -76l-90 -83l-67 71q-84 -62 -199 -62q-64 0 -113.5 17t-82.5 46.5t-50 68.5t-17 83q0 37 11.5 65.5t31 51t45 40t53.5 31.5q-26 31 -45.5 69.5
t-19.5 80.5q0 32 13 63.5t38.5 56.5t63.5 40t89 15z" />
    <glyph glyph-name="quotesingle" unicode="'" horiz-adv-x="218" 
d="M54 700h110l-11 -298h-88z" />
    <glyph glyph-name="parenleft" unicode="(" horiz-adv-x="308" 
d="M46 289q0 65 11.5 129.5t32 125.5t50 115.5t65.5 100.5l99 -76q-63 -84 -96.5 -186.5t-33.5 -208.5t33.5 -208.5t96.5 -186.5l-99 -76q-36 46 -65.5 100.5t-50 115.5t-32 125.5t-11.5 129.5z" />
    <glyph glyph-name="parenright" unicode=")" horiz-adv-x="308" 
d="M262 289q0 -65 -11 -129.5t-31.5 -125.5t-49.5 -115.5t-65 -100.5l-101 76q63 85 96.5 186.5t33.5 208.5q0 106 -33.5 208.5t-96.5 186.5l101 76q36 -46 65 -100.5t49.5 -115.5t31.5 -125.5t11 -129.5z" />
    <glyph glyph-name="asterisk" unicode="*" horiz-adv-x="436" 
d="M345 438l-92 71l7 -120h-84l7 120l-92 -71l-48 69l106 60l-106 59l48 69l92 -71l-7 119h84l-7 -119l92 71l48 -69l-106 -59l106 -60z" />
    <glyph glyph-name="plus" unicode="+" horiz-adv-x="546" 
d="M30 421h180v194h126v-194h180v-116h-180v-194h-126v194h-180v116z" />
    <glyph glyph-name="comma" unicode="," horiz-adv-x="268" 
d="M50 72q0 34 22.5 56t57.5 22q40 0 64 -30.5t24 -81.5q0 -108 -113 -215l-55 53q33 33 51.5 59.5t28.5 56.5q-35 0 -57.5 22.5t-22.5 57.5z" />
    <glyph glyph-name="hyphen" unicode="-" horiz-adv-x="357" 
d="M46 321h265v-108h-265v108z" />
    <glyph glyph-name="period" unicode="." horiz-adv-x="260" 
d="M50 71q0 34 23.5 56.5t56.5 22.5t56.5 -22.5t23.5 -56.5t-23.5 -56.5t-56.5 -22.5t-56.5 22.5t-23.5 56.5z" />
    <glyph glyph-name="slash" unicode="/" horiz-adv-x="479" 
d="M18 -151l314 923l130 -38l-314 -923z" />
    <glyph glyph-name="zero" unicode="0" horiz-adv-x="697" 
d="M649 350q0 -83 -21.5 -150.5t-61 -115.5t-95 -74t-123.5 -26t-123.5 26t-94.5 74t-60.5 115.5t-21.5 150.5t21.5 150.5t60.5 115.5t94.5 74t123.5 26t123.5 -26t95 -74t61 -115.5t21.5 -150.5zM188 350q0 -109 42.5 -171.5t117.5 -62.5q76 0 118.5 62.5t42.5 171.5
t-42.5 171.5t-118.5 62.5q-75 0 -117.5 -62.5t-42.5 -171.5z" />
    <glyph glyph-name="one" unicode="1" horiz-adv-x="423" 
d="M207 0v545l-129 -88l-66 112l193 131h140v-700h-138z" />
    <glyph glyph-name="two" unicode="2" horiz-adv-x="573" 
d="M30 0v129l270 223q48 40 71 74t23 69q0 44 -31 70.5t-82 26.5q-50 0 -88 -26t-58 -74l-115 57q44 84 108 125.5t157 41.5q56 0 102 -15t78 -43.5t49.5 -68.5t17.5 -91q0 -30 -7 -57t-25 -55.5t-48 -59.5t-76 -69l-158 -131h317v-126h-505z" />
    <glyph glyph-name="three" unicode="3" horiz-adv-x="612" 
d="M304 -16q-104 0 -175 46t-109 137l118 55q23 -58 65 -85t100 -27q60 0 96.5 26t36.5 76q0 41 -27 63t-81 22h-129v124h127q43 0 68 22t25 58q0 42 -33 66.5t-85 24.5q-47 0 -84.5 -22.5t-60.5 -72.5l-114 58q79 161 266 161q56 0 101.5 -14.5t78.5 -40.5t51 -63.5
t18 -83.5q0 -56 -26.5 -95t-74.5 -57q57 -20 87.5 -62.5t30.5 -103.5q0 -49 -20 -88t-56 -66.5t-85.5 -42.5t-108.5 -15z" />
    <glyph glyph-name="four" unicode="4" horiz-adv-x="651" 
d="M162 274h215v272zM377 0v156h-339v142l317 402h152v-426h96v-118h-96v-156h-130z" />
    <glyph glyph-name="five" unicode="5" horiz-adv-x="609" 
d="M289 -16q-93 0 -159 39.5t-102 117.5l116 58q20 -44 57.5 -67.5t86.5 -23.5q30 0 55 9t43 25t28.5 39.5t10.5 51.5q0 52 -34 87t-102 35q-80 0 -119 -57l-104 53l20 349h439v-122h-326l-8 -142q23 16 55 24.5t71 8.5q55 0 100 -17t77 -48t49.5 -75.5t17.5 -99.5
q0 -61 -21.5 -107t-58.5 -77t-86.5 -46t-105.5 -15z" />
    <glyph glyph-name="six" unicode="6" horiz-adv-x="627" 
d="M328 108q54 0 89.5 31.5t35.5 87.5q0 55 -35.5 86.5t-89.5 31.5q-27 0 -50 -8t-40 -23t-26.5 -37t-9.5 -49q0 -56 36 -88t90 -32zM328 -16q-65 0 -117 23t-88 69t-55.5 114.5t-19.5 159.5q0 174 76 270t218 96q81 0 141 -33t98 -101l-106 -72q-18 40 -52.5 61t-81.5 21
t-78.5 -18t-51 -48t-27.5 -68.5t-8 -79.5q30 40 76 60.5t103 20.5q52 0 95 -17t74 -47.5t48 -73.5t17 -94q0 -54 -19.5 -99t-54 -77t-82.5 -49.5t-105 -17.5z" />
    <glyph glyph-name="seven" unicode="7" horiz-adv-x="544" 
d="M377 570h-349v130h498v-130l-276 -570h-148z" />
    <glyph glyph-name="eight" unicode="8" horiz-adv-x="612" 
d="M306 104q60 0 94 27t34 73t-34 73t-94 27t-94 -27t-34 -73t34 -73t94 -27zM306 412q52 0 81.5 25.5t29.5 67.5t-29.5 67.5t-81.5 25.5t-81.5 -25.5t-29.5 -67.5t29.5 -67.5t81.5 -25.5zM306 -16q-59 0 -108 15t-84.5 42t-55.5 65.5t-20 86.5q0 60 30 102.5t83 65.5
q-48 25 -72 64.5t-24 90.5q0 45 18.5 81.5t51.5 63t79.5 41t101.5 14.5q56 0 102 -14.5t79 -41t51.5 -63t18.5 -81.5q0 -51 -24 -90.5t-72 -64.5q53 -23 83 -65.5t30 -102.5q0 -48 -20 -86.5t-55.5 -65.5t-84.5 -42t-108 -15z" />
    <glyph glyph-name="nine" unicode="9" horiz-adv-x="627" 
d="M299.02 592.007q-53.9961 0 -89.4941 -31.498t-35.498 -87.4951q0 -54.9961 35.498 -86.4941t89.4941 -31.498q26.999 0 49.9971 7.99902q22.999 8 39.998 22.999t26.498 36.9971q9.5 21.999 9.5 48.9971q0 55.9971 -35.998 87.9951t-89.9951 31.998zM299.02 715.999
q64.9961 0 116.993 -22.999q51.9971 -22.998 87.9951 -68.9951q35.9971 -45.9971 55.4961 -114.493t19.499 -159.49q0 -173.989 -75.9951 -269.983q-75.9961 -95.9941 -217.987 -95.9941q-80.9951 0 -140.991 32.998t-97.9941 100.993l105.994 71.9961
q17.999 -39.998 52.4961 -60.9961q34.498 -20.999 81.4951 -20.999t78.4951 17.999t50.9971 47.9971t27.499 68.4961q7.99902 38.4971 7.99902 79.4951q-29.998 -39.998 -75.9951 -60.4971q-45.9971 -20.498 -102.994 -20.498q-51.9971 0 -94.9941 16.999t-73.9951 47.4971
t-47.9971 73.4951t-16.999 93.9941q0 53.9971 19.499 98.9941q19.498 44.9971 53.9961 76.9951t82.4951 49.4971t104.993 17.499z" />
    <glyph glyph-name="colon" unicode=":" horiz-adv-x="284" 
d="M58 471q0 34 23.5 56.5t56.5 22.5t56.5 -22.5t23.5 -56.5t-23.5 -56.5t-56.5 -22.5t-56.5 22.5t-23.5 56.5zM58 71q0 34 23.5 56.5t56.5 22.5t56.5 -22.5t23.5 -56.5t-23.5 -56.5t-56.5 -22.5t-56.5 22.5t-23.5 56.5z" />
    <glyph glyph-name="semicolon" unicode=";" horiz-adv-x="284" 
d="M58 471q0 34 23.5 56.5t56.5 22.5t56.5 -22.5t23.5 -56.5t-23.5 -56.5t-56.5 -22.5t-56.5 22.5t-23.5 56.5zM58 72q0 34 22.5 56t57.5 22q40 0 64 -30.5t24 -81.5q0 -108 -113 -215l-55 53q33 33 51.5 59.5t28.5 56.5q-35 0 -57.5 22.5t-22.5 57.5z" />
    <glyph glyph-name="less" unicode="&#x3c;" horiz-adv-x="535" 
d="M54 294v122l406 200l45 -112l-317 -147l317 -151l-45 -116z" />
    <glyph glyph-name="equal" unicode="=" horiz-adv-x="572" 
d="M46 276h480v-112h-480v112zM46 496h480v-112h-480v112z" />
    <glyph glyph-name="greater" unicode="&#x3e;" horiz-adv-x="535" 
d="M481 294l-406 -204l-45 116l317 151l-317 147l45 112l406 -200v-122z" />
    <glyph glyph-name="question" unicode="?" horiz-adv-x="608" 
d="M202 71q0 34 23.5 56.5t56.5 22.5t56.5 -22.5t23.5 -56.5t-23.5 -56.5t-56.5 -22.5t-56.5 22.5t-23.5 56.5zM219 232q0 48 14.5 80t36 55t47 39t47 31.5t36 33.5t14.5 44q0 38 -31.5 59.5t-81.5 21.5q-51 0 -91 -23.5t-63 -70.5l-107 62q37 72 103.5 112t161.5 40
q56 0 101 -14t77 -40.5t49.5 -63.5t17.5 -83q0 -44 -15 -73t-37 -49.5t-48.5 -36.5t-48.5 -33.5t-37 -40.5t-15 -58v-18h-130v26z" />
    <glyph glyph-name="at" unicode="@" horiz-adv-x="913" 
d="M357 282q0 -48 27.5 -75.5t70.5 -27.5t71 27.5t28 75.5t-28 75.5t-71 27.5t-70.5 -27.5t-27.5 -75.5zM249 281q0 44 14.5 81t39 64t58 42t71.5 15q42 0 72.5 -18.5t49.5 -50.5v63h108v-203q0 -38 12 -58t34 -20q49 0 49 96q0 65 -22 119.5t-61.5 93.5t-94 61t-118.5 22
q-66 0 -121 -23t-94.5 -64.5t-61.5 -98t-22 -123.5q0 -68 22.5 -124.5t62.5 -97t95 -63t120 -22.5q66 0 123.5 22.5t96.5 63.5l69 -88q-52 -53 -125 -81.5t-161 -28.5q-92 0 -168.5 31.5t-132 87.5t-86 133t-30.5 167q0 91 31 168t86 133.5t131 88t165 31.5q87 0 161 -30
t128 -83t84.5 -125.5t30.5 -158.5q0 -101 -42.5 -155t-117.5 -54q-95 0 -129 86q-19 -47 -55.5 -73t-87.5 -26q-38 0 -71.5 14.5t-58.5 41t-39.5 63.5t-14.5 81z" />
    <glyph glyph-name="A" unicode="A" horiz-adv-x="690" 
d="M256 274h174l-87 261zM419 700l253 -700h-150l-50 150h-258l-50 -150h-146l253 700h148z" />
    <glyph glyph-name="B" unicode="B" horiz-adv-x="651" 
d="M216 300v-178h161q43 0 69.5 24t26.5 65t-26.5 65t-69.5 24h-161zM216 418h144q37 0 61 22t24 58t-24 58t-61 22h-144v-160zM78 700h295q47 0 86.5 -12.5t68 -36.5t44 -57.5t15.5 -75.5q0 -54 -26 -93t-74 -58q64 -19 96 -62.5t32 -107.5q0 -44 -15.5 -80t-44.5 -62
t-71.5 -40.5t-95.5 -14.5h-310v700z" />
    <glyph glyph-name="C" unicode="C" horiz-adv-x="760" 
d="M413 -16q-81 0 -148 27.5t-115 76.5t-75 116t-27 146t27 146t75 116t115 76.5t148 27.5q112 0 195.5 -53t123.5 -148l-125 -63q-24 63 -74.5 96.5t-119.5 33.5q-48 0 -88.5 -17t-69.5 -48t-45 -73.5t-16 -93.5t16 -93.5t45 -73.5t69.5 -48t88.5 -17q69 0 119.5 33.5
t74.5 96.5l125 -63q-40 -95 -123.5 -148t-195.5 -53z" />
    <glyph glyph-name="D" unicode="D" horiz-adv-x="735" 
d="M78 700h260q76 0 140 -26.5t110.5 -73.5t72.5 -111t26 -139t-26 -139t-72.5 -111t-110.5 -73.5t-140 -26.5h-260v700zM220 570v-440h101q51 0 91.5 16t69 45t44 69.5t15.5 89.5t-15.5 89.5t-44 69.5t-69 45t-91.5 16h-101z" />
    <glyph glyph-name="E" unicode="E" horiz-adv-x="588" 
d="M78 700h462v-130h-320v-142h280v-130h-280v-168h320v-130h-462v700z" />
    <glyph glyph-name="F" unicode="F" horiz-adv-x="588" 
d="M78 700h462v-130h-320v-154h280v-130h-280v-286h-142v700z" />
    <glyph glyph-name="G" unicode="G" horiz-adv-x="802" 
d="M754 322q0 -78 -24 -140.5t-67.5 -106.5t-105.5 -67.5t-138 -23.5q-84 0 -152 28t-117 77t-75.5 116t-26.5 146q0 78 26.5 145t74.5 116t115 76.5t149 27.5q107 0 188.5 -46.5t123.5 -130.5l-120 -73q-29 58 -78 89t-115 31q-50 0 -91 -17.5t-70 -49t-45 -75t-16 -94.5
q0 -50 15.5 -93.5t45 -75t72 -49.5t96.5 -18q78 0 128.5 38t62.5 109h-256v126h396q2 -20 3 -35.5t1 -29.5z" />
    <glyph glyph-name="H" unicode="H" horiz-adv-x="744" 
d="M78 700h142v-264h304v264h142v-700h-142v306h-304v-306h-142v700z" />
    <glyph glyph-name="I" unicode="I" horiz-adv-x="298" 
d="M78 700h142v-700h-142v700z" />
    <glyph glyph-name="J" unicode="J" horiz-adv-x="626" 
d="M300 122q50 0 79 31.5t29 85.5v461h142v-466q0 -56 -17.5 -102t-50.5 -78.5t-79 -50t-103 -17.5t-103 17.5t-79 50t-50.5 78.5t-17.5 102v26l142 14v-35q0 -54 29 -85.5t79 -31.5z" />
    <glyph glyph-name="K" unicode="K" horiz-adv-x="692" 
d="M322 323l-102 -116v-207h-142v700h142v-307l261 307h174l-244 -276l263 -424h-160z" />
    <glyph glyph-name="L" unicode="L" horiz-adv-x="576" 
d="M78 700h142v-570h320v-130h-462v700z" />
    <glyph glyph-name="M" unicode="M" horiz-adv-x="914" 
d="M459 271l201 429h176v-700h-136v497l-198 -404h-90l-198 404v-497h-136v700h180z" />
    <glyph glyph-name="N" unicode="N" horiz-adv-x="751" 
d="M78 700h148l313 -482v482h134v-700h-148l-313 482v-482h-134v700z" />
    <glyph glyph-name="O" unicode="O" horiz-adv-x="828" 
d="M415 -16q-81 0 -148 27.5t-116 76.5t-76 116t-27 146t27 146t76 116t116 76.5t148 27.5q80 0 147 -27.5t115.5 -76.5t75.5 -116t27 -146t-27 -146t-75.5 -116t-115.5 -76.5t-147 -27.5zM417 118q48 0 87.5 17.5t68.5 49t45 74t16 93.5q0 49 -16 91t-45 73t-68.5 48.5
t-87.5 17.5q-50 0 -91 -17.5t-70.5 -48.5t-45.5 -73t-16 -91q0 -51 16 -93.5t45.5 -74t70.5 -49t91 -17.5z" />
    <glyph glyph-name="P" unicode="P" horiz-adv-x="639" 
d="M216 360h136q50 0 79.5 30t29.5 77t-29.5 77t-79.5 30h-136v-214zM78 0v700h282q54 0 98.5 -16.5t77 -47.5t50 -73.5t17.5 -95.5t-17.5 -96t-50 -73.5t-77 -47t-98.5 -16.5h-144v-234h-138z" />
    <glyph glyph-name="Q" unicode="Q" horiz-adv-x="840" 
d="M421 120q29 0 54.5 6.5t48.5 17.5l-87 101l89 77l83 -96q31 56 31 124q0 49 -16 91t-45 73t-69.5 48.5t-88.5 17.5q-49 0 -89.5 -17.5t-70 -48.5t-45.5 -73t-16 -91t16 -91t45.5 -73t70 -48.5t89.5 -17.5zM421 -16q-81 0 -148 27.5t-116 76.5t-76 116t-27 146t27 146
t76 116t116 76.5t148 27.5q80 0 147 -27.5t115.5 -76.5t75.5 -116t27 -146q0 -69 -21 -129t-59 -107l67 -78l-89 -77l-67 77q-42 -25 -91 -38.5t-105 -13.5z" />
    <glyph glyph-name="R" unicode="R" horiz-adv-x="660" 
d="M216 366h144q20 0 38.5 7t32.5 20t22 32t8 43t-8 43.5t-22 33.5t-32.5 21.5t-38.5 7.5h-144v-208zM336 240h-120v-240h-138v700h284q54 0 98.5 -16.5t76 -46.5t49 -73t17.5 -96q0 -75 -34.5 -128t-94.5 -79l168 -261h-156z" />
    <glyph glyph-name="S" unicode="S" horiz-adv-x="650" 
d="M333 -16q-221 0 -307 192l122 60q29 -60 75 -92t113 -32q58 0 96 23t38 62q0 35 -30.5 54t-76 32t-98.5 26t-98.5 35.5t-76 60.5t-30.5 101q0 47 18.5 85.5t52 66.5t81.5 43t108 15q96 0 170 -41t117 -124l-119 -62q-23 48 -66 74.5t-101 26.5q-57 0 -88 -23t-31 -53
q0 -31 30.5 -48t76.5 -29t99 -25t99 -36.5t76.5 -63t30.5 -105.5q0 -51 -19.5 -92t-56.5 -70.5t-88.5 -45t-116.5 -15.5z" />
    <glyph glyph-name="T" unicode="T" horiz-adv-x="628" 
d="M592 700v-130h-204v-570h-148v570h-204v130h556z" />
    <glyph glyph-name="U" unicode="U" horiz-adv-x="734" 
d="M367 -16q-63 0 -116 19t-92 55.5t-61 90.5t-22 124v427h142v-416q0 -83 40.5 -124.5t109.5 -41.5q67 0 107.5 41.5t40.5 124.5v416h142v-427q0 -70 -22 -124t-61 -90.5t-92 -55.5t-116 -19z" />
    <glyph glyph-name="V" unicode="V" horiz-adv-x="690" 
d="M269 0l-251 700h156l173 -523l173 523h152l-251 -700h-152z" />
    <glyph glyph-name="W" unicode="W" horiz-adv-x="1022" 
d="M213 0l-195 700h157l127 -485l130 485h160l131 -484l126 484h155l-195 -700h-156l-142 520l-142 -520h-156z" />
    <glyph glyph-name="X" unicode="X" horiz-adv-x="656" 
d="M18 0l218 361l-203 339h160l137 -238l137 238h156l-203 -339l218 -361h-166l-146 257l-146 -257h-162z" />
    <glyph glyph-name="Y" unicode="Y" horiz-adv-x="650" 
d="M254 0v274l-236 426h154l155 -304l155 304h150l-236 -426v-274h-142z" />
    <glyph glyph-name="Z" unicode="Z" horiz-adv-x="667" 
d="M79 700h530v-139l-391 -431h391v-130h-551v140l391 430h-370v130z" />
    <glyph glyph-name="bracketleft" unicode="[" horiz-adv-x="345" 
d="M66 750h253v-122h-125v-678h125v-122h-253v922z" />
    <glyph glyph-name="backslash" unicode="\" horiz-adv-x="479" 
d="M461.001 -151l-313.98 923l-129.992 -38l313.98 -923z" />
    <glyph glyph-name="bracketright" unicode="]" horiz-adv-x="345" 
d="M26 -172v122h125v678h-125v122h253v-922h-253z" />
    <glyph glyph-name="asciicircum" unicode="^" horiz-adv-x="574" 
d="M434 264l-147 308l-147 -308h-122l208 436h122l208 -436h-122z" />
    <glyph glyph-name="underscore" unicode="_" horiz-adv-x="567" 
d="M43 -19h481v-120h-481v120z" />
    <glyph glyph-name="grave" unicode="`" horiz-adv-x="292" 
d="M38 750h146l96 -168h-120z" />
    <glyph glyph-name="a" unicode="a" 
d="M366 221l-85 -4q-70 -3 -96.5 -22.5t-26.5 -45.5q0 -27 22 -43t58 -16q56 0 92 35.5t36 94.5v1zM366 0v69q-54 -83 -163 -83q-41 0 -73 12t-53.5 33t-33 49t-11.5 60q0 74 57 118.5t170 48.5l107 4v4q0 42 -27.5 68.5t-76.5 26.5q-82 0 -116 -73l-100 50q28 60 83 93.5
t137 33.5q106 0 165 -55t59 -151v-308h-124z" />
    <glyph glyph-name="b" unicode="b" horiz-adv-x="624" 
d="M322 106q29 0 53.5 11t42.5 30t28 46t10 58q0 32 -10 58t-28 45t-42.5 29.5t-53.5 10.5t-53.5 -10.5t-42.5 -29.5t-28 -45t-10 -58q0 -31 10 -58t28 -46t42.5 -30t53.5 -11zM357 -14q-57 0 -99.5 24.5t-69.5 66.5v-77h-128v722h128v-299q27 42 69.5 66.5t99.5 24.5
q51 0 93.5 -20t73 -55.5t47.5 -83.5t17 -105t-17 -105t-47.5 -83.5t-73 -55.5t-93.5 -20z" />
    <glyph glyph-name="c" unicode="c" horiz-adv-x="566" 
d="M302 -14q-58 0 -107 19.5t-84 54.5t-55 83.5t-20 106.5t20 106.5t55 83.5t84 54.5t107 19.5q83 0 144 -39t90 -109l-113 -56q-17 41 -48 62.5t-73 21.5q-30 0 -54.5 -10.5t-42 -30t-27.5 -45.5t-10 -58q0 -31 10 -57.5t27.5 -46t42 -30t54.5 -10.5q42 0 73 21.5t48 62.5
l113 -56q-29 -70 -90 -109t-144 -39z" />
    <glyph glyph-name="d" unicode="d" horiz-adv-x="624" 
d="M302 106q29 0 53.5 11t42.5 30t28 46t10 58q0 32 -10 58t-28 45t-42.5 29.5t-53.5 10.5t-53.5 -10.5t-42.5 -29.5t-28 -45t-10 -58q0 -31 10 -58t28 -46t42.5 -30t53.5 -11zM267 -14q-51 0 -93.5 20t-73 55.5t-47.5 83.5t-17 105t17 105t47.5 83.5t73 55.5t93.5 20
q57 0 99.5 -24.5t69.5 -66.5v299h128v-722h-128v77q-27 -42 -69.5 -66.5t-99.5 -24.5z" />
    <glyph glyph-name="e" unicode="e" horiz-adv-x="585" 
d="M167 306h252q-8 46 -39.5 73t-80.5 27q-50 0 -84.5 -27t-47.5 -73zM306 -14q-60 0 -109.5 19.5t-85.5 54.5t-55.5 84t-19.5 107q0 59 20 107.5t55 83t84 53.5t106 19q56 0 101.5 -18t78 -51t50.5 -78.5t18 -100.5q0 -11 -1 -24t-3 -28h-381q11 -53 48 -84.5t95 -31.5
q42 0 75 17.5t53 52.5l91 -72q-38 -54 -93.5 -82t-126.5 -28z" />
    <glyph glyph-name="f" unicode="f" horiz-adv-x="376" 
d="M222 500h126v-116h-126v-384h-128v384h-80v116h80v16q0 212 206 212h44v-118h-34q-48 0 -68 -22.5t-20 -74.5v-13z" />
    <glyph glyph-name="g" unicode="g" horiz-adv-x="546" 
d="M169 339q0 -32 26.5 -53t71.5 -21t71 21t26 53t-26 53t-71 21t-71.5 -21t-26.5 -53zM142 -55q0 -26 32.5 -40t90.5 -14q63 0 102 16t39 43q0 25 -33.5 37.5t-95.5 12.5q-65 0 -100 -14t-35 -41zM453 433q29 -41 29 -94q0 -38 -15.5 -70t-43.5 -55.5t-68 -36.5t-88 -13
q-40 0 -76 9q-18 -11 -18 -30t24 -28t84 -10q125 -1 191 -39.5t66 -111.5q0 -39 -19 -70.5t-55 -53t-87 -33t-115 -11.5q-116 0 -178 36.5t-62 105.5q0 43 24 73t69 44q-44 34 -44 81q0 24 11 43.5t32 40.5q-29 21 -46 53t-17 76q0 38 15.5 70.5t43.5 55.5t68 36t89 13
q70 0 120 -26l76 81l66 -64z" />
    <glyph glyph-name="h" unicode="h" horiz-adv-x="575" 
d="M60 0v722h128v-288q47 80 144 80q41 0 75 -14t58.5 -40t38 -61.5t13.5 -79.5v-319h-128v283q0 53 -23.5 83t-69.5 30q-48 0 -78 -31t-30 -82v-283h-128z" />
    <glyph glyph-name="i" unicode="i" horiz-adv-x="248" 
d="M60 500h128v-500h-128v500zM48 661q0 33 22.5 54.5t54.5 21.5t53.5 -21.5t21.5 -54.5t-21.5 -54.5t-53.5 -21.5t-54.5 21.5t-22.5 54.5z" />
    <glyph glyph-name="j" unicode="j" horiz-adv-x="248" 
d="M60 500h128v-497q0 -102 -50 -155.5t-146 -53.5h-36v122h20q48 0 66 26t18 77v481zM48 661q0 -33 22.5 -54.5t54.5 -21.5t53.5 21.5t21.5 54.5t-21.5 54.5t-53.5 21.5t-54.5 -21.5t-22.5 -54.5z" />
    <glyph glyph-name="k" unicode="k" horiz-adv-x="548" 
d="M367 500h157l-194 -201l202 -299h-144l-137 217l-63 -65v-152h-128v700h128v-392z" />
    <glyph glyph-name="l" unicode="l" horiz-adv-x="248" 
d="M60 0v722h128v-722h-128z" />
    <glyph glyph-name="m" unicode="m" horiz-adv-x="856" 
d="M60 0v500h128v-63q46 77 137 77q50 0 87 -23t57 -64q22 42 60 64.5t89 22.5q41 0 74 -14t56.5 -39t36.5 -60.5t13 -77.5v-323h-128v293q0 49 -22 76t-63 27q-42 0 -67 -27.5t-25 -75.5v-293h-128v293q0 49 -22 76t-63 27q-42 0 -67 -27.5t-25 -75.5v-293h-128z" />
    <glyph glyph-name="n" unicode="n" horiz-adv-x="575" 
d="M60 0v500h128v-66q47 80 144 80q41 0 75 -14t58.5 -40t38 -61.5t13.5 -79.5v-319h-128v283q0 53 -23.5 83t-69.5 30q-48 0 -78 -31t-30 -82v-283h-128z" />
    <glyph glyph-name="o" unicode="o" horiz-adv-x="604" 
d="M302 -14q-58 0 -107 20t-84.5 55t-55 83.5t-19.5 105.5t19.5 105.5t55 83.5t84.5 55t107 20q59 0 107.5 -20t84 -55t55 -83.5t19.5 -105.5t-19.5 -105.5t-55 -83.5t-84 -55t-107.5 -20zM302 106q29 0 53.5 10.5t42.5 30t28 46t10 57.5q0 32 -10 58t-28 45.5t-42.5 30
t-53.5 10.5t-53.5 -10.5t-42.5 -30t-28 -45.5t-10 -58q0 -31 10 -57.5t28 -46t42.5 -30t53.5 -10.5z" />
    <glyph glyph-name="p" unicode="p" horiz-adv-x="624" 
d="M322 106q29 0 53.5 11t42.5 30t28 46t10 58q0 32 -10 58t-28 45t-42.5 29.5t-53.5 10.5t-53.5 -10.5t-42.5 -29.5t-28 -45t-10 -58q0 -31 10 -58t28 -46t42.5 -30t53.5 -11zM357 -14q-57 0 -99.5 24.5t-69.5 66.5v-277h-128v700h128v-77q27 42 69.5 66.5t99.5 24.5
q51 0 93.5 -20t73 -55.5t47.5 -83.5t17 -105t-17 -105t-47.5 -83.5t-73 -55.5t-93.5 -20z" />
    <glyph glyph-name="q" unicode="q" horiz-adv-x="624" 
d="M302 106q29 0 53.5 11t42.5 30t28 46t10 58q0 32 -10 58t-28 45t-42.5 29.5t-53.5 10.5t-53.5 -10.5t-42.5 -29.5t-28 -45t-10 -58q0 -31 10 -58t28 -46t42.5 -30t53.5 -11zM267 -14q-51 0 -93.5 20t-73 55.5t-47.5 83.5t-17 105t17 105t47.5 83.5t73 55.5t93.5 20
q57 0 99.5 -24.5t69.5 -66.5v77h128v-700h-128v277q-27 -42 -69.5 -66.5t-99.5 -24.5z" />
    <glyph glyph-name="r" unicode="r" horiz-adv-x="376" 
d="M356 506v-116h-29q-32 0 -57.5 -7t-43.5 -24t-28 -44.5t-10 -69.5v-245h-128v500h128v-75q41 81 136 81h32z" />
    <glyph glyph-name="s" unicode="s" horiz-adv-x="504" 
d="M259 -14q-81 0 -139.5 33t-91.5 99l94 59q43 -85 140 -85q40 0 64 13.5t24 36.5q0 22 -22 34t-55 21t-71 18t-71 26t-55 44.5t-22 73.5q0 69 52.5 112t148.5 43q150 0 212 -114l-95 -59q-17 33 -47.5 51t-71.5 18q-38 0 -58.5 -14t-20.5 -32q0 -20 22 -30.5t55.5 -19
t72.5 -17.5t72.5 -26t55.5 -45.5t22 -74.5q0 -37 -15.5 -67.5t-43.5 -52t-67.5 -33.5t-88.5 -12z" />
    <glyph glyph-name="t" unicode="t" horiz-adv-x="386" 
d="M226 216q0 -54 23 -77t75 -23h34v-122h-51q-108 0 -158.5 51.5t-50.5 160.5v178h-84v116h84v140h128v-140h128v-116h-128v-168z" />
    <glyph glyph-name="u" unicode="u" horiz-adv-x="575" 
d="M515.004 500v-499.97h-127.992v65.9961q-46.9971 -79.9951 -143.991 -79.9951q-40.998 0 -74.9961 13.999q-33.9971 13.999 -58.4961 39.998q-24.498 25.998 -37.998 61.4961q-13.499 35.498 -13.499 79.4951v318.98h127.992v-282.982q0 -52.9971 23.499 -82.9951
q23.498 -29.998 69.4951 -29.998q47.998 0 77.9961 30.998t29.998 81.9951v282.982h127.992z" />
    <glyph glyph-name="v" unicode="v" 
d="M208 0l-192 500h140l120 -341l120 341h138l-192 -500h-134z" />
    <glyph glyph-name="w" unicode="w" horiz-adv-x="818" 
d="M178 0l-156 500h132l95 -330l104 330h116l104 -330l95 330h128l-156 -500h-124l-107 336l-107 -336h-124z" />
    <glyph glyph-name="x" unicode="x" horiz-adv-x="540" 
d="M347 256l177 -256h-148l-108 173l-108 -173h-144l177 256l-167 244h144l102 -164l102 164h140z" />
    <glyph glyph-name="y" unicode="y" 
d="M215 5l-199 495h134l127 -344l123 344h134l-273 -700h-126z" />
    <glyph glyph-name="z" unicode="z" horiz-adv-x="491" 
d="M40 120l258 264h-246v116h397v-120l-258 -264h260v-116h-411v120z" />
    <glyph glyph-name="braceleft" unicode="{" horiz-adv-x="422" 
d="M396 -172h-42q-112 0 -165.5 55.5t-53.5 170.5v100q0 35 -20 55.5t-57 20.5h-14v118h14q37 0 57 20t20 55v100q0 115 53.5 171t165.5 56h42v-122h-36q-55 0 -76 -30t-21 -93v-106q0 -42 -24.5 -72t-64.5 -38q40 -8 64.5 -38t24.5 -72v-105q0 -63 21 -93.5t76 -30.5h36
v-122z" />
    <glyph glyph-name="bar" unicode="|" horiz-adv-x="304" 
d="M86 -172v922h132v-922h-132z" />
    <glyph glyph-name="braceright" unicode="}" horiz-adv-x="422" 
d="M26 -172v122h36q55 0 76 30.5t21 93.5v105q0 42 24.5 72t64.5 38q-40 8 -64.5 38t-24.5 72v106q0 63 -21 93t-76 30h-36v122h42q112 0 165.5 -56t53.5 -171v-100q0 -35 20 -55t57 -20h14v-118h-14q-37 0 -57 -20.5t-20 -55.5v-100q0 -115 -53.5 -170.5t-165.5 -55.5h-42z
" />
    <glyph glyph-name="asciitilde" unicode="~" horiz-adv-x="616" 
d="M34 315q34 59 78 84.5t94 25.5q35 0 60 -10.5t46 -23t41.5 -23t45.5 -10.5q31 0 57.5 17.5t37.5 43.5l88 -63q-34 -58 -77 -84t-94 -26q-35 0 -61 10.5t-48 23t-43.5 23t-48.5 10.5q-30 0 -52.5 -16.5t-36.5 -43.5z" />
    <glyph glyph-name="exclamdown" unicode="&#xa1;" horiz-adv-x="260" 
d="M50 429.004q0 -33.9971 23.5 -56.4961t56.5 -22.499t56.5 22.499t23.5 56.4961q0 33.998 -23.5 56.4971t-56.5 22.499t-56.5 -22.499t-23.5 -56.4971zM59 -199.957h142l-6 493.97h-130z" />
    <glyph glyph-name="cent" unicode="&#xa2;" horiz-adv-x="566" 
d="M366 -168h-126v160q-46 9 -83.5 32t-64.5 56.5t-41.5 76.5t-14.5 93t14.5 93t41.5 76.5t64.5 56.5t83.5 32v164h126v-165q60 -13 103.5 -49t66.5 -92l-113 -56q-17 41 -48 62.5t-73 21.5q-30 0 -54.5 -10.5t-42 -30t-27.5 -45.5t-10 -58q0 -31 10 -57.5t27.5 -46t42 -30
t54.5 -10.5q42 0 73 21.5t48 62.5l113 -56q-23 -56 -66.5 -92t-103.5 -49v-161z" />
    <glyph glyph-name="sterling" unicode="&#xa3;" horiz-adv-x="599" 
d="M28 278v112h67q-8 21 -13 44t-5 52q0 53 19 95.5t52.5 72.5t80.5 46t103 16q94 0 156.5 -44.5t91.5 -130.5l-121 -41q-14 45 -45 68.5t-81 23.5q-60 0 -91 -33t-31 -89q0 -21 4 -40.5t10 -39.5h243v-112h-217q1 -5 1 -10.5v-10.5q0 -41 -11.5 -72.5t-33.5 -56.5h376v-128
h-555v108q53 17 77.5 50.5t24.5 90.5q0 8 -0.5 15t-1.5 14h-100z" />
    <glyph glyph-name="yen" unicode="&#xa5;" horiz-adv-x="614" 
d="M67 261v96h143l-192 343h138l152 -303l152 303h136l-192 -343h143v-96h-182v-69h182v-96h-182v-96h-116v96h-182v96h182v69h-182z" />
    <glyph glyph-name="dieresis" unicode="&#xa8;" horiz-adv-x="430" 
d="M30 661q0 33 22 54.5t54 21.5t54 -21.5t22 -54.5t-22 -54.5t-54 -21.5t-54 21.5t-22 54.5zM250 661q0 33 22.5 54.5t54.5 21.5t53.5 -21.5t21.5 -54.5t-21.5 -54.5t-53.5 -21.5t-54.5 21.5t-22.5 54.5z" />
    <glyph glyph-name="copyright" unicode="&#xa9;" horiz-adv-x="928" 
d="M464 -30q66 0 121.5 23.5t95.5 65t62.5 98t22.5 123.5t-22.5 123.5t-62.5 98t-95.5 65t-121.5 23.5t-121.5 -23.5t-95.5 -65t-62.5 -98t-22.5 -123.5t22.5 -123.5t62.5 -98t95.5 -65t121.5 -23.5zM467 62q-47 0 -87 16t-69 45t-45 69t-16 88t16 88t45 69t69 45t87 16
q68 0 117 -32t75 -89l-100 -49q-26 62 -93 62q-45 0 -73.5 -31.5t-28.5 -78.5t28.5 -78.5t73.5 -31.5q67 0 93 62l100 -49q-26 -57 -75 -89t-117 -32zM464 670q84 0 154.5 -29.5t122 -81.5t80.5 -123.5t29 -155.5t-29 -155.5t-80.5 -123.5t-122 -81.5t-154.5 -29.5
t-154.5 29.5t-122 81.5t-80.5 123.5t-29 155.5t29 155.5t80.5 123.5t122 81.5t154.5 29.5z" />
    <glyph glyph-name="ordfeminine" unicode="&#xaa;" horiz-adv-x="318" 
d="M227 471l-56 -2q-60 -3 -60 -36q0 -17 12 -24.5t31 -7.5q32 0 52.5 19t20.5 48v3zM227 346v41q-30 -50 -93 -50q-45 0 -71.5 24t-26.5 63q0 45 34.5 70.5t97.5 27.5l59 2q-2 24 -18.5 37.5t-41.5 13.5q-44 0 -62 -38l-60 30q37 73 127 73q60 0 94 -32t34 -87v-175h-73z
" />
    <glyph glyph-name="guillemotleft" unicode="&#xab;" horiz-adv-x="615" 
d="M274 250l212 265l93 -68l-160 -197l160 -197l-93 -68zM32 250l212 265l93 -68l-160 -197l160 -197l-93 -68z" />
    <glyph glyph-name="macron" unicode="&#xaf;" horiz-adv-x="364" 
d="M30 696h304v-100h-304v100z" />
    <glyph glyph-name="plusminus" unicode="&#xb1;" horiz-adv-x="594" 
d="M54 498h182v196h122v-196h182v-112h-182v-196h-122v196h-182v112zM54 122h486v-114h-486v114z" />
    <glyph glyph-name="twosuperior" unicode="&#xb2;" horiz-adv-x="328" 
d="M27 324v73l141 120q47 41 47 70q0 21 -15 32.5t-38 11.5q-25 0 -44 -13.5t-29 -41.5l-73 37q25 48 61 72t87 24q63 0 100 -32t37 -87q0 -32 -19.5 -60t-69.5 -69l-69 -57h163v-80h-279z" />
    <glyph glyph-name="threesuperior" unicode="&#xb3;" horiz-adv-x="347" 
d="M176 315q-116 0 -160 104l75 37q22 -61 83 -61q26 0 45.5 12t19.5 37q0 36 -48 36h-73v75h72q18 0 29 9.5t11 25.5q0 19 -15 30t-39 11q-26 0 -45 -13t-29 -39l-73 37q22 46 60.5 69.5t90.5 23.5q60 0 98 -30t38 -78q0 -28 -13.5 -50t-36.5 -33q59 -25 59 -89
q0 -26 -11 -47t-31 -36t-47 -23t-60 -8z" />
    <glyph glyph-name="acute" unicode="&#xb4;" horiz-adv-x="276" 
d="M110 750h146l-116 -168h-120z" />
    <glyph glyph-name="uni00B5" unicode="&#xb5;" horiz-adv-x="635" 
d="M60 -200v700h128v-283q0 -53 23.5 -83t69.5 -30q48 0 78 31t30 82v283h128v-285q0 -54 18.5 -79.5t65.5 -25.5h14v-116h-27q-104 0 -145 75q-24 -40 -64.5 -61.5t-94.5 -21.5q-53 0 -96 23v-209h-128z" />
    <glyph glyph-name="periodcentered" unicode="&#xb7;" horiz-adv-x="260" 
d="M50 289q0 35 23.5 57.5t56.5 22.5t56.5 -22.5t23.5 -57.5t-23.5 -57.5t-56.5 -22.5t-56.5 22.5t-23.5 57.5z" />
    <glyph glyph-name="cedilla" unicode="&#xb8;" horiz-adv-x="313" 
d="M74 -215q-35 0 -64 9t-55 24l35 83q20 -15 39.5 -20.5t36.5 -5.5q35 0 53.5 19.5t18.5 49.5q0 31 -23 66l87 22q14 -23 22 -46.5t8 -52.5q0 -30 -10 -57t-29.5 -47t-49 -32t-69.5 -12z" />
    <glyph glyph-name="onesuperior" unicode="&#xb9;" horiz-adv-x="244" 
d="M104 324v275l-63 -43l-39 73l106 71h80v-376h-84z" />
    <glyph glyph-name="guillemotright" unicode="&#xbb;" horiz-adv-x="615" 
d="M341 250l-212 -265l-93 68l160 197l-160 197l93 68zM583 250l-212 -265l-93 68l160 197l-160 197l93 68z" />
    <glyph glyph-name="questiondown" unicode="&#xbf;" horiz-adv-x="605" 
d="M388.013 429.004q0 -33.9971 -23.499 -56.4961q-23.498 -22.499 -56.4961 -22.499t-56.4971 22.499q-23.498 22.499 -23.498 56.4961q0 33.998 23.498 56.4971q23.499 22.499 56.4971 22.499t56.4961 -22.499q23.499 -22.499 23.499 -56.4971zM371.014 268.014
q0 -47.9961 -14.499 -79.9941t-35.998 -54.9971t-46.9971 -38.998q-25.499 -15.999 -46.9971 -31.498q-21.499 -15.499 -35.998 -33.498q-14.499 -17.998 -14.499 -43.9971q0 -37.9971 31.498 -59.4961t81.4951 -21.499q50.9971 0 90.9941 23.499
q39.998 23.498 62.9961 70.4951l106.993 -61.9961q-36.9971 -71.9951 -103.493 -111.993q-66.4961 -39.9971 -161.49 -39.9971q-55.9961 0 -100.994 13.999q-44.9971 13.999 -76.9951 40.4971q-31.998 26.499 -49.4971 63.4961q-17.499 36.998 -17.499 82.9951
q0 43.9971 14.999 72.9961q14.999 28.998 36.998 49.4971q21.999 20.498 48.4971 36.4971t48.4971 33.498t36.998 40.498q14.999 22.998 14.999 57.9961v17.999h129.992v-25.999z" />
    <glyph glyph-name="Agrave" unicode="&#xc0;" horiz-adv-x="690" 
d="M256 274h174l-87 261zM419 700l253 -700h-150l-50 150h-258l-50 -150h-146l253 700h148zM277 782l-137 156h160l113 -156h-136z" />
    <glyph glyph-name="Aacute" unicode="&#xc1;" horiz-adv-x="690" 
d="M256 274h174l-87 261zM419 700l253 -700h-150l-50 150h-258l-50 -150h-146l253 700h148zM393 938h160l-137 -156h-136z" />
    <glyph glyph-name="Acircumflex" unicode="&#xc2;" horiz-adv-x="690" 
d="M256 274h174l-87 261zM419 700l253 -700h-150l-50 150h-258l-50 -150h-146l253 700h148zM293 938h104l166 -156h-132l-86 72l-86 -72h-132z" />
    <glyph glyph-name="Atilde" unicode="&#xc3;" horiz-adv-x="690" 
d="M256 274h174l-87 261zM419 700l253 -700h-150l-50 150h-258l-50 -150h-146l253 700h148zM140 787q0 45 12 74.5t31 47.5t43 25t48 7q32 0 51 -9t32.5 -20.5t25.5 -20.5t29 -9q40 0 40 59h98q0 -45 -11 -75t-29.5 -47.5t-42 -25t-48.5 -7.5q-32 0 -51.5 9.5t-33 21t-25 21
t-28.5 9.5q-20 0 -31.5 -16t-11.5 -44h-98z" />
    <glyph glyph-name="Adieresis" unicode="&#xc4;" horiz-adv-x="690" 
d="M256 274h174l-87 261zM419 700l253 -700h-150l-50 150h-258l-50 -150h-146l253 700h148zM148 855q0 34 23 56.5t57 22.5t57 -22.5t23 -56.5t-23 -56.5t-57 -22.5t-57 22.5t-23 56.5zM382 855q0 34 23 56.5t57 22.5t57 -22.5t23 -56.5t-23 -56.5t-57 -22.5t-57 22.5
t-23 56.5z" />
    <glyph glyph-name="Aring" unicode="&#xc5;" horiz-adv-x="690" 
d="M256 274h174l-87 261zM419 700l253 -700h-150l-50 150h-258l-50 -150h-146l253 700h148zM345 776q-27 0 -50 9t-40 25.5t-26.5 39t-9.5 49.5t9.5 49.5t26.5 39t40 25.5t50 9t50 -9t40 -25.5t26.5 -39t9.5 -49.5t-9.5 -49.5t-26.5 -39t-40 -25.5t-50 -9zM345 853
q18 0 31.5 13t13.5 33t-13.5 33t-31.5 13t-31.5 -13t-13.5 -33t13.5 -33t31.5 -13z" />
    <glyph glyph-name="AE" unicode="&#xc6;" horiz-adv-x="1001" 
d="M328 274h163v276zM491 0v150h-236l-88 -150h-149l428 700h507v-130h-320v-142h280v-130h-280v-168h320v-130h-462z" />
    <glyph glyph-name="Ccedilla" unicode="&#xc7;" horiz-adv-x="760" 
d="M413 -16q-81 0 -148 27.5t-115 76.5t-75 116t-27 146t27 146t75 116t115 76.5t148 27.5q112 0 195.5 -53t123.5 -148l-125 -63q-24 63 -74.5 96.5t-119.5 33.5q-48 0 -88.5 -17t-69.5 -48t-45 -73.5t-16 -93.5t16 -93.5t45 -73.5t69.5 -48t88.5 -17q69 0 119.5 33.5
t74.5 96.5l125 -63q-40 -95 -123.5 -148t-195.5 -53zM351 -231q-35 0 -64 9t-55 24l35 83q20 -15 39.5 -20.5t36.5 -5.5q35 0 53.5 19.5t18.5 49.5q0 31 -23 66l87 22q14 -23 22 -46.5t8 -52.5q0 -30 -10 -57t-29.5 -47t-49 -32t-69.5 -12z" />
    <glyph glyph-name="Egrave" unicode="&#xc8;" horiz-adv-x="588" 
d="M78 700h462v-130h-320v-142h280v-130h-280v-168h320v-130h-462v700zM276 782l-137 156h160l113 -156h-136z" />
    <glyph glyph-name="Eacute" unicode="&#xc9;" horiz-adv-x="588" 
d="M78 700h462v-130h-320v-142h280v-130h-280v-168h320v-130h-462v700zM342 938h160l-137 -156h-136z" />
    <glyph glyph-name="Ecircumflex" unicode="&#xca;" horiz-adv-x="588" 
d="M78 700h462v-130h-320v-142h280v-130h-280v-168h320v-130h-462v700zM263 938h104l166 -156h-132l-86 72l-86 -72h-132z" />
    <glyph glyph-name="Edieresis" unicode="&#xcb;" horiz-adv-x="588" 
d="M78 700h462v-130h-320v-142h280v-130h-280v-168h320v-130h-462v700zM117 855q0 34 23 56.5t57 22.5t57 -22.5t23 -56.5t-23 -56.5t-57 -22.5t-57 22.5t-23 56.5zM351 855q0 34 23 56.5t57 22.5t57 -22.5t23 -56.5t-23 -56.5t-57 -22.5t-57 22.5t-23 56.5z" />
    <glyph glyph-name="Igrave" unicode="&#xcc;" horiz-adv-x="298" 
d="M78 700h142v-700h-142v700zM87 782l-137 156h160l113 -156h-136z" />
    <glyph glyph-name="Iacute" unicode="&#xcd;" horiz-adv-x="298" 
d="M78 700h142v-700h-142v700zM191 938h160l-137 -156h-136z" />
    <glyph glyph-name="Icircumflex" unicode="&#xce;" horiz-adv-x="298" 
d="M78 700h142v-700h-142v700zM97 938h104l166 -156h-132l-86 72l-86 -72h-132z" />
    <glyph glyph-name="Idieresis" unicode="&#xcf;" horiz-adv-x="298" 
d="M78 700h142v-700h-142v700zM-48 855q0 34 23 56.5t57 22.5t57 -22.5t23 -56.5t-23 -56.5t-57 -22.5t-57 22.5t-23 56.5zM186 855q0 34 23 56.5t57 22.5t57 -22.5t23 -56.5t-23 -56.5t-57 -22.5t-57 22.5t-23 56.5z" />
    <glyph glyph-name="Eth" unicode="&#xd0;" horiz-adv-x="779" 
d="M264 292v-162h101q51 0 91.5 16t69 45t44 69.5t15.5 89.5t-15.5 89.5t-44 69.5t-69 45t-91.5 16h-101v-148h113v-130h-113zM32 292v130h90v278h260q76 0 140 -26.5t110.5 -73.5t72.5 -111t26 -139t-26 -139t-72.5 -111t-110.5 -73.5t-140 -26.5h-260v292h-90z" />
    <glyph glyph-name="Ntilde" unicode="&#xd1;" horiz-adv-x="751" 
d="M78 700h148l313 -482v482h134v-700h-148l-313 482v-482h-134v700zM171 787q0 45 12 74.5t31 47.5t43 25t48 7q32 0 51 -9t32.5 -20.5t25.5 -20.5t29 -9q40 0 40 59h98q0 -45 -11 -75t-29.5 -47.5t-42 -25t-48.5 -7.5q-32 0 -51.5 9.5t-33 21t-25 21t-28.5 9.5
q-20 0 -31.5 -16t-11.5 -44h-98z" />
    <glyph glyph-name="Ograve" unicode="&#xd2;" horiz-adv-x="828" 
d="M415 -16q-81 0 -148 27.5t-116 76.5t-76 116t-27 146t27 146t76 116t116 76.5t148 27.5q80 0 147 -27.5t115.5 -76.5t75.5 -116t27 -146t-27 -146t-75.5 -116t-115.5 -76.5t-147 -27.5zM417 118q48 0 87.5 17.5t68.5 49t45 74t16 93.5q0 49 -16 91t-45 73t-68.5 48.5
t-87.5 17.5q-50 0 -91 -17.5t-70.5 -48.5t-45.5 -73t-16 -91q0 -51 16 -93.5t45.5 -74t70.5 -49t91 -17.5zM356 782l-137 156h160l113 -156h-136z" />
    <glyph glyph-name="Oacute" unicode="&#xd3;" horiz-adv-x="828" 
d="M415 -16q-81 0 -148 27.5t-116 76.5t-76 116t-27 146t27 146t76 116t116 76.5t148 27.5q80 0 147 -27.5t115.5 -76.5t75.5 -116t27 -146t-27 -146t-75.5 -116t-115.5 -76.5t-147 -27.5zM417 118q48 0 87.5 17.5t68.5 49t45 74t16 93.5q0 49 -16 91t-45 73t-68.5 48.5
t-87.5 17.5q-50 0 -91 -17.5t-70.5 -48.5t-45.5 -73t-16 -91q0 -51 16 -93.5t45.5 -74t70.5 -49t91 -17.5zM452 938h160l-137 -156h-136z" />
    <glyph glyph-name="Ocircumflex" unicode="&#xd4;" horiz-adv-x="828" 
d="M415 -16q-81 0 -148 27.5t-116 76.5t-76 116t-27 146t27 146t76 116t116 76.5t148 27.5q80 0 147 -27.5t115.5 -76.5t75.5 -116t27 -146t-27 -146t-75.5 -116t-115.5 -76.5t-147 -27.5zM417 118q48 0 87.5 17.5t68.5 49t45 74t16 93.5q0 49 -16 91t-45 73t-68.5 48.5
t-87.5 17.5q-50 0 -91 -17.5t-70.5 -48.5t-45.5 -73t-16 -91q0 -51 16 -93.5t45.5 -74t70.5 -49t91 -17.5zM362 938h104l166 -156h-132l-86 72l-86 -72h-132z" />
    <glyph glyph-name="Otilde" unicode="&#xd5;" horiz-adv-x="828" 
d="M415 -16q-81 0 -148 27.5t-116 76.5t-76 116t-27 146t27 146t76 116t116 76.5t148 27.5q80 0 147 -27.5t115.5 -76.5t75.5 -116t27 -146t-27 -146t-75.5 -116t-115.5 -76.5t-147 -27.5zM417 118q48 0 87.5 17.5t68.5 49t45 74t16 93.5q0 49 -16 91t-45 73t-68.5 48.5
t-87.5 17.5q-50 0 -91 -17.5t-70.5 -48.5t-45.5 -73t-16 -91q0 -51 16 -93.5t45.5 -74t70.5 -49t91 -17.5zM209 787q0 45 12 74.5t31 47.5t43 25t48 7q32 0 51 -9t32.5 -20.5t25.5 -20.5t29 -9q40 0 40 59h98q0 -45 -11 -75t-29.5 -47.5t-42 -25t-48.5 -7.5q-32 0 -51.5 9.5
t-33 21t-25 21t-28.5 9.5q-20 0 -31.5 -16t-11.5 -44h-98z" />
    <glyph glyph-name="Odieresis" unicode="&#xd6;" horiz-adv-x="828" 
d="M415 -16q-81 0 -148 27.5t-116 76.5t-76 116t-27 146t27 146t76 116t116 76.5t148 27.5q80 0 147 -27.5t115.5 -76.5t75.5 -116t27 -146t-27 -146t-75.5 -116t-115.5 -76.5t-147 -27.5zM417 118q48 0 87.5 17.5t68.5 49t45 74t16 93.5q0 49 -16 91t-45 73t-68.5 48.5
t-87.5 17.5q-50 0 -91 -17.5t-70.5 -48.5t-45.5 -73t-16 -91q0 -51 16 -93.5t45.5 -74t70.5 -49t91 -17.5zM217 855q0 34 23 56.5t57 22.5t57 -22.5t23 -56.5t-23 -56.5t-57 -22.5t-57 22.5t-23 56.5zM451 855q0 34 23 56.5t57 22.5t57 -22.5t23 -56.5t-23 -56.5t-57 -22.5
t-57 22.5t-23 56.5z" />
    <glyph glyph-name="multiply" unicode="&#xd7;" horiz-adv-x="482" 
d="M110 576l129 -134l138 142l85 -85l-143 -138l135 -129l-82 -82l-129 134l-138 -142l-85 85l143 138l-135 129z" />
    <glyph glyph-name="Oslash" unicode="&#xd8;" horiz-adv-x="828" 
d="M531 551q-51 31 -114 31q-50 0 -91 -17.5t-70.5 -48.5t-45.5 -73t-16 -91q0 -62 25 -114zM296 151q53 -33 121 -33q48 0 87.5 17.5t68.5 49t45 74t16 93.5q0 61 -25 113zM109 -46l-91 91l92 92q-30 45 -46 98.5t-16 114.5q0 79 27 146t76 116t116 76.5t148 27.5
q61 0 113.5 -16t97.5 -45l91 91l91 -91l-91 -91q30 -45 46.5 -99t16.5 -115q0 -79 -27 -146t-75.5 -116t-115.5 -76.5t-147 -27.5q-62 0 -115.5 16.5t-98.5 46.5z" />
    <glyph glyph-name="Ugrave" unicode="&#xd9;" horiz-adv-x="734" 
d="M367 -16q-63 0 -116 19t-92 55.5t-61 90.5t-22 124v427h142v-416q0 -83 40.5 -124.5t109.5 -41.5q67 0 107.5 41.5t40.5 124.5v416h142v-427q0 -70 -22 -124t-61 -90.5t-92 -55.5t-116 -19zM319 782l-137 156h160l113 -156h-136z" />
    <glyph glyph-name="Uacute" unicode="&#xda;" horiz-adv-x="734" 
d="M367 -16q-63 0 -116 19t-92 55.5t-61 90.5t-22 124v427h142v-416q0 -83 40.5 -124.5t109.5 -41.5q67 0 107.5 41.5t40.5 124.5v416h142v-427q0 -70 -22 -124t-61 -90.5t-92 -55.5t-116 -19zM395 938h160l-137 -156h-136z" />
    <glyph glyph-name="Ucircumflex" unicode="&#xdb;" horiz-adv-x="734" 
d="M367 -16q-63 0 -116 19t-92 55.5t-61 90.5t-22 124v427h142v-416q0 -83 40.5 -124.5t109.5 -41.5q67 0 107.5 41.5t40.5 124.5v416h142v-427q0 -70 -22 -124t-61 -90.5t-92 -55.5t-116 -19zM315 938h104l166 -156h-132l-86 72l-86 -72h-132z" />
    <glyph glyph-name="Udieresis" unicode="&#xdc;" horiz-adv-x="734" 
d="M367 -16q-63 0 -116 19t-92 55.5t-61 90.5t-22 124v427h142v-416q0 -83 40.5 -124.5t109.5 -41.5q67 0 107.5 41.5t40.5 124.5v416h142v-427q0 -70 -22 -124t-61 -90.5t-92 -55.5t-116 -19zM170 855q0 34 23 56.5t57 22.5t57 -22.5t23 -56.5t-23 -56.5t-57 -22.5
t-57 22.5t-23 56.5zM404 855q0 34 23 56.5t57 22.5t57 -22.5t23 -56.5t-23 -56.5t-57 -22.5t-57 22.5t-23 56.5z" />
    <glyph glyph-name="Yacute" unicode="&#xdd;" horiz-adv-x="650" 
d="M254 0v274l-236 426h154l155 -304l155 304h150l-236 -426v-274h-142zM373 938h160l-137 -156h-136z" />
    <glyph glyph-name="Thorn" unicode="&#xde;" horiz-adv-x="639" 
d="M216 260h136q50 0 79.5 30t29.5 77t-29.5 77t-79.5 30h-136v-214zM78 0v700h138v-100h144q54 0 98.5 -16.5t77 -47.5t50 -73.5t17.5 -95.5t-17.5 -96t-50 -73.5t-77 -47t-98.5 -16.5h-144v-134h-138z" />
    <glyph glyph-name="agrave" unicode="&#xe0;" 
d="M366 221l-85 -4q-70 -3 -96.5 -22.5t-26.5 -45.5q0 -27 22 -43t58 -16q56 0 92 35.5t36 94.5v1zM366 0v69q-54 -83 -163 -83q-41 0 -73 12t-53.5 33t-33 49t-11.5 60q0 74 57 118.5t170 48.5l107 4v4q0 42 -27.5 68.5t-76.5 26.5q-82 0 -116 -73l-100 50q28 60 83 93.5
t137 33.5q106 0 165 -55t59 -151v-308h-124zM114 750h146l96 -168h-120z" />
    <glyph glyph-name="aacute" unicode="&#xe1;" 
d="M366 221l-85 -4q-70 -3 -96.5 -22.5t-26.5 -45.5q0 -27 22 -43t58 -16q56 0 92 35.5t36 94.5v1zM366 0v69q-54 -83 -163 -83q-41 0 -73 12t-53.5 33t-33 49t-11.5 60q0 74 57 118.5t170 48.5l107 4v4q0 42 -27.5 68.5t-76.5 26.5q-82 0 -116 -73l-100 50q28 60 83 93.5
t137 33.5q106 0 165 -55t59 -151v-308h-124zM283 750h146l-116 -168h-120z" />
    <glyph glyph-name="acircumflex" unicode="&#xe2;" 
d="M366 221l-85 -4q-70 -3 -96.5 -22.5t-26.5 -45.5q0 -27 22 -43t58 -16q56 0 92 35.5t36 94.5v1zM366 0v69q-54 -83 -163 -83q-41 0 -73 12t-53.5 33t-33 49t-11.5 60q0 74 57 118.5t170 48.5l107 4v4q0 42 -27.5 68.5t-76.5 26.5q-82 0 -116 -73l-100 50q28 60 83 93.5
t137 33.5q106 0 165 -55t59 -151v-308h-124zM226 750h94l144 -168h-116l-75 81l-75 -81h-116z" />
    <glyph glyph-name="atilde" unicode="&#xe3;" 
d="M366 221l-85 -4q-70 -3 -96.5 -22.5t-26.5 -45.5q0 -27 22 -43t58 -16q56 0 92 35.5t36 94.5v1zM366 0v69q-54 -83 -163 -83q-41 0 -73 12t-53.5 33t-33 49t-11.5 60q0 74 57 118.5t170 48.5l107 4v4q0 42 -27.5 68.5t-76.5 26.5q-82 0 -116 -73l-100 50q28 60 83 93.5
t137 33.5q106 0 165 -55t59 -151v-308h-124zM210 639q-17 0 -27.5 -14.5t-10.5 -42.5h-82q0 42 10 70.5t26 45.5t36 24t41 7q27 0 43.5 -9t28.5 -20t22 -20t25 -9q36 0 36 58h82q0 -42 -9.5 -70.5t-25 -45.5t-35.5 -24.5t-41 -7.5q-27 0 -43.5 9t-28.5 20t-22 20t-25 9z" />
    <glyph glyph-name="adieresis" unicode="&#xe4;" 
d="M366 221l-85 -4q-70 -3 -96.5 -22.5t-26.5 -45.5q0 -27 22 -43t58 -16q56 0 92 35.5t36 94.5v1zM366 0v69q-54 -83 -163 -83q-41 0 -73 12t-53.5 33t-33 49t-11.5 60q0 74 57 118.5t170 48.5l107 4v4q0 42 -27.5 68.5t-76.5 26.5q-82 0 -116 -73l-100 50q28 60 83 93.5
t137 33.5q106 0 165 -55t59 -151v-308h-124zM83 661q0 33 22 54.5t54 21.5t54 -21.5t22 -54.5t-22 -54.5t-54 -21.5t-54 21.5t-22 54.5zM303 661q0 33 22.5 54.5t54.5 21.5t53.5 -21.5t21.5 -54.5t-21.5 -54.5t-53.5 -21.5t-54.5 21.5t-22.5 54.5z" />
    <glyph glyph-name="aring" unicode="&#xe5;" 
d="M366 221l-85 -4q-70 -3 -96.5 -22.5t-26.5 -45.5q0 -27 22 -43t58 -16q56 0 92 35.5t36 94.5v1zM366 0v69q-54 -83 -163 -83q-41 0 -73 12t-53.5 33t-33 49t-11.5 60q0 74 57 118.5t170 48.5l107 4v4q0 42 -27.5 68.5t-76.5 26.5q-82 0 -116 -73l-100 50q28 60 83 93.5
t137 33.5q106 0 165 -55t59 -151v-308h-124zM279 576q-26 0 -49 8.5t-39.5 24.5t-26 38t-9.5 49t9.5 49t26 38t39.5 24.5t49 8.5t49 -8.5t39.5 -24.5t26 -38t9.5 -49t-9.5 -49t-26 -38t-39.5 -24.5t-49 -8.5zM279 648q20 0 33 13.5t13 34.5t-13 34.5t-33 13.5t-33 -13.5
t-13 -34.5t13 -34.5t33 -13.5z" />
    <glyph glyph-name="ae" unicode="&#xe6;" horiz-adv-x="915" 
d="M366 222l-85 -4q-70 -3 -96.5 -22.5t-26.5 -46.5t22 -43t58 -16q56 0 92 35.5t36 94.5v2zM749 306q-8 46 -39.5 73t-80.5 27q-50 0 -84.5 -27t-47.5 -73h252zM641 -14q-75 0 -132 30t-91 84q-26 -55 -76.5 -84.5t-122.5 -29.5q-89 0 -138 43t-49 111q0 73 57 117.5
t170 48.5l107 4v5q0 42 -27.5 68.5t-76.5 26.5q-82 0 -116 -73l-100 50q27 60 81 93.5t134 33.5q63 0 108.5 -21t73.5 -59q35 38 84 59t109 21q55 0 99.5 -18t76.5 -51t49.5 -78.5t17.5 -100.5q0 -11 -1 -24t-3 -28h-381q11 -53 48 -84.5t95 -31.5q42 0 75 17.5t53 52.5
l91 -72q-75 -110 -215 -110z" />
    <glyph glyph-name="ccedilla" unicode="&#xe7;" horiz-adv-x="566" 
d="M302 -14q-58 0 -107 19.5t-84 54.5t-55 83.5t-20 106.5t20 106.5t55 83.5t84 54.5t107 19.5q83 0 144 -39t90 -109l-113 -56q-17 41 -48 62.5t-73 21.5q-30 0 -54.5 -10.5t-42 -30t-27.5 -45.5t-10 -58q0 -31 10 -57.5t27.5 -46t42 -30t54.5 -10.5q42 0 73 21.5t48 62.5
l113 -56q-29 -70 -90 -109t-144 -39zM238 -215q-35 0 -64 9t-55 24l35 83q20 -15 39.5 -20.5t36.5 -5.5q35 0 53.5 19.5t18.5 49.5q0 31 -23 66l87 22q14 -23 22 -46.5t8 -52.5q0 -30 -10 -57t-29.5 -47t-49 -32t-69.5 -12z" />
    <glyph glyph-name="egrave" unicode="&#xe8;" horiz-adv-x="585" 
d="M167 306h252q-8 46 -39.5 73t-80.5 27q-50 0 -84.5 -27t-47.5 -73zM306 -14q-60 0 -109.5 19.5t-85.5 54.5t-55.5 84t-19.5 107q0 59 20 107.5t55 83t84 53.5t106 19q56 0 101.5 -18t78 -51t50.5 -78.5t18 -100.5q0 -11 -1 -24t-3 -28h-381q11 -53 48 -84.5t95 -31.5
q42 0 75 17.5t53 52.5l91 -72q-38 -54 -93.5 -82t-126.5 -28zM145 750h146l96 -168h-120z" />
    <glyph glyph-name="eacute" unicode="&#xe9;" horiz-adv-x="585" 
d="M167 306h252q-8 46 -39.5 73t-80.5 27q-50 0 -84.5 -27t-47.5 -73zM306 -14q-60 0 -109.5 19.5t-85.5 54.5t-55.5 84t-19.5 107q0 59 20 107.5t55 83t84 53.5t106 19q56 0 101.5 -18t78 -51t50.5 -78.5t18 -100.5q0 -11 -1 -24t-3 -28h-381q11 -53 48 -84.5t95 -31.5
q42 0 75 17.5t53 52.5l91 -72q-38 -54 -93.5 -82t-126.5 -28zM315 750h146l-116 -168h-120z" />
    <glyph glyph-name="ecircumflex" unicode="&#xea;" horiz-adv-x="585" 
d="M167 306h252q-8 46 -39.5 73t-80.5 27q-50 0 -84.5 -27t-47.5 -73zM306 -14q-60 0 -109.5 19.5t-85.5 54.5t-55.5 84t-19.5 107q0 59 20 107.5t55 83t84 53.5t106 19q56 0 101.5 -18t78 -51t50.5 -78.5t18 -100.5q0 -11 -1 -24t-3 -28h-381q11 -53 48 -84.5t95 -31.5
q42 0 75 17.5t53 52.5l91 -72q-38 -54 -93.5 -82t-126.5 -28zM248 750h94l144 -168h-116l-75 81l-75 -81h-116z" />
    <glyph glyph-name="edieresis" unicode="&#xeb;" horiz-adv-x="585" 
d="M167 306h252q-8 46 -39.5 73t-80.5 27q-50 0 -84.5 -27t-47.5 -73zM306 -14q-60 0 -109.5 19.5t-85.5 54.5t-55.5 84t-19.5 107q0 59 20 107.5t55 83t84 53.5t106 19q56 0 101.5 -18t78 -51t50.5 -78.5t18 -100.5q0 -11 -1 -24t-3 -28h-381q11 -53 48 -84.5t95 -31.5
q42 0 75 17.5t53 52.5l91 -72q-38 -54 -93.5 -82t-126.5 -28zM113 661q0 33 22 54.5t54 21.5t54 -21.5t22 -54.5t-22 -54.5t-54 -21.5t-54 21.5t-22 54.5zM333 661q0 33 22.5 54.5t54.5 21.5t53.5 -21.5t21.5 -54.5t-21.5 -54.5t-53.5 -21.5t-54.5 21.5t-22.5 54.5z" />
    <glyph glyph-name="igrave" unicode="&#xec;" horiz-adv-x="248" 
d="M60 500h128v-500h-128v500zM-46 750h146l96 -168h-120z" />
    <glyph glyph-name="iacute" unicode="&#xed;" horiz-adv-x="248" 
d="M60 500h128v-500h-128v500zM148 750h146l-116 -168h-120z" />
    <glyph glyph-name="icircumflex" unicode="&#xee;" horiz-adv-x="248" 
d="M60 500h128v-500h-128v500zM77 750h94l144 -168h-116l-75 81l-75 -81h-116z" />
    <glyph glyph-name="idieresis" unicode="&#xef;" horiz-adv-x="248" 
d="M60 500h128v-500h-128v500zM-61 661q0 33 22 54.5t54 21.5t54 -21.5t22 -54.5t-22 -54.5t-54 -21.5t-54 21.5t-22 54.5zM159 661q0 33 22.5 54.5t54.5 21.5t53.5 -21.5t21.5 -54.5t-21.5 -54.5t-53.5 -21.5t-54.5 21.5t-22.5 54.5z" />
    <glyph glyph-name="eth" unicode="&#xf0;" horiz-adv-x="589" 
d="M287 100q55 0 90 35.5t35 93.5q0 57 -35 92t-89 35t-89 -35t-35 -92q0 -58 33.5 -93.5t89.5 -35.5zM126 534l73 68q-26 6 -55.5 10.5t-61.5 8.5l18 115q56 -5 105 -15.5t92 -27.5l103 95l60 -67l-78 -72q81 -55 124 -141t43 -205q0 -76 -18.5 -135t-53 -99.5t-83 -61.5
t-109.5 -21q-55 0 -100.5 17.5t-78.5 49t-51.5 76.5t-18.5 99q0 52 17.5 96t48.5 76t74 50t94 18q105 0 163 -69q-16 115 -136 170l-111 -102z" />
    <glyph glyph-name="ntilde" unicode="&#xf1;" horiz-adv-x="575" 
d="M60 0v500h128v-66q47 80 144 80q41 0 75 -14t58.5 -40t38 -61.5t13.5 -79.5v-319h-128v283q0 53 -23.5 83t-69.5 30q-48 0 -78 -31t-30 -82v-283h-128zM232 639q-17 0 -27.5 -14.5t-10.5 -42.5h-82q0 42 10 70.5t26 45.5t36 24t41 7q27 0 43.5 -9t28.5 -20t22 -20t25 -9
q36 0 36 58h82q0 -42 -9.5 -70.5t-25 -45.5t-35.5 -24.5t-41 -7.5q-27 0 -43.5 9t-28.5 20t-22 20t-25 9z" />
    <glyph glyph-name="ograve" unicode="&#xf2;" horiz-adv-x="604" 
d="M302 -14q-58 0 -107 20t-84.5 55t-55 83.5t-19.5 105.5t19.5 105.5t55 83.5t84.5 55t107 20q59 0 107.5 -20t84 -55t55 -83.5t19.5 -105.5t-19.5 -105.5t-55 -83.5t-84 -55t-107.5 -20zM302 106q29 0 53.5 10.5t42.5 30t28 46t10 57.5q0 32 -10 58t-28 45.5t-42.5 30
t-53.5 10.5t-53.5 -10.5t-42.5 -30t-28 -45.5t-10 -58q0 -31 10 -57.5t28 -46t42.5 -30t53.5 -10.5zM155 750h146l96 -168h-120z" />
    <glyph glyph-name="oacute" unicode="&#xf3;" horiz-adv-x="604" 
d="M302 -14q-58 0 -107 20t-84.5 55t-55 83.5t-19.5 105.5t19.5 105.5t55 83.5t84.5 55t107 20q59 0 107.5 -20t84 -55t55 -83.5t19.5 -105.5t-19.5 -105.5t-55 -83.5t-84 -55t-107.5 -20zM302 106q29 0 53.5 10.5t42.5 30t28 46t10 57.5q0 32 -10 58t-28 45.5t-42.5 30
t-53.5 10.5t-53.5 -10.5t-42.5 -30t-28 -45.5t-10 -58q0 -31 10 -57.5t28 -46t42.5 -30t53.5 -10.5zM331 750h146l-116 -168h-120z" />
    <glyph glyph-name="ocircumflex" unicode="&#xf4;" horiz-adv-x="604" 
d="M302 -14q-58 0 -107 20t-84.5 55t-55 83.5t-19.5 105.5t19.5 105.5t55 83.5t84.5 55t107 20q59 0 107.5 -20t84 -55t55 -83.5t19.5 -105.5t-19.5 -105.5t-55 -83.5t-84 -55t-107.5 -20zM302 106q29 0 53.5 10.5t42.5 30t28 46t10 57.5q0 32 -10 58t-28 45.5t-42.5 30
t-53.5 10.5t-53.5 -10.5t-42.5 -30t-28 -45.5t-10 -58q0 -31 10 -57.5t28 -46t42.5 -30t53.5 -10.5zM255 750h94l144 -168h-116l-75 81l-75 -81h-116z" />
    <glyph glyph-name="otilde" unicode="&#xf5;" horiz-adv-x="604" 
d="M302 -14q-58 0 -107 20t-84.5 55t-55 83.5t-19.5 105.5t19.5 105.5t55 83.5t84.5 55t107 20q59 0 107.5 -20t84 -55t55 -83.5t19.5 -105.5t-19.5 -105.5t-55 -83.5t-84 -55t-107.5 -20zM302 106q29 0 53.5 10.5t42.5 30t28 46t10 57.5q0 32 -10 58t-28 45.5t-42.5 30
t-53.5 10.5t-53.5 -10.5t-42.5 -30t-28 -45.5t-10 -58q0 -31 10 -57.5t28 -46t42.5 -30t53.5 -10.5zM247 639q-17 0 -27.5 -14.5t-10.5 -42.5h-82q0 42 10 70.5t26 45.5t36 24t41 7q27 0 43.5 -9t28.5 -20t22 -20t25 -9q36 0 36 58h82q0 -42 -9.5 -70.5t-25 -45.5
t-35.5 -24.5t-41 -7.5q-27 0 -43.5 9t-28.5 20t-22 20t-25 9z" />
    <glyph glyph-name="odieresis" unicode="&#xf6;" horiz-adv-x="604" 
d="M302 -14q-58 0 -107 20t-84.5 55t-55 83.5t-19.5 105.5t19.5 105.5t55 83.5t84.5 55t107 20q59 0 107.5 -20t84 -55t55 -83.5t19.5 -105.5t-19.5 -105.5t-55 -83.5t-84 -55t-107.5 -20zM302 106q29 0 53.5 10.5t42.5 30t28 46t10 57.5q0 32 -10 58t-28 45.5t-42.5 30
t-53.5 10.5t-53.5 -10.5t-42.5 -30t-28 -45.5t-10 -58q0 -31 10 -57.5t28 -46t42.5 -30t53.5 -10.5zM116 661q0 33 22 54.5t54 21.5t54 -21.5t22 -54.5t-22 -54.5t-54 -21.5t-54 21.5t-22 54.5zM336 661q0 33 22.5 54.5t54.5 21.5t53.5 -21.5t21.5 -54.5t-21.5 -54.5
t-53.5 -21.5t-54.5 21.5t-22.5 54.5z" />
    <glyph glyph-name="divide" unicode="&#xf7;" horiz-adv-x="572" 
d="M46 404h480v-112h-480v112zM206 153q0 -34 23.5 -56.5t56.5 -22.5t56.5 22.5t23.5 56.5t-23.5 56.5t-56.5 22.5t-56.5 -22.5t-23.5 -56.5zM206 543q0 -34 23.5 -56.5t56.5 -22.5t56.5 22.5t23.5 56.5t-23.5 56.5t-56.5 22.5t-56.5 -22.5t-23.5 -56.5z" />
    <glyph glyph-name="oslash" unicode="&#xf8;" horiz-adv-x="604" 
d="M180 188l189 189q-31 17 -67 17q-29 0 -53.5 -10.5t-42.5 -30t-28 -45.5t-10 -58q0 -35 12 -62zM424 313l-189 -189q29 -18 67 -18q29 0 53.5 10.5t42.5 30t28 46t10 57.5q0 35 -12 63zM7 29l71 71q-42 65 -42 150q0 57 19.5 105.5t55 83.5t84.5 55t107 20q87 0 151 -43
l73 73l71 -71l-72 -72q20 -32 31.5 -70t11.5 -81q0 -57 -19.5 -105.5t-55 -83.5t-84 -55t-107.5 -20q-44 0 -82.5 11.5t-70.5 31.5l-71 -71z" />
    <glyph glyph-name="ugrave" unicode="&#xf9;" horiz-adv-x="575" 
d="M515.004 500v-499.97h-127.992v65.9961q-46.9971 -79.9951 -143.991 -79.9951q-40.998 0 -74.9961 13.999q-33.9971 13.999 -58.4961 39.998q-24.498 25.998 -37.998 61.4961q-13.499 35.498 -13.499 79.4951v318.98h127.992v-282.982q0 -52.9971 23.499 -82.9951
q23.498 -29.998 69.4951 -29.998q47.998 0 77.9961 30.998t29.998 81.9951v282.982h127.992zM120 750h146l96 -168h-120z" />
    <glyph glyph-name="uacute" unicode="&#xfa;" horiz-adv-x="575" 
d="M515.004 500v-499.97h-127.992v65.9961q-46.9971 -79.9951 -143.991 -79.9951q-40.998 0 -74.9961 13.999q-33.9971 13.999 -58.4961 39.998q-24.498 25.998 -37.998 61.4961q-13.499 35.498 -13.499 79.4951v318.98h127.992v-282.982q0 -52.9971 23.499 -82.9951
q23.498 -29.998 69.4951 -29.998q47.998 0 77.9961 30.998t29.998 81.9951v282.982h127.992zM319 750h146l-116 -168h-120z" />
    <glyph glyph-name="ucircumflex" unicode="&#xfb;" horiz-adv-x="575" 
d="M515.004 500v-499.97h-127.992v65.9961q-46.9971 -79.9951 -143.991 -79.9951q-40.998 0 -74.9961 13.999q-33.9971 13.999 -58.4961 39.998q-24.498 25.998 -37.998 61.4961q-13.499 35.498 -13.499 79.4951v318.98h127.992v-282.982q0 -52.9971 23.499 -82.9951
q23.498 -29.998 69.4951 -29.998q47.998 0 77.9961 30.998t29.998 81.9951v282.982h127.992zM241 750h94l144 -168h-116l-75 81l-75 -81h-116z" />
    <glyph glyph-name="udieresis" unicode="&#xfc;" horiz-adv-x="575" 
d="M515.004 500v-499.97h-127.992v65.9961q-46.9971 -79.9951 -143.991 -79.9951q-40.998 0 -74.9961 13.999q-33.9971 13.999 -58.4961 39.998q-24.498 25.998 -37.998 61.4961q-13.499 35.498 -13.499 79.4951v318.98h127.992v-282.982q0 -52.9971 23.499 -82.9951
q23.498 -29.998 69.4951 -29.998q47.998 0 77.9961 30.998t29.998 81.9951v282.982h127.992zM102 661q0 33 22 54.5t54 21.5t54 -21.5t22 -54.5t-22 -54.5t-54 -21.5t-54 21.5t-22 54.5zM322 661q0 33 22.5 54.5t54.5 21.5t53.5 -21.5t21.5 -54.5t-21.5 -54.5t-53.5 -21.5
t-54.5 21.5t-22.5 54.5z" />
    <glyph glyph-name="yacute" unicode="&#xfd;" 
d="M215 5l-199 495h134l127 -344l123 344h134l-273 -700h-126zM293 750h146l-116 -168h-120z" />
    <glyph glyph-name="thorn" unicode="&#xfe;" horiz-adv-x="624" 
d="M322 106q29 0 53.5 11t42.5 30t28 46t10 58q0 32 -10 58t-28 45t-42.5 29.5t-53.5 10.5t-53.5 -10.5t-42.5 -29.5t-28 -45t-10 -58q0 -31 10 -58t28 -46t42.5 -30t53.5 -11zM357 -14q-57 0 -99.5 24.5t-69.5 66.5v-277h-128v922h128v-299q27 42 69.5 66.5t99.5 24.5
q51 0 93.5 -20t73 -55.5t47.5 -83.5t17 -105t-17 -105t-47.5 -83.5t-73 -55.5t-93.5 -20z" />
    <glyph glyph-name="ydieresis" unicode="&#xff;" 
d="M215 5l-199 495h134l127 -344l123 344h134l-273 -700h-126zM89 661q0 33 22 54.5t54 21.5t54 -21.5t22 -54.5t-22 -54.5t-54 -21.5t-54 21.5t-22 54.5zM309 661q0 33 22.5 54.5t54.5 21.5t53.5 -21.5t21.5 -54.5t-21.5 -54.5t-53.5 -21.5t-54.5 21.5t-22.5 54.5z" />
    <glyph glyph-name="Amacron" unicode="&#x100;" horiz-adv-x="690" 
d="M256 274h174l-87 261zM419 700l253 -700h-150l-50 150h-258l-50 -150h-146l253 700h148zM176 898h338v-102h-338v102z" />
    <glyph glyph-name="amacron" unicode="&#x101;" 
d="M366 221l-85 -4q-70 -3 -96.5 -22.5t-26.5 -45.5q0 -27 22 -43t58 -16q56 0 92 35.5t36 94.5v1zM366 0v69q-54 -83 -163 -83q-41 0 -73 12t-53.5 33t-33 49t-11.5 60q0 74 57 118.5t170 48.5l107 4v4q0 42 -27.5 68.5t-76.5 26.5q-82 0 -116 -73l-100 50q28 60 83 93.5
t137 33.5q106 0 165 -55t59 -151v-308h-124zM123 696h304v-100h-304v100z" />
    <glyph glyph-name="Abreve" unicode="&#x102;" horiz-adv-x="690" 
d="M256 274h174l-87 261zM419 700l253 -700h-150l-50 150h-258l-50 -150h-146l253 700h148zM345 777q-91 0 -145 43.5t-62 117.5h116q4 -29 26.5 -48t64.5 -19q41 0 64.5 19t27.5 48h116q-8 -73 -62.5 -117t-145.5 -44z" />
    <glyph glyph-name="abreve" unicode="&#x103;" 
d="M366 221l-85 -4q-70 -3 -96.5 -22.5t-26.5 -45.5q0 -27 22 -43t58 -16q56 0 92 35.5t36 94.5v1zM366 0v69q-54 -83 -163 -83q-41 0 -73 12t-53.5 33t-33 49t-11.5 60q0 74 57 118.5t170 48.5l107 4v4q0 42 -27.5 68.5t-76.5 26.5q-82 0 -116 -73l-100 50q28 60 83 93.5
t137 33.5q106 0 165 -55t59 -151v-308h-124zM274 584q-80 0 -129 43.5t-55 119.5h106q3 -34 24.5 -52.5t53.5 -18.5t54 18.5t26 52.5h106q-6 -76 -56 -119.5t-130 -43.5z" />
    <glyph glyph-name="Aogonek" unicode="&#x104;" horiz-adv-x="690" 
d="M256 274h174l-87 261zM468 -116q0 34 16 62t52 54h-14l-50 150h-258l-50 -150h-146l253 700h148l253 -700q-60 -26 -84 -47t-24 -49q0 -25 16 -39t44 -14q17 0 32 5.5t26 13.5l26 -84q-42 -25 -98 -25q-65 0 -103.5 33t-38.5 90z" />
    <glyph glyph-name="aogonek" unicode="&#x105;" 
d="M366 221l-85 -4q-70 -3 -96.5 -22.5t-26.5 -45.5q0 -27 22 -43t58 -16q56 0 92 35.5t36 94.5v1zM294 -113q0 35 17 63.5t55 55.5v63q-54 -83 -163 -83q-41 0 -73 12t-53.5 33t-33 49t-11.5 60q0 74 57 118.5t170 48.5l107 4v4q0 42 -27.5 68.5t-76.5 26.5q-82 0 -116 -73
l-100 50q28 60 83 93.5t137 33.5q106 0 165 -55t59 -151v-308q-56 -25 -78 -45.5t-22 -46.5q0 -24 14.5 -37.5t40.5 -13.5q17 0 30.5 5.5t24.5 13.5l26 -84q-41 -25 -95 -25q-63 0 -100 32.5t-37 87.5z" />
    <glyph glyph-name="Cacute" unicode="&#x106;" horiz-adv-x="760" 
d="M413 -16q-81 0 -148 27.5t-115 76.5t-75 116t-27 146t27 146t75 116t115 76.5t148 27.5q112 0 195.5 -53t123.5 -148l-125 -63q-24 63 -74.5 96.5t-119.5 33.5q-48 0 -88.5 -17t-69.5 -48t-45 -73.5t-16 -93.5t16 -93.5t45 -73.5t69.5 -48t88.5 -17q69 0 119.5 33.5
t74.5 96.5l125 -63q-40 -95 -123.5 -148t-195.5 -53zM452 938h160l-137 -156h-136z" />
    <glyph glyph-name="cacute" unicode="&#x107;" horiz-adv-x="566" 
d="M302 -14q-58 0 -107 19.5t-84 54.5t-55 83.5t-20 106.5t20 106.5t55 83.5t84 54.5t107 19.5q83 0 144 -39t90 -109l-113 -56q-17 41 -48 62.5t-73 21.5q-30 0 -54.5 -10.5t-42 -30t-27.5 -45.5t-10 -58q0 -31 10 -57.5t27.5 -46t42 -30t54.5 -10.5q42 0 73 21.5t48 62.5
l113 -56q-29 -70 -90 -109t-144 -39zM331 750h146l-116 -168h-120z" />
    <glyph glyph-name="Ccircumflex" unicode="&#x108;" horiz-adv-x="760" 
d="M413 -16q-81 0 -148 27.5t-115 76.5t-75 116t-27 146t27 146t75 116t115 76.5t148 27.5q112 0 195.5 -53t123.5 -148l-125 -63q-24 63 -74.5 96.5t-119.5 33.5q-48 0 -88.5 -17t-69.5 -48t-45 -73.5t-16 -93.5t16 -93.5t45 -73.5t69.5 -48t88.5 -17q69 0 119.5 33.5
t74.5 96.5l125 -63q-40 -95 -123.5 -148t-195.5 -53zM362 938h104l166 -156h-132l-86 72l-86 -72h-132z" />
    <glyph glyph-name="ccircumflex" unicode="&#x109;" horiz-adv-x="566" 
d="M302 -14q-58 0 -107 19.5t-84 54.5t-55 83.5t-20 106.5t20 106.5t55 83.5t84 54.5t107 19.5q83 0 144 -39t90 -109l-113 -56q-17 41 -48 62.5t-73 21.5q-30 0 -54.5 -10.5t-42 -30t-27.5 -45.5t-10 -58q0 -31 10 -57.5t27.5 -46t42 -30t54.5 -10.5q42 0 73 21.5t48 62.5
l113 -56q-29 -70 -90 -109t-144 -39zM250 750h94l144 -168h-116l-75 81l-75 -81h-116z" />
    <glyph glyph-name="Cdotaccent" unicode="&#x10a;" horiz-adv-x="760" 
d="M413 -16q-81 0 -148 27.5t-115 76.5t-75 116t-27 146t27 146t75 116t115 76.5t148 27.5q112 0 195.5 -53t123.5 -148l-125 -63q-24 63 -74.5 96.5t-119.5 33.5q-48 0 -88.5 -17t-69.5 -48t-45 -73.5t-16 -93.5t16 -93.5t45 -73.5t69.5 -48t88.5 -17q69 0 119.5 33.5
t74.5 96.5l125 -63q-40 -95 -123.5 -148t-195.5 -53zM333 867q0 34 23 56.5t57 22.5t57 -22.5t23 -56.5t-23 -56.5t-57 -22.5t-57 22.5t-23 56.5z" />
    <glyph glyph-name="cdotaccent" unicode="&#x10b;" horiz-adv-x="566" 
d="M302 -14q-58 0 -107 19.5t-84 54.5t-55 83.5t-20 106.5t20 106.5t55 83.5t84 54.5t107 19.5q83 0 144 -39t90 -109l-113 -56q-17 41 -48 62.5t-73 21.5q-30 0 -54.5 -10.5t-42 -30t-27.5 -45.5t-10 -58q0 -31 10 -57.5t27.5 -46t42 -30t54.5 -10.5q42 0 73 21.5t48 62.5
l113 -56q-29 -70 -90 -109t-144 -39zM223 661q0 33 22.5 54.5t54.5 21.5t53.5 -21.5t21.5 -54.5t-21.5 -54.5t-53.5 -21.5t-54.5 21.5t-22.5 54.5z" />
    <glyph glyph-name="Ccaron" unicode="&#x10c;" horiz-adv-x="760" 
d="M413 -16q-81 0 -148 27.5t-115 76.5t-75 116t-27 146t27 146t75 116t115 76.5t148 27.5q112 0 195.5 -53t123.5 -148l-125 -63q-24 63 -74.5 96.5t-119.5 33.5q-48 0 -88.5 -17t-69.5 -48t-45 -73.5t-16 -93.5t16 -93.5t45 -73.5t69.5 -48t88.5 -17q69 0 119.5 33.5
t74.5 96.5l125 -63q-40 -95 -123.5 -148t-195.5 -53zM324 939l86 -72l86 72h132l-166 -157h-104l-166 157h132z" />
    <glyph glyph-name="ccaron" unicode="&#x10d;" horiz-adv-x="566" 
d="M302 -14q-58 0 -107 19.5t-84 54.5t-55 83.5t-20 106.5t20 106.5t55 83.5t84 54.5t107 19.5q83 0 144 -39t90 -109l-113 -56q-17 41 -48 62.5t-73 21.5q-30 0 -54.5 -10.5t-42 -30t-27.5 -45.5t-10 -58q0 -31 10 -57.5t27.5 -46t42 -30t54.5 -10.5q42 0 73 21.5t48 62.5
l113 -56q-29 -70 -90 -109t-144 -39zM112 750h116l75 -81l75 81h116l-144 -168h-94z" />
    <glyph glyph-name="Dcaron" unicode="&#x10e;" horiz-adv-x="735" 
d="M78 700h260q76 0 140 -26.5t110.5 -73.5t72.5 -111t26 -139t-26 -139t-72.5 -111t-110.5 -73.5t-140 -26.5h-260v700zM220 570v-440h101q51 0 91.5 16t69 45t44 69.5t15.5 89.5t-15.5 89.5t-44 69.5t-69 45t-91.5 16h-101zM242 939l86 -72l86 72h132l-166 -157h-104
l-166 157h132z" />
    <glyph glyph-name="dcaron" unicode="&#x10f;" horiz-adv-x="832" 
d="M302 106q29 0 53.5 11t42.5 30t28 46t10 58q0 32 -10 58t-28 45t-42.5 29.5t-53.5 10.5t-53.5 -10.5t-42.5 -29.5t-28 -45t-10 -58q0 -31 10 -58t28 -46t42.5 -30t53.5 -11zM267 -14q-51 0 -93.5 20t-73 55.5t-47.5 83.5t-17 105t17 105t47.5 83.5t73 55.5t93.5 20
q57 0 99.5 -24.5t69.5 -66.5v299h128v-722h-128v77q-27 -42 -69.5 -66.5t-99.5 -24.5zM614 659q0 34 22.5 56t57.5 22q40 0 64 -30.5t24 -81.5q0 -108 -113 -215l-55 53q33 33 51.5 59.5t28.5 56.5q-35 0 -57.5 22.5t-22.5 57.5z" />
    <glyph glyph-name="Dcroat" unicode="&#x110;" horiz-adv-x="779" 
d="M264 292v-162h101q51 0 91.5 16t69 45t44 69.5t15.5 89.5t-15.5 89.5t-44 69.5t-69 45t-91.5 16h-101v-148h113v-130h-113zM32 292v130h90v278h260q76 0 140 -26.5t110.5 -73.5t72.5 -111t26 -139t-26 -139t-72.5 -111t-110.5 -73.5t-140 -26.5h-260v292h-90z" />
    <glyph glyph-name="dcroat" unicode="&#x111;" horiz-adv-x="624" 
d="M302 106q29 0 53.5 11t42.5 30t28 46t10 58q0 32 -10 58t-28 45t-42.5 29.5t-53.5 10.5t-53.5 -10.5t-42.5 -29.5t-28 -45t-10 -58q0 -31 10 -58t28 -46t42.5 -30t53.5 -11zM267 -14q-51 0 -93.5 20t-73 55.5t-47.5 83.5t-17 105t17 105t47.5 83.5t73 55.5t93.5 20
q57 0 99.5 -24.5t69.5 -66.5v299h128v-722h-128v77q-27 -42 -69.5 -66.5t-99.5 -24.5zM369 671h265v-108h-265v108z" />
    <glyph glyph-name="Emacron" unicode="&#x112;" horiz-adv-x="588" 
d="M78 700h462v-130h-320v-142h280v-130h-280v-168h320v-130h-462v700zM145 898h338v-102h-338v102z" />
    <glyph glyph-name="emacron" unicode="&#x113;" horiz-adv-x="585" 
d="M167 306h252q-8 46 -39.5 73t-80.5 27q-50 0 -84.5 -27t-47.5 -73zM306 -14q-60 0 -109.5 19.5t-85.5 54.5t-55.5 84t-19.5 107q0 59 20 107.5t55 83t84 53.5t106 19q56 0 101.5 -18t78 -51t50.5 -78.5t18 -100.5q0 -11 -1 -24t-3 -28h-381q11 -53 48 -84.5t95 -31.5
q42 0 75 17.5t53 52.5l91 -72q-38 -54 -93.5 -82t-126.5 -28zM141 696h304v-100h-304v100z" />
    <glyph glyph-name="Ebreve" unicode="&#x114;" horiz-adv-x="588" 
d="M78 700h462v-130h-320v-142h280v-130h-280v-168h320v-130h-462v700zM309 777q-91 0 -145 43.5t-62 117.5h116q4 -29 26.5 -48t64.5 -19q41 0 64.5 19t27.5 48h116q-8 -73 -62.5 -117t-145.5 -44z" />
    <glyph glyph-name="ebreve" unicode="&#x115;" horiz-adv-x="585" 
d="M167 306h252q-8 46 -39.5 73t-80.5 27q-50 0 -84.5 -27t-47.5 -73zM306 -14q-60 0 -109.5 19.5t-85.5 54.5t-55.5 84t-19.5 107q0 59 20 107.5t55 83t84 53.5t106 19q56 0 101.5 -18t78 -51t50.5 -78.5t18 -100.5q0 -11 -1 -24t-3 -28h-381q11 -53 48 -84.5t95 -31.5
q42 0 75 17.5t53 52.5l91 -72q-38 -54 -93.5 -82t-126.5 -28zM300 584q-80 0 -129 43.5t-55 119.5h106q3 -34 24.5 -52.5t53.5 -18.5t54 18.5t26 52.5h106q-6 -76 -56 -119.5t-130 -43.5z" />
    <glyph glyph-name="Edotaccent" unicode="&#x116;" horiz-adv-x="588" 
d="M78 700h462v-130h-320v-142h280v-130h-280v-168h320v-130h-462v700zM238 867q0 34 23 56.5t57 22.5t57 -22.5t23 -56.5t-23 -56.5t-57 -22.5t-57 22.5t-23 56.5z" />
    <glyph glyph-name="edotaccent" unicode="&#x117;" horiz-adv-x="585" 
d="M167 306h252q-8 46 -39.5 73t-80.5 27q-50 0 -84.5 -27t-47.5 -73zM306 -14q-60 0 -109.5 19.5t-85.5 54.5t-55.5 84t-19.5 107q0 59 20 107.5t55 83t84 53.5t106 19q56 0 101.5 -18t78 -51t50.5 -78.5t18 -100.5q0 -11 -1 -24t-3 -28h-381q11 -53 48 -84.5t95 -31.5
q42 0 75 17.5t53 52.5l91 -72q-38 -54 -93.5 -82t-126.5 -28zM222 661q0 33 22.5 54.5t54.5 21.5t53.5 -21.5t21.5 -54.5t-21.5 -54.5t-53.5 -21.5t-54.5 21.5t-22.5 54.5z" />
    <glyph glyph-name="Eogonek" unicode="&#x118;" horiz-adv-x="588" 
d="M299 -118q0 34 16.5 63t51.5 55h-289v700h462v-130h-320v-142h280v-130h-280v-168h320v-130h-37q-59 -23 -83.5 -45t-24.5 -51q0 -25 16 -39t44 -14q17 0 32 5.5t26 13.5l26 -84q-42 -25 -98 -25q-65 0 -103.5 33t-38.5 88z" />
    <glyph glyph-name="eogonek" unicode="&#x119;" horiz-adv-x="585" 
d="M167 306h252q-8 46 -39.5 73t-80.5 27q-50 0 -84.5 -27t-47.5 -73zM260 -104q0 48 35 90q-58 2 -105.5 22t-81.5 55t-53 83t-19 105q0 59 20 107.5t55 83t84 53.5t106 19q56 0 101.5 -18t78 -51t50.5 -78.5t18 -100.5q0 -11 -1 -24t-3 -28h-381q11 -53 48 -84.5t95 -31.5
q42 0 75 17.5t53 52.5l91 -72q-35 -51 -85 -77q-24 -17 -40.5 -30.5t-26.5 -25.5t-14 -22.5t-4 -22.5q0 -24 15 -39.5t43 -15.5q15 0 29 4.5t25 12.5l26 -84q-41 -25 -95 -25q-64 0 -101.5 35t-37.5 90z" />
    <glyph glyph-name="Ecaron" unicode="&#x11a;" horiz-adv-x="588" 
d="M78 700h462v-130h-320v-142h280v-130h-280v-168h320v-130h-462v700zM208 939l86 -72l86 72h132l-166 -157h-104l-166 157h132z" />
    <glyph glyph-name="ecaron" unicode="&#x11b;" horiz-adv-x="585" 
d="M167 306h252q-8 46 -39.5 73t-80.5 27q-50 0 -84.5 -27t-47.5 -73zM306 -14q-60 0 -109.5 19.5t-85.5 54.5t-55.5 84t-19.5 107q0 59 20 107.5t55 83t84 53.5t106 19q56 0 101.5 -18t78 -51t50.5 -78.5t18 -100.5q0 -11 -1 -24t-3 -28h-381q11 -53 48 -84.5t95 -31.5
q42 0 75 17.5t53 52.5l91 -72q-38 -54 -93.5 -82t-126.5 -28zM102 750h116l75 -81l75 81h116l-144 -168h-94z" />
    <glyph glyph-name="Gcircumflex" unicode="&#x11c;" horiz-adv-x="802" 
d="M754 322q0 -78 -24 -140.5t-67.5 -106.5t-105.5 -67.5t-138 -23.5q-84 0 -152 28t-117 77t-75.5 116t-26.5 146q0 78 26.5 145t74.5 116t115 76.5t149 27.5q107 0 188.5 -46.5t123.5 -130.5l-120 -73q-29 58 -78 89t-115 31q-50 0 -91 -17.5t-70 -49t-45 -75t-16 -94.5
q0 -50 15.5 -93.5t45 -75t72 -49.5t96.5 -18q78 0 128.5 38t62.5 109h-256v126h396q2 -20 3 -35.5t1 -29.5zM354 938h104l166 -156h-132l-86 72l-86 -72h-132z" />
    <glyph glyph-name="gcircumflex" unicode="&#x11d;" horiz-adv-x="546" 
d="M169 339q0 -32 26.5 -53t71.5 -21t71 21t26 53t-26 53t-71 21t-71.5 -21t-26.5 -53zM142 -55q0 -26 32.5 -40t90.5 -14q63 0 102 16t39 43q0 25 -33.5 37.5t-95.5 12.5q-65 0 -100 -14t-35 -41zM453 433q29 -41 29 -94q0 -38 -15.5 -70t-43.5 -55.5t-68 -36.5t-88 -13
q-40 0 -76 9q-18 -11 -18 -30t24 -28t84 -10q125 -1 191 -39.5t66 -111.5q0 -39 -19 -70.5t-55 -53t-87 -33t-115 -11.5q-116 0 -178 36.5t-62 105.5q0 43 24 73t69 44q-44 34 -44 81q0 24 11 43.5t32 40.5q-29 21 -46 53t-17 76q0 38 15.5 70.5t43.5 55.5t68 36t89 13
q70 0 120 -26l76 81l66 -64zM232 750h94l144 -168h-116l-75 81l-75 -81h-116z" />
    <glyph glyph-name="Gbreve" unicode="&#x11e;" horiz-adv-x="802" 
d="M754 322q0 -78 -24 -140.5t-67.5 -106.5t-105.5 -67.5t-138 -23.5q-84 0 -152 28t-117 77t-75.5 116t-26.5 146q0 78 26.5 145t74.5 116t115 76.5t149 27.5q107 0 188.5 -46.5t123.5 -130.5l-120 -73q-29 58 -78 89t-115 31q-50 0 -91 -17.5t-70 -49t-45 -75t-16 -94.5
q0 -50 15.5 -93.5t45 -75t72 -49.5t96.5 -18q78 0 128.5 38t62.5 109h-256v126h396q2 -20 3 -35.5t1 -29.5zM401 777q-91 0 -145 43.5t-62 117.5h116q4 -29 26.5 -48t64.5 -19q41 0 64.5 19t27.5 48h116q-8 -73 -62.5 -117t-145.5 -44z" />
    <glyph glyph-name="gbreve" unicode="&#x11f;" horiz-adv-x="546" 
d="M169 339q0 -32 26.5 -53t71.5 -21t71 21t26 53t-26 53t-71 21t-71.5 -21t-26.5 -53zM142 -55q0 -26 32.5 -40t90.5 -14q63 0 102 16t39 43q0 25 -33.5 37.5t-95.5 12.5q-65 0 -100 -14t-35 -41zM453 433q29 -41 29 -94q0 -38 -15.5 -70t-43.5 -55.5t-68 -36.5t-88 -13
q-40 0 -76 9q-18 -11 -18 -30t24 -28t84 -10q125 -1 191 -39.5t66 -111.5q0 -39 -19 -70.5t-55 -53t-87 -33t-115 -11.5q-116 0 -178 36.5t-62 105.5q0 43 24 73t69 44q-44 34 -44 81q0 24 11 43.5t32 40.5q-29 21 -46 53t-17 76q0 38 15.5 70.5t43.5 55.5t68 36t89 13
q70 0 120 -26l76 81l66 -64zM273 584q-80 0 -129 43.5t-55 119.5h106q3 -34 24.5 -52.5t53.5 -18.5t54 18.5t26 52.5h106q-6 -76 -56 -119.5t-130 -43.5z" />
    <glyph glyph-name="dotlessi" unicode="&#x131;" horiz-adv-x="248" 
d="M60 500h128v-500h-128v500z" />
    <glyph glyph-name="Lslash" unicode="&#x141;" horiz-adv-x="587" 
d="M6 191v130l83 39v340h142v-273l198 94v-130l-198 -94v-167h320v-130h-462v230z" />
    <glyph glyph-name="lslash" unicode="&#x142;" horiz-adv-x="330" 
d="M12 204v128l89 55v335h128v-256l89 55v-128l-89 -55v-338h-128v259z" />
    <glyph glyph-name="ncaron" unicode="&#x148;" horiz-adv-x="575" 
d="M60 0v500h128v-66q47 80 144 80q41 0 75 -14t58.5 -40t38 -61.5t13.5 -79.5v-319h-128v283q0 53 -23.5 83t-69.5 30q-48 0 -78 -31t-30 -82v-283h-128zM97 750h116l75 -81l75 81h116l-144 -168h-94z" />
    <glyph glyph-name="Omacron" unicode="&#x14c;" horiz-adv-x="828" 
d="M415 -16q-81 0 -148 27.5t-116 76.5t-76 116t-27 146t27 146t76 116t116 76.5t148 27.5q80 0 147 -27.5t115.5 -76.5t75.5 -116t27 -146t-27 -146t-75.5 -116t-115.5 -76.5t-147 -27.5zM417 118q48 0 87.5 17.5t68.5 49t45 74t16 93.5q0 49 -16 91t-45 73t-68.5 48.5
t-87.5 17.5q-50 0 -91 -17.5t-70.5 -48.5t-45.5 -73t-16 -91q0 -51 16 -93.5t45.5 -74t70.5 -49t91 -17.5zM245 898h338v-102h-338v102z" />
    <glyph glyph-name="omacron" unicode="&#x14d;" horiz-adv-x="604" 
d="M302 -14q-58 0 -107 20t-84.5 55t-55 83.5t-19.5 105.5t19.5 105.5t55 83.5t84.5 55t107 20q59 0 107.5 -20t84 -55t55 -83.5t19.5 -105.5t-19.5 -105.5t-55 -83.5t-84 -55t-107.5 -20zM302 106q29 0 53.5 10.5t42.5 30t28 46t10 57.5q0 32 -10 58t-28 45.5t-42.5 30
t-53.5 10.5t-53.5 -10.5t-42.5 -30t-28 -45.5t-10 -58q0 -31 10 -57.5t28 -46t42.5 -30t53.5 -10.5zM150 696h304v-100h-304v100z" />
    <glyph glyph-name="Obreve" unicode="&#x14e;" horiz-adv-x="828" 
d="M415 -16q-81 0 -148 27.5t-116 76.5t-76 116t-27 146t27 146t76 116t116 76.5t148 27.5q80 0 147 -27.5t115.5 -76.5t75.5 -116t27 -146t-27 -146t-75.5 -116t-115.5 -76.5t-147 -27.5zM417 118q48 0 87.5 17.5t68.5 49t45 74t16 93.5q0 49 -16 91t-45 73t-68.5 48.5
t-87.5 17.5q-50 0 -91 -17.5t-70.5 -48.5t-45.5 -73t-16 -91q0 -51 16 -93.5t45.5 -74t70.5 -49t91 -17.5zM414 777q-91 0 -145 43.5t-62 117.5h116q4 -29 26.5 -48t64.5 -19q41 0 64.5 19t27.5 48h116q-8 -73 -62.5 -117t-145.5 -44z" />
    <glyph glyph-name="obreve" unicode="&#x14f;" horiz-adv-x="604" 
d="M302 -14q-58 0 -107 20t-84.5 55t-55 83.5t-19.5 105.5t19.5 105.5t55 83.5t84.5 55t107 20q59 0 107.5 -20t84 -55t55 -83.5t19.5 -105.5t-19.5 -105.5t-55 -83.5t-84 -55t-107.5 -20zM302 106q29 0 53.5 10.5t42.5 30t28 46t10 57.5q0 32 -10 58t-28 45.5t-42.5 30
t-53.5 10.5t-53.5 -10.5t-42.5 -30t-28 -45.5t-10 -58q0 -31 10 -57.5t28 -46t42.5 -30t53.5 -10.5zM301 584q-80 0 -129 43.5t-55 119.5h106q3 -34 24.5 -52.5t53.5 -18.5t54 18.5t26 52.5h106q-6 -76 -56 -119.5t-130 -43.5z" />
    <glyph glyph-name="OE" unicode="&#x152;" horiz-adv-x="1104" 
d="M417 118q57 0 102.5 25t74.5 68v279q-29 42 -74.5 67t-102.5 25q-50 0 -91 -17.5t-70.5 -48.5t-45.5 -73t-16 -91q0 -51 16 -93.5t45.5 -74t70.5 -49t91 -17.5zM409 -16q-79 0 -145.5 27.5t-114.5 76.5t-74.5 116t-26.5 146t26.5 146t74.5 116t114.5 76.5t145.5 27.5
q52 0 98.5 -12.5t86.5 -35.5v32h462v-130h-320v-142h280v-130h-280v-168h320v-130h-462v32q-40 -23 -86.5 -35.5t-98.5 -12.5z" />
    <glyph glyph-name="oe" unicode="&#x153;" horiz-adv-x="985" 
d="M302 106q29 0 53.5 10.5t42.5 30t28 46t10 57.5q0 32 -10 58t-28 45.5t-42.5 30t-53.5 10.5t-53.5 -10.5t-42.5 -30t-28 -45.5t-10 -58q0 -31 10 -57.5t28 -46t42.5 -30t53.5 -10.5zM567 306h252q-8 46 -39.5 73t-80.5 27q-50 0 -84.5 -27t-47.5 -73zM709 -14
q-66 0 -119 24t-88 68q-35 -43 -87.5 -67.5t-116.5 -24.5q-57 0 -105.5 20t-83 55t-54 83.5t-19.5 105.5t19.5 105.5t54 83.5t83 55t105.5 20q64 0 116 -24.5t87 -66.5q35 43 87.5 67t116.5 24q55 0 100 -18t77 -51t49.5 -78.5t17.5 -100.5q0 -11 -1 -24t-3 -28h-381
q11 -53 48 -84.5t95 -31.5q42 0 75 17.5t53 52.5l91 -72q-75 -110 -217 -110z" />
    <glyph glyph-name="Scaron" unicode="&#x160;" horiz-adv-x="650" 
d="M333 -16q-221 0 -307 192l122 60q29 -60 75 -92t113 -32q58 0 96 23t38 62q0 35 -30.5 54t-76 32t-98.5 26t-98.5 35.5t-76 60.5t-30.5 101q0 47 18.5 85.5t52 66.5t81.5 43t108 15q96 0 170 -41t117 -124l-119 -62q-23 48 -66 74.5t-101 26.5q-57 0 -88 -23t-31 -53
q0 -31 30.5 -48t76.5 -29t99 -25t99 -36.5t76.5 -63t30.5 -105.5q0 -51 -19.5 -92t-56.5 -70.5t-88.5 -45t-116.5 -15.5zM239 939l86 -72l86 72h132l-166 -157h-104l-166 157h132z" />
    <glyph glyph-name="scaron" unicode="&#x161;" horiz-adv-x="504" 
d="M259 -14q-81 0 -139.5 33t-91.5 99l94 59q43 -85 140 -85q40 0 64 13.5t24 36.5q0 22 -22 34t-55 21t-71 18t-71 26t-55 44.5t-22 73.5q0 69 52.5 112t148.5 43q150 0 212 -114l-95 -59q-17 33 -47.5 51t-71.5 18q-38 0 -58.5 -14t-20.5 -32q0 -20 22 -30.5t55.5 -19
t72.5 -17.5t72.5 -26t55.5 -45.5t22 -74.5q0 -37 -15.5 -67.5t-43.5 -52t-67.5 -33.5t-88.5 -12zM61 750h116l75 -81l75 81h116l-144 -168h-94z" />
    <glyph glyph-name="tcaron" unicode="&#x165;" horiz-adv-x="488" 
d="M226 216q0 -54 23 -77t75 -23h64v-122h-81q-108 0 -158.5 51.5t-50.5 160.5v178h-84v116h84v140h128v-424zM270 659q0 34 22.5 56t57.5 22q40 0 64 -30.5t24 -81.5q0 -108 -113 -215l-55 53q33 33 51.5 59.5t28.5 56.5q-35 0 -57.5 22.5t-22.5 57.5z" />
    <glyph glyph-name="uring" unicode="&#x16f;" horiz-adv-x="575" 
d="M515.004 500v-499.97h-127.992v65.9961q-46.9971 -79.9951 -143.991 -79.9951q-40.998 0 -74.9961 13.999q-33.9971 13.999 -58.4961 39.998q-24.498 25.998 -37.998 61.4961q-13.499 35.498 -13.499 79.4951v318.98h127.992v-282.982q0 -52.9971 23.499 -82.9951
q23.498 -29.998 69.4951 -29.998q47.998 0 77.9961 30.998t29.998 81.9951v282.982h127.992zM288 576q-26 0 -49 8.5t-39.5 24.5t-26 38t-9.5 49t9.5 49t26 38t39.5 24.5t49 8.5t49 -8.5t39.5 -24.5t26 -38t9.5 -49t-9.5 -49t-26 -38t-39.5 -24.5t-49 -8.5zM288 648
q20 0 33 13.5t13 34.5t-13 34.5t-33 13.5t-33 -13.5t-13 -34.5t13 -34.5t33 -13.5z" />
    <glyph glyph-name="Ycircumflex" unicode="&#x176;" horiz-adv-x="650" 
d="M254 0v274l-236 426h154l155 -304l155 304h150l-236 -426v-274h-142zM273 938h104l166 -156h-132l-86 72l-86 -72h-132z" />
    <glyph glyph-name="ycircumflex" unicode="&#x177;" 
d="M215 5l-199 495h134l127 -344l123 344h134l-273 -700h-126zM228 750h94l144 -168h-116l-75 81l-75 -81h-116z" />
    <glyph glyph-name="Ydieresis" unicode="&#x178;" horiz-adv-x="650" 
d="M254 0v274l-236 426h154l155 -304l155 304h150l-236 -426v-274h-142zM139 861q0 33 22 54.5t54 21.5t54 -21.5t22 -54.5t-22 -54.5t-54 -21.5t-54 21.5t-22 54.5zM359 861q0 33 22.5 54.5t54.5 21.5t53.5 -21.5t21.5 -54.5t-21.5 -54.5t-53.5 -21.5t-54.5 21.5
t-22.5 54.5z" />
    <glyph glyph-name="Zcaron" unicode="&#x17d;" horiz-adv-x="667" 
d="M79 700h530v-139l-391 -431h391v-130h-551v140l391 430h-370v130zM143 950h116l75 -81l75 81h116l-144 -168h-94z" />
    <glyph glyph-name="zcaron" unicode="&#x17e;" horiz-adv-x="491" 
d="M40 120l258 264h-246v116h397v-120l-258 -264h260v-116h-411v120zM55 750h116l75 -81l75 81h116l-144 -168h-94z" />
    <glyph glyph-name="uni02BC" unicode="&#x2bc;" horiz-adv-x="268" 
d="M50 630q0 34 22.5 56t57.5 22q40 0 64 -30.5t24 -81.5q0 -108 -113 -215l-55 53q33 33 51.5 59.5t28.5 56.5q-35 0 -57.5 22.5t-22.5 57.5z" />
    <glyph glyph-name="circumflex" unicode="&#x2c6;" horiz-adv-x="422" 
d="M164 750h94l144 -168h-116l-75 81l-75 -81h-116z" />
    <glyph glyph-name="caron" unicode="&#x2c7;" horiz-adv-x="426" 
d="M20 750h116l75 -81l75 81h116l-144 -168h-94z" />
    <glyph glyph-name="uni02C9" unicode="&#x2c9;" horiz-adv-x="384" 
d="M30 725h324v-101h-324v101z" />
    <glyph glyph-name="breve" unicode="&#x2d8;" horiz-adv-x="410" 
d="M204 584q-80 0 -129 43.5t-55 119.5h106q3 -34 24.5 -52.5t53.5 -18.5t54 18.5t26 52.5h106q-6 -76 -56 -119.5t-130 -43.5z" />
    <glyph glyph-name="dotaccent" unicode="&#x2d9;" horiz-adv-x="212" 
d="M30 661q0 33 22.5 54.5t54.5 21.5t53.5 -21.5t21.5 -54.5t-21.5 -54.5t-53.5 -21.5t-54.5 21.5t-22.5 54.5z" />
    <glyph glyph-name="ring" unicode="&#x2da;" horiz-adv-x="308" 
d="M154 576q-26 0 -49 8.5t-39.5 24.5t-26 38t-9.5 49t9.5 49t26 38t39.5 24.5t49 8.5t49 -8.5t39.5 -24.5t26 -38t9.5 -49t-9.5 -49t-26 -38t-39.5 -24.5t-49 -8.5zM154 648q20 0 33 13.5t13 34.5t-13 34.5t-33 13.5t-33 -13.5t-13 -34.5t13 -34.5t33 -13.5z" />
    <glyph glyph-name="ogonek" unicode="&#x2db;" horiz-adv-x="260" 
d="M27 -113q0 26 9.5 48.5t30 43t52.5 40.5t78 40l26 -59q-56 -25 -78 -45.5t-22 -46.5q0 -24 14.5 -37.5t40.5 -13.5q17 0 30.5 5.5t24.5 13.5l26 -84q-41 -25 -95 -25q-63 0 -100 32.5t-37 87.5z" />
    <glyph glyph-name="tilde" unicode="&#x2dc;" horiz-adv-x="391" 
d="M140 639q-17 0 -27.5 -14.5t-10.5 -42.5h-82q0 42 10 70.5t26 45.5t36 24t41 7q27 0 43.5 -9t28.5 -20t22 -20t25 -9q36 0 36 58h82q0 -42 -9.5 -70.5t-25 -45.5t-35.5 -24.5t-41 -7.5q-27 0 -43.5 9t-28.5 20t-22 20t-25 9z" />
    <glyph glyph-name="uni0400" unicode="&#x400;" horiz-adv-x="588" 
d="M78 700h462v-130h-320v-142h280v-130h-280v-168h320v-130h-462v700zM173 950h146l96 -168h-120z" />
    <glyph glyph-name="uni0401" unicode="&#x401;" horiz-adv-x="588" 
d="M78 700h462v-130h-320v-142h280v-130h-280v-168h320v-130h-462v700zM117 855q0 34 23 56.5t57 22.5t57 -22.5t23 -56.5t-23 -56.5t-57 -22.5t-57 22.5t-23 56.5zM351 855q0 34 23 56.5t57 22.5t57 -22.5t23 -56.5t-23 -56.5t-57 -22.5t-57 22.5t-23 56.5z" />
    <glyph glyph-name="uni0402" unicode="&#x402;" horiz-adv-x="803" 
d="M318 0h-142v570h-138v130h576v-130h-296v-173q35 22 79.5 33.5t92.5 11.5q63 0 113 -21t84.5 -59.5t53 -92.5t18.5 -121q0 -71 -20.5 -127t-59.5 -96t-95 -63.5t-127 -29.5l-18 139q87 10 130.5 55t43.5 121t-40.5 119.5t-112.5 43.5q-39 0 -76 -13.5t-66 -37.5v-259z
" />
    <glyph glyph-name="uni0403" unicode="&#x403;" horiz-adv-x="549" 
d="M78 700h435v-130h-293v-570h-142v700zM329 938h160l-137 -156h-136z" />
    <glyph glyph-name="uni0404" unicode="&#x404;" horiz-adv-x="762" 
d="M413 -16q-81 0 -148 27.5t-115 76.5t-75 116t-27 146t27 146t75 116t115 76.5t148 27.5q112 0 195.5 -53t123.5 -148l-128 -62q-27 63 -77 96t-116 33q-80 0 -135.5 -45.5t-73.5 -119.5h295v-126h-297q8 -38 27 -70t46 -55t62 -35.5t76 -12.5q66 0 116 33t77 96l128 -62
q-40 -95 -123.5 -148t-195.5 -53z" />
    <glyph glyph-name="uni0405" unicode="&#x405;" horiz-adv-x="650" 
d="M333 -16q-221 0 -307 192l122 60q29 -60 75 -92t113 -32q58 0 96 23t38 62q0 35 -30.5 54t-76 32t-98.5 26t-98.5 35.5t-76 60.5t-30.5 101q0 47 18.5 85.5t52 66.5t81.5 43t108 15q96 0 170 -41t117 -124l-119 -62q-23 48 -66 74.5t-101 26.5q-57 0 -88 -23t-31 -53
q0 -31 30.5 -48t76.5 -29t99 -25t99 -36.5t76.5 -63t30.5 -105.5q0 -51 -19.5 -92t-56.5 -70.5t-88.5 -45t-116.5 -15.5z" />
    <glyph glyph-name="uni0406" unicode="&#x406;" horiz-adv-x="320" 
d="M86 700h142v-700h-142v700z" />
    <glyph glyph-name="uni0407" unicode="&#x407;" horiz-adv-x="314" 
d="M86 700h142v-700h-142v700zM-40 855q0 34 23 56.5t57 22.5t57 -22.5t23 -56.5t-23 -56.5t-57 -22.5t-57 22.5t-23 56.5zM194 855q0 34 23 56.5t57 22.5t57 -22.5t23 -56.5t-23 -56.5t-57 -22.5t-57 22.5t-23 56.5z" />
    <glyph glyph-name="uni0408" unicode="&#x408;" horiz-adv-x="626" 
d="M300 122q50 0 79 31.5t29 85.5v461h142v-466q0 -56 -17.5 -102t-50.5 -78.5t-79 -50t-103 -17.5t-103 17.5t-79 50t-50.5 78.5t-17.5 102v26l142 14v-35q0 -54 29 -85.5t79 -31.5z" />
    <glyph glyph-name="uni0409" unicode="&#x409;" horiz-adv-x="1051" 
d="M20 -8v148h12q33 0 54 14t34 49t18 94t5 149v254h486v-222h144q54 0 99 -17t76.5 -48.5t49 -75.5t17.5 -98t-17.5 -98t-49 -75.5t-76 -48.5t-99.5 -17h-282v564h-210v-148q0 -123 -13.5 -205t-42.5 -130.5t-74.5 -68.5t-110.5 -20h-20zM629 352v-226h132q51 0 81.5 30.5
t30.5 82.5t-30.5 82.5t-81.5 30.5h-132z" />
    <glyph glyph-name="uni040A" unicode="&#x40a;" horiz-adv-x="1068" 
d="M646 126h132q51 0 81.5 27.5t30.5 75.5t-30.5 75.5t-81.5 27.5h-132v-206zM78 0v700h142v-242h288v242h138v-242h144q54 0 99 -16.5t76.5 -46.5t49 -72.5t17.5 -93.5q0 -52 -17.5 -94t-49 -72t-76 -46.5t-99.5 -16.5h-282v332h-288v-332h-142z" />
    <glyph glyph-name="uni040B" unicode="&#x40b;" horiz-adv-x="804" 
d="M318 0h-142v570h-138v130h576v-130h-296v-174q34 21 77.5 33.5t95.5 12.5q116 0 180.5 -65t64.5 -183v-194h-142v163q0 73 -35 110t-99 37q-42 0 -78 -14t-64 -37v-259z" />
    <glyph glyph-name="uni040C" unicode="&#x40c;" horiz-adv-x="679" 
d="M438 368l219 -368h-164l-177 304h-90v-304h-148v700h148v-272h94l177 272h160zM386 938h160l-137 -156h-136z" />
    <glyph glyph-name="uni040D" unicode="&#x40d;" horiz-adv-x="751" 
d="M531 0v484l-297 -484h-156v700h142v-484l297 484h156v-700h-142zM326 782l-137 156h160l113 -156h-136z" />
    <glyph glyph-name="uni040E" unicode="&#x40e;" horiz-adv-x="634" 
d="M324 351l142 349h150l-307 -700h-143l91 204l-239 496h154zM319 777q-91 0 -145 43.5t-62 117.5h116q4 -29 26.5 -48t64.5 -19q41 0 64.5 19t27.5 48h116q-8 -73 -62.5 -117t-145.5 -44z" />
    <glyph glyph-name="uni040F" unicode="&#x40f;" horiz-adv-x="746" 
d="M220 700v-570h306v570h142v-700h-224v-142h-142v142h-224v700h142z" />
    <glyph glyph-name="uni0410" unicode="&#x410;" horiz-adv-x="690" 
d="M256 274h174l-87 261zM419 700l253 -700h-150l-50 150h-258l-50 -150h-146l253 700h148z" />
    <glyph glyph-name="uni0411" unicode="&#x411;" horiz-adv-x="633" 
d="M78 700h455v-134h-317v-133h154q51 0 92.5 -16t71 -45t45.5 -68.5t16 -86.5t-16 -87t-45 -69t-70 -45t-91 -16h-295v700zM216 307v-181h142q42 0 68.5 23.5t26.5 67.5q0 43 -26.5 66.5t-68.5 23.5h-142z" />
    <glyph glyph-name="uni0412" unicode="&#x412;" horiz-adv-x="653" 
d="M216 300v-178h161q43 0 69.5 24t26.5 65t-26.5 65t-69.5 24h-161zM216 418h144q37 0 61 22t24 58t-24 58t-61 22h-144v-160zM78 700h295q47 0 86.5 -12.5t68 -36.5t44 -57.5t15.5 -75.5q0 -54 -26 -93t-74 -58q64 -19 96 -62.5t32 -107.5q0 -44 -15.5 -80t-44.5 -62
t-71.5 -40.5t-95.5 -14.5h-310v700z" />
    <glyph glyph-name="uni0413" unicode="&#x413;" horiz-adv-x="549" 
d="M78 700h435v-130h-293v-570h-142v700z" />
    <glyph glyph-name="uni0414" unicode="&#x414;" horiz-adv-x="784" 
d="M514 130v441h-224v-92q0 -48 -2.5 -98.5t-7.5 -97.5t-12.5 -87t-17.5 -66h264zM176 0v-141h-142v271h66q14 24 24 62.5t16 87.5t9 105t3 115v201h504v-571h94v-271h-142v141h-432z" />
    <glyph glyph-name="uni0415" unicode="&#x415;" horiz-adv-x="588" 
d="M78 700h462v-130h-320v-142h280v-130h-280v-168h320v-130h-462v700z" />
    <glyph glyph-name="uni0416" unicode="&#x416;" horiz-adv-x="968" 
d="M792 0l-150 306h-84v-306h-148v306h-84l-150 -306h-158l192 366l-192 334h156l149 -274h87v274h148v-274h87l149 274h156l-192 -334l192 -366h-158z" />
    <glyph glyph-name="uni0417" unicode="&#x417;" horiz-adv-x="641" 
d="M320 -16q-110 0 -184.5 46t-115.5 137l122 65q50 -116 178 -116q63 0 101 27t38 73q0 39 -28.5 60t-82.5 21h-132v126h130q45 0 71 21t26 56q0 41 -34 64.5t-91 23.5q-110 0 -158 -97l-118 64q85 161 281 161q59 0 107 -14t82.5 -40.5t53.5 -63.5t19 -84q0 -55 -27 -94.5
t-76 -56.5q58 -19 89.5 -62t31.5 -103q0 -48 -20.5 -87.5t-58 -67.5t-89.5 -43.5t-115 -15.5z" />
    <glyph glyph-name="uni0418" unicode="&#x418;" horiz-adv-x="751" 
d="M531 0v484l-297 -484h-156v700h142v-484l297 484h156v-700h-142z" />
    <glyph glyph-name="uni0419" unicode="&#x419;" horiz-adv-x="751" 
d="M531 0v484l-297 -484h-156v700h142v-484l297 484h156v-700h-142zM375 777q-91 0 -145 43.5t-62 117.5h116q4 -29 26.5 -48t64.5 -19q41 0 64.5 19t27.5 48h116q-8 -73 -62.5 -117t-145.5 -44z" />
    <glyph glyph-name="uni041A" unicode="&#x41a;" horiz-adv-x="679" 
d="M438 368l219 -368h-164l-177 304h-90v-304h-148v700h148v-272h94l177 272h160z" />
    <glyph glyph-name="uni041B" unicode="&#x41b;" horiz-adv-x="741" 
d="M40 140h12q33 0 54 14t34 49t18 94t5 149v254h500v-700h-142v564h-220v-148q0 -123 -13.5 -205t-42.5 -130.5t-74.5 -68.5t-110.5 -20h-20v148z" />
    <glyph glyph-name="uni041C" unicode="&#x41c;" horiz-adv-x="914" 
d="M459 271l201 429h176v-700h-136v497l-198 -404h-90l-198 404v-497h-136v700h180z" />
    <glyph glyph-name="uni041D" unicode="&#x41d;" horiz-adv-x="744" 
d="M78 700h142v-264h304v264h142v-700h-142v306h-304v-306h-142v700z" />
    <glyph glyph-name="uni041E" unicode="&#x41e;" horiz-adv-x="828" 
d="M415 -16q-81 0 -148 27.5t-116 76.5t-76 116t-27 146t27 146t76 116t116 76.5t148 27.5q80 0 147 -27.5t115.5 -76.5t75.5 -116t27 -146t-27 -146t-75.5 -116t-115.5 -76.5t-147 -27.5zM417 118q48 0 87.5 17.5t68.5 49t45 74t16 93.5q0 49 -16 91t-45 73t-68.5 48.5
t-87.5 17.5q-50 0 -91 -17.5t-70.5 -48.5t-45.5 -73t-16 -91q0 -51 16 -93.5t45.5 -74t70.5 -49t91 -17.5z" />
    <glyph glyph-name="uni041F" unicode="&#x41f;" horiz-adv-x="746" 
d="M78 700h590v-700h-142v570h-306v-570h-142v700z" />
    <glyph glyph-name="uni0420" unicode="&#x420;" horiz-adv-x="647" 
d="M224 360h136q50 0 79.5 30t29.5 77t-29.5 77t-79.5 30h-136v-214zM86 0v700h282q54 0 98.5 -16.5t77 -47.5t50 -73.5t17.5 -95.5t-17.5 -96t-50 -73.5t-77 -47t-98.5 -16.5h-144v-234h-138z" />
    <glyph glyph-name="uni0421" unicode="&#x421;" horiz-adv-x="760" 
d="M413 -16q-81 0 -148 27.5t-115 76.5t-75 116t-27 146t27 146t75 116t115 76.5t148 27.5q112 0 195.5 -53t123.5 -148l-125 -63q-24 63 -74.5 96.5t-119.5 33.5q-48 0 -88.5 -17t-69.5 -48t-45 -73.5t-16 -93.5t16 -93.5t45 -73.5t69.5 -48t88.5 -17q69 0 119.5 33.5
t74.5 96.5l125 -63q-40 -95 -123.5 -148t-195.5 -53z" />
    <glyph glyph-name="uni0422" unicode="&#x422;" horiz-adv-x="628" 
d="M592 700v-130h-204v-570h-148v570h-204v130h556z" />
    <glyph glyph-name="uni0423" unicode="&#x423;" horiz-adv-x="634" 
d="M324 351l142 349h150l-307 -700h-143l91 204l-239 496h154z" />
    <glyph glyph-name="uni0424" unicode="&#x424;" horiz-adv-x="886" 
d="M375 528q-40 -1 -74 -15t-58.5 -38t-38.5 -56t-14 -71t14 -70.5t38.5 -54.5t58.5 -36t74 -15v356zM511 172q40 2 74 15.5t58.5 37t38.5 55.5t14 70t-14 70t-38.5 55.5t-58.5 37.5t-74 15v-356zM375 -26v66q-77 5 -137.5 30t-102.5 66t-64.5 95.5t-22.5 118.5t22.5 118.5
t64.5 95.5t102.5 66t137.5 30v66h136v-66q77 -5 137.5 -30t102.5 -66t64.5 -95.5t22.5 -118.5t-22.5 -118.5t-64.5 -95.5t-102.5 -66t-137.5 -30v-66h-136z" />
    <glyph glyph-name="uni0425" unicode="&#x425;" horiz-adv-x="656" 
d="M18 0l218 361l-203 339h160l137 -238l137 238h156l-203 -339l218 -361h-166l-146 257l-146 -257h-162z" />
    <glyph glyph-name="uni0426" unicode="&#x426;" horiz-adv-x="796" 
d="M220 700v-570h306v570h142v-570h94v-272h-142v142h-542v700h142z" />
    <glyph glyph-name="uni0427" unicode="&#x427;" horiz-adv-x="722" 
d="M644 0h-142v279q-35 -21 -81 -34t-100 -13q-120 0 -186.5 66.5t-66.5 191.5v210h142v-197q0 -63 36.5 -98t103.5 -35q44 0 84 14.5t68 39.5v276h142v-700z" />
    <glyph glyph-name="uni0428" unicode="&#x428;" horiz-adv-x="954" 
d="M78 700h142v-570h186v570h142v-570h186v570h142v-700h-798v700z" />
    <glyph glyph-name="uni0429" unicode="&#x429;" horiz-adv-x="1004" 
d="M78 700h142v-570h186v570h142v-570h186v570h142v-570h94v-271h-142v141h-750v700z" />
    <glyph glyph-name="uni042A" unicode="&#x42a;" horiz-adv-x="765" 
d="M38 700h295v-222h154q54 0 99 -17t76.5 -48.5t49 -75.5t17.5 -98t-17.5 -98t-49 -75.5t-76 -48.5t-99.5 -17h-292v564h-157v136zM333 352v-226h142q51 0 81.5 30.5t30.5 82.5t-30.5 82.5t-81.5 30.5h-142z" />
    <glyph glyph-name="uni042B" unicode="&#x42b;" horiz-adv-x="910" 
d="M78 700h138v-222h154q54 0 99 -17t76.5 -48.5t49 -75.5t17.5 -98t-17.5 -98t-49 -75.5t-76 -48.5t-99.5 -17h-292v700zM216 352v-226h142q51 0 81.5 30.5t30.5 82.5t-30.5 82.5t-81.5 30.5h-142zM832 700v-700h-142v700h142z" />
    <glyph glyph-name="uni042C" unicode="&#x42c;" horiz-adv-x="648" 
d="M78 700h138v-222h154q54 0 99 -17t76.5 -48.5t49 -75.5t17.5 -98t-17.5 -98t-49 -75.5t-76 -48.5t-99.5 -17h-292v700zM216 352v-226h142q51 0 81.5 30.5t30.5 82.5t-30.5 82.5t-81.5 30.5h-142z" />
    <glyph glyph-name="uni042D" unicode="&#x42d;" horiz-adv-x="760" 
d="M347 -16q-112 0 -195.5 53t-123.5 148l128 62q27 -63 77 -96t116 -33q41 0 75.5 12.5t61.5 35t46 54t27 69.5h-296v130h294q-18 73 -73.5 118t-134.5 45q-66 0 -116 -33t-77 -96l-128 62q40 95 123.5 148t195.5 53q81 0 148 -27.5t115 -76.5t75 -116t27 -146t-27 -146
t-75 -116t-115 -76.5t-148 -27.5z" />
    <glyph glyph-name="uni042E" unicode="&#x42e;" horiz-adv-x="1123" 
d="M718 576q-47 0 -86 -17t-67.5 -47.5t-44 -72t-15.5 -89.5t15.5 -89.5t44 -72t67.5 -47.5t86 -17t86 17t67.5 47.5t44 72t15.5 89.5t-15.5 89.5t-44 72t-67.5 47.5t-86 17zM718 714q78 0 144 -27.5t113 -76.5t73.5 -115.5t26.5 -144.5t-26.5 -144.5t-73.5 -115.5
t-113 -76.5t-144 -27.5q-72 0 -133 23.5t-107.5 65t-76 99t-37.5 126.5h-144v-300h-142v700h142v-264h150q13 62 44 113t76 87.5t103 57t125 20.5z" />
    <glyph glyph-name="uni042F" unicode="&#x42f;" horiz-adv-x="662" 
d="M446 360v214h-136q-50 0 -79.5 -30t-29.5 -77t29.5 -77t79.5 -30h136zM584 0h-138v234h-129l-147 -234h-152l166 259q-58 27 -91.5 80.5t-33.5 127.5q0 53 17.5 95.5t50 73.5t77 47.5t98.5 16.5h282v-700z" />
    <glyph glyph-name="uni0430" unicode="&#x430;" 
d="M366 221l-85 -4q-70 -3 -96.5 -22.5t-26.5 -45.5q0 -27 22 -43t58 -16q56 0 92 35.5t36 94.5v1zM366 0v69q-54 -83 -163 -83q-41 0 -73 12t-53.5 33t-33 49t-11.5 60q0 74 57 118.5t170 48.5l107 4v4q0 42 -27.5 68.5t-76.5 26.5q-82 0 -116 -73l-100 50q28 60 83 93.5
t137 33.5q106 0 165 -55t59 -151v-308h-124z" />
    <glyph glyph-name="uni0431" unicode="&#x431;" horiz-adv-x="596" 
d="M308 100q56 0 90.5 36.5t34.5 96.5t-35 96t-90 36q-57 0 -92 -36t-35 -96t35.5 -96.5t91.5 -36.5zM311 -14q-62 0 -111.5 22.5t-83.5 64.5t-52 102t-18 135q0 93 17 161t53.5 114t93.5 70.5t136 30.5l168 13l8 -124l-166 -11q-51 -3 -87 -14.5t-60 -33t-36.5 -54.5
t-14.5 -79q58 94 173 94q51 0 93 -18t72 -50.5t47 -77t17 -98.5q0 -55 -18 -100.5t-50.5 -78t-78.5 -50.5t-102 -18z" />
    <glyph glyph-name="uni0432" unicode="&#x432;" horiz-adv-x="521" 
d="M180 98h127q28 0 43 16t15 39t-15 38.5t-43 15.5h-127v-109zM180 303h113q26 0 39.5 15t13.5 35t-13.5 34.5t-39.5 14.5h-113v-99zM60 0v500h255q39 0 68 -10.5t48 -28t28 -41t9 -49.5q0 -35 -18.5 -64t-63.5 -43q54 -16 77.5 -48.5t23.5 -74.5q0 -31 -12 -57t-34 -45
t-52.5 -29t-66.5 -10h-262z" />
    <glyph glyph-name="uni0433" unicode="&#x433;" horiz-adv-x="420" 
d="M66 500h336v-116h-208v-384h-128v500z" />
    <glyph glyph-name="uni0434" unicode="&#x434;" horiz-adv-x="615" 
d="M387 116v268h-152v-39q0 -45 -2 -79.5t-5.5 -61.5t-9 -48t-12.5 -40h181zM26 -120v236h52q9 15 15.5 35.5t11.5 52t7.5 76.5t2.5 108v112h400v-384h74v-236h-124v120h-315v-120h-124z" />
    <glyph glyph-name="uni0435" unicode="&#x435;" horiz-adv-x="585" 
d="M167 306h252q-8 46 -39.5 73t-80.5 27q-50 0 -84.5 -27t-47.5 -73zM306 -14q-60 0 -109.5 19.5t-85.5 54.5t-55.5 84t-19.5 107q0 59 20 107.5t55 83t84 53.5t106 19q56 0 101.5 -18t78 -51t50.5 -78.5t18 -100.5q0 -11 -1 -24t-3 -28h-381q11 -53 48 -84.5t95 -31.5
q42 0 75 17.5t53 52.5l91 -72q-38 -54 -93.5 -82t-126.5 -28z" />
    <glyph glyph-name="uni0436" unicode="&#x436;" horiz-adv-x="766" 
d="M271 312h48v188h128v-188h51l109 188h138l-150 -238l155 -262h-146l-109 206h-48v-206h-128v206h-45l-112 -206h-146l155 262l-150 238h138z" />
    <glyph glyph-name="uni0437" unicode="&#x437;" horiz-adv-x="500" 
d="M250 -14q-77 0 -135 31.5t-91 103.5l99 48q16 -38 46.5 -58.5t77.5 -20.5q42 0 69.5 16.5t27.5 48.5q0 26 -19.5 39.5t-54.5 13.5h-96v102h98q29 0 45.5 13t16.5 33q0 26 -24.5 41t-62.5 15q-81 0 -112 -68l-92 56q32 57 83 85.5t126 28.5q46 0 83 -10.5t63.5 -30
t41 -46.5t14.5 -60q0 -39 -20.5 -66t-62.5 -46q95 -27 95 -112q0 -36 -16 -65t-44.5 -49.5t-68 -31.5t-87.5 -11z" />
    <glyph glyph-name="uni0438" unicode="&#x438;" horiz-adv-x="586" 
d="M188 500v-316l208 316h130v-500h-128v316l-208 -316h-130v500h128z" />
    <glyph glyph-name="uni0439" unicode="&#x439;" horiz-adv-x="586" 
d="M188 500v-316l208 316h130v-500h-128v316l-208 -316h-130v500h128zM292 584q-80 0 -129 43.5t-55 119.5h106q3 -34 24.5 -52.5t53.5 -18.5t54 18.5t26 52.5h106q-6 -76 -56 -119.5t-130 -43.5z" />
    <glyph glyph-name="uni043A" unicode="&#x43a;" horiz-adv-x="548" 
d="M251 202h-65v-202h-126v500h126v-184h69l134 184h138l-180 -238l185 -262h-146z" />
    <glyph glyph-name="uni043B" unicode="&#x43b;" horiz-adv-x="565" 
d="M20 118h6q25 0 41 8.5t25.5 30t13 60t3.5 98.5v185h396v-500h-128v384h-148v-88q0 -80 -8.5 -137.5t-30 -94t-59 -53.5t-96.5 -17h-15v124z" />
    <glyph glyph-name="uni043C" unicode="&#x43c;" horiz-adv-x="688" 
d="M345 224l133 276h150v-500h-118v336l-132 -263h-68l-132 263v-336h-118v500h152z" />
    <glyph glyph-name="uni043D" unicode="&#x43d;" horiz-adv-x="580" 
d="M520 500v-500h-128v206h-204v-206h-128v500h128v-178h204v178h128z" />
    <glyph glyph-name="uni043E" unicode="&#x43e;" horiz-adv-x="604" 
d="M302 -14q-58 0 -107 20t-84.5 55t-55 83.5t-19.5 105.5t19.5 105.5t55 83.5t84.5 55t107 20q59 0 107.5 -20t84 -55t55 -83.5t19.5 -105.5t-19.5 -105.5t-55 -83.5t-84 -55t-107.5 -20zM302 106q29 0 53.5 10.5t42.5 30t28 46t10 57.5q0 32 -10 58t-28 45.5t-42.5 30
t-53.5 10.5t-53.5 -10.5t-42.5 -30t-28 -45.5t-10 -58q0 -31 10 -57.5t28 -46t42.5 -30t53.5 -10.5z" />
    <glyph glyph-name="uni043F" unicode="&#x43f;" horiz-adv-x="572" 
d="M60 500h452v-500h-128v384h-196v-384h-128v500z" />
    <glyph glyph-name="uni0440" unicode="&#x440;" horiz-adv-x="638" 
d="M328 106q29 0 53.5 11t42.5 30t28 46t10 58q0 32 -10 58t-28 45t-42.5 29.5t-53.5 10.5t-53.5 -10.5t-42.5 -29.5t-28 -45t-10 -58q0 -31 10 -58t28 -46t42.5 -30t53.5 -11zM363 -14q-57 0 -99.5 24.5t-69.5 66.5v-277h-128v700h128v-77q27 42 69.5 66.5t99.5 24.5
q51 0 93.5 -20t73 -55.5t47.5 -83.5t17 -105t-17 -105t-47.5 -83.5t-73 -55.5t-93.5 -20z" />
    <glyph glyph-name="uni0441" unicode="&#x441;" horiz-adv-x="566" 
d="M302 -14q-58 0 -107 19.5t-84 54.5t-55 83.5t-20 106.5t20 106.5t55 83.5t84 54.5t107 19.5q83 0 144 -39t90 -109l-113 -56q-17 41 -48 62.5t-73 21.5q-30 0 -54.5 -10.5t-42 -30t-27.5 -45.5t-10 -58q0 -31 10 -57.5t27.5 -46t42 -30t54.5 -10.5q42 0 73 21.5t48 62.5
l113 -56q-29 -70 -90 -109t-144 -39z" />
    <glyph glyph-name="uni0442" unicode="&#x442;" horiz-adv-x="468" 
d="M450 500v-116h-152v-384h-128v384h-152v116h432z" />
    <glyph glyph-name="uni0443" unicode="&#x443;" 
d="M215 5l-199 495h134l127 -344l123 344h134l-273 -700h-126z" />
    <glyph glyph-name="uni0444" unicode="&#x444;" horiz-adv-x="724" 
d="M300 722h124v-209q59 -4 108 -24.5t83.5 -55t53.5 -81t19 -102.5t-19 -102.5t-53.5 -81t-83.5 -55t-108 -24.5v-187h-124v187q-59 4 -108 24.5t-83.5 55t-53.5 81t-19 102.5t19 102.5t53.5 81t83.5 55t108 24.5v209zM424 103q60 5 98 45t38 102t-38 102t-98 45v-294z
M300 103v294q-60 -5 -98 -45t-38 -102t38 -102t98 -45z" />
    <glyph glyph-name="uni0445" unicode="&#x445;" horiz-adv-x="540" 
d="M347 256l177 -256h-148l-108 173l-108 -173h-144l177 256l-167 244h144l102 -164l102 164h140z" />
    <glyph glyph-name="uni0446" unicode="&#x446;" horiz-adv-x="612" 
d="M60 0v500h128v-384h196v384h128v-384h74v-236h-124v120h-402z" />
    <glyph glyph-name="uni0447" unicode="&#x447;" horiz-adv-x="551" 
d="M491 0h-128v192q-28 -14 -61.5 -21.5t-68.5 -7.5q-87 0 -139 49t-52 144v144h128v-112q0 -53 22 -81t75 -28q28 0 52.5 7.5t43.5 19.5v194h128v-500z" />
    <glyph glyph-name="uni0448" unicode="&#x448;" horiz-adv-x="772" 
d="M60 0v500h128v-384h134v384h128v-384h134v384h128v-500h-652z" />
    <glyph glyph-name="uni0449" unicode="&#x449;" horiz-adv-x="812" 
d="M60 0v500h128v-384h134v384h128v-384h134v384h128v-384h74v-236h-124v120h-602z" />
    <glyph glyph-name="uni044A" unicode="&#x44a;" horiz-adv-x="592" 
d="M259 500v-146h124q41 0 74.5 -13.5t57 -37t36.5 -56t13 -70.5t-13 -70.5t-36.5 -56t-57 -37t-74.5 -13.5h-244v382h-121v118h241zM259 108h108q35 0 55 19t20 50t-20 50t-55 19h-108v-138z" />
    <glyph glyph-name="uni044B" unicode="&#x44b;" horiz-adv-x="738" 
d="M550 500h128v-500h-128v500zM180 108h108q35 0 55 19t20 50t-20 50t-55 19h-108v-138zM304 0h-244v500h120v-146h124q41 0 74.5 -13.5t57 -37t36.5 -56t13 -70.5t-13 -70.5t-36.5 -56t-57 -37t-74.5 -13.5z" />
    <glyph glyph-name="uni044C" unicode="&#x44c;" horiz-adv-x="513" 
d="M180 108h108q35 0 55 19t20 50t-20 50t-55 19h-108v-138zM304 0h-244v500h120v-146h124q41 0 74.5 -13.5t57 -37t36.5 -56t13 -70.5t-13 -70.5t-36.5 -56t-57 -37t-74.5 -13.5z" />
    <glyph glyph-name="uni044D" unicode="&#x44d;" horiz-adv-x="565" 
d="M263 -14q-82 0 -143 38.5t-90 107.5l107 52q17 -39 49.5 -61.5t77.5 -22.5q49 0 83.5 27t48.5 72h-204v106h203q-14 44 -48.5 69.5t-82.5 25.5q-45 0 -77.5 -22.5t-49.5 -61.5l-107 52q29 69 90 107.5t143 38.5q58 0 107 -20t84 -55t55 -83.5t20 -105.5t-20 -105.5
t-55 -83.5t-84 -55t-107 -20z" />
    <glyph glyph-name="uni044E" unicode="&#x44e;" horiz-adv-x="832" 
d="M533 106q28 0 52 11t41.5 30t27.5 46t10 58q0 32 -10 58t-27.5 45t-41.5 29.5t-52 10.5t-52 -10.5t-41.5 -29.5t-27.5 -45t-10 -58q0 -31 10 -58t27.5 -46t41.5 -30t52 -11zM536 -14q-50 0 -93 15t-76 42t-55 65t-31 84h-93v-192h-128v500h128v-190h93q9 45 31.5 82.5
t55.5 64.5t76 42t92 15q57 0 105 -20t82.5 -55t53.5 -83.5t19 -105.5t-19 -105.5t-53.5 -83.5t-82.5 -55t-105 -20z" />
    <glyph glyph-name="uni044F" unicode="&#x44f;" horiz-adv-x="532" 
d="M349 392h-107q-35 0 -55 -18t-20 -47t20 -47t55 -18h107v130zM225 500h247v-500h-123v154h-98l-88 -154h-143l110 176q-41 22 -63.5 61t-22.5 90q0 38 13 69.5t36.5 54.5t57 36t74.5 13z" />
    <glyph glyph-name="uni0450" unicode="&#x450;" horiz-adv-x="585" 
d="M167 306h252q-8 46 -39.5 73t-80.5 27q-50 0 -84.5 -27t-47.5 -73zM306 -14q-60 0 -109.5 19.5t-85.5 54.5t-55.5 84t-19.5 107q0 59 20 107.5t55 83t84 53.5t106 19q56 0 101.5 -18t78 -51t50.5 -78.5t18 -100.5q0 -11 -1 -24t-3 -28h-381q11 -53 48 -84.5t95 -31.5
q42 0 75 17.5t53 52.5l91 -72q-38 -54 -93.5 -82t-126.5 -28zM132 750h146l96 -168h-120z" />
    <glyph glyph-name="uni0451" unicode="&#x451;" horiz-adv-x="585" 
d="M167 306h252q-8 46 -39.5 73t-80.5 27q-50 0 -84.5 -27t-47.5 -73zM306 -14q-60 0 -109.5 19.5t-85.5 54.5t-55.5 84t-19.5 107q0 59 20 107.5t55 83t84 53.5t106 19q56 0 101.5 -18t78 -51t50.5 -78.5t18 -100.5q0 -11 -1 -24t-3 -28h-381q11 -53 48 -84.5t95 -31.5
q42 0 75 17.5t53 52.5l91 -72q-38 -54 -93.5 -82t-126.5 -28zM115 661q0 33 22 54.5t54 21.5t54 -21.5t22 -54.5t-22 -54.5t-54 -21.5t-54 21.5t-22 54.5zM335 661q0 33 22.5 54.5t54.5 21.5t53.5 -21.5t21.5 -54.5t-21.5 -54.5t-53.5 -21.5t-54.5 21.5t-22.5 54.5z" />
    <glyph glyph-name="uni0452" unicode="&#x452;" horiz-adv-x="615" 
d="M26 621h74v79h128v-79h152v-104h-152v-123q47 80 144 80q41 0 75 -14t58.5 -40t38 -61.5t13.5 -79.5v-276q0 -102 -50 -155.5t-146 -53.5h-36v122h20q48 0 66 26t18 77v226q0 53 -23.5 83t-69.5 30q-48 0 -78 -31t-30 -82v-245h-128v517h-74v104z" />
    <glyph glyph-name="uni0453" unicode="&#x453;" horiz-adv-x="414" 
d="M60 500h336v-116h-208v-384h-128v500zM247 750h146l-116 -168h-120z" />
    <glyph glyph-name="uni0454" unicode="&#x454;" horiz-adv-x="565" 
d="M302 -14q-58 0 -107 20t-84 55t-55 83.5t-20 105.5t20 105.5t55 83.5t84 55t107 20q82 0 143 -38.5t90 -107.5l-107 -52q-17 39 -49.5 61.5t-77.5 22.5q-48 0 -82.5 -26t-48.5 -71h202v-102h-204q14 -46 48.5 -73.5t84.5 -27.5q45 0 77.5 22.5t49.5 61.5l107 -52
q-29 -69 -90 -107.5t-143 -38.5z" />
    <glyph glyph-name="uni0455" unicode="&#x455;" horiz-adv-x="504" 
d="M259 -14q-81 0 -139.5 33t-91.5 99l94 59q43 -85 140 -85q40 0 64 13.5t24 36.5q0 22 -22 34t-55 21t-71 18t-71 26t-55 44.5t-22 73.5q0 69 52.5 112t148.5 43q150 0 212 -114l-95 -59q-17 33 -47.5 51t-71.5 18q-38 0 -58.5 -14t-20.5 -32q0 -20 22 -30.5t55.5 -19
t72.5 -17.5t72.5 -26t55.5 -45.5t22 -74.5q0 -37 -15.5 -67.5t-43.5 -52t-67.5 -33.5t-88.5 -12z" />
    <glyph glyph-name="uni0456" unicode="&#x456;" horiz-adv-x="248" 
d="M60 500h128v-500h-128v500zM48 661q0 33 22.5 54.5t54.5 21.5t53.5 -21.5t21.5 -54.5t-21.5 -54.5t-53.5 -21.5t-54.5 21.5t-22.5 54.5z" />
    <glyph glyph-name="uni0457" unicode="&#x457;" horiz-adv-x="248" 
d="M60 500h128v-500h-128v500zM-47 661q0 32 22 54t54 22t54 -22t22 -54t-22 -54t-54 -22t-54 22t-22 54zM143 661q0 32 22 54t54 22t54 -22t22 -54t-22 -54t-54 -22t-54 22t-22 54z" />
    <glyph glyph-name="uni0458" unicode="&#x458;" horiz-adv-x="248" 
d="M60 500h128v-497q0 -102 -50 -155.5t-146 -53.5h-36v122h20q48 0 66 26t18 77v481zM48 661q0 -33 22.5 -54.5t54.5 -21.5t53.5 21.5t21.5 54.5t-21.5 54.5t-53.5 21.5t-54.5 -21.5t-22.5 -54.5z" />
    <glyph glyph-name="uni0459" unicode="&#x459;" horiz-adv-x="822" 
d="M487 108h98q35 0 55 19t20 50t-20 50t-55 19h-98v-138zM20 -6v124h6q25 0 41 8.5t25.5 30t13 60t3.5 98.5v185h378v-146h114q41 0 74.5 -13.5t57 -37t36.5 -56t13 -70.5t-13 -70.5t-36.5 -56t-57 -37t-74.5 -13.5h-234v384h-140v-88q0 -80 -8.5 -137.5t-30 -94
t-58.5 -53.5t-95 -17h-15z" />
    <glyph glyph-name="uni045A" unicode="&#x45a;" horiz-adv-x="853" 
d="M398 500h120v-159h122q39 0 71 -13t54.5 -35.5t35 -53.5t12.5 -68t-12.5 -68.5t-35 -54t-54.5 -35.5t-71 -13h-242v233h-204v-233h-128v500h128v-159h204v159zM518 108h106q30 0 48.5 17t18.5 46t-18.5 45.5t-48.5 16.5h-106v-125z" />
    <glyph glyph-name="uni045B" unicode="&#x45b;" horiz-adv-x="621" 
d="M28 621h74v79h128v-79h152v-104h-152v-123q47 80 144 80q41 0 75 -14t58.5 -40t38 -61.5t13.5 -79.5v-279h-128v245q0 53 -23.5 83t-69.5 30q-48 0 -78 -31t-30 -82v-245h-128v517h-74v104z" />
    <glyph glyph-name="uni045C" unicode="&#x45c;" horiz-adv-x="554" 
d="M257 202h-65v-202h-126v500h126v-184h69l134 184h138l-180 -238l185 -262h-146zM299 750h146l-116 -168h-120z" />
    <glyph glyph-name="uni045D" unicode="&#x45d;" horiz-adv-x="586" 
d="M188 500v-316l208 316h130v-500h-128v316l-208 -316h-130v500h128zM135 750h146l96 -168h-120z" />
    <glyph glyph-name="uni045E" unicode="&#x45e;" 
d="M215 5l-199 495h134l127 -344l123 344h134l-273 -700h-126zM274 584q-80 0 -129 43.5t-55 119.5h106q3 -34 24.5 -52.5t53.5 -18.5t54 18.5t26 52.5h106q-6 -76 -56 -119.5t-130 -43.5z" />
    <glyph glyph-name="uni045F" unicode="&#x45f;" horiz-adv-x="584" 
d="M66 0v500h128v-384h196v384h128v-500h-164v-120h-124v120h-164z" />
    <glyph glyph-name="uni0490" unicode="&#x490;" horiz-adv-x="559" 
d="M86 700h295v138h140v-268h-293v-570h-142v700z" />
    <glyph glyph-name="uni0491" unicode="&#x491;" horiz-adv-x="420" 
d="M280 625h122v-241h-208v-384h-128v500h214v125z" />
    <glyph glyph-name="uni04DE" unicode="&#x4de;" horiz-adv-x="641" 
d="M320 -16q-110 0 -184.5 46t-115.5 137l122 65q50 -116 178 -116q63 0 101 27t38 73q0 39 -28.5 60t-82.5 21h-132v126h130q45 0 71 21t26 56q0 41 -34 64.5t-91 23.5q-110 0 -158 -97l-118 64q85 161 281 161q59 0 107 -14t82.5 -40.5t53.5 -63.5t19 -84q0 -55 -27 -94.5
t-76 -56.5q58 -19 89.5 -62t31.5 -103q0 -48 -20.5 -87.5t-58 -67.5t-89.5 -43.5t-115 -15.5zM124 855q0 34 23 56.5t57 22.5t57 -22.5t23 -56.5t-23 -56.5t-57 -22.5t-57 22.5t-23 56.5zM358 855q0 34 23 56.5t57 22.5t57 -22.5t23 -56.5t-23 -56.5t-57 -22.5t-57 22.5
t-23 56.5z" />
    <glyph glyph-name="uni04DF" unicode="&#x4df;" horiz-adv-x="500" 
d="M250 -14q-77 0 -135 31.5t-91 103.5l99 48q16 -38 46.5 -58.5t77.5 -20.5q42 0 69.5 16.5t27.5 48.5q0 26 -19.5 39.5t-54.5 13.5h-96v102h98q29 0 45.5 13t16.5 33q0 26 -24.5 41t-62.5 15q-81 0 -112 -68l-92 56q32 57 83 85.5t126 28.5q46 0 83 -10.5t63.5 -30
t41 -46.5t14.5 -60q0 -39 -20.5 -66t-62.5 -46q95 -27 95 -112q0 -36 -16 -65t-44.5 -49.5t-68 -31.5t-87.5 -11zM64 661q0 33 22 54.5t54 21.5t54 -21.5t22 -54.5t-22 -54.5t-54 -21.5t-54 21.5t-22 54.5zM284 661q0 33 22.5 54.5t54.5 21.5t53.5 -21.5t21.5 -54.5
t-21.5 -54.5t-53.5 -21.5t-54.5 21.5t-22.5 54.5z" />
    <glyph glyph-name="uni04E2" unicode="&#x4e2;" horiz-adv-x="751" 
d="M531 0v484l-297 -484h-156v700h142v-484l297 484h156v-700h-142zM207 898h338v-102h-338v102z" />
    <glyph glyph-name="uni04E3" unicode="&#x4e3;" horiz-adv-x="586" 
d="M188 500v-316l208 316h130v-500h-128v316l-208 -316h-130v500h128zM141 696h304v-100h-304v100z" />
    <glyph glyph-name="uni04E4" unicode="&#x4e4;" horiz-adv-x="751" 
d="M531 0v484l-297 -484h-156v700h142v-484l297 484h156v-700h-142zM179 855q0 34 23 56.5t57 22.5t57 -22.5t23 -56.5t-23 -56.5t-57 -22.5t-57 22.5t-23 56.5zM413 855q0 34 23 56.5t57 22.5t57 -22.5t23 -56.5t-23 -56.5t-57 -22.5t-57 22.5t-23 56.5z" />
    <glyph glyph-name="uni04E5" unicode="&#x4e5;" horiz-adv-x="586" 
d="M188 500v-316l208 316h130v-500h-128v316l-208 -316h-130v500h128zM107 661q0 33 22 54.5t54 21.5t54 -21.5t22 -54.5t-22 -54.5t-54 -21.5t-54 21.5t-22 54.5zM327 661q0 33 22.5 54.5t54.5 21.5t53.5 -21.5t21.5 -54.5t-21.5 -54.5t-53.5 -21.5t-54.5 21.5t-22.5 54.5z
" />
    <glyph glyph-name="uni04E6" unicode="&#x4e6;" horiz-adv-x="828" 
d="M415 -16q-81 0 -148 27.5t-116 76.5t-76 116t-27 146t27 146t76 116t116 76.5t148 27.5q80 0 147 -27.5t115.5 -76.5t75.5 -116t27 -146t-27 -146t-75.5 -116t-115.5 -76.5t-147 -27.5zM417 118q48 0 87.5 17.5t68.5 49t45 74t16 93.5q0 49 -16 91t-45 73t-68.5 48.5
t-87.5 17.5q-50 0 -91 -17.5t-70.5 -48.5t-45.5 -73t-16 -91q0 -51 16 -93.5t45.5 -74t70.5 -49t91 -17.5zM217 855q0 34 23 56.5t57 22.5t57 -22.5t23 -56.5t-23 -56.5t-57 -22.5t-57 22.5t-23 56.5zM451 855q0 34 23 56.5t57 22.5t57 -22.5t23 -56.5t-23 -56.5t-57 -22.5
t-57 22.5t-23 56.5z" />
    <glyph glyph-name="uni04E7" unicode="&#x4e7;" horiz-adv-x="604" 
d="M302 -14q-58 0 -107 20t-84.5 55t-55 83.5t-19.5 105.5t19.5 105.5t55 83.5t84.5 55t107 20q59 0 107.5 -20t84 -55t55 -83.5t19.5 -105.5t-19.5 -105.5t-55 -83.5t-84 -55t-107.5 -20zM302 106q29 0 53.5 10.5t42.5 30t28 46t10 57.5q0 32 -10 58t-28 45.5t-42.5 30
t-53.5 10.5t-53.5 -10.5t-42.5 -30t-28 -45.5t-10 -58q0 -31 10 -57.5t28 -46t42.5 -30t53.5 -10.5zM116 661q0 33 22 54.5t54 21.5t54 -21.5t22 -54.5t-22 -54.5t-54 -21.5t-54 21.5t-22 54.5zM336 661q0 33 22.5 54.5t54.5 21.5t53.5 -21.5t21.5 -54.5t-21.5 -54.5
t-53.5 -21.5t-54.5 21.5t-22.5 54.5z" />
    <glyph glyph-name="uni04F8" unicode="&#x4f8;" horiz-adv-x="910" 
d="M78 700h138v-222h154q54 0 99 -17t76.5 -48.5t49 -75.5t17.5 -98t-17.5 -98t-49 -75.5t-76 -48.5t-99.5 -17h-292v700zM216 352v-226h142q51 0 81.5 30.5t30.5 82.5t-30.5 82.5t-81.5 30.5h-142zM832 700v-700h-142v700h142zM258 855q0 34 23 56.5t57 22.5t57 -22.5
t23 -56.5t-23 -56.5t-57 -22.5t-57 22.5t-23 56.5zM492 855q0 34 23 56.5t57 22.5t57 -22.5t23 -56.5t-23 -56.5t-57 -22.5t-57 22.5t-23 56.5z" />
    <glyph glyph-name="uni04F9" unicode="&#x4f9;" horiz-adv-x="741" 
d="M550 500h128v-500h-128v500zM180 108h108q35 0 55 19t20 50t-20 50t-55 19h-108v-138zM304 0h-244v500h120v-146h124q41 0 74.5 -13.5t57 -37t36.5 -56t13 -70.5t-13 -70.5t-36.5 -56t-57 -37t-74.5 -13.5zM185 661q0 33 22 54.5t54 21.5t54 -21.5t22 -54.5t-22 -54.5
t-54 -21.5t-54 21.5t-22 54.5zM405 661q0 33 22.5 54.5t54.5 21.5t53.5 -21.5t21.5 -54.5t-21.5 -54.5t-53.5 -21.5t-54.5 21.5t-22.5 54.5z" />
    <glyph glyph-name="endash" unicode="&#x2013;" horiz-adv-x="597" 
d="M46 321h505v-108h-505v108z" />
    <glyph glyph-name="emdash" unicode="&#x2014;" horiz-adv-x="737" 
d="M46 321h645v-108h-645v108z" />
    <glyph glyph-name="quoteleft" unicode="&#x2018;" horiz-adv-x="268" 
d="M218.003 459.004q0 -33.9971 -22.498 -55.9961q-22.499 -21.999 -57.4971 -21.999q-39.9971 0 -63.9961 30.498q-23.998 30.499 -23.998 81.4951q0 107.994 112.993 214.987l54.9961 -52.9971q-32.998 -32.998 -51.4971 -59.4961q-18.498 -26.498 -28.498 -56.4961
q34.998 0 57.4971 -22.499q22.498 -22.499 22.498 -57.4971z" />
    <glyph glyph-name="quoteright" unicode="&#x2019;" horiz-adv-x="268" 
d="M50 659q0 34 22.5 56t57.5 22q40 0 64 -30.5t24 -81.5q0 -108 -113 -215l-55 53q33 33 51.5 59.5t28.5 56.5q-35 0 -57.5 22.5t-22.5 57.5z" />
    <glyph glyph-name="quotesinglbase" unicode="&#x201a;" horiz-adv-x="243" 
d="M50 72q0 34 22.5 56t57.5 22q40 0 64 -30.5t24 -81.5q0 -108 -113 -215l-55 53q33 33 51.5 59.5t28.5 56.5q-35 0 -57.5 22.5t-22.5 57.5z" />
    <glyph glyph-name="quotedblleft" unicode="&#x201c;" horiz-adv-x="476" 
d="M218.003 459.004q0 -33.9971 -22.498 -55.9961q-22.499 -21.999 -57.4971 -21.999q-39.9971 0 -63.9961 30.498q-23.998 30.499 -23.998 81.4951q0 107.994 112.993 214.987l54.9961 -52.9971q-32.998 -32.998 -51.4971 -59.4961q-18.498 -26.498 -28.498 -56.4961
q34.998 0 57.4971 -22.499q22.498 -22.499 22.498 -57.4971zM426.003 459.004q0 -33.9971 -22.498 -55.9961q-22.499 -21.999 -57.4971 -21.999q-39.9971 0 -63.9961 30.498q-23.998 30.499 -23.998 81.4951q0 107.994 112.993 214.987l54.9961 -52.9971
q-32.998 -32.998 -51.4971 -59.4961q-18.498 -26.498 -28.498 -56.4961q34.998 0 57.4971 -22.499q22.498 -22.499 22.498 -57.4971z" />
    <glyph glyph-name="quotedblright" unicode="&#x201d;" horiz-adv-x="476" 
d="M50 630q0 34 22.5 56t57.5 22q40 0 64 -30.5t24 -81.5q0 -108 -113 -215l-55 53q33 33 51.5 59.5t28.5 56.5q-35 0 -57.5 22.5t-22.5 57.5zM258 630q0 34 22.5 56t57.5 22q40 0 64 -30.5t24 -81.5q0 -108 -113 -215l-55 53q33 33 51.5 59.5t28.5 56.5q-35 0 -57.5 22.5
t-22.5 57.5z" />
    <glyph glyph-name="quotedblbase" unicode="&#x201e;" horiz-adv-x="476" 
d="M258 72q0 34 22.5 56t57.5 22q40 0 64 -30.5t24 -81.5q0 -108 -113 -215l-55 53q33 33 51.5 59.5t28.5 56.5q-35 0 -57.5 22.5t-22.5 57.5zM50 72q0 34 22.5 56t57.5 22q40 0 64 -30.5t24 -81.5q0 -108 -113 -215l-55 53q33 33 51.5 59.5t28.5 56.5q-35 0 -57.5 22.5
t-22.5 57.5z" />
    <glyph glyph-name="ellipsis" unicode="&#x2026;" horiz-adv-x="660" 
d="M50 71q0 34 23.5 56.5t56.5 22.5t56.5 -22.5t23.5 -56.5t-23.5 -56.5t-56.5 -22.5t-56.5 22.5t-23.5 56.5zM250 71q0 34 23.5 56.5t56.5 22.5t56.5 -22.5t23.5 -56.5t-23.5 -56.5t-56.5 -22.5t-56.5 22.5t-23.5 56.5zM450 71q0 34 23.5 56.5t56.5 22.5t56.5 -22.5
t23.5 -56.5t-23.5 -56.5t-56.5 -22.5t-56.5 22.5t-23.5 56.5z" />
    <glyph glyph-name="perthousand" unicode="&#x2030;" horiz-adv-x="1187" 
d="M217 -25l487 702l-81 55l-487 -702zM207 354q-37 0 -67.5 14t-51.5 38t-32.5 57t-11.5 70q0 38 11.5 70.5t32.5 56.5t51.5 38t67.5 14q38 0 68 -14t51 -38t32.5 -56.5t11.5 -70.5q0 -37 -11.5 -70t-32.5 -57t-51 -38t-68 -14zM207 450q29 0 46 22.5t17 60.5t-17 60.5
t-46 22.5t-46 -22.5t-17 -60.5t17 -60.5t46 -22.5zM634 -12q-37 0 -67.5 14t-51.5 38t-32.5 57t-11.5 70q0 38 11.5 70.5t32.5 56.5t51.5 38t67.5 14q38 0 68 -14t51 -38t32.5 -56.5t11.5 -70.5q0 -37 -11.5 -70t-32.5 -57t-51 -38t-68 -14zM634 84q29 0 46 22.5t17 60.5
t-17 60.5t-46 22.5t-46 -22.5t-17 -60.5t17 -60.5t46 -22.5zM1004 -12q-37 0 -67.5 14t-51.5 38t-32.5 57t-11.5 70q0 38 11.5 70.5t32.5 56.5t51.5 38t67.5 14q38 0 68 -14t51 -38t32.5 -56.5t11.5 -70.5q0 -37 -11.5 -70t-32.5 -57t-51 -38t-68 -14zM1004 84q29 0 46 22.5
t17 60.5t-17 60.5t-46 22.5t-46 -22.5t-17 -60.5t17 -60.5t46 -22.5z" />
    <glyph glyph-name="guilsinglleft" unicode="&#x2039;" horiz-adv-x="374" 
d="M32 250l212 265l93 -68l-160 -197l161 -197l-94 -68z" />
    <glyph glyph-name="guilsinglright" unicode="&#x203a;" horiz-adv-x="374" 
d="M342 250l-212 -265l-94 68l161 197l-160 197l93 68z" />
    <glyph glyph-name="Euro" unicode="&#x20ac;" horiz-adv-x="723" 
d="M30 224v92h74q-1 8 -1 16.5v17.5v17.5t1 16.5h-74v92h92q18 54 50 98t75.5 75.5t98 49t117.5 17.5t116.5 -17.5t97.5 -49.5l-59 -116q-34 30 -70.5 43.5t-81.5 13.5q-73 0 -124 -30.5t-78 -83.5h286v-92h-312q-1 -8 -1.5 -16.5t-0.5 -17.5t0.5 -17.5t1.5 -16.5h312v-92
h-286q27 -53 78 -83.5t124 -30.5q108 0 169 71l72 -104q-46 -45 -107.5 -69t-136.5 -24q-63 0 -117.5 17.5t-98 49t-75.5 75.5t-50 98h-92z" />
    <glyph glyph-name="uni20B4" unicode="&#x20b4;" horiz-adv-x="611" 
d="M19 384v96h406q5 20 5 34q0 41 -35.5 66t-90.5 25q-48 0 -86 -20.5t-61 -62.5l-93 73q87 120 244 120q55 0 99 -13.5t75.5 -38.5t48.5 -60t17 -78q0 -9 -1 -20t-6 -25h57v-96h-579zM312 -16q-59 0 -106.5 14t-81 40t-51.5 63.5t-18 84.5q0 12 1.5 23.5t3.5 22.5h-41v96
h579v-96h-417q-2 -8 -4 -16.5t-2 -18.5q0 -48 38.5 -74.5t98.5 -26.5q114 0 163 97l102 -61q-42 -75 -106.5 -111.5t-158.5 -36.5z" />
    <glyph glyph-name="uni20BD" unicode="&#x20bd;" horiz-adv-x="643" 
d="M244 388h118q51 0 80 27t29 72q0 42 -29 68.5t-81 26.5h-117v-194zM30 99v100h86v77h-86v112h86v312h249q54 0 97.5 -15t74 -43t47.5 -67t17 -87t-17 -87.5t-48 -67t-75 -42.5t-98 -15h-119v-77h228v-100h-228v-99h-128v99h-86z" />
    <glyph glyph-name="a.ss01" horiz-adv-x="624" 
d="M302 106q29 0 53.5 11t42.5 30t28 46t10 58q0 32 -10 58t-28 45t-42.5 29.5t-53.5 10.5t-53.5 -10.5t-42.5 -29.5t-28 -45t-10 -58q0 -31 10 -58t28 -46t42.5 -30t53.5 -11zM267 -14q-51 0 -93.5 20t-73 55.5t-47.5 83.5t-17 105t17 105t47.5 83.5t73 55.5t93.5 20
q57 0 99.5 -24.5t69.5 -66.5v77h128v-500h-128v77q-27 -42 -69.5 -66.5t-99.5 -24.5z" />
    <glyph glyph-name="uni0430.ss01" horiz-adv-x="638" 
d="M310 106q29 0 53.5 11t42.5 30t28 46t10 58q0 32 -10 58t-28 45t-42.5 29.5t-53.5 10.5t-53.5 -10.5t-42.5 -29.5t-28 -45t-10 -58q0 -31 10 -58t28 -46t42.5 -30t53.5 -11zM275 -14q-51 0 -93.5 20t-73 55.5t-47.5 83.5t-17 105t17 105t47.5 83.5t73 55.5t93.5 20
q57 0 99.5 -24.5t69.5 -66.5v77h128v-500h-128v77q-27 -42 -69.5 -66.5t-99.5 -24.5z" />
    <glyph glyph-name="g.ss02" horiz-adv-x="604" 
d="M292 130q28 0 51.5 10t40.5 28.5t26.5 44t9.5 55.5q0 29 -9.5 53t-26.5 41.5t-40.5 27.5t-51.5 10t-51.5 -10t-40.5 -27.5t-26.5 -41.5t-9.5 -53q0 -30 9.5 -55.5t26.5 -44t40.5 -28.5t51.5 -10zM259 16q-49 0 -90.5 19t-70.5 52.5t-45.5 79t-16.5 98.5t16.5 98.5
t45.5 79t70.5 52.5t90.5 19q54 0 94.5 -22.5t66.5 -61.5v70h124v-450q0 -60 -19.5 -109t-54.5 -83.5t-84 -53t-109 -18.5q-81 0 -141 34.5t-92 97.5l101 60q47 -78 133 -78q63 0 102.5 40.5t39.5 113.5v46q-26 -39 -66.5 -61.5t-94.5 -22.5z" />
    <glyph glyph-name="J.1" horiz-adv-x="396" 
d="M176 700h142v-451q0 -125 -60.5 -191t-176.5 -66h-49v132h32q60 0 86 38t26 114v424z" />
    <glyph glyph-name="grave.case" horiz-adv-x="333" 
d="M167 782l-137 156h160l113 -156h-136z" />
    <glyph glyph-name="dieresis.case" horiz-adv-x="454" 
d="M30 855q0 34 23 56.5t57 22.5t57 -22.5t23 -56.5t-23 -56.5t-57 -22.5t-57 22.5t-23 56.5zM264 855q0 34 23 56.5t57 22.5t57 -22.5t23 -56.5t-23 -56.5t-57 -22.5t-57 22.5t-23 56.5z" />
    <glyph glyph-name="macron.case" horiz-adv-x="398" 
d="M30 898h338v-102h-338v102z" />
    <glyph glyph-name="acute.case" horiz-adv-x="333" 
d="M143 938h160l-137 -156h-136z" />
    <glyph glyph-name="circumflex.case" horiz-adv-x="496" 
d="M196 938h104l166 -156h-132l-86 72l-86 -72h-132z" />
    <glyph glyph-name="caron.case" horiz-adv-x="496" 
d="M162 939l86 -72l86 72h132l-166 -157h-104l-166 157h132z" />
    <glyph glyph-name="breve.case" horiz-adv-x="479" 
d="M239 777q-91 0 -145 43.5t-62 117.5h116q4 -29 26.5 -48t64.5 -19q41 0 64.5 19t27.5 48h116q-8 -73 -62.5 -117t-145.5 -44z" />
    <glyph glyph-name="dotaccent.case" horiz-adv-x="220" 
d="M30 867q0 34 23 56.5t57 22.5t57 -22.5t23 -56.5t-23 -56.5t-57 -22.5t-57 22.5t-23 56.5z" />
    <glyph glyph-name="ring.case" horiz-adv-x="312" 
d="M156 776q-27 0 -50 9t-40 25.5t-26.5 39t-9.5 49.5t9.5 49.5t26.5 39t40 25.5t50 9t50 -9t40 -25.5t26.5 -39t9.5 -49.5t-9.5 -49.5t-26.5 -39t-40 -25.5t-50 -9zM156 853q18 0 31.5 13t13.5 33t-13.5 33t-31.5 13t-31.5 -13t-13.5 -33t13.5 -33t31.5 -13z" />
    <glyph glyph-name="tilde.case" horiz-adv-x="470" 
d="M30 787q0 45 12 74.5t31 47.5t43 25t48 7q32 0 51 -9t32.5 -20.5t25.5 -20.5t29 -9q40 0 40 59h98q0 -45 -11 -75t-29.5 -47.5t-42 -25t-48.5 -7.5q-32 0 -51.5 9.5t-33 21t-25 21t-28.5 9.5q-20 0 -31.5 -16t-11.5 -44h-98z" />
    <glyph glyph-name="agrave.ss01" horiz-adv-x="624" 
d="M302 106q29 0 53.5 11t42.5 30t28 46t10 58q0 32 -10 58t-28 45t-42.5 29.5t-53.5 10.5t-53.5 -10.5t-42.5 -29.5t-28 -45t-10 -58q0 -31 10 -58t28 -46t42.5 -30t53.5 -11zM267 -14q-51 0 -93.5 20t-73 55.5t-47.5 83.5t-17 105t17 105t47.5 83.5t73 55.5t93.5 20
q57 0 99.5 -24.5t69.5 -66.5v77h128v-500h-128v77q-27 -42 -69.5 -66.5t-99.5 -24.5zM155 750h146l96 -168h-120z" />
    <glyph glyph-name="aacute.ss01" horiz-adv-x="624" 
d="M302 106q29 0 53.5 11t42.5 30t28 46t10 58q0 32 -10 58t-28 45t-42.5 29.5t-53.5 10.5t-53.5 -10.5t-42.5 -29.5t-28 -45t-10 -58q0 -31 10 -58t28 -46t42.5 -30t53.5 -11zM267 -14q-51 0 -93.5 20t-73 55.5t-47.5 83.5t-17 105t17 105t47.5 83.5t73 55.5t93.5 20
q57 0 99.5 -24.5t69.5 -66.5v77h128v-500h-128v77q-27 -42 -69.5 -66.5t-99.5 -24.5zM331 750h146l-116 -168h-120z" />
    <glyph glyph-name="acircumflex.ss01" horiz-adv-x="624" 
d="M302 106q29 0 53.5 11t42.5 30t28 46t10 58q0 32 -10 58t-28 45t-42.5 29.5t-53.5 10.5t-53.5 -10.5t-42.5 -29.5t-28 -45t-10 -58q0 -31 10 -58t28 -46t42.5 -30t53.5 -11zM267 -14q-51 0 -93.5 20t-73 55.5t-47.5 83.5t-17 105t17 105t47.5 83.5t73 55.5t93.5 20
q57 0 99.5 -24.5t69.5 -66.5v77h128v-500h-128v77q-27 -42 -69.5 -66.5t-99.5 -24.5zM255 750h94l144 -168h-116l-75 81l-75 -81h-116z" />
    <glyph glyph-name="atilde.ss01" horiz-adv-x="624" 
d="M302 106q29 0 53.5 11t42.5 30t28 46t10 58q0 32 -10 58t-28 45t-42.5 29.5t-53.5 10.5t-53.5 -10.5t-42.5 -29.5t-28 -45t-10 -58q0 -31 10 -58t28 -46t42.5 -30t53.5 -11zM267 -14q-51 0 -93.5 20t-73 55.5t-47.5 83.5t-17 105t17 105t47.5 83.5t73 55.5t93.5 20
q57 0 99.5 -24.5t69.5 -66.5v77h128v-500h-128v77q-27 -42 -69.5 -66.5t-99.5 -24.5zM247 639q-17 0 -27.5 -14.5t-10.5 -42.5h-82q0 42 10 70.5t26 45.5t36 24t41 7q27 0 43.5 -9t28.5 -20t22 -20t25 -9q36 0 36 58h82q0 -42 -9.5 -70.5t-25 -45.5t-35.5 -24.5t-41 -7.5
q-27 0 -43.5 9t-28.5 20t-22 20t-25 9z" />
    <glyph glyph-name="adieresis.ss01" horiz-adv-x="624" 
d="M302 106q29 0 53.5 11t42.5 30t28 46t10 58q0 32 -10 58t-28 45t-42.5 29.5t-53.5 10.5t-53.5 -10.5t-42.5 -29.5t-28 -45t-10 -58q0 -31 10 -58t28 -46t42.5 -30t53.5 -11zM267 -14q-51 0 -93.5 20t-73 55.5t-47.5 83.5t-17 105t17 105t47.5 83.5t73 55.5t93.5 20
q57 0 99.5 -24.5t69.5 -66.5v77h128v-500h-128v77q-27 -42 -69.5 -66.5t-99.5 -24.5zM116 661q0 33 22 54.5t54 21.5t54 -21.5t22 -54.5t-22 -54.5t-54 -21.5t-54 21.5t-22 54.5zM336 661q0 33 22.5 54.5t54.5 21.5t53.5 -21.5t21.5 -54.5t-21.5 -54.5t-53.5 -21.5
t-54.5 21.5t-22.5 54.5z" />
    <glyph glyph-name="aring.ss01" horiz-adv-x="624" 
d="M309 576q-26 0 -49 8.5t-39.5 24.5t-26 38t-9.5 49t9.5 49t26 38t39.5 24.5t49 8.5t49 -8.5t39.5 -24.5t26 -38t9.5 -49t-9.5 -49t-26 -38t-39.5 -24.5t-49 -8.5zM309 648q20 0 33 13.5t13 34.5t-13 34.5t-33 13.5t-33 -13.5t-13 -34.5t13 -34.5t33 -13.5zM302 106
q29 0 53.5 11t42.5 30t28 46t10 58q0 32 -10 58t-28 45t-42.5 29.5t-53.5 10.5t-53.5 -10.5t-42.5 -29.5t-28 -45t-10 -58q0 -31 10 -58t28 -46t42.5 -30t53.5 -11zM267 -14q-51 0 -93.5 20t-73 55.5t-47.5 83.5t-17 105t17 105t47.5 83.5t73 55.5t93.5 20q57 0 99.5 -24.5
t69.5 -66.5v77h128v-500h-128v77q-27 -42 -69.5 -66.5t-99.5 -24.5z" />
    <glyph glyph-name="amacron.ss01" horiz-adv-x="624" 
d="M157 696h304v-100h-304v100zM302 106q29 0 53.5 11t42.5 30t28 46t10 58q0 32 -10 58t-28 45t-42.5 29.5t-53.5 10.5t-53.5 -10.5t-42.5 -29.5t-28 -45t-10 -58q0 -31 10 -58t28 -46t42.5 -30t53.5 -11zM267 -14q-51 0 -93.5 20t-73 55.5t-47.5 83.5t-17 105t17 105
t47.5 83.5t73 55.5t93.5 20q57 0 99.5 -24.5t69.5 -66.5v77h128v-500h-128v77q-27 -42 -69.5 -66.5t-99.5 -24.5z" />
    <glyph glyph-name="abreve.ss01" horiz-adv-x="624" 
d="M308 584q-80 0 -129 43.5t-55 119.5h106q3 -34 24.5 -52.5t53.5 -18.5t54 18.5t26 52.5h106q-6 -76 -56 -119.5t-130 -43.5zM302 106q29 0 53.5 11t42.5 30t28 46t10 58q0 32 -10 58t-28 45t-42.5 29.5t-53.5 10.5t-53.5 -10.5t-42.5 -29.5t-28 -45t-10 -58q0 -31 10 -58
t28 -46t42.5 -30t53.5 -11zM267 -14q-51 0 -93.5 20t-73 55.5t-47.5 83.5t-17 105t17 105t47.5 83.5t73 55.5t93.5 20q57 0 99.5 -24.5t69.5 -66.5v77h128v-500h-128v77q-27 -42 -69.5 -66.5t-99.5 -24.5z" />
    <glyph glyph-name="aogonek.ss01" horiz-adv-x="624" 
d="M302 106q29 0 53.5 11t42.5 30t28 46t10 58q0 32 -10 58t-28 45t-42.5 29.5t-53.5 10.5t-53.5 -10.5t-42.5 -29.5t-28 -45t-10 -58q0 -31 10 -58t28 -46t42.5 -30t53.5 -11zM267 -14q-51 0 -93.5 20t-73 55.5t-47.5 83.5t-17 105t17 105t47.5 83.5t73 55.5t93.5 20
q57 0 99.5 -24.5t69.5 -66.5v77h128v-500q-56 -25 -78 -45.5t-22 -46.5q0 -24 14.5 -37.5t40.5 -13.5q17 0 30.5 5.5t24.5 13.5l26 -84q-41 -25 -95 -25q-63 0 -100 32.5t-37 87.5q0 34 16 62t52 54v74q-27 -42 -69.5 -66.5t-99.5 -24.5z" />
    <glyph glyph-name="gcircumflex.ss02" horiz-adv-x="604" 
d="M292 130q28 0 51.5 10t40.5 28.5t26.5 44t9.5 55.5q0 29 -9.5 53t-26.5 41.5t-40.5 27.5t-51.5 10t-51.5 -10t-40.5 -27.5t-26.5 -41.5t-9.5 -53q0 -30 9.5 -55.5t26.5 -44t40.5 -28.5t51.5 -10zM259 16q-49 0 -90.5 19t-70.5 52.5t-45.5 79t-16.5 98.5t16.5 98.5
t45.5 79t70.5 52.5t90.5 19q54 0 94.5 -22.5t66.5 -61.5v70h124v-450q0 -60 -19.5 -109t-54.5 -83.5t-84 -53t-109 -18.5q-81 0 -141 34.5t-92 97.5l101 60q47 -78 133 -78q63 0 102.5 40.5t39.5 113.5v46q-26 -39 -66.5 -61.5t-94.5 -22.5zM255 750h94l144 -168h-116
l-75 81l-75 -81h-116z" />
    <glyph glyph-name="gbreve.ss02" horiz-adv-x="604" 
d="M292 130q28 0 51.5 10t40.5 28.5t26.5 44t9.5 55.5q0 29 -9.5 53t-26.5 41.5t-40.5 27.5t-51.5 10t-51.5 -10t-40.5 -27.5t-26.5 -41.5t-9.5 -53q0 -30 9.5 -55.5t26.5 -44t40.5 -28.5t51.5 -10zM259 16q-49 0 -90.5 19t-70.5 52.5t-45.5 79t-16.5 98.5t16.5 98.5
t45.5 79t70.5 52.5t90.5 19q54 0 94.5 -22.5t66.5 -61.5v70h124v-450q0 -60 -19.5 -109t-54.5 -83.5t-84 -53t-109 -18.5q-81 0 -141 34.5t-92 97.5l101 60q47 -78 133 -78q63 0 102.5 40.5t39.5 113.5v46q-26 -39 -66.5 -61.5t-94.5 -22.5zM308 584q-80 0 -129 43.5
t-55 119.5h106q3 -34 24.5 -52.5t53.5 -18.5t54 18.5t26 52.5h106q-6 -76 -56 -119.5t-130 -43.5z" />
    <glyph glyph-name=".ttfautohint" horiz-adv-x="741" 
d="M0 0z" />
    </font>
</defs>
</svg>
