<?xml version="1.0" standalone="no"?>
<!DOCTYPE svg PUBLIC "-//W3C//DTD SVG 1.1//EN" "http://www.w3.org/Graphics/SVG/1.1/DTD/svg11.dtd" >
<svg xmlns="http://www.w3.org/2000/svg" xmlns:xlink="http://www.w3.org/1999/xlink" version="1.1">
<metadata>
Created by FontForge 20201107 at Tue Mar 21 23:02:38 2023
 By 
Copyright 2022 The NT Somic project
</metadata>
<defs>
<font id="NTSomic-Medium" horiz-adv-x="585" >
  <font-face 
    font-family="NT Somic Med"
    font-weight="400"
    font-stretch="normal"
    units-per-em="1000"
    panose-1="0 0 0 0 0 0 0 0 0 0"
    ascent="800"
    descent="-200"
    x-height="500"
    cap-height="700"
    bbox="-89 -234 1156 1018"
    underline-thickness="50"
    underline-position="-125"
    unicode-range="U+000A-20BD"
  />
<missing-glyph horiz-adv-x="938" 
d="M311 187q-10 -17 -17.5 -35t-7.5 -40q0 -26 11.5 -49t33.5 -40t53 -27t71 -10q45 0 82 14t64 38.5t41.5 59t14.5 76.5h-125q0 -25 -17 -42t-44 -17q-25 0 -39 14t-14 34q0 23 17 35.5t38 12.5h184v116h-201l-24 -86h-9v145h-128v-166h117v-9zM545 546q0 -12 -13.5 -18.5
t-29 -14.5t-29 -21t-13.5 -39q0 -45 43.5 -67t119.5 -22h34v111h-25q-20 0 -32.5 10t-12.5 25t12 25.5t26.5 22t26.5 25.5t12 36q0 15 -7 30.5t-22 28t-38.5 20.5t-57.5 8q-25 0 -46 -5t-41 -17l-29 -104h-8v117h-120v-274h128v58q0 49 21.5 75.5t53.5 26.5q25 0 36 -13
t11 -24zM106 624q0 128 66 192t187 64h220q121 0 187 -64t66 -192v-548q0 -128 -66 -192t-187 -64h-220q-121 0 -187 64t-66 192v548z" />
    <glyph glyph-name="uni04570457" unicode="&#x457;&#x457;" horiz-adv-x="483" 
d="M65 500h111v-500h-111v500zM307 500h110v-500h-110v500zM437 662q0 29 19.5 48.5t47.5 19.5q29 0 48.5 -19.5t19.5 -48.5q0 -28 -19.5 -47.5t-48.5 -19.5q-28 0 -47.5 19.5t-19.5 47.5zM262 662q0 29 19.5 48.5t47.5 19.5t47.5 -19.5t19.5 -48.5q0 -28 -19.5 -47.5
t-47.5 -19.5t-47.5 19.5t-19.5 47.5zM86 662q0 29 19.5 48.5t48.5 19.5q28 0 47.5 -19.5t19.5 -48.5q0 -28 -19.5 -47.5t-47.5 -19.5q-29 0 -48.5 19.5t-19.5 47.5zM-89 662q0 29 19.5 48.5t47.5 19.5q29 0 48.5 -19.5t19.5 -48.5q0 -28 -19.5 -47.5t-48.5 -19.5
q-28 0 -47.5 19.5t-19.5 47.5z" />
    <glyph glyph-name="uni04070407" unicode="&#x407;&#x407;" horiz-adv-x="576" 
d="M83 700h122v-700h-122v700zM371 700h122v-700h-122v700zM-73 859q0 -29 20.5 -49.5t49.5 -20.5t49.5 20.5t20.5 49.5t-20.5 49.5t-49.5 20.5t-49.5 -20.5t-20.5 -49.5zM121 859q0 -29 20.5 -49.5t49.5 -20.5t49.5 20.5t20.5 49.5t-20.5 49.5t-49.5 20.5t-49.5 -20.5
t-20.5 -49.5zM315 859q0 -29 20.5 -49.5t49.5 -20.5t49.5 20.5t20.5 49.5t-20.5 49.5t-49.5 20.5t-49.5 -20.5t-20.5 -49.5zM509 859q0 -29 20.5 -49.5t49.5 -20.5t49.5 20.5t20.5 49.5t-20.5 49.5t-49.5 20.5t-49.5 -20.5t-20.5 -49.5z" />
    <glyph glyph-name="uni04560457" unicode="&#x456;&#x457;" horiz-adv-x="493" 
d="M65 500h112v-500h-112v500zM308 500h112v-500h-112v500zM48 662q0 28 19.5 47.5t47.5 19.5t47.5 -19.5t19.5 -47.5q0 -29 -19.5 -48.5t-47.5 -19.5t-47.5 19.5t-19.5 48.5zM222 662q0 28 19.5 47.5t48.5 19.5q28 0 47.5 -19.5t19.5 -47.5q0 -29 -19.5 -48.5t-47.5 -19.5
q-29 0 -48.5 19.5t-19.5 48.5zM397 662q0 28 19.5 47.5t47.5 19.5q29 0 48.5 -19.5t19.5 -47.5q0 -29 -19.5 -48.5t-48.5 -19.5q-28 0 -47.5 19.5t-19.5 48.5z" />
    <glyph glyph-name=".notdef" horiz-adv-x="938" 
d="M311 187q-10 -17 -17.5 -35t-7.5 -40q0 -26 11.5 -49t33.5 -40t53 -27t71 -10q45 0 82 14t64 38.5t41.5 59t14.5 76.5h-125q0 -25 -17 -42t-44 -17q-25 0 -39 14t-14 34q0 23 17 35.5t38 12.5h184v116h-201l-24 -86h-9v145h-128v-166h117v-9zM545 546q0 -12 -13.5 -18.5
t-29 -14.5t-29 -21t-13.5 -39q0 -45 43.5 -67t119.5 -22h34v111h-25q-20 0 -32.5 10t-12.5 25t12 25.5t26.5 22t26.5 25.5t12 36q0 15 -7 30.5t-22 28t-38.5 20.5t-57.5 8q-25 0 -46 -5t-41 -17l-29 -104h-8v117h-120v-274h128v58q0 49 21.5 75.5t53.5 26.5q25 0 36 -13
t11 -24zM106 624q0 128 66 192t187 64h220q121 0 187 -64t66 -192v-548q0 -128 -66 -192t-187 -64h-220q-121 0 -187 64t-66 192v548z" />
    <glyph glyph-name=".null" horiz-adv-x="0" 
 />
    <glyph glyph-name=".null" horiz-adv-x="0" 
 />
    <glyph glyph-name="uni000D" unicode="&#xd;" horiz-adv-x="130" 
 />
    <glyph glyph-name="uni000A" unicode="&#xa;" horiz-adv-x="222" 
 />
    <glyph glyph-name="space" unicode=" " horiz-adv-x="260" 
 />
    <glyph glyph-name="exclam" unicode="!" horiz-adv-x="253" 
d="M54 65q0 31 21 51.5t51 20.5t51 -20.5t21 -51.5q0 -30 -21 -50.5t-51 -20.5t-51 20.5t-21 50.5zM65 700h123l-5 -506h-113z" />
    <glyph glyph-name="quotedbl" unicode="&#x22;" horiz-adv-x="393" 
d="M59 700h97l-9 -275h-79zM237 700h97l-9 -275h-79z" />
    <glyph glyph-name="numbersign" unicode="#" horiz-adv-x="664" 
d="M385 283l24 141h-133l-23 -141h132zM27 195v88h127l24 141h-116v88h130l32 191l96 -14l-30 -177h133l32 191l96 -14l-30 -177h117v-88h-131l-23 -141h118v-88h-133l-33 -199l-96 14l31 185h-133l-33 -199l-96 14l31 185h-113z" />
    <glyph glyph-name="dollar" unicode="$" horiz-adv-x="651" 
d="M385 -100h-113v88q-79 12 -138.5 54.5t-94.5 117.5l100 56q28 -62 79.5 -92t117.5 -30q64 0 103 26t39 71q0 39 -30 60t-75 35.5t-97.5 27.5t-97.5 35t-75 59t-30 100q0 41 14 75.5t40 61.5t62.5 44.5t82.5 23.5v87h113v-89q69 -13 123.5 -51t86.5 -100l-100 -60
q-26 54 -71 81.5t-102 27.5q-60 0 -93.5 -27t-33.5 -65q0 -27 17.5 -44t46 -29t65 -21.5t74.5 -20t74.5 -25t65 -38t46 -57.5t17.5 -83q0 -88 -57.5 -144.5t-158.5 -67.5v-87z" />
    <glyph glyph-name="percent" unicode="%" horiz-adv-x="837" 
d="M211 -22l486 708l-70 45l-486 -707zM211 356q-37 0 -67 14t-51.5 38t-33 56.5t-11.5 69.5t11.5 69.5t33 56.5t51.5 37.5t67 13.5t67 -13.5t51 -37.5t32.5 -56.5t11.5 -69.5t-11.5 -69.5t-32.5 -56.5t-51 -38t-67 -14zM211 443q32 0 52 24.5t20 66.5q0 41 -20 66t-52 25
t-52.5 -25t-20.5 -66q0 -42 20.5 -66.5t52.5 -24.5zM627 -11q-37 0 -67 13.5t-51.5 37.5t-33 56.5t-11.5 69.5q0 38 11.5 70.5t33 56.5t51.5 37.5t67 13.5t67 -13.5t51 -37.5t32.5 -56.5t11.5 -70.5q0 -37 -11.5 -69.5t-32.5 -56.5t-51 -37.5t-67 -13.5zM627 75q32 0 52 25
t20 66q0 42 -20 66.5t-52 24.5t-52.5 -24.5t-20.5 -66.5q0 -41 20.5 -66t52.5 -25z" />
    <glyph glyph-name="ampersand" unicode="&#x26;" horiz-adv-x="708" 
d="M256 318q-40 -20 -66.5 -46.5t-26.5 -67.5q0 -25 10.5 -46t29.5 -36t44.5 -23t56.5 -8q35 0 65.5 10.5t56.5 29.5zM287 431q47 21 79.5 46.5t32.5 65.5q0 37 -26 56.5t-61 19.5q-39 0 -61.5 -23.5t-22.5 -58.5q0 -20 12 -43.5t47 -62.5zM316 714q45 0 80 -13.5t59.5 -37
t37 -54.5t12.5 -67q0 -37 -13 -65t-34 -49t-48.5 -37t-57.5 -30l146 -154q18 26 32.5 54.5t26.5 59.5l93 -38q-35 -92 -79 -153l71 -76l-80 -73l-64 70q-82 -65 -198 -65q-60 0 -107.5 15.5t-80.5 43.5t-51 66.5t-18 84.5q0 39 12.5 68.5t33 52.5t47.5 40.5t56 31.5
q-32 38 -51.5 75.5t-19.5 78.5q0 33 13 64t38 55t61.5 38t82.5 14z" />
    <glyph glyph-name="quotesingle" unicode="'" horiz-adv-x="212" 
d="M57 700h97l-9 -275h-79z" />
    <glyph glyph-name="parenleft" unicode="(" horiz-adv-x="303" 
d="M51 289q0 131 42.5 252.5t117.5 216.5l85 -67q-64 -86 -99 -188t-35 -214t35 -214t99 -188l-85 -67q-75 95 -117.5 216.5t-42.5 252.5z" />
    <glyph glyph-name="parenright" unicode=")" horiz-adv-x="303" 
d="M252 289q0 -131 -41.5 -252.5t-116.5 -216.5l-87 67q64 87 99 188.5t35 213.5t-35 214t-99 188l87 67q75 -95 116.5 -216.5t41.5 -252.5z" />
    <glyph glyph-name="asterisk" unicode="*" horiz-adv-x="429" 
d="M336 453l-91 70l7 -119h-74l6 119l-91 -70l-42 61l101 59l-101 59l42 60l91 -69l-6 118h73l-6 -118l91 69l42 -60l-100 -59l100 -59z" />
    <glyph glyph-name="plus" unicode="+" horiz-adv-x="547" 
d="M33 415h185v198h111v-198h185v-103h-185v-198h-111v198h-185v103z" />
    <glyph glyph-name="comma" unicode="," horiz-adv-x="261" 
d="M54 66q0 30 20.5 50.5t52.5 20.5q35 0 57 -28t22 -74q0 -48 -25.5 -98.5t-76.5 -99.5l-49 47q29 30 46.5 55.5t26.5 54.5q-32 0 -53 20t-21 52z" />
    <glyph glyph-name="hyphen" unicode="-" horiz-adv-x="359" 
d="M49 316h261v-97h-261v97z" />
    <glyph glyph-name="period" unicode="." horiz-adv-x="253" 
d="M54 65q0 31 21 51.5t51 20.5t51 -20.5t21 -51.5q0 -30 -21 -50.5t-51 -20.5t-51 20.5t-21 50.5z" />
    <glyph glyph-name="slash" unicode="/" horiz-adv-x="468" 
d="M22 -154l314 923l111 -32l-314 -924z" />
    <glyph glyph-name="zero" unicode="0" horiz-adv-x="689" 
d="M636 350q0 -81 -20 -148.5t-57.5 -116t-92 -75t-122.5 -26.5t-122.5 26.5t-92 75t-57.5 116t-20 148.5q0 82 20 149.5t57.5 115.5t92 74.5t122.5 26.5t122.5 -26.5t92 -75t57.5 -116t20 -148.5zM173 350q0 -55 11 -101.5t32.5 -79.5t53.5 -51.5t74 -18.5t74 18.5
t53.5 51.5t32.5 79.5t11 101.5q0 56 -11 102t-32.5 79t-53.5 51.5t-74 18.5t-74 -18.5t-53.5 -51.5t-32.5 -79t-11 -102z" />
    <glyph glyph-name="one" unicode="1" horiz-adv-x="411" 
d="M210 0v566l-138 -93l-57 97l193 130h120v-700h-118z" />
    <glyph glyph-name="two" unicode="2" horiz-adv-x="566" 
d="M28 0v113l270 225q52 44 77.5 81.5t25.5 77.5q0 48 -34 79t-91 31q-52 0 -91.5 -27t-62.5 -78l-101 51q41 81 104 122t154 41q55 0 100 -15.5t76.5 -43.5t48.5 -67.5t17 -88.5q0 -31 -8 -59.5t-26 -57.5t-48 -60.5t-75 -68.5l-175 -146h337v-109h-498z" />
    <glyph glyph-name="three" unicode="3" horiz-adv-x="598" 
d="M295 -16q-200 0 -276 178l103 49q24 -60 67.5 -88t104.5 -28q65 0 105 30t40 84q0 45 -29.5 70.5t-85.5 25.5h-134v110h132q47 0 74 24t27 65q0 48 -36 75.5t-93 27.5q-52 0 -91.5 -24.5t-63.5 -76.5l-100 51q38 78 103.5 118.5t156.5 40.5q54 0 99 -14t77.5 -40.5
t50 -63.5t17.5 -83q0 -57 -26.5 -96.5t-75.5 -57.5q57 -20 87.5 -62.5t30.5 -102.5q0 -48 -19.5 -87.5t-54.5 -67t-83.5 -42.5t-106.5 -15z" />
    <glyph glyph-name="four" unicode="4" horiz-adv-x="644" 
d="M147 266h235v300zM382 0v162h-342v126l322 412h133v-434h99v-104h-99v-162h-113z" />
    <glyph glyph-name="five" unicode="5" horiz-adv-x="596" 
d="M282 -16q-89 0 -153 38t-100 113l102 51q23 -45 61 -69t89 -24q66 0 107 37t41 100q0 28 -9 52t-27 42t-45.5 28.5t-64.5 10.5q-83 0 -127 -60l-91 44l19 353h426v-107h-328l-8 -165q51 36 132 36q55 0 99.5 -17t76 -48t48.5 -75t17 -98q0 -59 -20 -104.5t-55.5 -76
t-84 -46t-105.5 -15.5z" />
    <glyph glyph-name="six" unicode="6" horiz-adv-x="621" 
d="M326 93q60 0 98.5 36t38.5 96t-38.5 95t-98.5 35t-98.5 -35t-38.5 -94q0 -30 10.5 -54.5t28.5 -42t43 -27t55 -9.5zM326 -16q-129 0 -201.5 92.5t-72.5 272.5q0 177 74.5 272t213.5 95q160 0 234 -134l-94 -62q-43 87 -141 87q-81 0 -127.5 -58t-46.5 -166q0 -11 1 -15
q29 43 76 65t106 22q52 0 95 -17t74 -47.5t48 -73t17 -93.5q0 -53 -19 -97.5t-52.5 -76t-80.5 -49t-104 -17.5z" />
    <glyph glyph-name="seven" unicode="7" horiz-adv-x="539" 
d="M390 587h-360v113h489v-113l-279 -587h-129z" />
    <glyph glyph-name="eight" unicode="8" horiz-adv-x="600" 
d="M300 91q65 0 102 30t37 80q0 49 -37.5 79t-101.5 30t-101.5 -30t-37.5 -79q0 -50 37 -80t102 -30zM300 407q57 0 90 28t33 73t-33 74t-90 29t-90 -29t-33 -74t33 -73t90 -28zM300 -16q-58 0 -106 15t-82.5 42t-53.5 65t-19 85q0 61 31 104t86 65q-50 24 -75 64.5
t-25 93.5q0 44 17.5 80.5t50 62.5t77.5 40.5t99 14.5t99 -14.5t77.5 -40.5t50 -62.5t17.5 -80.5q0 -53 -25 -93.5t-75 -64.5q55 -22 86 -65t31 -104q0 -47 -19 -85t-53.5 -65t-82.5 -42t-106 -15z" />
    <glyph glyph-name="nine" unicode="9" horiz-adv-x="621" 
d="M295.02 607.006q-59.9961 0 -98.4932 -35.998q-38.498 -35.998 -38.498 -95.9941t38.498 -94.9941q38.4971 -34.998 98.4932 -34.998q59.9971 0 98.4941 34.998q38.498 34.998 38.498 93.9941q0 29.998 -10.5 54.4971q-10.499 24.498 -28.498 41.9971t-42.9971 26.998
q-24.999 9.5 -54.9971 9.5zM295.02 715.999q128.992 0 201.488 -92.4941q72.4951 -92.4941 72.4951 -272.483q0 -176.989 -74.4951 -271.983t-213.487 -94.9941q-159.99 0 -233.985 133.991l93.9941 61.9961q42.9971 -86.9941 140.991 -86.9941q80.9951 0 127.492 57.9961
q46.4971 57.9971 46.4971 165.99q0 10.999 -1 14.999q-28.998 -42.9971 -75.9951 -64.9961t-105.993 -21.999q-51.9971 0 -94.9941 16.999q-42.998 16.999 -73.9961 47.4971t-47.9971 72.9961q-16.999 42.4971 -16.999 93.4941q0 52.9971 18.999 97.4941t52.4971 75.9951
t80.4951 48.9971t103.993 17.499z" />
    <glyph glyph-name="colon" unicode=":" horiz-adv-x="278" 
d="M60 465q0 31 21 51.5t51 20.5t51 -20.5t21 -51.5q0 -30 -21 -50.5t-51 -20.5t-51 20.5t-21 50.5zM60 65q0 31 21 51.5t51 20.5t51 -20.5t21 -51.5q0 -30 -21 -50.5t-51 -20.5t-51 20.5t-21 50.5z" />
    <glyph glyph-name="semicolon" unicode=";" horiz-adv-x="285" 
d="M60 465q0 31 21 51.5t51 20.5t51 -20.5t21 -51.5q0 -30 -21 -50.5t-51 -20.5t-51 20.5t-21 50.5zM56 66q0 30 20.5 50.5t52.5 20.5q35 0 57 -28t22 -74q0 -48 -25.5 -98.5t-76.5 -99.5l-49 47q29 30 46.5 55.5t26.5 54.5q-32 0 -53 20t-21 52z" />
    <glyph glyph-name="less" unicode="&#x3c;" horiz-adv-x="532" 
d="M59 303v104l401 205l39 -96l-327 -160l327 -162l-39 -98z" />
    <glyph glyph-name="equal" unicode="=" horiz-adv-x="571" 
d="M49 274h472v-99h-472v99zM49 488h472v-98h-472v98z" />
    <glyph glyph-name="greater" unicode="&#x3e;" horiz-adv-x="532" 
d="M474 303l-401 -207l-40 98l327 162l-327 160l40 96l401 -205v-104z" />
    <glyph glyph-name="question" unicode="?" horiz-adv-x="609" 
d="M213 65q0 31 21 51.5t51 20.5t51 -20.5t21 -51.5q0 -30 -21 -50.5t-51 -20.5t-51 20.5t-21 50.5zM231 225q0 47 14.5 79t36.5 55t47 40.5t47 34.5t36.5 36.5t14.5 47.5q0 42 -33.5 67t-90.5 25q-54 0 -96.5 -25t-66.5 -75l-95 54q36 73 102.5 112.5t158.5 39.5
q55 0 99 -14.5t75 -40.5t48 -62.5t17 -80.5q0 -43 -15 -72t-37.5 -50.5t-48.5 -39t-48.5 -36.5t-37.5 -42.5t-15 -58.5v-25h-112v31z" />
    <glyph glyph-name="at" unicode="@" horiz-adv-x="912" 
d="M347 281q0 -51 30.5 -82t78.5 -31t78.5 31t30.5 82t-30.5 82.5t-78.5 31.5t-78.5 -31.5t-30.5 -82.5zM251 281q0 43 14.5 80t39.5 64t59 42.5t73 15.5q44 0 76 -19t52 -52v62h95v-204q0 -38 12.5 -59t35.5 -21q26 0 40 27t14 78q0 67 -22.5 122.5t-62 95.5t-95 62
t-121.5 22q-68 0 -124.5 -23.5t-97 -65.5t-63 -100.5t-22.5 -127.5q0 -71 23.5 -129.5t64.5 -100t97.5 -64.5t123.5 -23q68 0 126.5 23.5t99.5 67.5l64 -79q-54 -54 -126.5 -83t-160.5 -29q-90 0 -166 31t-131 86.5t-86 131.5t-31 167q0 92 31 168.5t86 132t129.5 86.5
t162.5 31q86 0 159 -30t126.5 -83t83.5 -125t30 -157q0 -100 -40.5 -152.5t-112.5 -52.5q-45 0 -75 21.5t-46 61.5q-20 -48 -58.5 -74t-89.5 -26q-39 0 -73.5 15t-59.5 42t-39.5 64t-14.5 80z" />
    <glyph glyph-name="A" unicode="A" horiz-adv-x="681" 
d="M241 270h196l-98 290zM406 700l254 -700h-131l-55 163h-270l-55 -163h-128l254 700h131z" />
    <glyph glyph-name="B" unicode="B" horiz-adv-x="646" 
d="M202 308v-201h174q49 0 78.5 27.5t29.5 73.5q0 45 -29.5 72.5t-78.5 27.5h-174zM202 412h157q42 0 69 25t27 66q0 40 -27 65t-69 25h-157v-181zM83 700h286q47 0 85 -12.5t66 -36t43 -57t15 -75.5q0 -54 -25.5 -93t-75.5 -58q64 -19 97 -63.5t33 -109.5q0 -44 -15.5 -80
t-44.5 -61.5t-70 -39.5t-92 -14h-302v700z" />
    <glyph glyph-name="C" unicode="C" horiz-adv-x="760" 
d="M414 -16q-79 0 -145.5 27.5t-114.5 76.5t-75 116t-27 146t27 146t75 116t114.5 76.5t145.5 27.5q109 0 190.5 -51t123.5 -142l-108 -57q-28 65 -80.5 99t-124.5 34q-52 0 -96 -18t-75 -51t-48.5 -79t-17.5 -101t17.5 -101t48.5 -79t75 -51t96 -18q72 0 124.5 34t80.5 99
l108 -57q-42 -91 -123.5 -142t-190.5 -51z" />
    <glyph glyph-name="D" unicode="D" horiz-adv-x="729" 
d="M83 700h246q77 0 141 -26.5t110 -73.5t71.5 -111t25.5 -139t-25.5 -139t-71.5 -111t-110 -73.5t-141 -26.5h-246v700zM205 587v-474h112q54 0 97 17.5t73 49t46.5 75t16.5 95.5t-16.5 95.5t-46.5 75t-73 49t-97 17.5h-112z" />
    <glyph glyph-name="E" unicode="E" 
d="M82 700h451v-113h-328v-167h291v-113h-291v-194h328v-113h-451v700z" />
    <glyph glyph-name="F" unicode="F" 
d="M83 700h450v-113h-328v-178h291v-112h-291v-297h-122v700z" />
    <glyph glyph-name="G" unicode="G" horiz-adv-x="797" 
d="M749 318q0 -77 -23.5 -138.5t-67 -105t-104.5 -67t-136 -23.5q-82 0 -149.5 28t-115.5 77t-74.5 116.5t-26.5 145.5q0 79 26.5 146t74 115.5t114 76t146.5 27.5q104 0 185 -45.5t124 -127.5l-104 -64q-31 60 -84 92t-122 32q-53 0 -96.5 -18.5t-75 -52.5t-48.5 -80
t-17 -102q0 -55 17 -101t48.5 -80t77 -53t101.5 -19q87 0 141.5 45t65.5 126h-274v110h394q3 -34 3 -60z" />
    <glyph glyph-name="H" unicode="H" horiz-adv-x="735" 
d="M83 700h123v-273h324v273h122v-700h-122v315h-324v-315h-123v700z" />
    <glyph glyph-name="I" unicode="I" horiz-adv-x="288" 
d="M82 700h123v-700h-123v700z" />
    <glyph glyph-name="J" unicode="J" horiz-adv-x="611" 
d="M291 103q54 0 86 35t32 94v468h123v-474q0 -54 -17 -98.5t-48.5 -76t-76 -48.5t-99.5 -17q-54 0 -98.5 17t-76 48.5t-48.5 76t-17 98.5v32l123 12v-38q0 -59 31.5 -94t85.5 -35z" />
    <glyph glyph-name="K" unicode="K" horiz-adv-x="675" 
d="M318 331l-113 -130v-201h-122v700h122v-335l279 335h152l-241 -279l259 -421h-141z" />
    <glyph glyph-name="L" unicode="L" horiz-adv-x="570" 
d="M83 700h122v-587h328v-113h-450v700z" />
    <glyph glyph-name="M" unicode="M" horiz-adv-x="902" 
d="M453 245l211 455h156v-700h-118v528l-211 -440h-79l-212 440v-528h-117v700h159z" />
    <glyph glyph-name="N" unicode="N" horiz-adv-x="747" 
d="M83 700h128l338 -509v509h116v-700h-128l-337 509v-509h-117v700z" />
    <glyph glyph-name="O" unicode="O" horiz-adv-x="828" 
d="M415 -16q-79 0 -146 27.5t-115 76.5t-75 116t-27 146t27 146t75 116t115 76.5t146 27.5t145 -27.5t114 -76.5t75 -116t27 -146t-27 -146t-75 -116t-114 -76.5t-145 -27.5zM416 101q51 0 94 18.5t74 51.5t48 79t17 101q0 54 -17 99.5t-48 78.5t-74 51.5t-94 18.5
q-53 0 -96.5 -18.5t-75 -51.5t-49 -78.5t-17.5 -99.5q0 -55 17.5 -101t49 -79t75 -51.5t96.5 -18.5z" />
    <glyph glyph-name="P" unicode="P" horiz-adv-x="637" 
d="M202 352h152q54 0 87 33t33 86t-33 86t-87 33h-152v-238zM82 0v700h279q53 0 96 -16.5t74.5 -46.5t48.5 -72.5t17 -93.5q0 -52 -17 -94t-48.5 -72t-74.5 -46.5t-96 -16.5h-159v-242h-120z" />
    <glyph glyph-name="Q" unicode="Q" horiz-adv-x="836" 
d="M419 102q34 0 63.5 8t55.5 22l-88 105l78 67l84 -101q20 31 31 68t11 79q0 53 -17.5 98.5t-48.5 78.5t-74 52t-95 19t-95.5 -19t-75 -52t-48.5 -78.5t-17 -98.5q0 -54 17 -99.5t48.5 -78.5t75 -51.5t95.5 -18.5zM419 -16q-79 0 -145.5 27.5t-115 76.5t-75.5 116t-27 146
t27 146t75.5 116t115 76.5t145.5 27.5t145 -27.5t114 -76.5t75 -116t27 -146q0 -72 -22 -134t-64 -110l70 -83l-77 -67l-70 83q-42 -26 -91.5 -40.5t-106.5 -14.5z" />
    <glyph glyph-name="R" unicode="R" horiz-adv-x="651" 
d="M202 358h157q49 0 82 30.5t33 84.5t-33 85.5t-82 31.5h-157v-232zM331 248h-129v-248h-119v700h279q53 0 96.5 -16t74 -46t47.5 -72t17 -93q0 -79 -38 -133.5t-104 -77.5l175 -262h-137z" />
    <glyph glyph-name="S" unicode="S" horiz-adv-x="645" 
d="M332 -16q-216 0 -300 187l107 53q30 -63 78 -95.5t118 -32.5q64 0 104 26t40 71q0 39 -30.5 60.5t-76.5 35.5t-99.5 27t-99.5 35t-76.5 59t-30.5 100q0 46 18 84t51 65t79.5 42t104.5 15q95 0 167 -41t112 -122l-103 -54q-24 51 -69 79t-106 28q-62 0 -97 -26t-35 -63
q0 -35 30.5 -54t77 -32t100 -26t100 -36.5t77 -62.5t30.5 -105q0 -50 -19 -90t-54 -68.5t-85.5 -43.5t-112.5 -15z" />
    <glyph glyph-name="T" unicode="T" horiz-adv-x="617" 
d="M581 700v-113h-209v-587h-126v587h-209v113h544z" />
    <glyph glyph-name="U" unicode="U" horiz-adv-x="722" 
d="M361 -16q-61 0 -113 19t-89.5 55t-58.5 89t-21 122v431h123v-421q0 -88 43.5 -133.5t116.5 -45.5q72 0 115 45.5t43 133.5v421h123v-431q0 -69 -21 -122t-58.5 -89t-89.5 -55t-113 -19z" />
    <glyph glyph-name="V" unicode="V" horiz-adv-x="681" 
d="M273 0l-252 700h136l185 -550l185 550h133l-253 -700h-134z" />
    <glyph glyph-name="W" unicode="W" horiz-adv-x="1018" 
d="M221 0l-200 700h136l140 -517l144 517h137l145 -516l140 516h134l-200 -700h-135l-153 542l-153 -542h-135z" />
    <glyph glyph-name="X" unicode="X" horiz-adv-x="646" 
d="M21 0l223 361l-208 339h140l149 -252l149 252h136l-208 -339l223 -361h-144l-160 273l-160 -273h-140z" />
    <glyph glyph-name="Y" unicode="Y" horiz-adv-x="637" 
d="M257 0v280l-236 420h135l164 -313l164 313h133l-237 -420v-280h-123z" />
    <glyph glyph-name="Z" unicode="Z" horiz-adv-x="669" 
d="M83 700h521v-121l-402 -466h402v-113h-539v121l402 466h-384v113z" />
    <glyph glyph-name="bracketleft" unicode="[" horiz-adv-x="345" 
d="M70 750h244v-106h-133v-710h133v-106h-244v922z" />
    <glyph glyph-name="backslash" unicode="\" horiz-adv-x="468" 
d="M446.001 -154l-313.98 923l-110.993 -32l313.98 -924z" />
    <glyph glyph-name="bracketright" unicode="]" horiz-adv-x="345" 
d="M31 -172v106h132v710h-132v106h244v-922h-244z" />
    <glyph glyph-name="asciicircum" unicode="^" horiz-adv-x="573" 
d="M441 268l-155 318l-155 -318h-110l210 432h110l211 -432h-111z" />
    <glyph glyph-name="underscore" unicode="_" horiz-adv-x="571" 
d="M45 -25h481v-107h-481v107z" />
    <glyph glyph-name="grave" unicode="`" horiz-adv-x="264" 
d="M32 747h126l92 -160h-106z" />
    <glyph glyph-name="a" unicode="a" horiz-adv-x="548" 
d="M375 226l-96 -4q-72 -3 -102.5 -23.5t-30.5 -52.5q0 -31 24 -49t64 -18q30 0 56 10.5t44.5 29t29.5 44t11 55.5v8zM375 0v75q-26 -43 -68.5 -66t-99.5 -23q-40 0 -72 11.5t-54 32t-33.5 48.5t-11.5 61q0 73 57 117t169 48l113 5v5q0 48 -30 77.5t-83 29.5q-87 0 -124 -77
l-88 44q27 60 82 93t133 33q50 0 90.5 -14t69 -40.5t43.5 -63.5t15 -84v-312h-108z" />
    <glyph glyph-name="b" unicode="b" horiz-adv-x="628" 
d="M325 91q32 0 59.5 12t47 33.5t30.5 51t11 63.5q0 35 -11 64t-30.5 50t-47 32.5t-59.5 11.5t-59.5 -11.5t-47 -32.5t-30.5 -50t-11 -64q0 -34 11 -63.5t30.5 -51t47 -33.5t59.5 -12zM352 -14q-60 0 -103.5 25t-71.5 70v-81h-112v722h112v-303q28 45 71.5 70t103.5 25
q52 0 95.5 -20t75 -55.5t49 -83.5t17.5 -105t-17.5 -105t-49 -83.5t-75 -55.5t-95.5 -20z" />
    <glyph glyph-name="c" unicode="c" horiz-adv-x="564" 
d="M303 -14q-58 0 -106 19.5t-83 55t-54.5 84t-19.5 105.5t19.5 105.5t54.5 84t83 55t106 19.5q80 0 139.5 -37t88.5 -105l-98 -51q-19 43 -52.5 65.5t-78.5 22.5q-33 0 -60 -12t-46.5 -33t-30 -50t-10.5 -64q0 -34 10.5 -63.5t30 -50.5t46.5 -33t60 -12q45 0 78.5 22.5
t52.5 65.5l98 -51q-29 -68 -88.5 -105t-139.5 -37z" />
    <glyph glyph-name="d" unicode="d" horiz-adv-x="628" 
d="M303 91q32 0 59.5 12t47 33.5t30.5 51t11 63.5q0 35 -11 64t-30.5 50t-47 32.5t-59.5 11.5t-59.5 -11.5t-47 -32.5t-30.5 -50t-11 -64q0 -34 11 -63.5t30.5 -51t47 -33.5t59.5 -12zM276 -14q-52 0 -96 20t-75 55.5t-48.5 83.5t-17.5 105t17.5 105t48.5 83.5t75 55.5
t96 20q60 0 103.5 -25t71.5 -70v303h112v-722h-112v81q-28 -45 -71.5 -70t-103.5 -25z" />
    <glyph glyph-name="e" unicode="e" 
d="M156 304h276q-6 51 -41.5 82t-90.5 31t-93 -31t-51 -82zM306 -14q-59 0 -108 19.5t-84.5 54.5t-55 84t-19.5 107t19.5 106.5t55 83t83.5 54t105 19.5q55 0 100 -18t77 -50.5t49.5 -77.5t17.5 -100q0 -11 -1 -23.5t-3 -26.5h-390q10 -60 51 -96t104 -36q91 0 135 72
l81 -64q-37 -54 -92.5 -81t-124.5 -27z" />
    <glyph glyph-name="f" unicode="f" horiz-adv-x="369" 
d="M209 500h131v-102h-131v-398h-112v398h-82v102h82v25q0 100 48.5 151.5t149.5 51.5h43v-104h-35q-51 0 -72.5 -24.5t-21.5 -77.5v-22z" />
    <glyph glyph-name="g" unicode="g" horiz-adv-x="535" 
d="M154 341q0 -38 29.5 -60t78.5 -22t78 22t29 60t-29 60t-78 22t-78.5 -22t-29.5 -60zM126 -59q0 -29 34.5 -45t97.5 -16q69 0 110.5 18.5t41.5 48.5q0 28 -36 42.5t-102 14.5q-70 0 -108 -16.5t-38 -46.5zM443 436q30 -40 30 -95q0 -38 -15 -69.5t-43 -54.5t-66.5 -36
t-86.5 -13q-42 0 -81 11q-21 -15 -21 -36q0 -23 26.5 -34t91.5 -12q121 -1 184 -38t63 -108q0 -78 -71.5 -121.5t-196.5 -43.5q-114 0 -175.5 36.5t-61.5 104.5q0 43 25.5 73.5t71.5 45.5q-48 32 -48 83q0 24 10.5 44t32.5 40q-29 23 -45.5 54.5t-16.5 73.5q0 38 15 69.5
t42.5 54.5t67 36t87.5 13q70 0 120 -26l74 77l60 -59z" />
    <glyph glyph-name="h" unicode="h" horiz-adv-x="574" 
d="M65 0v722h112v-292q47 84 148 84q42 0 76.5 -14.5t59 -40.5t38 -63.5t13.5 -82.5v-313h-112v283q0 60 -26 93.5t-77 33.5q-53 0 -86.5 -35.5t-33.5 -92.5v-282h-112z" />
    <glyph glyph-name="i" unicode="i" horiz-adv-x="243" 
d="M65 500h112v-500h-112v500zM52 662q0 30 20.5 49.5t49.5 19.5t48.5 -19.5t19.5 -49.5q0 -29 -19.5 -48.5t-48.5 -19.5t-49.5 19.5t-20.5 48.5z" />
    <glyph glyph-name="j" unicode="j" horiz-adv-x="243" 
d="M65 500h112v-502q0 -100 -47 -152t-139 -52h-34v107h20q51 0 69.5 26.5t18.5 85.5v487zM53 662q0 -29 20 -48.5t49 -19.5t48.5 19.5t19.5 48.5q0 30 -19.5 49.5t-48.5 19.5t-49 -19.5t-20 -49.5z" />
    <glyph glyph-name="k" unicode="k" horiz-adv-x="539" 
d="M375 500h140l-196 -206l202 -294h-129l-143 221l-72 -75v-146h-112v700h112v-415z" />
    <glyph glyph-name="l" unicode="l" horiz-adv-x="243" 
d="M65 0v722h112v-722h-112z" />
    <glyph glyph-name="m" unicode="m" horiz-adv-x="857" 
d="M65 0v500h112v-68q23 42 59 62t82 20q51 0 88.5 -23.5t58.5 -68.5q21 46 60 69t91 23q81 0 130 -52t49 -143v-319h-112v292q0 57 -24 87.5t-69 30.5q-48 0 -76 -32t-28 -86v-292h-112v292q0 57 -24 87.5t-69 30.5q-48 0 -76 -32t-28 -86v-292h-112z" />
    <glyph glyph-name="n" unicode="n" horiz-adv-x="574" 
d="M65 0v500h112v-72q47 86 149 86q42 0 76.5 -14.5t58.5 -40.5t37.5 -63.5t13.5 -82.5v-313h-112v283q0 60 -26 93.5t-77 33.5q-54 0 -87 -35.5t-33 -92.5v-282h-112z" />
    <glyph glyph-name="o" unicode="o" horiz-adv-x="605" 
d="M303 -14q-58 0 -106 20t-83 55.5t-54.5 83.5t-19.5 105t19.5 105t54.5 83.5t83 55.5t106 20t106 -20t83 -55.5t54.5 -83.5t19.5 -105t-19.5 -105t-54.5 -83.5t-83 -55.5t-106 -20zM303 91q32 0 59.5 12t47 33t30.5 50.5t11 63.5q0 35 -11 64t-30.5 50t-47 33t-59.5 12
t-59.5 -12t-47 -33t-30.5 -50t-11 -64q0 -34 11 -63.5t30.5 -50.5t47 -33t59.5 -12z" />
    <glyph glyph-name="p" unicode="p" horiz-adv-x="628" 
d="M325 91q32 0 59.5 12t47 33.5t30.5 51t11 63.5q0 35 -11 64t-30.5 50t-47 32.5t-59.5 11.5t-59.5 -11.5t-47 -32.5t-30.5 -50t-11 -64q0 -34 11 -63.5t30.5 -51t47 -33.5t59.5 -12zM352 -14q-60 0 -103.5 25t-71.5 70v-281h-112v700h112v-81q28 45 71.5 70t103.5 25
q53 0 96.5 -20t74.5 -55.5t48.5 -83.5t17.5 -105t-17.5 -105t-48.5 -83.5t-74.5 -55.5t-96.5 -20z" />
    <glyph glyph-name="q" unicode="q" horiz-adv-x="628" 
d="M303 91q32 0 59.5 12t47 33.5t30.5 51t11 63.5q0 35 -11 64t-30.5 50t-47 32.5t-59.5 11.5t-59.5 -11.5t-47 -32.5t-30.5 -50t-11 -64q0 -34 11 -63.5t30.5 -51t47 -33.5t59.5 -12zM276 -14q-52 0 -96 20t-75 55.5t-48.5 83.5t-17.5 105t17.5 105t48.5 83.5t75 55.5
t96 20q60 0 103.5 -25t71.5 -70v81h112v-700h-112v281q-28 -45 -71.5 -70t-103.5 -25z" />
    <glyph glyph-name="r" unicode="r" horiz-adv-x="368" 
d="M347 506v-103h-28q-66 0 -104 -35t-38 -117v-251h-112v500h112v-80q40 86 139 86h31z" />
    <glyph glyph-name="s" unicode="s" horiz-adv-x="502" 
d="M259 -14q-80 0 -138 33t-89 97l85 52q44 -87 144 -87q44 0 71 16.5t27 43.5q0 25 -22.5 38t-56 22t-72.5 18t-72.5 25t-56 43t-22.5 73q0 68 52 111t144 43q73 0 125.5 -29t81.5 -86l-85 -51q-19 35 -50.5 54t-74.5 19q-42 0 -65 -16.5t-23 -39.5t22.5 -35t56.5 -20.5
t73.5 -17t73.5 -25t56.5 -44.5t22.5 -75q0 -37 -15 -67t-42 -51t-65.5 -32.5t-85.5 -11.5z" />
    <glyph glyph-name="t" unicode="t" horiz-adv-x="378" 
d="M212 206q0 -56 24 -80.5t77 -24.5h36v-107h-50q-100 0 -149.5 50t-49.5 154v200h-85v102h85v140h112v-140h133v-102h-133v-192z" />
    <glyph glyph-name="u" unicode="u" horiz-adv-x="574" 
d="M509.004 500v-499.97h-111.993v71.9961q-46.9971 -85.9951 -148.991 -85.9951q-41.9971 0 -76.4951 14.499t-58.4961 40.498q-23.999 25.998 -37.498 63.4961q-13.499 37.4971 -13.499 82.4951v312.98h111.993v-282.982q0 -59.9971 25.998 -93.4941
q25.999 -33.498 76.9961 -33.498q53.9961 0 86.9941 35.4971q32.998 35.498 32.998 92.4951v281.982h111.993z" />
    <glyph glyph-name="v" unicode="v" horiz-adv-x="536" 
d="M210 0l-193 500h123l129 -362l129 362h121l-193 -500h-116z" />
    <glyph glyph-name="w" unicode="w" horiz-adv-x="809" 
d="M180 0l-159 500h116l105 -355l113 355h102l114 -354l104 354h113l-159 -500h-110l-114 354l-115 -354h-110z" />
    <glyph glyph-name="x" unicode="x" horiz-adv-x="528" 
d="M332 255l179 -255h-130l-118 184l-119 -184h-127l179 255l-168 245h126l112 -175l111 175h123z" />
    <glyph glyph-name="y" unicode="y" horiz-adv-x="535" 
d="M215 6l-198 494h118l135 -362l131 362h117l-271 -700h-113z" />
    <glyph glyph-name="z" unicode="z" horiz-adv-x="492" 
d="M42 106l276 292h-265v102h396v-106l-277 -292h278v-102h-408v106z" />
    <glyph glyph-name="braceleft" unicode="{" horiz-adv-x="418" 
d="M387 -172h-39q-106 0 -158.5 56.5t-52.5 165.5v112q0 34 -20 53.5t-55 19.5h-16v107h17q35 0 54.5 19.5t19.5 53.5v112q0 109 52.5 166t158.5 57h39v-106h-33q-57 0 -81 -33.5t-24 -97.5v-121q0 -38 -22.5 -66.5t-60.5 -36.5q38 -8 60.5 -37t22.5 -67v-120
q0 -64 24 -97.5t81 -33.5h33v-106z" />
    <glyph glyph-name="bar" unicode="|" horiz-adv-x="301" 
d="M93 -172v922h114v-922h-114z" />
    <glyph glyph-name="braceright" unicode="}" horiz-adv-x="418" 
d="M31 -172v106h33q57 0 81 33.5t24 97.5v120q0 38 22.5 67t60.5 37q-38 8 -60.5 36.5t-22.5 66.5v121q0 64 -24 97.5t-81 33.5h-33v106h38q107 0 159 -57t52 -166v-112q0 -34 20 -53.5t55 -19.5h17v-107h-17q-35 0 -55 -19.5t-20 -53.5v-112q0 -109 -52 -165.5t-159 -56.5
h-38z" />
    <glyph glyph-name="asciitilde" unicode="~" horiz-adv-x="603" 
d="M37 316q32 55 74.5 79.5t90.5 24.5q35 0 59.5 -10.5t45.5 -23t41 -23t45 -10.5q30 0 56 16.5t37 44.5l81 -56q-31 -54 -72.5 -79.5t-92.5 -25.5q-35 0 -60 10.5t-46.5 23t-42.5 23t-48 10.5q-29 0 -52 -16.5t-37 -44.5z" />
    <glyph glyph-name="exclamdown" unicode="&#xa1;" horiz-adv-x="253" 
d="M54 435.004q0 -30.998 21 -51.4971q21 -20.498 51 -20.498t51 20.498q21 20.499 21 51.4971q0 29.998 -21 50.4971t-51 20.499t-51 -20.499t-21 -50.4971zM65 -199.957h123l-5 505.969h-113z" />
    <glyph glyph-name="cent" unicode="&#xa2;" horiz-adv-x="564" 
d="M358 -163h-109v154q-47 8 -85.5 30.5t-66.5 56.5t-43 77.5t-15 94.5t15 94.5t43 77.5t66.5 56.5t85.5 30.5v159h109v-159q60 -11 104.5 -46t68.5 -91l-98 -51q-19 43 -52.5 65.5t-78.5 22.5q-33 0 -60 -12t-46.5 -33t-30 -50t-10.5 -64q0 -34 10.5 -63.5t30 -50.5
t46.5 -33t60 -12q45 0 78.5 22.5t52.5 65.5l98 -51q-24 -56 -68.5 -91t-104.5 -46v-154z" />
    <glyph glyph-name="sterling" unicode="&#xa3;" horiz-adv-x="591" 
d="M31 287v98h69q-8 23 -14 47.5t-6 55.5q0 51 18 93t50.5 72t78.5 46.5t101 16.5q90 0 151.5 -43t90.5 -126l-104 -38q-35 99 -137 99q-64 0 -98.5 -35.5t-34.5 -95.5q0 -25 5.5 -47t12.5 -45h248v-98h-221q3 -19 3 -40q0 -44 -13.5 -78t-36.5 -59h378v-110h-541v96
q104 27 104 145q0 27 -4 46h-100z" />
    <glyph glyph-name="yen" unicode="&#xa5;" horiz-adv-x="603" 
d="M534 157h-182v-157h-102v157h-181v143h176l-224 400h122l159 -310l159 310h121l-225 -400h177v-143z" />
    <glyph glyph-name="dieresis" unicode="&#xa8;" horiz-adv-x="415" 
d="M31 662q0 30 20 49.5t49 19.5t49 -19.5t20 -49.5q0 -29 -20 -48.5t-49 -19.5t-49 19.5t-20 48.5zM248 662q0 30 20 49.5t49 19.5t48.5 -19.5t19.5 -49.5q0 -29 -19.5 -48.5t-48.5 -19.5t-49 19.5t-20 48.5z" />
    <glyph glyph-name="copyright" unicode="&#xa9;" horiz-adv-x="928" 
d="M464 -32q67 0 122.5 23.5t96 65.5t63 99t22.5 124t-22.5 124t-63 99t-96 65.5t-122.5 23.5t-122.5 -23.5t-96 -65.5t-63 -99t-22.5 -124t22.5 -124t63 -99t96 -65.5t122.5 -23.5zM467 61q-48 0 -87.5 16.5t-68.5 45.5t-45 69t-16 88t16 88t45 69t68.5 45.5t87.5 16.5
q66 0 113.5 -31t73.5 -86l-88 -46q-31 66 -101 66q-25 0 -45.5 -9.5t-35.5 -26t-23.5 -38.5t-8.5 -48q0 -25 8.5 -47.5t23.5 -39t35.5 -26t45.5 -9.5q70 0 101 66l88 -46q-26 -55 -73.5 -86t-113.5 -31zM464 665q83 0 152.5 -29t120 -80.5t79 -122t28.5 -153.5t-28.5 -153.5
t-79 -122t-120 -80.5t-152.5 -29q-82 0 -152 29t-120.5 80.5t-79 122t-28.5 153.5t28.5 153.5t79 122t120.5 80.5t152 29z" />
    <glyph glyph-name="ordfeminine" unicode="&#xaa;" horiz-adv-x="316" 
d="M228 474l-57 -2q-35 -2 -50.5 -12t-15.5 -28q0 -17 12.5 -26t33.5 -9q33 0 55 20t22 52v5zM228 347v41q-30 -50 -94 -50q-45 0 -71.5 24t-26.5 63q0 44 34 69t97 27l61 3q-1 26 -18 41t-44 15q-22 0 -39 -10.5t-26 -30.5l-57 28q37 73 126 73q59 0 92.5 -31.5t33.5 -85.5
v-176h-68z" />
    <glyph glyph-name="guillemotleft" unicode="&#xab;" horiz-adv-x="597" 
d="M266 250l209 261l82 -60l-163 -201l163 -201l-82 -60zM35 250l209 261l82 -60l-163 -201l163 -201l-82 -60z" />
    <glyph glyph-name="macron" unicode="&#xaf;" horiz-adv-x="353" 
d="M30 690h293v-89h-293v89z" />
    <glyph glyph-name="plusminus" unicode="&#xb1;" horiz-adv-x="591" 
d="M55 489h187v199h107v-199h187v-100h-187v-199h-107v199h-187v100zM55 117h481v-101h-481v101z" />
    <glyph glyph-name="twosuperior" unicode="&#xb2;" horiz-adv-x="324" 
d="M27 324v68l142 121q50 42 50 75q0 23 -16.5 36.5t-42.5 13.5q-55 0 -78 -55l-65 33q47 93 145 93q63 0 99 -32t36 -86q0 -16 -5 -31t-15.5 -30t-27.5 -32t-41 -37l-78 -65h171v-72h-274z" />
    <glyph glyph-name="threesuperior" unicode="&#xb3;" horiz-adv-x="343" 
d="M173 315q-56 0 -95.5 25t-60.5 76l67 33q24 -62 88 -62q30 0 50.5 14t20.5 41q0 42 -53 42h-74v68h73q20 0 32.5 10.5t12.5 28.5q0 22 -17 34.5t-43 12.5q-27 0 -47.5 -13.5t-31.5 -39.5l-66 34q44 90 148 90q60 0 97 -30t37 -78q0 -29 -13.5 -50.5t-37.5 -32.5
q29 -12 44.5 -35t15.5 -54q0 -52 -41 -83t-106 -31z" />
    <glyph glyph-name="acute" unicode="&#xb4;" horiz-adv-x="253" 
d="M108 747h126l-108 -160h-106z" />
    <glyph glyph-name="uni00B5" unicode="&#xb5;" horiz-adv-x="632" 
d="M65 -200v700h112v-283q0 -60 26 -93.5t77 -33.5q54 0 87 35.5t33 92.5v282h112v-296q0 -54 20 -80.5t67 -26.5h13v-103h-24q-54 0 -89.5 19.5t-55.5 61.5q-23 -43 -64 -66t-95 -23q-63 0 -107 31v-217h-112z" />
    <glyph glyph-name="periodcentered" unicode="&#xb7;" horiz-adv-x="253" 
d="M55 289q0 31 21 51.5t51 20.5t51 -20.5t21 -51.5t-21 -51.5t-51 -20.5t-51 20.5t-21 51.5z" />
    <glyph glyph-name="cedilla" unicode="&#xb8;" horiz-adv-x="303" 
d="M69 -216q-33 0 -59.5 8.5t-51.5 22.5l32 74q20 -14 37.5 -19.5t34.5 -5.5q38 0 56.5 20t18.5 52t-23 69l78 22q13 -23 21 -46.5t8 -52.5t-9.5 -55.5t-28.5 -46t-47.5 -31t-66.5 -11.5z" />
    <glyph glyph-name="onesuperior" unicode="&#xb9;" horiz-adv-x="235" 
d="M105 324v287l-68 -47l-35 65l105 71h74v-376h-76z" />
    <glyph glyph-name="guillemotright" unicode="&#xbb;" horiz-adv-x="597" 
d="M331 250l-209 -261l-82 60l163 201l-163 201l82 60zM562 250l-209 -261l-82 60l163 201l-163 201l82 60z" />
    <glyph glyph-name="questiondown" unicode="&#xbf;" horiz-adv-x="607" 
d="M384.013 435.004q0 -30.998 -20.998 -51.4971q-20.999 -20.498 -50.9971 -20.498t-50.9971 20.498q-20.999 20.499 -20.999 51.4971q0 29.998 20.999 50.4971t50.9971 20.499t50.9971 -20.499q20.998 -20.499 20.998 -50.4971zM366.014 275.014
q0 -46.9971 -14.499 -78.9951t-36.4971 -54.9971q-21.999 -22.998 -46.9971 -40.4971q-24.999 -17.499 -46.9971 -34.498q-21.999 -16.999 -36.498 -36.498q-14.499 -19.498 -14.499 -47.4971q0 -41.9971 33.498 -66.9951q33.4971 -24.999 90.4941 -24.999
q53.9971 0 96.4941 24.999q42.4971 24.998 66.4961 74.9951l94.9941 -53.9971q-35.998 -72.9951 -102.494 -112.493q-66.4961 -39.4971 -158.49 -39.4971q-54.9961 0 -98.9941 14.499q-43.9971 14.499 -74.9951 40.4971q-30.998 25.999 -47.9971 62.4961
q-16.999 36.498 -16.999 80.4951q0 42.998 14.999 71.9961t37.498 50.4971q22.498 21.498 48.4971 38.9971q25.998 17.499 48.4971 36.498q22.498 18.999 37.4971 42.4971q14.999 23.499 14.999 58.4971v24.998h111.993v-30.998z" />
    <glyph glyph-name="Agrave" unicode="&#xc0;" horiz-adv-x="681" 
d="M241 270h196l-98 290zM406 700l254 -700h-131l-55 163h-270l-55 -163h-128l254 700h131zM281 784l-129 151h138l111 -151h-120z" />
    <glyph glyph-name="Aacute" unicode="&#xc1;" horiz-adv-x="681" 
d="M241 270h196l-98 290zM406 700l254 -700h-131l-55 163h-270l-55 -163h-128l254 700h131zM396 935h138l-129 -151h-120z" />
    <glyph glyph-name="Acircumflex" unicode="&#xc2;" horiz-adv-x="681" 
d="M241 270h196l-98 290zM406 700l254 -700h-131l-55 163h-270l-55 -163h-128l254 700h131zM293 935h94l164 -151h-119l-92 76l-91 -76h-120z" />
    <glyph glyph-name="Atilde" unicode="&#xc3;" horiz-adv-x="681" 
d="M241 270h196l-98 290zM406 700l254 -700h-131l-55 163h-270l-55 -163h-128l254 700h131zM143 792q0 40 10.5 67.5t28 45t40 25t47.5 7.5q32 0 51 -10t32.5 -21.5t25.5 -21.5t30 -10q42 0 42 63h87q0 -40 -10 -68.5t-26.5 -45.5t-39 -25t-47.5 -8q-32 0 -51 10t-33 22
t-26 22t-29 10q-21 0 -32.5 -16.5t-11.5 -45.5h-88z" />
    <glyph glyph-name="Adieresis" unicode="&#xc4;" horiz-adv-x="681" 
d="M241 270h196l-98 290zM406 700l254 -700h-131l-55 163h-270l-55 -163h-128l254 700h131zM155 850q0 31 21 51.5t51 20.5q31 0 52 -20.5t21 -51.5q0 -30 -21 -50.5t-52 -20.5q-30 0 -51 20.5t-21 50.5zM381 850q0 31 21 51.5t51 20.5q31 0 52 -20.5t21 -51.5
q0 -30 -21 -50.5t-52 -20.5q-30 0 -51 20.5t-21 50.5z" />
    <glyph glyph-name="Aring" unicode="&#xc5;" horiz-adv-x="681" 
d="M241 270h196l-98 290zM406 700l254 -700h-131l-55 163h-270l-55 -163h-128l254 700h131zM341 779q-53 0 -87.5 33.5t-34.5 86.5q0 26 9 48t25.5 37.5t39 24.5t48.5 9t48 -9t38.5 -24.5t26 -37.5t9.5 -48t-9.5 -48t-26 -38t-38.5 -25t-48 -9zM341 849q20 0 34 14t14 36
q0 21 -14 35t-34 14t-34 -14t-14 -35q0 -22 14 -36t34 -14z" />
    <glyph glyph-name="AE" unicode="&#xc6;" horiz-adv-x="991" 
d="M311 270h177v303zM488 0v163h-240l-95 -163h-132l425 700h493v-112h-328v-168h290v-112h-290v-195h328v-113h-451z" />
    <glyph glyph-name="Ccedilla" unicode="&#xc7;" horiz-adv-x="760" 
d="M414 -16q-79 0 -145.5 27.5t-114.5 76.5t-75 116t-27 146t27 146t75 116t114.5 76.5t145.5 27.5q109 0 190.5 -51t123.5 -142l-108 -57q-28 65 -80.5 99t-124.5 34q-52 0 -96 -18t-75 -51t-48.5 -79t-17.5 -101t17.5 -101t48.5 -79t75 -51t96 -18q72 0 124.5 34t80.5 99
l108 -57q-42 -91 -123.5 -142t-190.5 -51zM351 -230q-33 0 -59.5 8.5t-51.5 22.5l32 74q20 -14 37.5 -19.5t34.5 -5.5q38 0 56.5 20t18.5 52t-23 69l78 22q13 -23 21 -46.5t8 -52.5t-9.5 -55.5t-28.5 -46t-47.5 -31t-66.5 -11.5z" />
    <glyph glyph-name="Egrave" unicode="&#xc8;" 
d="M82 700h451v-113h-328v-167h291v-113h-291v-194h328v-113h-451v700zM280 784l-129 151h138l111 -151h-120z" />
    <glyph glyph-name="Eacute" unicode="&#xc9;" 
d="M82 700h451v-113h-328v-167h291v-113h-291v-194h328v-113h-451v700zM352 935h138l-129 -151h-120z" />
    <glyph glyph-name="Ecircumflex" unicode="&#xca;" 
d="M82 700h451v-113h-328v-167h291v-113h-291v-194h328v-113h-451v700zM267 935h94l164 -151h-119l-92 76l-91 -76h-120z" />
    <glyph glyph-name="Edieresis" unicode="&#xcb;" 
d="M82 700h451v-113h-328v-167h291v-113h-291v-194h328v-113h-451v700zM129 850q0 31 21 51.5t51 20.5q31 0 52 -20.5t21 -51.5q0 -30 -21 -50.5t-52 -20.5q-30 0 -51 20.5t-21 50.5zM355 850q0 31 21 51.5t51 20.5q31 0 52 -20.5t21 -51.5q0 -30 -21 -50.5t-52 -20.5
q-30 0 -51 20.5t-21 50.5z" />
    <glyph glyph-name="Igrave" unicode="&#xcc;" horiz-adv-x="288" 
d="M82 700h123v-700h-123v700zM88 784l-129 151h138l111 -151h-120z" />
    <glyph glyph-name="Iacute" unicode="&#xcd;" horiz-adv-x="288" 
d="M82 700h123v-700h-123v700zM196 935h138l-129 -151h-120z" />
    <glyph glyph-name="Icircumflex" unicode="&#xce;" horiz-adv-x="288" 
d="M82 700h123v-700h-123v700zM97 935h94l164 -151h-119l-92 76l-91 -76h-120z" />
    <glyph glyph-name="Idieresis" unicode="&#xcf;" horiz-adv-x="288" 
d="M82 700h123v-700h-123v700zM-41 850q0 31 21 51.5t51 20.5q31 0 52 -20.5t21 -51.5q0 -30 -21 -50.5t-52 -20.5q-30 0 -51 20.5t-21 50.5zM185 850q0 31 21 51.5t51 20.5q31 0 52 -20.5t21 -51.5q0 -30 -21 -50.5t-52 -20.5q-30 0 -51 20.5t-21 50.5z" />
    <glyph glyph-name="Eth" unicode="&#xd0;" horiz-adv-x="771" 
d="M247 301v-188h112q54 0 97 17.5t73 49t46.5 75t16.5 95.5t-16.5 95.5t-46.5 75t-73 49t-97 17.5h-112v-173h127v-113h-127zM33 301v113h92v286h246q77 0 141 -26.5t110 -73.5t71.5 -111t25.5 -139t-25.5 -139t-71.5 -111t-110 -73.5t-141 -26.5h-246v301h-92z" />
    <glyph glyph-name="Ntilde" unicode="&#xd1;" horiz-adv-x="747" 
d="M83 700h128l338 -509v509h116v-700h-128l-337 509v-509h-117v700zM177 792q0 40 10.5 67.5t28 45t40 25t47.5 7.5q32 0 51 -10t32.5 -21.5t25.5 -21.5t30 -10q42 0 42 63h87q0 -40 -10 -68.5t-26.5 -45.5t-39 -25t-47.5 -8q-32 0 -51 10t-33 22t-26 22t-29 10
q-21 0 -32.5 -16.5t-11.5 -45.5h-88z" />
    <glyph glyph-name="Ograve" unicode="&#xd2;" horiz-adv-x="828" 
d="M415 -16q-79 0 -146 27.5t-115 76.5t-75 116t-27 146t27 146t75 116t115 76.5t146 27.5t145 -27.5t114 -76.5t75 -116t27 -146t-27 -146t-75 -116t-114 -76.5t-145 -27.5zM416 101q51 0 94 18.5t74 51.5t48 79t17 101q0 54 -17 99.5t-48 78.5t-74 51.5t-94 18.5
q-53 0 -96.5 -18.5t-75 -51.5t-49 -78.5t-17.5 -99.5q0 -55 17.5 -101t49 -79t75 -51.5t96.5 -18.5zM364 784l-129 151h138l111 -151h-120z" />
    <glyph glyph-name="Oacute" unicode="&#xd3;" horiz-adv-x="828" 
d="M415 -16q-79 0 -146 27.5t-115 76.5t-75 116t-27 146t27 146t75 116t115 76.5t146 27.5t145 -27.5t114 -76.5t75 -116t27 -146t-27 -146t-75 -116t-114 -76.5t-145 -27.5zM416 101q51 0 94 18.5t74 51.5t48 79t17 101q0 54 -17 99.5t-48 78.5t-74 51.5t-94 18.5
q-53 0 -96.5 -18.5t-75 -51.5t-49 -78.5t-17.5 -99.5q0 -55 17.5 -101t49 -79t75 -51.5t96.5 -18.5zM460 935h138l-129 -151h-120z" />
    <glyph glyph-name="Ocircumflex" unicode="&#xd4;" horiz-adv-x="828" 
d="M415 -16q-79 0 -146 27.5t-115 76.5t-75 116t-27 146t27 146t75 116t115 76.5t146 27.5t145 -27.5t114 -76.5t75 -116t27 -146t-27 -146t-75 -116t-114 -76.5t-145 -27.5zM416 101q51 0 94 18.5t74 51.5t48 79t17 101q0 54 -17 99.5t-48 78.5t-74 51.5t-94 18.5
q-53 0 -96.5 -18.5t-75 -51.5t-49 -78.5t-17.5 -99.5q0 -55 17.5 -101t49 -79t75 -51.5t96.5 -18.5zM367 935h94l164 -151h-119l-92 76l-91 -76h-120z" />
    <glyph glyph-name="Otilde" unicode="&#xd5;" horiz-adv-x="828" 
d="M415 -16q-79 0 -146 27.5t-115 76.5t-75 116t-27 146t27 146t75 116t115 76.5t146 27.5t145 -27.5t114 -76.5t75 -116t27 -146t-27 -146t-75 -116t-114 -76.5t-145 -27.5zM416 101q51 0 94 18.5t74 51.5t48 79t17 101q0 54 -17 99.5t-48 78.5t-74 51.5t-94 18.5
q-53 0 -96.5 -18.5t-75 -51.5t-49 -78.5t-17.5 -99.5q0 -55 17.5 -101t49 -79t75 -51.5t96.5 -18.5zM217 792q0 40 10.5 67.5t28 45t40 25t47.5 7.5q32 0 51 -10t32.5 -21.5t25.5 -21.5t30 -10q42 0 42 63h87q0 -40 -10 -68.5t-26.5 -45.5t-39 -25t-47.5 -8q-32 0 -51 10
t-33 22t-26 22t-29 10q-21 0 -32.5 -16.5t-11.5 -45.5h-88z" />
    <glyph glyph-name="Odieresis" unicode="&#xd6;" horiz-adv-x="828" 
d="M415 -16q-79 0 -146 27.5t-115 76.5t-75 116t-27 146t27 146t75 116t115 76.5t146 27.5t145 -27.5t114 -76.5t75 -116t27 -146t-27 -146t-75 -116t-114 -76.5t-145 -27.5zM416 101q51 0 94 18.5t74 51.5t48 79t17 101q0 54 -17 99.5t-48 78.5t-74 51.5t-94 18.5
q-53 0 -96.5 -18.5t-75 -51.5t-49 -78.5t-17.5 -99.5q0 -55 17.5 -101t49 -79t75 -51.5t96.5 -18.5zM229 850q0 31 21 51.5t51 20.5q31 0 52 -20.5t21 -51.5q0 -30 -21 -50.5t-52 -20.5q-30 0 -51 20.5t-21 50.5zM455 850q0 31 21 51.5t51 20.5q31 0 52 -20.5t21 -51.5
q0 -30 -21 -50.5t-52 -20.5q-30 0 -51 20.5t-21 50.5z" />
    <glyph glyph-name="multiply" unicode="&#xd7;" horiz-adv-x="475" 
d="M104 570l133 -137l140 144l75 -75l-145 -140l137 -132l-73 -73l-132 137l-141 -145l-75 76l145 140l-137 132z" />
    <glyph glyph-name="Oslash" unicode="&#xd8;" horiz-adv-x="828" 
d="M550 559q-57 40 -134 40q-53 0 -96.5 -18.5t-75 -51.5t-48.5 -78.5t-17 -99.5q0 -76 32 -132zM277 143q59 -42 139 -42q51 0 94 18.5t74 51.5t48.5 79t17.5 101q0 38 -8.5 71t-24.5 61zM103 -39l-78 78l93 93q-32 45 -49 100t-17 118q0 79 27 146t75.5 116t115 76.5
t145.5 27.5q63 0 118 -18t100 -50l91 92l78 -78l-92 -93q32 -45 49 -100.5t17 -118.5q0 -79 -27 -146t-75 -116t-114 -76.5t-145 -27.5q-64 0 -119.5 18t-100.5 51z" />
    <glyph glyph-name="Ugrave" unicode="&#xd9;" horiz-adv-x="722" 
d="M361 -16q-61 0 -113 19t-89.5 55t-58.5 89t-21 122v431h123v-421q0 -88 43.5 -133.5t116.5 -45.5q72 0 115 45.5t43 133.5v421h123v-431q0 -69 -21 -122t-58.5 -89t-89.5 -55t-113 -19zM322 784l-129 151h138l111 -151h-120z" />
    <glyph glyph-name="Uacute" unicode="&#xda;" horiz-adv-x="722" 
d="M361 -16q-61 0 -113 19t-89.5 55t-58.5 89t-21 122v431h123v-421q0 -88 43.5 -133.5t116.5 -45.5q72 0 115 45.5t43 133.5v421h123v-431q0 -69 -21 -122t-58.5 -89t-89.5 -55t-113 -19zM396 935h138l-129 -151h-120z" />
    <glyph glyph-name="Ucircumflex" unicode="&#xdb;" horiz-adv-x="722" 
d="M361 -16q-61 0 -113 19t-89.5 55t-58.5 89t-21 122v431h123v-421q0 -88 43.5 -133.5t116.5 -45.5q72 0 115 45.5t43 133.5v421h123v-431q0 -69 -21 -122t-58.5 -89t-89.5 -55t-113 -19zM314 935h94l164 -151h-119l-92 76l-91 -76h-120z" />
    <glyph glyph-name="Udieresis" unicode="&#xdc;" horiz-adv-x="722" 
d="M361 -16q-61 0 -113 19t-89.5 55t-58.5 89t-21 122v431h123v-421q0 -88 43.5 -133.5t116.5 -45.5q72 0 115 45.5t43 133.5v421h123v-431q0 -69 -21 -122t-58.5 -89t-89.5 -55t-113 -19zM176 850q0 31 21 51.5t51 20.5q31 0 52 -20.5t21 -51.5q0 -30 -21 -50.5t-52 -20.5
q-30 0 -51 20.5t-21 50.5zM402 850q0 31 21 51.5t51 20.5q31 0 52 -20.5t21 -51.5q0 -30 -21 -50.5t-52 -20.5q-30 0 -51 20.5t-21 50.5z" />
    <glyph glyph-name="Yacute" unicode="&#xdd;" horiz-adv-x="637" 
d="M257 0v280l-236 420h135l164 -313l164 313h133l-237 -420v-280h-123zM371 935h138l-129 -151h-120z" />
    <glyph glyph-name="Thorn" unicode="&#xde;" horiz-adv-x="637" 
d="M202 248h152q54 0 87 33t33 86t-32.5 86t-87.5 33h-152v-238zM83 0v700h119v-104h159q53 0 96 -16.5t74.5 -46.5t48.5 -72.5t17 -93.5q0 -52 -17 -94t-48 -72t-74.5 -46.5t-96.5 -16.5h-159v-138h-119z" />
    <glyph glyph-name="agrave" unicode="&#xe0;" horiz-adv-x="550" 
d="M376 226l-96 -4q-72 -3 -102.5 -23.5t-30.5 -52.5q0 -31 24 -49t64 -18q30 0 56 10.5t44.5 29t29.5 44t11 55.5v8zM376 0v75q-26 -43 -68.5 -66t-99.5 -23q-40 0 -72 11.5t-54 32t-33.5 48.5t-11.5 61q0 73 57 117t169 48l113 5v5q0 48 -30 77.5t-83 29.5q-87 0 -124 -77
l-88 44q27 60 82 93t133 33q50 0 90.5 -14t69 -40.5t43.5 -63.5t15 -84v-312h-108zM125 747h126l92 -160h-106z" />
    <glyph glyph-name="aacute" unicode="&#xe1;" horiz-adv-x="550" 
d="M376 226l-96 -4q-72 -3 -102.5 -23.5t-30.5 -52.5q0 -31 24 -49t64 -18q30 0 56 10.5t44.5 29t29.5 44t11 55.5v8zM376 0v75q-26 -43 -68.5 -66t-99.5 -23q-40 0 -72 11.5t-54 32t-33.5 48.5t-11.5 61q0 73 57 117t169 48l113 5v5q0 48 -30 77.5t-83 29.5q-87 0 -124 -77
l-88 44q27 60 82 93t133 33q50 0 90.5 -14t69 -40.5t43.5 -63.5t15 -84v-312h-108zM291 747h126l-108 -160h-106z" />
    <glyph glyph-name="acircumflex" unicode="&#xe2;" horiz-adv-x="550" 
d="M376 226l-96 -4q-72 -3 -102.5 -23.5t-30.5 -52.5q0 -31 24 -49t64 -18q30 0 56 10.5t44.5 29t29.5 44t11 55.5v8zM376 0v75q-26 -43 -68.5 -66t-99.5 -23q-40 0 -72 11.5t-54 32t-33.5 48.5t-11.5 61q0 73 57 117t169 48l113 5v5q0 48 -30 77.5t-83 29.5q-87 0 -124 -77
l-88 44q27 60 82 93t133 33q50 0 90.5 -14t69 -40.5t43.5 -63.5t15 -84v-312h-108zM230 747h84l142 -160h-104l-80 84l-80 -84h-104z" />
    <glyph glyph-name="atilde" unicode="&#xe3;" horiz-adv-x="550" 
d="M376 226l-96 -4q-72 -3 -102.5 -23.5t-30.5 -52.5q0 -31 24 -49t64 -18q30 0 56 10.5t44.5 29t29.5 44t11 55.5v8zM376 0v75q-26 -43 -68.5 -66t-99.5 -23q-40 0 -72 11.5t-54 32t-33.5 48.5t-11.5 61q0 73 57 117t169 48l113 5v5q0 48 -30 77.5t-83 29.5q-87 0 -124 -77
l-88 44q27 60 82 93t133 33q50 0 90.5 -14t69 -40.5t43.5 -63.5t15 -84v-312h-108zM209 647q-38 0 -38 -60h-74q0 39 8.5 66t23.5 43.5t34 23.5t40 7q27 0 44 -9.5t29 -20.5t22.5 -20.5t25.5 -9.5q36 0 36 60h74q0 -39 -8.5 -65.5t-22.5 -43.5t-33.5 -24.5t-40.5 -7.5
q-27 0 -43.5 9.5t-28.5 21t-22.5 21t-25.5 9.5z" />
    <glyph glyph-name="adieresis" unicode="&#xe4;" horiz-adv-x="550" 
d="M376 226l-96 -4q-72 -3 -102.5 -23.5t-30.5 -52.5q0 -31 24 -49t64 -18q30 0 56 10.5t44.5 29t29.5 44t11 55.5v8zM376 0v75q-26 -43 -68.5 -66t-99.5 -23q-40 0 -72 11.5t-54 32t-33.5 48.5t-11.5 61q0 73 57 117t169 48l113 5v5q0 48 -30 77.5t-83 29.5q-87 0 -124 -77
l-88 44q27 60 82 93t133 33q50 0 90.5 -14t69 -40.5t43.5 -63.5t15 -84v-312h-108zM92 662q0 30 20 49.5t49 19.5t49 -19.5t20 -49.5q0 -29 -20 -48.5t-49 -19.5t-49 19.5t-20 48.5zM309 662q0 30 20 49.5t49 19.5t48.5 -19.5t19.5 -49.5q0 -29 -19.5 -48.5t-48.5 -19.5
t-49 19.5t-20 48.5z" />
    <glyph glyph-name="aring" unicode="&#xe5;" horiz-adv-x="550" 
d="M376 226l-96 -4q-72 -3 -102.5 -23.5t-30.5 -52.5q0 -31 24 -49t64 -18q30 0 56 10.5t44.5 29t29.5 44t11 55.5v8zM376 0v75q-26 -43 -68.5 -66t-99.5 -23q-40 0 -72 11.5t-54 32t-33.5 48.5t-11.5 61q0 73 57 117t169 48l113 5v5q0 48 -30 77.5t-83 29.5q-87 0 -124 -77
l-88 44q27 60 82 93t133 33q50 0 90.5 -14t69 -40.5t43.5 -63.5t15 -84v-312h-108zM278 579q-52 0 -86.5 32.5t-34.5 84.5t34.5 84.5t86.5 32.5q26 0 47.5 -8.5t38 -24t25.5 -37t9 -47.5t-9 -47.5t-25.5 -37t-38 -24t-47.5 -8.5zM278 645q21 0 35 14t14 37t-14 37t-35 14
q-22 0 -36 -14t-14 -37t14 -37t36 -14z" />
    <glyph glyph-name="ae" unicode="&#xe6;" horiz-adv-x="922" 
d="M376 227l-96 -4q-72 -3 -102.5 -24t-30.5 -53q0 -31 24 -49t64 -18q30 0 56 10.5t44.5 29t29.5 44t11 55.5v9zM769 304q-7 51 -42.5 82t-90.5 31t-92.5 -31t-51.5 -82h277zM647 -14q-75 0 -133.5 32t-91.5 89q-26 -58 -77 -89.5t-125 -31.5q-85 0 -134 42t-49 110
q0 73 57 117t169 48l113 4v7q0 48 -30 77.5t-83 29.5q-87 0 -124 -77l-88 44q26 60 80 93t131 33q63 0 110 -22.5t73 -64.5q35 42 85.5 64.5t111.5 22.5q54 0 98.5 -18t76 -50.5t48.5 -77.5t17 -100q0 -20 -3 -49h-391q10 -60 51 -96.5t105 -36.5q44 0 78.5 18.5t55.5 53.5
l81 -64q-36 -54 -90 -81t-122 -27z" />
    <glyph glyph-name="ccedilla" unicode="&#xe7;" horiz-adv-x="564" 
d="M303 -14q-58 0 -106 19.5t-83 55t-54.5 84t-19.5 105.5t19.5 105.5t54.5 84t83 55t106 19.5q80 0 139.5 -37t88.5 -105l-98 -51q-19 43 -52.5 65.5t-78.5 22.5q-33 0 -60 -12t-46.5 -33t-30 -50t-10.5 -64q0 -34 10.5 -63.5t30 -50.5t46.5 -33t60 -12q45 0 78.5 22.5
t52.5 65.5l98 -51q-29 -68 -88.5 -105t-139.5 -37zM241 -216q-33 0 -59.5 8.5t-51.5 22.5l32 74q20 -14 37.5 -19.5t34.5 -5.5q38 0 56.5 20t18.5 52t-23 69l78 22q13 -23 21 -46.5t8 -52.5t-9.5 -55.5t-28.5 -46t-47.5 -31t-66.5 -11.5z" />
    <glyph glyph-name="egrave" unicode="&#xe8;" 
d="M156 304h276q-6 51 -41.5 82t-90.5 31t-93 -31t-51 -82zM306 -14q-59 0 -108 19.5t-84.5 54.5t-55 84t-19.5 107t19.5 106.5t55 83t83.5 54t105 19.5q55 0 100 -18t77 -50.5t49.5 -77.5t17.5 -100q0 -11 -1 -23.5t-3 -26.5h-390q10 -60 51 -96t104 -36q91 0 135 72
l81 -64q-37 -54 -92.5 -81t-124.5 -27zM158 747h126l92 -160h-106z" />
    <glyph glyph-name="eacute" unicode="&#xe9;" 
d="M156 304h276q-6 51 -41.5 82t-90.5 31t-93 -31t-51 -82zM306 -14q-59 0 -108 19.5t-84.5 54.5t-55 84t-19.5 107t19.5 106.5t55 83t83.5 54t105 19.5q55 0 100 -18t77 -50.5t49.5 -77.5t17.5 -100q0 -11 -1 -23.5t-3 -26.5h-390q10 -60 51 -96t104 -36q91 0 135 72
l81 -64q-37 -54 -92.5 -81t-124.5 -27zM322 747h126l-108 -160h-106z" />
    <glyph glyph-name="ecircumflex" unicode="&#xea;" 
d="M156 304h276q-6 51 -41.5 82t-90.5 31t-93 -31t-51 -82zM306 -14q-59 0 -108 19.5t-84.5 54.5t-55 84t-19.5 107t19.5 106.5t55 83t83.5 54t105 19.5q55 0 100 -18t77 -50.5t49.5 -77.5t17.5 -100q0 -11 -1 -23.5t-3 -26.5h-390q10 -60 51 -96t104 -36q91 0 135 72
l81 -64q-37 -54 -92.5 -81t-124.5 -27zM252 747h84l142 -160h-104l-80 84l-80 -84h-104z" />
    <glyph glyph-name="edieresis" unicode="&#xeb;" 
d="M156 304h276q-6 51 -41.5 82t-90.5 31t-93 -31t-51 -82zM306 -14q-59 0 -108 19.5t-84.5 54.5t-55 84t-19.5 107t19.5 106.5t55 83t83.5 54t105 19.5q55 0 100 -18t77 -50.5t49.5 -77.5t17.5 -100q0 -11 -1 -23.5t-3 -26.5h-390q10 -60 51 -96t104 -36q91 0 135 72
l81 -64q-37 -54 -92.5 -81t-124.5 -27zM123 662q0 30 20 49.5t49 19.5t49 -19.5t20 -49.5q0 -29 -20 -48.5t-49 -19.5t-49 19.5t-20 48.5zM340 662q0 30 20 49.5t49 19.5t48.5 -19.5t19.5 -49.5q0 -29 -19.5 -48.5t-48.5 -19.5t-49 19.5t-20 48.5z" />
    <glyph glyph-name="igrave" unicode="&#xec;" horiz-adv-x="243" 
d="M65 500h112v-500h-112v500zM-33 747h126l92 -160h-106z" />
    <glyph glyph-name="iacute" unicode="&#xed;" horiz-adv-x="243" 
d="M65 500h112v-500h-112v500zM150 747h126l-108 -160h-106z" />
    <glyph glyph-name="icircumflex" unicode="&#xee;" horiz-adv-x="243" 
d="M65 500h112v-500h-112v500zM79 747h84l142 -160h-104l-80 84l-80 -84h-104z" />
    <glyph glyph-name="idieresis" unicode="&#xef;" horiz-adv-x="243" 
d="M65 500h112v-500h-112v500zM-55 662q0 30 20 49.5t49 19.5t49 -19.5t20 -49.5q0 -29 -20 -48.5t-49 -19.5t-49 19.5t-20 48.5zM162 662q0 30 20 49.5t49 19.5t48.5 -19.5t19.5 -49.5q0 -29 -19.5 -48.5t-48.5 -19.5t-49 19.5t-20 48.5z" />
    <glyph glyph-name="eth" unicode="&#xf0;" horiz-adv-x="591" 
d="M289 87q30 0 55.5 10.5t44 29.5t29 45.5t10.5 58.5t-10.5 58t-29 44.5t-44 29t-55.5 10.5t-55.5 -10.5t-43.5 -29t-28.5 -44.5t-10.5 -58q0 -64 38 -104t100 -40zM138 535l81 75q-58 17 -128 24l16 100q55 -5 104 -17t91 -29l100 92l53 -59l-77 -73q82 -54 125.5 -140
t43.5 -206q0 -76 -18 -134.5t-52 -99t-81.5 -61.5t-107.5 -21q-55 0 -101 17.5t-79 50t-51 77.5t-18 99q0 53 17.5 97t48.5 76.5t74 50.5t95 18q55 0 97.5 -19.5t72.5 -57.5q-18 124 -141 184l-111 -103z" />
    <glyph glyph-name="ntilde" unicode="&#xf1;" horiz-adv-x="574" 
d="M65 0v500h112v-72q47 86 149 86q42 0 76.5 -14.5t58.5 -40.5t37.5 -63.5t13.5 -82.5v-313h-112v283q0 60 -26 93.5t-77 33.5q-54 0 -87 -35.5t-33 -92.5v-282h-112zM230 647q-38 0 -38 -60h-74q0 39 8.5 66t23.5 43.5t34 23.5t40 7q27 0 44 -9.5t29 -20.5t22.5 -20.5
t25.5 -9.5q36 0 36 60h74q0 -39 -8.5 -65.5t-22.5 -43.5t-33.5 -24.5t-40.5 -7.5q-27 0 -43.5 9.5t-28.5 21t-22.5 21t-25.5 9.5z" />
    <glyph glyph-name="ograve" unicode="&#xf2;" horiz-adv-x="605" 
d="M303 -14q-58 0 -106 20t-83 55.5t-54.5 83.5t-19.5 105t19.5 105t54.5 83.5t83 55.5t106 20t106 -20t83 -55.5t54.5 -83.5t19.5 -105t-19.5 -105t-54.5 -83.5t-83 -55.5t-106 -20zM303 91q32 0 59.5 12t47 33t30.5 50.5t11 63.5q0 35 -11 64t-30.5 50t-47 33t-59.5 12
t-59.5 -12t-47 -33t-30.5 -50t-11 -64q0 -34 11 -63.5t30.5 -50.5t47 -33t59.5 -12zM160 747h126l92 -160h-106z" />
    <glyph glyph-name="oacute" unicode="&#xf3;" horiz-adv-x="605" 
d="M303 -14q-58 0 -106 20t-83 55.5t-54.5 83.5t-19.5 105t19.5 105t54.5 83.5t83 55.5t106 20t106 -20t83 -55.5t54.5 -83.5t19.5 -105t-19.5 -105t-54.5 -83.5t-83 -55.5t-106 -20zM303 91q32 0 59.5 12t47 33t30.5 50.5t11 63.5q0 35 -11 64t-30.5 50t-47 33t-59.5 12
t-59.5 -12t-47 -33t-30.5 -50t-11 -64q0 -34 11 -63.5t30.5 -50.5t47 -33t59.5 -12zM336 747h126l-108 -160h-106z" />
    <glyph glyph-name="ocircumflex" unicode="&#xf4;" horiz-adv-x="605" 
d="M303 -14q-58 0 -106 20t-83 55.5t-54.5 83.5t-19.5 105t19.5 105t54.5 83.5t83 55.5t106 20t106 -20t83 -55.5t54.5 -83.5t19.5 -105t-19.5 -105t-54.5 -83.5t-83 -55.5t-106 -20zM303 91q32 0 59.5 12t47 33t30.5 50.5t11 63.5q0 35 -11 64t-30.5 50t-47 33t-59.5 12
t-59.5 -12t-47 -33t-30.5 -50t-11 -64q0 -34 11 -63.5t30.5 -50.5t47 -33t59.5 -12zM261 747h84l142 -160h-104l-80 84l-80 -84h-104z" />
    <glyph glyph-name="otilde" unicode="&#xf5;" horiz-adv-x="605" 
d="M303 -14q-58 0 -106 20t-83 55.5t-54.5 83.5t-19.5 105t19.5 105t54.5 83.5t83 55.5t106 20t106 -20t83 -55.5t54.5 -83.5t19.5 -105t-19.5 -105t-54.5 -83.5t-83 -55.5t-106 -20zM303 91q32 0 59.5 12t47 33t30.5 50.5t11 63.5q0 35 -11 64t-30.5 50t-47 33t-59.5 12
t-59.5 -12t-47 -33t-30.5 -50t-11 -64q0 -34 11 -63.5t30.5 -50.5t47 -33t59.5 -12zM246 647q-38 0 -38 -60h-74q0 39 8.5 66t23.5 43.5t34 23.5t40 7q27 0 44 -9.5t29 -20.5t22.5 -20.5t25.5 -9.5q36 0 36 60h74q0 -39 -8.5 -65.5t-22.5 -43.5t-33.5 -24.5t-40.5 -7.5
q-27 0 -43.5 9.5t-28.5 21t-22.5 21t-25.5 9.5z" />
    <glyph glyph-name="odieresis" unicode="&#xf6;" horiz-adv-x="605" 
d="M303 -14q-58 0 -106 20t-83 55.5t-54.5 83.5t-19.5 105t19.5 105t54.5 83.5t83 55.5t106 20t106 -20t83 -55.5t54.5 -83.5t19.5 -105t-19.5 -105t-54.5 -83.5t-83 -55.5t-106 -20zM303 91q32 0 59.5 12t47 33t30.5 50.5t11 63.5q0 35 -11 64t-30.5 50t-47 33t-59.5 12
t-59.5 -12t-47 -33t-30.5 -50t-11 -64q0 -34 11 -63.5t30.5 -50.5t47 -33t59.5 -12zM126 662q0 30 20 49.5t49 19.5t49 -19.5t20 -49.5q0 -29 -20 -48.5t-49 -19.5t-49 19.5t-20 48.5zM343 662q0 30 20 49.5t49 19.5t48.5 -19.5t19.5 -49.5q0 -29 -19.5 -48.5t-48.5 -19.5
t-49 19.5t-20 48.5z" />
    <glyph glyph-name="divide" unicode="&#xf7;" horiz-adv-x="571" 
d="M49 397h472v-99h-472v99zM213 157q0 -31 21 -51t51 -20t51 20t21 51t-21 51t-51 20t-51 -20t-21 -51zM213 538q0 -30 21 -50.5t51 -20.5t51 20.5t21 50.5q0 31 -21 51.5t-51 20.5t-51 -20.5t-21 -51.5z" />
    <glyph glyph-name="oslash" unicode="&#xf8;" horiz-adv-x="605" 
d="M171 174l212 212q-17 11 -37 17t-43 6q-32 0 -59.5 -12t-47 -33t-30.5 -50t-11 -64q0 -41 16 -76zM434 327l-212 -212q17 -11 37.5 -17.5t43.5 -6.5q32 0 59.5 12t47 33t30.5 50.5t11 63.5q0 43 -17 77zM11 25l73 73q-21 32 -32.5 70t-11.5 82q0 57 19.5 105t54.5 83.5
t83 55.5t106 20q45 0 84 -12t71 -34l72 72l64 -64l-73 -72q22 -32 33.5 -71t11.5 -83q0 -57 -19.5 -105t-54.5 -83.5t-83 -55.5t-106 -20q-45 0 -84.5 12t-71.5 35l-72 -72z" />
    <glyph glyph-name="ugrave" unicode="&#xf9;" horiz-adv-x="574" 
d="M509.004 500v-499.97h-111.993v71.9961q-46.9971 -85.9951 -148.991 -85.9951q-41.9971 0 -76.4951 14.499t-58.4961 40.498q-23.999 25.998 -37.498 63.4961q-13.499 37.4971 -13.499 82.4951v312.98h111.993v-282.982q0 -59.9971 25.998 -93.4941
q25.999 -33.498 76.9961 -33.498q53.9961 0 86.9941 35.4971q32.998 35.498 32.998 92.4951v281.982h111.993zM135 747h126l92 -160h-106z" />
    <glyph glyph-name="uacute" unicode="&#xfa;" horiz-adv-x="574" 
d="M509.004 500v-499.97h-111.993v71.9961q-46.9971 -85.9951 -148.991 -85.9951q-41.9971 0 -76.4951 14.499t-58.4961 40.498q-23.999 25.998 -37.498 63.4961q-13.499 37.4971 -13.499 82.4951v312.98h111.993v-282.982q0 -59.9971 25.998 -93.4941
q25.999 -33.498 76.9961 -33.498q53.9961 0 86.9941 35.4971q32.998 35.498 32.998 92.4951v281.982h111.993zM321 747h126l-108 -160h-106z" />
    <glyph glyph-name="ucircumflex" unicode="&#xfb;" horiz-adv-x="574" 
d="M509.004 500v-499.97h-111.993v71.9961q-46.9971 -85.9951 -148.991 -85.9951q-41.9971 0 -76.4951 14.499t-58.4961 40.498q-23.999 25.998 -37.498 63.4961q-13.499 37.4971 -13.499 82.4951v312.98h111.993v-282.982q0 -59.9971 25.998 -93.4941
q25.999 -33.498 76.9961 -33.498q53.9961 0 86.9941 35.4971q32.998 35.498 32.998 92.4951v281.982h111.993zM245 747h84l142 -160h-104l-80 84l-80 -84h-104z" />
    <glyph glyph-name="udieresis" unicode="&#xfc;" horiz-adv-x="574" 
d="M509.004 500v-499.97h-111.993v71.9961q-46.9971 -85.9951 -148.991 -85.9951q-41.9971 0 -76.4951 14.499t-58.4961 40.498q-23.999 25.998 -37.498 63.4961q-13.499 37.4971 -13.499 82.4951v312.98h111.993v-282.982q0 -59.9971 25.998 -93.4941
q25.999 -33.498 76.9961 -33.498q53.9961 0 86.9941 35.4971q32.998 35.498 32.998 92.4951v281.982h111.993zM110 662q0 30 20 49.5t49 19.5t49 -19.5t20 -49.5q0 -29 -20 -48.5t-49 -19.5t-49 19.5t-20 48.5zM327 662q0 30 20 49.5t49 19.5t48.5 -19.5t19.5 -49.5
q0 -29 -19.5 -48.5t-48.5 -19.5t-49 19.5t-20 48.5z" />
    <glyph glyph-name="yacute" unicode="&#xfd;" horiz-adv-x="535" 
d="M215 6l-198 494h118l135 -362l131 362h117l-271 -700h-113zM290 747h126l-108 -160h-106z" />
    <glyph glyph-name="thorn" unicode="&#xfe;" horiz-adv-x="628" 
d="M325 91q32 0 59.5 12t47 33.5t30.5 51t11 63.5q0 35 -11 64t-30.5 50t-47 32.5t-59.5 11.5t-59.5 -11.5t-47 -32.5t-30.5 -50t-11 -64q0 -34 11 -63.5t30.5 -51t47 -33.5t59.5 -12zM352 -14q-60 0 -103.5 25t-71.5 70v-281h-112v922h112v-303q28 45 71.5 70t103.5 25
q53 0 96.5 -20t74.5 -55.5t48.5 -83.5t17.5 -105t-17.5 -105t-48.5 -83.5t-74.5 -55.5t-96.5 -20z" />
    <glyph glyph-name="ydieresis" unicode="&#xff;" horiz-adv-x="535" 
d="M215 6l-198 494h118l135 -362l131 362h117l-271 -700h-113zM91 662q0 30 20 49.5t49 19.5t49 -19.5t20 -49.5q0 -29 -20 -48.5t-49 -19.5t-49 19.5t-20 48.5zM308 662q0 30 20 49.5t49 19.5t48.5 -19.5t19.5 -49.5q0 -29 -19.5 -48.5t-48.5 -19.5t-49 19.5t-20 48.5z" />
    <glyph glyph-name="Amacron" unicode="&#x100;" horiz-adv-x="681" 
d="M241 270h196l-98 290zM406 700l254 -700h-131l-55 163h-270l-55 -163h-128l254 700h131zM177 888h328v-88h-328v88z" />
    <glyph glyph-name="amacron" unicode="&#x101;" horiz-adv-x="548" 
d="M375 226l-96 -4q-72 -3 -102.5 -23.5t-30.5 -52.5q0 -31 24 -49t64 -18q30 0 56 10.5t44.5 29t29.5 44t11 55.5v8zM375 0v75q-26 -43 -68.5 -66t-99.5 -23q-40 0 -72 11.5t-54 32t-33.5 48.5t-11.5 61q0 73 57 117t169 48l113 5v5q0 48 -30 77.5t-83 29.5q-87 0 -124 -77
l-88 44q27 60 82 93t133 33q50 0 90.5 -14t69 -40.5t43.5 -63.5t15 -84v-312h-108zM127 690h293v-89h-293v89z" />
    <glyph glyph-name="Abreve" unicode="&#x102;" horiz-adv-x="681" 
d="M241 270h196l-98 290zM406 700l254 -700h-131l-55 163h-270l-55 -163h-128l254 700h131zM340 780q-87 0 -139 42t-61 114h103q4 -32 29 -52.5t68 -20.5t68.5 20.5t30.5 52.5h102q-8 -72 -60.5 -114t-140.5 -42z" />
    <glyph glyph-name="abreve" unicode="&#x103;" horiz-adv-x="548" 
d="M375 226l-96 -4q-72 -3 -102.5 -23.5t-30.5 -52.5q0 -31 24 -49t64 -18q30 0 56 10.5t44.5 29t29.5 44t11 55.5v8zM375 0v75q-26 -43 -68.5 -66t-99.5 -23q-40 0 -72 11.5t-54 32t-33.5 48.5t-11.5 61q0 73 57 117t169 48l113 5v5q0 48 -30 77.5t-83 29.5q-87 0 -124 -77
l-88 44q27 60 82 93t133 33q50 0 90.5 -14t69 -40.5t43.5 -63.5t15 -84v-312h-108zM273 589q-76 0 -123.5 41.5t-53.5 113.5h95q4 -35 26.5 -54t55.5 -19q34 0 57 19t27 54h95q-6 -72 -54 -113.5t-125 -41.5z" />
    <glyph glyph-name="Aogonek" unicode="&#x104;" horiz-adv-x="681" 
d="M240 270h197l-98 290zM464 -116q0 34 16.5 62t54.5 54h-6l-55 163h-270l-55 -163h-128l254 700h131l254 -700h-1q-60 -27 -85.5 -48.5t-25.5 -50.5q0 -26 16.5 -40.5t45.5 -14.5q17 0 32 5.5t26 13.5l24 -75q-39 -24 -94 -24q-62 0 -98 32t-36 86z" />
    <glyph glyph-name="aogonek" unicode="&#x105;" horiz-adv-x="548" 
d="M374 226l-95 -4q-72 -3 -102.5 -23.5t-30.5 -52.5q0 -31 23.5 -49t63.5 -18q30 0 56 10.5t44.5 29t29.5 44t11 55.5v8zM295 -113q0 36 18.5 65t60.5 57v66q-26 -43 -68 -66t-99 -23q-40 0 -72 11.5t-54.5 32t-34 48.5t-11.5 61q0 73 57 117t169 48l113 5v5
q0 48 -29.5 77.5t-83.5 29.5q-86 0 -123 -77l-89 44q28 60 82.5 93t133.5 33q50 0 90.5 -14t69 -40.5t43.5 -63.5t15 -84v-312h-1q-56 -26 -79.5 -47t-23.5 -48q0 -25 15.5 -39t41.5 -14q16 0 30 5.5t25 13.5l24 -75q-37 -24 -91 -24q-60 0 -94.5 31t-34.5 84z" />
    <glyph glyph-name="Cacute" unicode="&#x106;" horiz-adv-x="760" 
d="M414 -16q-79 0 -145.5 27.5t-114.5 76.5t-75 116t-27 146t27 146t75 116t114.5 76.5t145.5 27.5q109 0 190.5 -51t123.5 -142l-108 -57q-28 65 -80.5 99t-124.5 34q-52 0 -96 -18t-75 -51t-48.5 -79t-17.5 -101t17.5 -101t48.5 -79t75 -51t96 -18q72 0 124.5 34t80.5 99
l108 -57q-42 -91 -123.5 -142t-190.5 -51zM460 935h138l-129 -151h-120z" />
    <glyph glyph-name="cacute" unicode="&#x107;" horiz-adv-x="564" 
d="M303 -14q-58 0 -106 19.5t-83 55t-54.5 84t-19.5 105.5t19.5 105.5t54.5 84t83 55t106 19.5q80 0 139.5 -37t88.5 -105l-98 -51q-19 43 -52.5 65.5t-78.5 22.5q-33 0 -60 -12t-46.5 -33t-30 -50t-10.5 -64q0 -34 10.5 -63.5t30 -50.5t46.5 -33t60 -12q45 0 78.5 22.5
t52.5 65.5l98 -51q-29 -68 -88.5 -105t-139.5 -37zM336 747h126l-108 -160h-106z" />
    <glyph glyph-name="Ccircumflex" unicode="&#x108;" horiz-adv-x="760" 
d="M414 -16q-79 0 -145.5 27.5t-114.5 76.5t-75 116t-27 146t27 146t75 116t114.5 76.5t145.5 27.5q109 0 190.5 -51t123.5 -142l-108 -57q-28 65 -80.5 99t-124.5 34q-52 0 -96 -18t-75 -51t-48.5 -79t-17.5 -101t17.5 -101t48.5 -79t75 -51t96 -18q72 0 124.5 34t80.5 99
l108 -57q-42 -91 -123.5 -142t-190.5 -51zM367 935h94l164 -151h-119l-92 76l-91 -76h-120z" />
    <glyph glyph-name="ccircumflex" unicode="&#x109;" horiz-adv-x="564" 
d="M303 -14q-58 0 -106 19.5t-83 55t-54.5 84t-19.5 105.5t19.5 105.5t54.5 84t83 55t106 19.5q80 0 139.5 -37t88.5 -105l-98 -51q-19 43 -52.5 65.5t-78.5 22.5q-33 0 -60 -12t-46.5 -33t-30 -50t-10.5 -64q0 -34 10.5 -63.5t30 -50.5t46.5 -33t60 -12q45 0 78.5 22.5
t52.5 65.5l98 -51q-29 -68 -88.5 -105t-139.5 -37zM256 747h84l142 -160h-104l-80 84l-80 -84h-104z" />
    <glyph glyph-name="Cdotaccent" unicode="&#x10a;" horiz-adv-x="760" 
d="M414 -16q-79 0 -145.5 27.5t-114.5 76.5t-75 116t-27 146t27 146t75 116t114.5 76.5t145.5 27.5q109 0 190.5 -51t123.5 -142l-108 -57q-28 65 -80.5 99t-124.5 34q-52 0 -96 -18t-75 -51t-48.5 -79t-17.5 -101t17.5 -101t48.5 -79t75 -51t96 -18q72 0 124.5 34t80.5 99
l108 -57q-42 -91 -123.5 -142t-190.5 -51zM342 867q0 31 21 51.5t51 20.5q31 0 52 -20.5t21 -51.5t-21 -51.5t-52 -20.5q-30 0 -51 20.5t-21 51.5z" />
    <glyph glyph-name="cdotaccent" unicode="&#x10b;" horiz-adv-x="564" 
d="M303 -14q-58 0 -106 19.5t-83 55t-54.5 84t-19.5 105.5t19.5 105.5t54.5 84t83 55t106 19.5q80 0 139.5 -37t88.5 -105l-98 -51q-19 43 -52.5 65.5t-78.5 22.5q-33 0 -60 -12t-46.5 -33t-30 -50t-10.5 -64q0 -34 10.5 -63.5t30 -50.5t46.5 -33t60 -12q45 0 78.5 22.5
t52.5 65.5l98 -51q-29 -68 -88.5 -105t-139.5 -37zM228 661q0 30 20.5 50t50.5 20q29 0 49 -20t20 -50t-20 -50t-49 -20q-30 0 -50.5 20t-20.5 50z" />
    <glyph glyph-name="Ccaron" unicode="&#x10c;" horiz-adv-x="760" 
d="M414 -16q-79 0 -145.5 27.5t-114.5 76.5t-75 116t-27 146t27 146t75 116t114.5 76.5t145.5 27.5q109 0 190.5 -51t123.5 -142l-108 -57q-28 65 -80.5 99t-124.5 34q-52 0 -96 -18t-75 -51t-48.5 -79t-17.5 -101t17.5 -101t48.5 -79t75 -51t96 -18q72 0 124.5 34t80.5 99
l108 -57q-42 -91 -123.5 -142t-190.5 -51zM321 936l92 -75l92 75h119l-164 -152h-94l-164 152h119z" />
    <glyph glyph-name="ccaron" unicode="&#x10d;" horiz-adv-x="564" 
d="M303 -14q-58 0 -106 19.5t-83 55t-54.5 84t-19.5 105.5t19.5 105.5t54.5 84t83 55t106 19.5q80 0 139.5 -37t88.5 -105l-98 -51q-19 43 -52.5 65.5t-78.5 22.5q-33 0 -60 -12t-46.5 -33t-30 -50t-10.5 -64q0 -34 10.5 -63.5t30 -50.5t46.5 -33t60 -12q45 0 78.5 22.5
t52.5 65.5l98 -51q-29 -68 -88.5 -105t-139.5 -37zM119 747h104l80 -84l80 84h104l-142 -160h-84z" />
    <glyph glyph-name="Dcaron" unicode="&#x10e;" horiz-adv-x="729" 
d="M83 700h246q77 0 141 -26.5t110 -73.5t71.5 -111t25.5 -139t-25.5 -139t-71.5 -111t-110 -73.5t-141 -26.5h-246v700zM205 587v-474h112q54 0 97 17.5t73 49t46.5 75t16.5 95.5t-16.5 95.5t-46.5 75t-73 49t-97 17.5h-112zM236 936l92 -75l92 75h119l-164 -152h-94
l-164 152h119z" />
    <glyph glyph-name="dcaron" unicode="&#x10f;" horiz-adv-x="823" 
d="M303 91q32 0 59.5 12t47 33.5t30.5 51t11 63.5q0 35 -11 64t-30.5 50t-47 32.5t-59.5 11.5t-59.5 -11.5t-47 -32.5t-30.5 -50t-11 -64q0 -34 11 -63.5t30.5 -51t47 -33.5t59.5 -12zM276 -14q-52 0 -96 20t-75 55.5t-48.5 83.5t-17.5 105t17.5 105t48.5 83.5t75 55.5
t96 20q60 0 103.5 -25t71.5 -70v303h112v-722h-112v81q-28 -45 -71.5 -70t-103.5 -25zM615 660q0 30 20.5 50.5t52.5 20.5q35 0 57 -28t22 -74q0 -48 -25.5 -98.5t-76.5 -99.5l-49 47q29 30 46.5 55.5t26.5 54.5q-32 0 -53 20t-21 52z" />
    <glyph glyph-name="Dcroat" unicode="&#x110;" horiz-adv-x="771" 
d="M247 301v-188h112q54 0 97 17.5t73 49t46.5 75t16.5 95.5t-16.5 95.5t-46.5 75t-73 49t-97 17.5h-112v-173h127v-113h-127zM33 301v113h92v286h246q77 0 141 -26.5t110 -73.5t71.5 -111t25.5 -139t-25.5 -139t-71.5 -111t-110 -73.5t-141 -26.5h-246v301h-92z" />
    <glyph glyph-name="dcroat" unicode="&#x111;" horiz-adv-x="628" 
d="M303 91q32 0 59.5 12t47 33.5t30.5 51t11 63.5q0 35 -11 64t-30.5 50t-47 32.5t-59.5 11.5t-59.5 -11.5t-47 -32.5t-30.5 -50t-11 -64q0 -34 11 -63.5t30.5 -51t47 -33.5t59.5 -12zM276 -14q-52 0 -96 20t-75 55.5t-48.5 83.5t-17.5 105t17.5 105t48.5 83.5t75 55.5
t96 20q60 0 103.5 -25t71.5 -70v303h112v-722h-112v81q-28 -45 -71.5 -70t-103.5 -25zM376 666h261v-97h-261v97z" />
    <glyph glyph-name="Emacron" unicode="&#x112;" 
d="M82 700h451v-113h-328v-167h291v-113h-291v-194h328v-113h-451v700zM149 888h328v-88h-328v88z" />
    <glyph glyph-name="emacron" unicode="&#x113;" 
d="M156 304h276q-6 51 -41.5 82t-90.5 31t-93 -31t-51 -82zM306 -14q-59 0 -108 19.5t-84.5 54.5t-55 84t-19.5 107t19.5 106.5t55 83t83.5 54t105 19.5q55 0 100 -18t77 -50.5t49.5 -77.5t17.5 -100q0 -11 -1 -23.5t-3 -26.5h-390q10 -60 51 -96t104 -36q91 0 135 72
l81 -64q-37 -54 -92.5 -81t-124.5 -27zM146 690h293v-89h-293v89z" />
    <glyph glyph-name="Ebreve" unicode="&#x114;" 
d="M82 700h451v-113h-328v-167h291v-113h-291v-194h328v-113h-451v700zM309 780q-87 0 -139 42t-61 114h103q4 -32 29 -52.5t68 -20.5t68.5 20.5t30.5 52.5h102q-8 -72 -60.5 -114t-140.5 -42z" />
    <glyph glyph-name="ebreve" unicode="&#x115;" 
d="M156 304h276q-6 51 -41.5 82t-90.5 31t-93 -31t-51 -82zM306 -14q-59 0 -108 19.5t-84.5 54.5t-55 84t-19.5 107t19.5 106.5t55 83t83.5 54t105 19.5q55 0 100 -18t77 -50.5t49.5 -77.5t17.5 -100q0 -11 -1 -23.5t-3 -26.5h-390q10 -60 51 -96t104 -36q91 0 135 72
l81 -64q-37 -54 -92.5 -81t-124.5 -27zM300 589q-76 0 -123.5 41.5t-53.5 113.5h95q4 -35 26.5 -54t55.5 -19q34 0 57 19t27 54h95q-6 -72 -54 -113.5t-125 -41.5z" />
    <glyph glyph-name="Edotaccent" unicode="&#x116;" 
d="M82 700h451v-113h-328v-167h291v-113h-291v-194h328v-113h-451v700zM245 867q0 31 21 51.5t51 20.5q31 0 52 -20.5t21 -51.5t-21 -51.5t-52 -20.5q-30 0 -51 20.5t-21 51.5z" />
    <glyph glyph-name="edotaccent" unicode="&#x117;" 
d="M156 304h276q-6 51 -41.5 82t-90.5 31t-93 -31t-51 -82zM306 -14q-59 0 -108 19.5t-84.5 54.5t-55 84t-19.5 107t19.5 106.5t55 83t83.5 54t105 19.5q55 0 100 -18t77 -50.5t49.5 -77.5t17.5 -100q0 -11 -1 -23.5t-3 -26.5h-390q10 -60 51 -96t104 -36q91 0 135 72
l81 -64q-37 -54 -92.5 -81t-124.5 -27zM229 661q0 30 20.5 50t50.5 20q29 0 49 -20t20 -50t-20 -50t-49 -20q-30 0 -50.5 20t-20.5 50z" />
    <glyph glyph-name="Eogonek" unicode="&#x118;" 
d="M304 -117q0 67 69 117h-291v700h451v-113h-328v-167h291v-113h-291v-194h328v-113h-36q-58 -23 -83 -47t-25 -53q0 -26 16.5 -40t45.5 -14q17 0 32 5.5t26 13.5l23 -75q-39 -24 -93 -24q-62 0 -98.5 31.5t-36.5 85.5z" />
    <glyph glyph-name="eogonek" unicode="&#x119;" 
d="M156 304h276q-6 51 -41.5 82t-90.5 31t-93 -31t-51 -82zM264 -105q0 49 36 91q-58 1 -106 21t-82.5 55t-53.5 83t-19 106t19.5 106.5t55 83t83.5 54t105 19.5q55 0 100 -18t77 -50.5t49.5 -77.5t17.5 -100q0 -11 -1 -23.5t-3 -26.5h-390q10 -60 51 -96t104 -36
q91 0 135 72l81 -64q-18 -26 -41 -46t-50 -34q-45 -30 -64 -52.5t-19 -47.5q0 -26 15.5 -42t44.5 -16q32 0 55 18l24 -75q-41 -25 -92 -25q-60 0 -96 33.5t-36 87.5z" />
    <glyph glyph-name="Ecaron" unicode="&#x11a;" 
d="M82 700h451v-113h-328v-167h291v-113h-291v-194h328v-113h-451v700zM201 936l92 -75l92 75h119l-164 -152h-94l-164 152h119z" />
    <glyph glyph-name="ecaron" unicode="&#x11b;" 
d="M156 304h276q-6 51 -41.5 82t-90.5 31t-93 -31t-51 -82zM306 -14q-59 0 -108 19.5t-84.5 54.5t-55 84t-19.5 107t19.5 106.5t55 83t83.5 54t105 19.5q55 0 100 -18t77 -50.5t49.5 -77.5t17.5 -100q0 -11 -1 -23.5t-3 -26.5h-390q10 -60 51 -96t104 -36q91 0 135 72
l81 -64q-37 -54 -92.5 -81t-124.5 -27zM109 747h104l80 -84l80 84h104l-142 -160h-84z" />
    <glyph glyph-name="Gcircumflex" unicode="&#x11c;" horiz-adv-x="797" 
d="M749 318q0 -77 -23.5 -138.5t-67 -105t-104.5 -67t-136 -23.5q-82 0 -149.5 28t-115.5 77t-74.5 116.5t-26.5 145.5q0 79 26.5 146t74 115.5t114 76t146.5 27.5q104 0 185 -45.5t124 -127.5l-104 -64q-31 60 -84 92t-122 32q-53 0 -96.5 -18.5t-75 -52.5t-48.5 -80
t-17 -102q0 -55 17 -101t48.5 -80t77 -53t101.5 -19q87 0 141.5 45t65.5 126h-274v110h394q3 -34 3 -60zM361 935h94l164 -151h-119l-92 76l-91 -76h-120z" />
    <glyph glyph-name="gcircumflex" unicode="&#x11d;" horiz-adv-x="535" 
d="M154 341q0 -38 29.5 -60t78.5 -22t78 22t29 60t-29 60t-78 22t-78.5 -22t-29.5 -60zM126 -59q0 -29 34.5 -45t97.5 -16q69 0 110.5 18.5t41.5 48.5q0 28 -36 42.5t-102 14.5q-70 0 -108 -16.5t-38 -46.5zM443 436q30 -40 30 -95q0 -38 -15 -69.5t-43 -54.5t-66.5 -36
t-86.5 -13q-42 0 -81 11q-21 -15 -21 -36q0 -23 26.5 -34t91.5 -12q121 -1 184 -38t63 -108q0 -78 -71.5 -121.5t-196.5 -43.5q-114 0 -175.5 36.5t-61.5 104.5q0 43 25.5 73.5t71.5 45.5q-48 32 -48 83q0 24 10.5 44t32.5 40q-29 23 -45.5 54.5t-16.5 73.5q0 38 15 69.5
t42.5 54.5t67 36t87.5 13q70 0 120 -26l74 77l60 -59zM231 747h84l142 -160h-104l-80 84l-80 -84h-104z" />
    <glyph glyph-name="Gbreve" unicode="&#x11e;" horiz-adv-x="797" 
d="M749 318q0 -77 -23.5 -138.5t-67 -105t-104.5 -67t-136 -23.5q-82 0 -149.5 28t-115.5 77t-74.5 116.5t-26.5 145.5q0 79 26.5 146t74 115.5t114 76t146.5 27.5q104 0 185 -45.5t124 -127.5l-104 -64q-31 60 -84 92t-122 32q-53 0 -96.5 -18.5t-75 -52.5t-48.5 -80
t-17 -102q0 -55 17 -101t48.5 -80t77 -53t101.5 -19q87 0 141.5 45t65.5 126h-274v110h394q3 -34 3 -60zM398 780q-87 0 -139 42t-61 114h103q4 -32 29 -52.5t68 -20.5t68.5 20.5t30.5 52.5h102q-8 -72 -60.5 -114t-140.5 -42z" />
    <glyph glyph-name="gbreve" unicode="&#x11f;" horiz-adv-x="535" 
d="M154 341q0 -38 29.5 -60t78.5 -22t78 22t29 60t-29 60t-78 22t-78.5 -22t-29.5 -60zM126 -59q0 -29 34.5 -45t97.5 -16q69 0 110.5 18.5t41.5 48.5q0 28 -36 42.5t-102 14.5q-70 0 -108 -16.5t-38 -46.5zM443 436q30 -40 30 -95q0 -38 -15 -69.5t-43 -54.5t-66.5 -36
t-86.5 -13q-42 0 -81 11q-21 -15 -21 -36q0 -23 26.5 -34t91.5 -12q121 -1 184 -38t63 -108q0 -78 -71.5 -121.5t-196.5 -43.5q-114 0 -175.5 36.5t-61.5 104.5q0 43 25.5 73.5t71.5 45.5q-48 32 -48 83q0 24 10.5 44t32.5 40q-29 23 -45.5 54.5t-16.5 73.5q0 38 15 69.5
t42.5 54.5t67 36t87.5 13q70 0 120 -26l74 77l60 -59zM269 589q-76 0 -123.5 41.5t-53.5 113.5h95q4 -35 26.5 -54t55.5 -19q34 0 57 19t27 54h95q-6 -72 -54 -113.5t-125 -41.5z" />
    <glyph glyph-name="dotlessi" unicode="&#x131;" horiz-adv-x="243" 
d="M65 500h112v-500h-112v500z" />
    <glyph glyph-name="Lslash" unicode="&#x141;" horiz-adv-x="583" 
d="M7 202v114l89 43v341h122v-282l205 98v-114l-205 -98v-191h328v-113h-450v245z" />
    <glyph glyph-name="lslash" unicode="&#x142;" horiz-adv-x="325" 
d="M13 215v113l93 58v336h112v-266l93 58v-113l-93 -58v-343h-112v273z" />
    <glyph glyph-name="ncaron" unicode="&#x148;" horiz-adv-x="574" 
d="M65 0v500h112v-72q47 86 149 86q42 0 76.5 -14.5t58.5 -40.5t37.5 -63.5t13.5 -82.5v-313h-112v283q0 60 -26 93.5t-77 33.5q-54 0 -87 -35.5t-33 -92.5v-282h-112zM103 747h104l80 -84l80 84h104l-142 -160h-84z" />
    <glyph glyph-name="Omacron" unicode="&#x14c;" horiz-adv-x="828" 
d="M415 -16q-79 0 -146 27.5t-115 76.5t-75 116t-27 146t27 146t75 116t115 76.5t146 27.5t145 -27.5t114 -76.5t75 -116t27 -146t-27 -146t-75 -116t-114 -76.5t-145 -27.5zM416 101q51 0 94 18.5t74 51.5t48 79t17 101q0 54 -17 99.5t-48 78.5t-74 51.5t-94 18.5
q-53 0 -96.5 -18.5t-75 -51.5t-49 -78.5t-17.5 -99.5q0 -55 17.5 -101t49 -79t75 -51.5t96.5 -18.5zM250 888h328v-88h-328v88z" />
    <glyph glyph-name="omacron" unicode="&#x14d;" horiz-adv-x="605" 
d="M303 -14q-58 0 -106 20t-83 55.5t-54.5 83.5t-19.5 105t19.5 105t54.5 83.5t83 55.5t106 20t106 -20t83 -55.5t54.5 -83.5t19.5 -105t-19.5 -105t-54.5 -83.5t-83 -55.5t-106 -20zM303 91q32 0 59.5 12t47 33t30.5 50.5t11 63.5q0 35 -11 64t-30.5 50t-47 33t-59.5 12
t-59.5 -12t-47 -33t-30.5 -50t-11 -64q0 -34 11 -63.5t30.5 -50.5t47 -33t59.5 -12zM156 690h293v-89h-293v89z" />
    <glyph glyph-name="Obreve" unicode="&#x14e;" horiz-adv-x="828" 
d="M415 -16q-79 0 -146 27.5t-115 76.5t-75 116t-27 146t27 146t75 116t115 76.5t146 27.5t145 -27.5t114 -76.5t75 -116t27 -146t-27 -146t-75 -116t-114 -76.5t-145 -27.5zM416 101q51 0 94 18.5t74 51.5t48 79t17 101q0 54 -17 99.5t-48 78.5t-74 51.5t-94 18.5
q-53 0 -96.5 -18.5t-75 -51.5t-49 -78.5t-17.5 -99.5q0 -55 17.5 -101t49 -79t75 -51.5t96.5 -18.5zM414 780q-87 0 -139 42t-61 114h103q4 -32 29 -52.5t68 -20.5t68.5 20.5t30.5 52.5h102q-8 -72 -60.5 -114t-140.5 -42z" />
    <glyph glyph-name="obreve" unicode="&#x14f;" horiz-adv-x="605" 
d="M303 -14q-58 0 -106 20t-83 55.5t-54.5 83.5t-19.5 105t19.5 105t54.5 83.5t83 55.5t106 20t106 -20t83 -55.5t54.5 -83.5t19.5 -105t-19.5 -105t-54.5 -83.5t-83 -55.5t-106 -20zM303 91q32 0 59.5 12t47 33t30.5 50.5t11 63.5q0 35 -11 64t-30.5 50t-47 33t-59.5 12
t-59.5 -12t-47 -33t-30.5 -50t-11 -64q0 -34 11 -63.5t30.5 -50.5t47 -33t59.5 -12zM301 589q-76 0 -123.5 41.5t-53.5 113.5h95q4 -35 26.5 -54t55.5 -19q34 0 57 19t27 54h95q-6 -72 -54 -113.5t-125 -41.5z" />
    <glyph glyph-name="OE" unicode="&#x152;" horiz-adv-x="1112" 
d="M416 101q63 0 113 27.5t81 75.5v292q-31 48 -81 75.5t-113 27.5q-53 0 -96.5 -18.5t-75 -51.5t-48.5 -78.5t-17 -99.5q0 -55 17 -101t48.5 -79t75 -51.5t96.5 -18.5zM409 -16q-78 0 -143.5 27.5t-113 76.5t-74 116t-26.5 146t26.5 146t74 116t113 76.5t143.5 27.5
q57 0 108 -16t93 -45v45h450v-113h-328v-167h291v-113h-291v-194h328v-113h-450v45q-42 -29 -93 -45t-108 -16z" />
    <glyph glyph-name="oe" unicode="&#x153;" horiz-adv-x="995" 
d="M303 91q32 0 59.5 12t47 33t30.5 50.5t11 63.5q0 35 -11 64t-30.5 50t-47 33t-59.5 12t-59.5 -12t-47 -33t-30.5 -50t-11 -64q0 -34 11 -63.5t30.5 -50.5t47 -33t59.5 -12zM565 304h277q-7 51 -42.5 82t-90.5 31t-92.5 -31t-51.5 -82zM718 -14q-68 0 -122 26.5t-89 73.5
q-35 -47 -88.5 -73.5t-119.5 -26.5q-57 0 -104.5 20t-82 55.5t-54 83.5t-19.5 105t19.5 105t54 83.5t82 55.5t104.5 20q66 0 119.5 -26.5t88.5 -73.5q35 48 88 74t120 26q54 0 98.5 -18t76 -50.5t48.5 -77.5t17 -100q0 -20 -3 -49h-391q10 -60 51 -96.5t105 -36.5
q44 0 78.5 18.5t55.5 53.5l81 -64q-36 -54 -90.5 -81t-123.5 -27z" />
    <glyph glyph-name="Scaron" unicode="&#x160;" horiz-adv-x="645" 
d="M332 -16q-216 0 -300 187l107 53q30 -63 78 -95.5t118 -32.5q64 0 104 26t40 71q0 39 -30.5 60.5t-76.5 35.5t-99.5 27t-99.5 35t-76.5 59t-30.5 100q0 46 18 84t51 65t79.5 42t104.5 15q95 0 167 -41t112 -122l-103 -54q-24 51 -69 79t-106 28q-62 0 -97 -26t-35 -63
q0 -35 30.5 -54t77 -32t100 -26t100 -36.5t77 -62.5t30.5 -105q0 -50 -19 -90t-54 -68.5t-85.5 -43.5t-112.5 -15zM230 936l92 -75l92 75h119l-164 -152h-94l-164 152h119z" />
    <glyph glyph-name="scaron" unicode="&#x161;" horiz-adv-x="502" 
d="M259 -14q-80 0 -138 33t-89 97l85 52q44 -87 144 -87q44 0 71 16.5t27 43.5q0 25 -22.5 38t-56 22t-72.5 18t-72.5 25t-56 43t-22.5 73q0 68 52 111t144 43q73 0 125.5 -29t81.5 -86l-85 -51q-19 35 -50.5 54t-74.5 19q-42 0 -65 -16.5t-23 -39.5t22.5 -35t56.5 -20.5
t73.5 -17t73.5 -25t56.5 -44.5t22.5 -75q0 -37 -15 -67t-42 -51t-65.5 -32.5t-85.5 -11.5zM67 747h104l80 -84l80 84h104l-142 -160h-84z" />
    <glyph glyph-name="tcaron" unicode="&#x165;" horiz-adv-x="469" 
d="M212 206q0 -56 24 -80.5t77 -24.5h62v-107h-76q-100 0 -149.5 50t-49.5 154v200h-85v102h85v140h112v-434zM262 660q0 30 20.5 50.5t52.5 20.5q35 0 57 -28t22 -74q0 -48 -25.5 -98.5t-76.5 -99.5l-49 47q29 30 46.5 55.5t26.5 54.5q-32 0 -53 20t-21 52z" />
    <glyph glyph-name="uring" unicode="&#x16f;" horiz-adv-x="574" 
d="M509.004 500v-499.97h-111.993v71.9961q-46.9971 -85.9951 -148.991 -85.9951q-41.9971 0 -76.4951 14.499t-58.4961 40.498q-23.999 25.998 -37.498 63.4961q-13.499 37.4971 -13.499 82.4951v312.98h111.993v-282.982q0 -59.9971 25.998 -93.4941
q25.999 -33.498 76.9961 -33.498q53.9961 0 86.9941 35.4971q32.998 35.498 32.998 92.4951v281.982h111.993zM288 579q-52 0 -86.5 32.5t-34.5 84.5t34.5 84.5t86.5 32.5q26 0 47.5 -8.5t38 -24t25.5 -37t9 -47.5t-9 -47.5t-25.5 -37t-38 -24t-47.5 -8.5zM288 645
q21 0 35 14t14 37t-14 37t-35 14q-22 0 -36 -14t-14 -37t14 -37t36 -14z" />
    <glyph glyph-name="Ycircumflex" unicode="&#x176;" horiz-adv-x="637" 
d="M257 0v280l-236 420h135l164 -313l164 313h133l-237 -420v-280h-123zM272 935h94l164 -151h-119l-92 76l-91 -76h-120z" />
    <glyph glyph-name="ycircumflex" unicode="&#x177;" horiz-adv-x="535" 
d="M215 6l-198 494h118l135 -362l131 362h117l-271 -700h-113zM226 747h84l142 -160h-104l-80 84l-80 -84h-104z" />
    <glyph glyph-name="Ydieresis" unicode="&#x178;" horiz-adv-x="637" 
d="M257 0v280l-236 420h135l164 -313l164 313h133l-237 -420v-280h-123zM142 862q0 30 20 49.5t49 19.5t49 -19.5t20 -49.5q0 -29 -20 -48.5t-49 -19.5t-49 19.5t-20 48.5zM359 862q0 30 20 49.5t49 19.5t48.5 -19.5t19.5 -49.5q0 -29 -19.5 -48.5t-48.5 -19.5t-49 19.5
t-20 48.5z" />
    <glyph glyph-name="Zcaron" unicode="&#x17d;" horiz-adv-x="669" 
d="M83 700h521v-121l-402 -466h402v-113h-539v121l402 466h-384v113zM151 947h104l80 -84l80 84h104l-142 -160h-84z" />
    <glyph glyph-name="zcaron" unicode="&#x17e;" horiz-adv-x="492" 
d="M42 106l276 292h-265v102h396v-106l-277 -292h278v-102h-408v106zM63 747h104l80 -84l80 84h104l-142 -160h-84z" />
    <glyph glyph-name="uni02BC" unicode="&#x2bc;" horiz-adv-x="261" 
d="M54 635q0 30 20.5 50.5t52.5 20.5q35 0 57 -28t22 -74q0 -48 -25.5 -98.5t-76.5 -99.5l-49 47q29 30 46.5 55.5t26.5 54.5q-32 0 -53 20t-21 52z" />
    <glyph glyph-name="circumflex" unicode="&#x2c6;" horiz-adv-x="408" 
d="M162 747h84l142 -160h-104l-80 84l-80 -84h-104z" />
    <glyph glyph-name="caron" unicode="&#x2c7;" horiz-adv-x="411" 
d="M20 747h104l80 -84l80 84h104l-142 -160h-84z" />
    <glyph glyph-name="uni02C9" unicode="&#x2c9;" horiz-adv-x="373" 
d="M30 718h314v-88h-314v88z" />
    <glyph glyph-name="breve" unicode="&#x2d8;" horiz-adv-x="403" 
d="M200 589q-76 0 -123.5 41.5t-53.5 113.5h95q4 -35 26.5 -54t55.5 -19q34 0 57 19t27 54h95q-6 -72 -54 -113.5t-125 -41.5z" />
    <glyph glyph-name="dotaccent" unicode="&#x2d9;" horiz-adv-x="199" 
d="M30 661q0 30 20.5 50t50.5 20q29 0 49 -20t20 -50t-20 -50t-49 -20q-30 0 -50.5 20t-20.5 50z" />
    <glyph glyph-name="ring" unicode="&#x2da;" horiz-adv-x="301" 
d="M151 579q-52 0 -86.5 32.5t-34.5 84.5t34.5 84.5t86.5 32.5q26 0 47.5 -8.5t38 -24t25.5 -37t9 -47.5t-9 -47.5t-25.5 -37t-38 -24t-47.5 -8.5zM151 645q21 0 35 14t14 37t-14 37t-35 14q-22 0 -36 -14t-14 -37t14 -37t36 -14z" />
    <glyph glyph-name="ogonek" unicode="&#x2db;" horiz-adv-x="260" 
d="M32 -113q0 49 36 87t120 77l31 -51q-56 -26 -79.5 -47t-23.5 -49q0 -24 15 -38t41 -14q17 0 31 5.5t25 13.5l24 -75q-37 -24 -90 -24q-60 0 -95 31t-35 84z" />
    <glyph glyph-name="tilde" unicode="&#x2dc;" horiz-adv-x="377" 
d="M132 647q-38 0 -38 -60h-74q0 39 8.5 66t23.5 43.5t34 23.5t40 7q27 0 44 -9.5t29 -20.5t22.5 -20.5t25.5 -9.5q36 0 36 60h74q0 -39 -8.5 -65.5t-22.5 -43.5t-33.5 -24.5t-40.5 -7.5q-27 0 -43.5 9.5t-28.5 21t-22.5 21t-25.5 9.5z" />
    <glyph glyph-name="uni0400" unicode="&#x400;" 
d="M82 700h451v-113h-328v-167h291v-113h-291v-194h328v-113h-451v700zM184 947h126l92 -160h-106z" />
    <glyph glyph-name="uni0401" unicode="&#x401;" 
d="M82 700h451v-113h-328v-167h291v-113h-291v-194h328v-113h-451v700zM129 850q0 31 21 51.5t51 20.5q31 0 52 -20.5t21 -51.5q0 -30 -21 -50.5t-52 -20.5q-30 0 -51 20.5t-21 50.5zM355 850q0 31 21 51.5t51 20.5q31 0 52 -20.5t21 -51.5q0 -30 -21 -50.5t-52 -20.5
q-30 0 -51 20.5t-21 50.5z" />
    <glyph glyph-name="uni0402" unicode="&#x402;" horiz-adv-x="786" 
d="M304 0h-123v587h-142v113h564v-113h-299v-197q74 48 173 48q63 0 112 -20.5t82.5 -58.5t51.5 -91.5t18 -118.5q0 -138 -75.5 -216.5t-212.5 -93.5l-17 119q90 11 135 60t45 130q0 82 -43 129.5t-119 47.5q-42 0 -81.5 -15t-68.5 -41v-269z" />
    <glyph glyph-name="uni0403" unicode="&#x403;" horiz-adv-x="546" 
d="M82 700h427v-113h-304v-587h-123v700zM339 935h138l-129 -151h-120z" />
    <glyph glyph-name="uni0404" unicode="&#x404;" horiz-adv-x="767" 
d="M415 -16q-79 0 -146 27.5t-115 76.5t-75 116t-27 146t27 146t75 116t115 76.5t146 27.5q109 0 190.5 -51t123.5 -142l-111 -56q-29 65 -82 98.5t-122 33.5q-45 0 -83.5 -14t-68 -39t-49.5 -60t-29 -77h328v-110h-329q8 -44 27.5 -80.5t49.5 -62.5t69 -40.5t85 -14.5
q69 0 122 33.5t82 98.5l111 -56q-42 -91 -123.5 -142t-190.5 -51z" />
    <glyph glyph-name="uni0405" unicode="&#x405;" horiz-adv-x="645" 
d="M332 -16q-216 0 -300 187l107 53q30 -63 78 -95.5t118 -32.5q64 0 104 26t40 71q0 39 -30.5 60.5t-76.5 35.5t-99.5 27t-99.5 35t-76.5 59t-30.5 100q0 46 18 84t51 65t79.5 42t104.5 15q95 0 167 -41t112 -122l-103 -54q-24 51 -69 79t-106 28q-62 0 -97 -26t-35 -63
q0 -35 30.5 -54t77 -32t100 -26t100 -36.5t77 -62.5t30.5 -105q0 -50 -19 -90t-54 -68.5t-85.5 -43.5t-112.5 -15z" />
    <glyph glyph-name="uni0406" unicode="&#x406;" horiz-adv-x="303" 
d="M87 700h123v-700h-123v700z" />
    <glyph glyph-name="uni0407" unicode="&#x407;" horiz-adv-x="299" 
d="M88 700h123v-700h-123v700zM-36 850q0 31 21 51.5t51 20.5q31 0 52 -20.5t21 -51.5q0 -30 -21 -50.5t-52 -20.5q-30 0 -51 20.5t-21 50.5zM190 850q0 31 21 51.5t52 20.5q30 0 51 -20.5t21 -51.5q0 -30 -21 -50.5t-51 -20.5q-31 0 -52 20.5t-21 50.5z" />
    <glyph glyph-name="uni0408" unicode="&#x408;" horiz-adv-x="611" 
d="M291 103q54 0 86 35t32 94v468h123v-474q0 -54 -17 -98.5t-48.5 -76t-76 -48.5t-99.5 -17q-54 0 -98.5 17t-76 48.5t-48.5 76t-17 98.5v32l123 12v-38q0 -59 31.5 -94t85.5 -35z" />
    <glyph glyph-name="uni0409" unicode="&#x409;" horiz-adv-x="1057" 
d="M25 -8v128h11q32 0 54 14t35.5 51t19 100t5.5 161v254h472v-230h157q54 0 97.5 -17t75 -47.5t48.5 -74t17 -96.5t-17 -96.5t-48 -74t-75 -47.5t-98 -17h-276v583h-235v-168q0 -121 -12.5 -202.5t-39.5 -130.5t-69 -69.5t-102 -20.5h-20zM622 360v-250h146q58 0 92.5 34
t34.5 91t-34.5 91t-92.5 34h-146z" />
    <glyph glyph-name="uni040A" unicode="&#x40a;" horiz-adv-x="1070" 
d="M635 110h145q59 0 93 31.5t34 83.5t-34 83.5t-93 31.5h-145v-230zM83 0v700h122v-250h310v250h120v-250h157q53 0 97 -16t75.5 -45.5t48.5 -71t17 -92.5t-17 -92.5t-48.5 -71t-75 -45.5t-97.5 -16h-277v340h-310v-340h-122z" />
    <glyph glyph-name="uni040B" unicode="&#x40b;" horiz-adv-x="795" 
d="M304 0h-123v587h-142v113h564v-113h-299v-198q35 23 79 36t97 13q115 0 178.5 -65t63.5 -183v-190h-122v168q0 76 -37.5 116.5t-106.5 40.5q-45 0 -84 -15.5t-68 -40.5v-269z" />
    <glyph glyph-name="uni040C" unicode="&#x40c;" horiz-adv-x="666" 
d="M407 368l236 -368h-144l-196 312h-94v-312h-127v700h127v-280h98l194 280h141zM390 935h138l-129 -151h-120z" />
    <glyph glyph-name="uni040D" unicode="&#x40d;" horiz-adv-x="747" 
d="M542 0v513l-326 -513h-134v700h123v-513l325 513h134v-700h-122zM329 784l-129 151h138l111 -151h-120z" />
    <glyph glyph-name="uni040E" unicode="&#x40e;" horiz-adv-x="623" 
d="M319 334l152 366h132l-309 -700h-125l92 207l-240 493h135zM313 780q-87 0 -139 42t-61 114h103q4 -32 29 -52.5t68 -20.5t68.5 20.5t30.5 52.5h102q-8 -72 -60.5 -114t-140.5 -42z" />
    <glyph glyph-name="uni040F" unicode="&#x40f;" horiz-adv-x="744" 
d="M206 700v-587h332v587h123v-700h-227v-144h-123v144h-228v700h123z" />
    <glyph glyph-name="uni0410" unicode="&#x410;" horiz-adv-x="681" 
d="M241 270h196l-98 290zM406 700l254 -700h-131l-55 163h-270l-55 -163h-128l254 700h131z" />
    <glyph glyph-name="uni0411" unicode="&#x411;" horiz-adv-x="621" 
d="M78 700h445v-115h-326v-160h165q50 0 91 -15.5t70 -43.5t44.5 -67t15.5 -86t-15.5 -86.5t-44 -67.5t-69 -43.5t-90.5 -15.5h-286v700zM197 315v-205h156q47 0 77.5 27.5t30.5 75.5q0 47 -30.5 74.5t-77.5 27.5h-156z" />
    <glyph glyph-name="uni0412" unicode="&#x412;" horiz-adv-x="639" 
d="M197 308v-201h174q49 0 78.5 27.5t29.5 73.5q0 45 -29.5 72.5t-78.5 27.5h-174zM197 412h157q42 0 69 25t27 66q0 40 -27 65t-69 25h-157v-181zM78 700h286q47 0 85 -12.5t66 -36t43 -57t15 -75.5q0 -54 -25.5 -93t-75.5 -58q64 -19 97 -63.5t33 -109.5q0 -44 -15.5 -80
t-44.5 -61.5t-70 -39.5t-92 -14h-302v700z" />
    <glyph glyph-name="uni0413" unicode="&#x413;" horiz-adv-x="546" 
d="M82 700h427v-113h-304v-587h-123v700z" />
    <glyph glyph-name="uni0414" unicode="&#x414;" horiz-adv-x="778" 
d="M525 113v475h-249v-102q0 -52 -2.5 -105.5t-8 -103t-13.5 -92t-20 -72.5h293zM159 0v-146h-122v259h66q15 26 25.5 67t17 92.5t9.5 111.5t3 123v194h490v-588h94v-259h-122v146h-461z" />
    <glyph glyph-name="uni0415" unicode="&#x415;" 
d="M82 700h451v-113h-328v-167h291v-113h-291v-194h328v-113h-451v700z" />
    <glyph glyph-name="uni0416" unicode="&#x416;" horiz-adv-x="941" 
d="M781 0l-164 313h-83v-313h-127v313h-83l-164 -313h-139l202 367l-199 333h138l159 -281h86v281h127v-281h86l160 281h137l-199 -333l203 -367h-140z" />
    <glyph glyph-name="uni0417" unicode="&#x417;" horiz-adv-x="628" 
d="M311 -16q-212 0 -292 179l105 56q53 -120 188 -120q68 0 110 30.5t42 81.5q0 45 -31.5 69t-87.5 24h-139v111h138q48 0 77 23.5t29 64.5q0 48 -38 75t-100 27q-119 0 -170 -104l-102 56q40 78 108.5 118.5t166.5 40.5q58 0 105.5 -14.5t81.5 -41t52.5 -63.5t18.5 -83
q0 -56 -27.5 -95.5t-77.5 -57.5q57 -20 88.5 -62t31.5 -102q0 -48 -20 -87t-56.5 -67t-87.5 -43.5t-113 -15.5z" />
    <glyph glyph-name="uni0418" unicode="&#x418;" horiz-adv-x="747" 
d="M542 0v513l-326 -513h-134v700h123v-513l325 513h134v-700h-122z" />
    <glyph glyph-name="uni0419" unicode="&#x419;" horiz-adv-x="747" 
d="M542 0v513l-326 -513h-134v700h123v-513l325 513h134v-700h-122zM373 780q-87 0 -139 42t-61 114h103q4 -32 29 -52.5t68 -20.5t68.5 20.5t30.5 52.5h102q-8 -72 -60.5 -114t-140.5 -42z" />
    <glyph glyph-name="uni041A" unicode="&#x41a;" horiz-adv-x="666" 
d="M407 368l236 -368h-144l-196 312h-94v-312h-127v700h127v-280h98l194 280h141z" />
    <glyph glyph-name="uni041B" unicode="&#x41b;" horiz-adv-x="734" 
d="M41 120h10q32 0 54 14t35.5 51t19 100t5.5 161v254h486v-700h-122v583h-245v-168q0 -121 -12.5 -202.5t-39.5 -130.5t-69.5 -69.5t-102.5 -20.5h-19v128z" />
    <glyph glyph-name="uni041C" unicode="&#x41c;" horiz-adv-x="913" 
d="M458 245l211 455h156v-700h-118v528l-211 -440h-79l-212 440v-528h-117v700h159z" />
    <glyph glyph-name="uni041D" unicode="&#x41d;" horiz-adv-x="735" 
d="M83 700h123v-273h324v273h122v-700h-122v315h-324v-315h-123v700z" />
    <glyph glyph-name="uni041E" unicode="&#x41e;" horiz-adv-x="828" 
d="M415 -16q-79 0 -146 27.5t-115 76.5t-75 116t-27 146t27 146t75 116t115 76.5t146 27.5t145 -27.5t114 -76.5t75 -116t27 -146t-27 -146t-75 -116t-114 -76.5t-145 -27.5zM416 101q51 0 94 18.5t74 51.5t48 79t17 101q0 54 -17 99.5t-48 78.5t-74 51.5t-94 18.5
q-53 0 -96.5 -18.5t-75 -51.5t-49 -78.5t-17.5 -99.5q0 -55 17.5 -101t49 -79t75 -51.5t96.5 -18.5z" />
    <glyph glyph-name="uni041F" unicode="&#x41f;" horiz-adv-x="743" 
d="M83 700h577v-700h-123v587h-332v-587h-122v700z" />
    <glyph glyph-name="uni0420" unicode="&#x420;" horiz-adv-x="642" 
d="M207 352h152q54 0 87 33t33 86t-33 86t-87 33h-152v-238zM87 0v700h279q53 0 96 -16.5t74.5 -46.5t48.5 -72.5t17 -93.5q0 -52 -17 -94t-48.5 -72t-74.5 -46.5t-96 -16.5h-159v-242h-120z" />
    <glyph glyph-name="uni0421" unicode="&#x421;" horiz-adv-x="760" 
d="M414 -16q-79 0 -145.5 27.5t-114.5 76.5t-75 116t-27 146t27 146t75 116t114.5 76.5t145.5 27.5q109 0 190.5 -51t123.5 -142l-108 -57q-28 65 -80.5 99t-124.5 34q-52 0 -96 -18t-75 -51t-48.5 -79t-17.5 -101t17.5 -101t48.5 -79t75 -51t96 -18q72 0 124.5 34t80.5 99
l108 -57q-42 -91 -123.5 -142t-190.5 -51z" />
    <glyph glyph-name="uni0422" unicode="&#x422;" horiz-adv-x="617" 
d="M581 700v-113h-209v-587h-126v587h-209v113h544z" />
    <glyph glyph-name="uni0423" unicode="&#x423;" horiz-adv-x="623" 
d="M319 334l152 366h132l-309 -700h-125l92 207l-240 493h135z" />
    <glyph glyph-name="uni0424" unicode="&#x424;" horiz-adv-x="882" 
d="M382 546q-45 -1 -83 -16t-65 -41t-42.5 -61.5t-15.5 -78.5t15.5 -78.5t42.5 -61t65 -40t83 -15.5v392zM500 154q45 1 83 16t65 41t42.5 61.5t15.5 77.5t-15.5 77.5t-42.5 61.5t-65 41t-83 16v-392zM382 -26v66q-77 4 -138 28.5t-104 65.5t-65.5 96t-22.5 120t22.5 120
t65.5 95.5t104 65.5t138 29v66h118v-66q77 -4 138 -29t104 -65.5t65.5 -95.5t22.5 -120t-22.5 -120t-65.5 -95.5t-104 -65t-138 -29.5v-66h-118z" />
    <glyph glyph-name="uni0425" unicode="&#x425;" horiz-adv-x="646" 
d="M21 0l223 361l-208 339h140l149 -252l149 252h136l-208 -339l223 -361h-144l-160 273l-160 -273h-140z" />
    <glyph glyph-name="uni0426" unicode="&#x426;" horiz-adv-x="792" 
d="M206 700v-587h332v587h123v-587h94v-257h-123v144h-549v700h123z" />
    <glyph glyph-name="uni0427" unicode="&#x427;" horiz-adv-x="713" 
d="M630 0h-123v290q-36 -23 -82.5 -37t-101.5 -14q-118 0 -184 66t-66 192v203h122v-192q0 -72 39 -111t112 -39q47 0 89.5 16t71.5 42v284h123v-700z" />
    <glyph glyph-name="uni0428" unicode="&#x428;" horiz-adv-x="953" 
d="M83 700h122v-587h210v587h123v-587h209v587h123v-700h-787v700z" />
    <glyph glyph-name="uni0429" unicode="&#x429;" horiz-adv-x="1001" 
d="M83 700h122v-587h210v587h123v-587h209v587h123v-587h94v-259h-122v146h-759v700z" />
    <glyph glyph-name="uni042A" unicode="&#x42a;" horiz-adv-x="764" 
d="M39 700h280v-230h167q54 0 97.5 -17t75 -47.5t48.5 -74t17 -96.5t-17 -96.5t-48.5 -74t-75 -47.5t-97.5 -17h-286v582h-161v118zM319 360v-250h156q59 0 93 34t34 91t-34 91t-93 34h-156z" />
    <glyph glyph-name="uni042B" unicode="&#x42b;" horiz-adv-x="900" 
d="M83 700h119v-230h167q54 0 97.5 -17t75 -47.5t48.5 -74t17 -96.5t-17 -96.5t-48.5 -74t-75 -47.5t-97.5 -17h-286v700zM202 360v-250h155q59 0 93 34t34 91t-34 91t-93 34h-155zM817 700v-700h-123v700h123z" />
    <glyph glyph-name="uni042C" unicode="&#x42c;" horiz-adv-x="647" 
d="M83 700h119v-230h167q54 0 97.5 -17t75 -47.5t48.5 -74t17 -96.5t-17 -96.5t-48.5 -74t-75 -47.5t-97.5 -17h-286v700zM202 360v-250h155q59 0 93 34t34 91t-34 91t-93 34h-155z" />
    <glyph glyph-name="uni042D" unicode="&#x42d;" horiz-adv-x="761" 
d="M346 -16q-109 0 -190.5 51t-123.5 142l110 56q30 -65 83 -98.5t122 -33.5q46 0 84.5 14.5t68.5 40.5t50 62t28 80h-329v112h327q-9 42 -29 77t-49.5 60t-67.5 38.5t-83 13.5q-69 0 -122 -33.5t-83 -98.5l-110 56q42 91 123.5 142t190.5 51q80 0 146.5 -27.5t114.5 -76.5
t75 -116t27 -146t-27 -146t-75 -116t-114.5 -76.5t-146.5 -27.5z" />
    <glyph glyph-name="uni042E" unicode="&#x42e;" horiz-adv-x="1116" 
d="M708 595q-50 0 -92.5 -18.5t-73 -51.5t-48 -77.5t-17.5 -97.5t17.5 -98t48 -77.5t73 -51t92.5 -18.5q51 0 93 18.5t73 51t48 77.5t17 98t-17 97.5t-48 77.5t-73 51.5t-93 18.5zM708 714q78 0 143 -27.5t112.5 -76.5t74 -115.5t26.5 -144.5t-26.5 -144.5t-74 -115.5
t-112.5 -76.5t-143 -27.5q-72 0 -134 24t-108.5 67t-75.5 102.5t-36 129.5h-148v-309h-123v700h123v-273h153q12 63 42.5 115.5t76.5 91t104.5 59.5t125.5 21z" />
    <glyph glyph-name="uni042F" unicode="&#x42f;" horiz-adv-x="653" 
d="M451 352v238h-152q-55 0 -88 -33t-33 -86t33 -86t88 -33h152zM570 0h-119v242h-139l-157 -242h-134l171 260q-63 24 -99.5 79t-36.5 132q0 51 17 93.5t48 72.5t74.5 46.5t96.5 16.5h278v-700z" />
    <glyph glyph-name="uni0430" unicode="&#x430;" horiz-adv-x="548" 
d="M375 226l-96 -4q-72 -3 -102.5 -23.5t-30.5 -52.5q0 -31 24 -49t64 -18q30 0 56 10.5t44.5 29t29.5 44t11 55.5v8zM375 0v75q-26 -43 -68.5 -66t-99.5 -23q-40 0 -72 11.5t-54 32t-33.5 48.5t-11.5 61q0 73 57 117t169 48l113 5v5q0 48 -30 77.5t-83 29.5q-87 0 -124 -77
l-88 44q27 60 82 93t133 33q50 0 90.5 -14t69 -40.5t43.5 -63.5t15 -84v-312h-108z" />
    <glyph glyph-name="uni0431" unicode="&#x431;" horiz-adv-x="595" 
d="M306 87q30 0 55.5 10.5t44 30t28.5 46.5t10 60t-10.5 60t-28.5 46.5t-43.5 30t-55.5 10.5q-31 0 -56.5 -10.5t-44 -30t-29 -46.5t-10.5 -60t10.5 -60t29 -46.5t44.5 -30t56 -10.5zM308 -14q-61 0 -109.5 22.5t-82 64.5t-51.5 102t-18 135q0 91 16.5 159t52 114t92 71.5
t136.5 31.5l166 13l6 -108l-163 -11q-53 -4 -91 -16.5t-63 -36.5t-38 -60.5t-15 -86.5q58 100 179 100q51 0 93.5 -18t72.5 -50.5t47 -77.5t17 -99q0 -55 -18 -101t-50.5 -79t-78 -51t-100.5 -18z" />
    <glyph glyph-name="uni0432" unicode="&#x432;" horiz-adv-x="516" 
d="M171 89h136q30 0 48 17.5t18 45.5q0 27 -18 44t-48 17h-136v-124zM171 300h124q29 0 44 16.5t15 39.5t-15 39t-44 16h-124v-111zM65 0v500h247q36 0 64 -10t47 -27.5t29 -41t10 -49.5q0 -37 -19.5 -66t-61.5 -42q51 -14 75.5 -47t24.5 -77q0 -31 -12 -57t-33.5 -44.5
t-51 -28.5t-64.5 -10h-255z" />
    <glyph glyph-name="uni0433" unicode="&#x433;" horiz-adv-x="414" 
d="M69 500h326v-102h-214v-398h-112v500z" />
    <glyph glyph-name="uni0434" unicode="&#x434;" horiz-adv-x="609" 
d="M395 102v296h-171v-45q0 -50 -2 -88.5t-6 -68t-9.5 -52.5t-13.5 -42h202zM27 -123v225h54q9 15 16 37t12 56t7.5 83t2.5 118v104h388v-398h75v-225h-107v123h-341v-123h-107z" />
    <glyph glyph-name="uni0435" unicode="&#x435;" 
d="M156 304h276q-6 51 -41.5 82t-90.5 31t-93 -31t-51 -82zM306 -14q-59 0 -108 19.5t-84.5 54.5t-55 84t-19.5 107t19.5 106.5t55 83t83.5 54t105 19.5q55 0 100 -18t77 -50.5t49.5 -77.5t17.5 -100q0 -11 -1 -23.5t-3 -26.5h-390q10 -60 51 -96t104 -36q91 0 135 72
l81 -64q-37 -54 -92.5 -81t-124.5 -27z" />
    <glyph glyph-name="uni0436" unicode="&#x436;" horiz-adv-x="750" 
d="M265 307h54v193h112v-193h57l117 193h123l-156 -238l161 -262h-128l-119 211h-55v-211h-112v211h-53l-121 -211h-128l161 262l-156 238h123z" />
    <glyph glyph-name="uni0437" unicode="&#x437;" horiz-adv-x="495" 
d="M248 -14q-78 0 -134.5 31.5t-88.5 100.5l88 44q36 -83 133 -83q47 0 76.5 18.5t29.5 52.5q0 27 -21.5 44.5t-61.5 17.5h-98v92h99q34 0 53.5 15t19.5 40q0 29 -27 46.5t-70 17.5q-85 0 -120 -73l-83 49q61 115 207 115q45 0 81.5 -10.5t62.5 -30t40.5 -46.5t14.5 -60
q0 -77 -84 -112q94 -26 94 -114q0 -35 -15 -63.5t-43 -49t-67 -31.5t-86 -11z" />
    <glyph glyph-name="uni0438" unicode="&#x438;" horiz-adv-x="583" 
d="M177 500v-338l227 338h114v-500h-112v338l-227 -338h-114v500h112z" />
    <glyph glyph-name="uni0439" unicode="&#x439;" horiz-adv-x="591" 
d="M181 500v-338l227 338h114v-500h-112v338l-227 -338h-114v500h112zM295 589q-76 0 -123.5 41.5t-53.5 113.5h94q5 -34 27.5 -53t55.5 -19q34 0 57 19t28 53h94q-6 -72 -54 -113.5t-125 -41.5z" />
    <glyph glyph-name="uni043A" unicode="&#x43a;" horiz-adv-x="540" 
d="M243 208h-66v-208h-111v500h111v-191h69l146 191h127l-190 -239l194 -261h-131z" />
    <glyph glyph-name="uni043B" unicode="&#x43b;" horiz-adv-x="564" 
d="M21 103h8q25 0 41.5 9.5t26 33.5t13.5 65t4 104v185h385v-500h-112v398h-168v-103q0 -81 -8.5 -138.5t-29 -93.5t-55.5 -52.5t-88 -16.5h-17v109z" />
    <glyph glyph-name="uni043C" unicode="&#x43c;" horiz-adv-x="685" 
d="M344 199l143 301h133v-500h-104v357l-143 -291h-61l-143 291v-357h-104v500h136z" />
    <glyph glyph-name="uni043D" unicode="&#x43d;" horiz-adv-x="577" 
d="M512 500v-500h-112v213h-223v-213h-112v500h112v-185h223v185h112z" />
    <glyph glyph-name="uni043E" unicode="&#x43e;" horiz-adv-x="605" 
d="M303 -14q-58 0 -106 20t-83 55.5t-54.5 83.5t-19.5 105t19.5 105t54.5 83.5t83 55.5t106 20t106 -20t83 -55.5t54.5 -83.5t19.5 -105t-19.5 -105t-54.5 -83.5t-83 -55.5t-106 -20zM303 91q32 0 59.5 12t47 33t30.5 50.5t11 63.5q0 35 -11 64t-30.5 50t-47 33t-59.5 12
t-59.5 -12t-47 -33t-30.5 -50t-11 -64q0 -34 11 -63.5t30.5 -50.5t47 -33t59.5 -12z" />
    <glyph glyph-name="uni043F" unicode="&#x43f;" horiz-adv-x="572" 
d="M65 500h441v-500h-112v398h-217v-398h-112v500z" />
    <glyph glyph-name="uni0440" unicode="&#x440;" horiz-adv-x="637" 
d="M329 91q32 0 59.5 12t47 33.5t30.5 51t11 63.5q0 35 -11 64t-30.5 50t-47 32.5t-59.5 11.5t-59.5 -11.5t-47 -32.5t-30.5 -50t-11 -64q0 -34 11 -63.5t30.5 -51t47 -33.5t59.5 -12zM356 -14q-60 0 -103.5 25t-71.5 70v-281h-112v700h112v-81q28 45 71.5 70t103.5 25
q53 0 96.5 -20t74.5 -55.5t48.5 -83.5t17.5 -105t-17.5 -105t-48.5 -83.5t-74.5 -55.5t-96.5 -20z" />
    <glyph glyph-name="uni0441" unicode="&#x441;" horiz-adv-x="564" 
d="M303 -14q-58 0 -106 19.5t-83 55t-54.5 84t-19.5 105.5t19.5 105.5t54.5 84t83 55t106 19.5q80 0 139.5 -37t88.5 -105l-98 -51q-19 43 -52.5 65.5t-78.5 22.5q-33 0 -60 -12t-46.5 -33t-30 -50t-10.5 -64q0 -34 10.5 -63.5t30 -50.5t46.5 -33t60 -12q45 0 78.5 22.5
t52.5 65.5l98 -51q-29 -68 -88.5 -105t-139.5 -37z" />
    <glyph glyph-name="uni0442" unicode="&#x442;" horiz-adv-x="467" 
d="M448 500v-102h-159v-398h-112v398h-158v102h429z" />
    <glyph glyph-name="uni0443" unicode="&#x443;" horiz-adv-x="535" 
d="M215 6l-198 494h118l135 -362l131 362h117l-271 -700h-113z" />
    <glyph glyph-name="uni0444" unicode="&#x444;" horiz-adv-x="714" 
d="M303 722h108v-209q60 -4 108.5 -24.5t83 -55t53.5 -81t19 -102.5q0 -55 -19 -102t-53.5 -81.5t-83 -55t-108.5 -24.5v-187h-108v187q-60 4 -108.5 24.5t-83 55t-53.5 81.5t-19 102q0 56 19 102.5t53.5 81t83 55t108.5 24.5v209zM411 89q33 2 61 14.5t48.5 33.5t31.5 50
t11 63t-11 63t-31.5 50t-48.5 33.5t-61 14.5v-322zM303 89v322q-33 -2 -61 -14.5t-48.5 -33.5t-31.5 -50t-11 -63t11 -63t31.5 -50t48.5 -33.5t61 -14.5z" />
    <glyph glyph-name="uni0445" unicode="&#x445;" horiz-adv-x="528" 
d="M332 255l179 -255h-130l-118 184l-119 -184h-127l179 255l-168 245h126l112 -175l111 175h123z" />
    <glyph glyph-name="uni0446" unicode="&#x446;" horiz-adv-x="609" 
d="M65 0v500h112v-398h218v398h112v-398h75v-225h-107v123h-410z" />
    <glyph glyph-name="uni0447" unicode="&#x447;" horiz-adv-x="550" 
d="M485 0h-112v200q-28 -16 -63 -24.5t-73 -8.5q-90 0 -140.5 49.5t-50.5 143.5v140h112v-113q0 -119 105 -119q32 0 60.5 9.5t49.5 25.5v197h112v-500z" />
    <glyph glyph-name="uni0448" unicode="&#x448;" horiz-adv-x="767" 
d="M65 0v500h112v-398h150v398h112v-398h150v398h112v-500h-636z" />
    <glyph glyph-name="uni0449" unicode="&#x449;" horiz-adv-x="803" 
d="M65 0v500h112v-398h150v398h112v-398h150v398h112v-398h76v-225h-108v123h-604z" />
    <glyph glyph-name="uni044A" unicode="&#x44a;" horiz-adv-x="589" 
d="M249 500v-152h128q41 0 74 -13t56 -36t36 -55t13 -70t-13 -70t-36 -55t-56 -36t-73 -13h-234v397h-125v103h230zM249 96h116q39 0 61.5 21.5t22.5 56.5t-22.5 56.5t-61.5 21.5h-116v-156z" />
    <glyph glyph-name="uni044B" unicode="&#x44b;" horiz-adv-x="735" 
d="M553 500h112v-500h-112v500zM175 96h115q39 0 61.5 21.5t22.5 56.5t-22.5 56.5t-61.5 21.5h-115v-156zM303 0h-234v500h106v-152h128q40 0 73 -13t56 -36t36 -55t13 -70t-13 -70t-36 -55t-56 -36t-73 -13z" />
    <glyph glyph-name="uni044C" unicode="&#x44c;" horiz-adv-x="515" 
d="M175 96h115q39 0 61.5 21.5t22.5 56.5t-22.5 56.5t-61.5 21.5h-115v-156zM303 0h-234v500h106v-152h128q40 0 73 -13t56 -36t36 -55t13 -70t-13 -70t-36 -55t-56 -36t-73 -13z" />
    <glyph glyph-name="uni044D" unicode="&#x44d;" horiz-adv-x="563" 
d="M261 -14q-80 0 -139 37t-89 104l93 47q19 -42 54 -64.5t82 -22.5q56 0 95 32t51 86h-223v94h222q-13 52 -51.5 83t-93.5 31q-47 0 -82 -22.5t-54 -64.5l-93 47q30 67 89 104t139 37q58 0 106 -20t83 -55t54.5 -83.5t19.5 -105.5t-19.5 -105.5t-54.5 -83.5t-83 -55
t-106 -20z" />
    <glyph glyph-name="uni044E" unicode="&#x44e;" horiz-adv-x="830" 
d="M530 91q31 0 57.5 12t46 33.5t30.5 51t11 63.5q0 35 -11 64t-30.5 50t-46 32.5t-57.5 11.5t-57.5 -11.5t-46 -32.5t-30.5 -50t-11 -64q0 -34 11 -63.5t30.5 -51t46 -33.5t57.5 -12zM533 -14q-50 0 -93 15.5t-76 44t-55 68t-30 86.5h-98v-200h-112v500h112v-197h98
q8 47 30 85.5t55 66.5t76 43.5t93 15.5q57 0 104 -20t81.5 -55.5t53.5 -83.5t19 -105t-19 -105t-53.5 -83.5t-81.5 -55.5t-104 -20z" />
    <glyph glyph-name="uni044F" unicode="&#x44f;" horiz-adv-x="523" 
d="M349 404h-114q-39 0 -61.5 -20.5t-22.5 -53.5t22.5 -53.5t61.5 -20.5h114v148zM221 500h237v-500h-109v160h-104l-97 -160h-126l113 178q-44 20 -68.5 59.5t-24.5 92.5q0 37 13 68.5t36.5 54t56.5 35t73 12.5z" />
    <glyph glyph-name="uni0450" unicode="&#x450;" 
d="M156 304h276q-6 51 -41.5 82t-90.5 31t-93 -31t-51 -82zM306 -14q-59 0 -108 19.5t-84.5 54.5t-55 84t-19.5 107t19.5 106.5t55 83t83.5 54t105 19.5q55 0 100 -18t77 -50.5t49.5 -77.5t17.5 -100q0 -11 -1 -23.5t-3 -26.5h-390q10 -60 51 -96t104 -36q91 0 135 72
l81 -64q-37 -54 -92.5 -81t-124.5 -27zM146 747h126l92 -160h-106z" />
    <glyph glyph-name="uni0451" unicode="&#x451;" 
d="M156 304h276q-6 51 -41.5 82t-90.5 31t-93 -31t-51 -82zM306 -14q-59 0 -108 19.5t-84.5 54.5t-55 84t-19.5 107t19.5 106.5t55 83t83.5 54t105 19.5q55 0 100 -18t77 -50.5t49.5 -77.5t17.5 -100q0 -11 -1 -23.5t-3 -26.5h-390q10 -60 51 -96t104 -36q91 0 135 72
l81 -64q-37 -54 -92.5 -81t-124.5 -27zM124 662q0 30 20 49.5t49 19.5t49 -19.5t20 -49.5q0 -29 -20 -48.5t-49 -19.5t-49 19.5t-20 48.5zM341 662q0 30 20 49.5t49 19.5t48.5 -19.5t19.5 -49.5q0 -29 -19.5 -48.5t-48.5 -19.5t-49 19.5t-20 48.5z" />
    <glyph glyph-name="uni0452" unicode="&#x452;" horiz-adv-x="611" 
d="M27 620h76v80h112v-80h157v-91h-157v-131q47 85 148 85q42 0 76.5 -14.5t58.5 -41t37.5 -63.5t13.5 -82v-284q0 -100 -47 -152t-139 -52h-34v107h20q51 0 69.5 26.5t18.5 85.5v239q0 61 -26 94.5t-77 33.5q-53 0 -86 -35.5t-33 -92.5v-252h-112v529h-76v91z" />
    <glyph glyph-name="uni0453" unicode="&#x453;" horiz-adv-x="410" 
d="M65 500h326v-102h-214v-398h-112v500zM254 747h126l-108 -160h-106z" />
    <glyph glyph-name="uni0454" unicode="&#x454;" horiz-adv-x="563" 
d="M303 -14q-58 0 -106.5 20t-83.5 55t-54.5 83.5t-19.5 105.5t19.5 105.5t54.5 83.5t83.5 55t106.5 20q79 0 138 -37t89 -104l-93 -47q-19 42 -54 64.5t-82 22.5q-55 0 -93.5 -31t-51.5 -84h222v-92h-223q12 -54 51 -86.5t95 -32.5q47 0 82 22.5t54 64.5l93 -47
q-30 -67 -89 -104t-138 -37z" />
    <glyph glyph-name="uni0455" unicode="&#x455;" horiz-adv-x="508" 
d="M263 -14q-80 0 -138 33t-89 97l85 52q44 -87 144 -87q44 0 71 16.5t27 43.5q0 25 -22.5 38t-56 22t-72.5 18t-72.5 25t-56 43t-22.5 73q0 68 52 111t144 43q73 0 125.5 -29t81.5 -86l-85 -51q-19 35 -50.5 54t-74.5 19q-42 0 -65 -16.5t-23 -39.5t22.5 -35t56.5 -20.5
t73.5 -17t73.5 -25t56.5 -44.5t22.5 -75q0 -37 -15 -67t-42 -51t-65.5 -32.5t-85.5 -11.5z" />
    <glyph glyph-name="uni0456" unicode="&#x456;" horiz-adv-x="243" 
d="M65 500h112v-500h-112v500zM52 662q0 30 20.5 49.5t49.5 19.5t48.5 -19.5t19.5 -49.5q0 -29 -19.5 -48.5t-48.5 -19.5t-49.5 19.5t-20.5 48.5z" />
    <glyph glyph-name="uni0457" unicode="&#x457;" horiz-adv-x="243" 
d="M65 500h112v-500h-112v500zM-40 662q0 29 20 49t49 20t48.5 -20t19.5 -49t-19.5 -49t-48.5 -20t-49 20t-20 49zM145 662q0 29 19.5 49t48.5 20t49 -20t20 -49t-20 -49t-49 -20t-48.5 20t-19.5 49z" />
    <glyph glyph-name="uni0458" unicode="&#x458;" horiz-adv-x="243" 
d="M65 500h112v-502q0 -100 -47 -152t-139 -52h-34v107h20q51 0 69.5 26.5t18.5 85.5v487zM53 662q0 -29 20 -48.5t49 -19.5t48.5 19.5t19.5 48.5q0 30 -19.5 49.5t-48.5 19.5t-49 -19.5t-20 -49.5z" />
    <glyph glyph-name="uni0459" unicode="&#x459;" horiz-adv-x="823" 
d="M483 96h106q40 0 62 21.5t22 56.5t-22 56.5t-62 21.5h-106v-156zM21 -6v109h8q25 0 41.5 9.5t26 33.5t13.5 65t4 104v185h369v-152h119q40 0 73 -13t56.5 -36t36.5 -55t13 -70t-13 -70t-36 -55t-56 -36t-74 -13h-224v398h-160v-103q0 -81 -8.5 -138.5t-29 -93.5
t-55 -52.5t-87.5 -16.5h-17z" />
    <glyph glyph-name="uni045A" unicode="&#x45a;" horiz-adv-x="850" 
d="M405 500h106v-165h127q38 0 69 -12.5t53.5 -34.5t35 -53t12.5 -67t-12.5 -67t-35 -53.5t-53.5 -35t-69 -12.5h-233v239h-220v-239h-112v500h112v-165h220v165zM511 96h114q34 0 55 20t21 52t-21 51.5t-55 19.5h-114v-143z" />
    <glyph glyph-name="uni045B" unicode="&#x45b;" horiz-adv-x="620" 
d="M29 620h76v80h112v-80h157v-91h-157v-131q47 85 148 85q42 0 76.5 -14.5t58.5 -41t37.5 -63.5t13.5 -82v-282h-112v252q0 61 -26 94.5t-77 33.5q-53 0 -86 -35.5t-33 -92.5v-252h-112v529h-76v91z" />
    <glyph glyph-name="uni045C" unicode="&#x45c;" horiz-adv-x="543" 
d="M247 208h-66v-208h-111v500h111v-191h69l146 191h127l-190 -239l194 -261h-131zM303 747h126l-108 -160h-106z" />
    <glyph glyph-name="uni045D" unicode="&#x45d;" horiz-adv-x="591" 
d="M181 500v-338l227 338h114v-500h-112v338l-227 -338h-114v500h112zM153 747h126l92 -160h-106z" />
    <glyph glyph-name="uni045E" unicode="&#x45e;" horiz-adv-x="535" 
d="M215 6l-198 494h118l135 -362l131 362h117l-271 -700h-113zM266 589q-76 0 -123.5 41.5t-53.5 113.5h95q4 -35 26.5 -54t55.5 -19q34 0 57 19t27 54h95q-6 -72 -54 -113.5t-125 -41.5z" />
    <glyph glyph-name="uni045F" unicode="&#x45f;" horiz-adv-x="588" 
d="M73 0v500h112v-398h218v398h112v-500h-167v-123h-108v123h-167z" />
    <glyph glyph-name="uni0490" unicode="&#x490;" horiz-adv-x="554" 
d="M88 700h306v134h120v-247h-303v-587h-123v700z" />
    <glyph glyph-name="uni0491" unicode="&#x491;" horiz-adv-x="414" 
d="M289 621h106v-223h-214v-398h-112v500h220v121z" />
    <glyph glyph-name="uni04DE" unicode="&#x4de;" horiz-adv-x="628" 
d="M311 -16q-212 0 -292 179l105 56q53 -120 188 -120q68 0 110 30.5t42 81.5q0 45 -31.5 69t-87.5 24h-139v111h138q48 0 77 23.5t29 64.5q0 48 -38 75t-100 27q-119 0 -170 -104l-102 56q40 78 108.5 118.5t166.5 40.5q58 0 105.5 -14.5t81.5 -41t52.5 -63.5t18.5 -83
q0 -56 -27.5 -95.5t-77.5 -57.5q57 -20 88.5 -62t31.5 -102q0 -48 -20 -87t-56.5 -67t-87.5 -43.5t-113 -15.5zM129 850q0 31 21 51.5t51 20.5q31 0 52 -20.5t21 -51.5q0 -30 -21 -50.5t-52 -20.5q-30 0 -51 20.5t-21 50.5zM355 850q0 31 21 51.5t51 20.5q31 0 52 -20.5
t21 -51.5q0 -30 -21 -50.5t-52 -20.5q-30 0 -51 20.5t-21 50.5z" />
    <glyph glyph-name="uni04DF" unicode="&#x4df;" horiz-adv-x="495" 
d="M248 -14q-78 0 -134.5 31.5t-88.5 100.5l88 44q36 -83 133 -83q47 0 76.5 18.5t29.5 52.5q0 27 -21.5 44.5t-61.5 17.5h-98v92h99q34 0 53.5 15t19.5 40q0 29 -27 46.5t-70 17.5q-85 0 -120 -73l-83 49q61 115 207 115q45 0 81.5 -10.5t62.5 -30t40.5 -46.5t14.5 -60
q0 -77 -84 -112q94 -26 94 -114q0 -35 -15 -63.5t-43 -49t-67 -31.5t-86 -11zM70 662q0 30 20 49.5t49 19.5t49 -19.5t20 -49.5q0 -29 -20 -48.5t-49 -19.5t-49 19.5t-20 48.5zM287 662q0 30 20 49.5t49 19.5t48.5 -19.5t19.5 -49.5q0 -29 -19.5 -48.5t-48.5 -19.5t-49 19.5
t-20 48.5z" />
    <glyph glyph-name="uni04E2" unicode="&#x4e2;" horiz-adv-x="747" 
d="M542 0v513l-326 -513h-134v700h123v-513l325 513h134v-700h-122zM210 888h328v-88h-328v88z" />
    <glyph glyph-name="uni04E3" unicode="&#x4e3;" horiz-adv-x="583" 
d="M177 500v-338l227 338h114v-500h-112v338l-227 -338h-114v500h112zM145 690h293v-89h-293v89z" />
    <glyph glyph-name="uni04E4" unicode="&#x4e4;" horiz-adv-x="747" 
d="M542 0v513l-326 -513h-134v700h123v-513l325 513h134v-700h-122zM189 850q0 31 21 51.5t51 20.5q31 0 52 -20.5t21 -51.5q0 -30 -21 -50.5t-52 -20.5q-30 0 -51 20.5t-21 50.5zM415 850q0 31 21 51.5t51 20.5q31 0 52 -20.5t21 -51.5q0 -30 -21 -50.5t-52 -20.5
q-30 0 -51 20.5t-21 50.5z" />
    <glyph glyph-name="uni04E5" unicode="&#x4e5;" horiz-adv-x="583" 
d="M177 500v-338l227 338h114v-500h-112v338l-227 -338h-114v500h112zM115 662q0 30 20 49.5t49 19.5t49 -19.5t20 -49.5q0 -29 -20 -48.5t-49 -19.5t-49 19.5t-20 48.5zM332 662q0 30 20 49.5t49 19.5t48.5 -19.5t19.5 -49.5q0 -29 -19.5 -48.5t-48.5 -19.5t-49 19.5
t-20 48.5z" />
    <glyph glyph-name="uni04E6" unicode="&#x4e6;" horiz-adv-x="828" 
d="M415 -16q-79 0 -146 27.5t-115 76.5t-75 116t-27 146t27 146t75 116t115 76.5t146 27.5t145 -27.5t114 -76.5t75 -116t27 -146t-27 -146t-75 -116t-114 -76.5t-145 -27.5zM416 101q51 0 94 18.5t74 51.5t48 79t17 101q0 54 -17 99.5t-48 78.5t-74 51.5t-94 18.5
q-53 0 -96.5 -18.5t-75 -51.5t-49 -78.5t-17.5 -99.5q0 -55 17.5 -101t49 -79t75 -51.5t96.5 -18.5zM229 850q0 31 21 51.5t51 20.5q31 0 52 -20.5t21 -51.5q0 -30 -21 -50.5t-52 -20.5q-30 0 -51 20.5t-21 50.5zM455 850q0 31 21 51.5t51 20.5q31 0 52 -20.5t21 -51.5
q0 -30 -21 -50.5t-52 -20.5q-30 0 -51 20.5t-21 50.5z" />
    <glyph glyph-name="uni04E7" unicode="&#x4e7;" horiz-adv-x="605" 
d="M303 -14q-58 0 -106 20t-83 55.5t-54.5 83.5t-19.5 105t19.5 105t54.5 83.5t83 55.5t106 20t106 -20t83 -55.5t54.5 -83.5t19.5 -105t-19.5 -105t-54.5 -83.5t-83 -55.5t-106 -20zM303 91q32 0 59.5 12t47 33t30.5 50.5t11 63.5q0 35 -11 64t-30.5 50t-47 33t-59.5 12
t-59.5 -12t-47 -33t-30.5 -50t-11 -64q0 -34 11 -63.5t30.5 -50.5t47 -33t59.5 -12zM126 662q0 30 20 49.5t49 19.5t49 -19.5t20 -49.5q0 -29 -20 -48.5t-49 -19.5t-49 19.5t-20 48.5zM343 662q0 30 20 49.5t49 19.5t48.5 -19.5t19.5 -49.5q0 -29 -19.5 -48.5t-48.5 -19.5
t-49 19.5t-20 48.5z" />
    <glyph glyph-name="uni04F8" unicode="&#x4f8;" horiz-adv-x="900" 
d="M83 700h119v-230h167q54 0 97.5 -17t75 -47.5t48.5 -74t17 -96.5t-17 -96.5t-48.5 -74t-75 -47.5t-97.5 -17h-286v700zM202 360v-250h155q59 0 93 34t34 91t-34 91t-93 34h-155zM817 700v-700h-123v700h123zM265 850q0 31 21 51.5t51 20.5q31 0 52 -20.5t21 -51.5
q0 -30 -21 -50.5t-52 -20.5q-30 0 -51 20.5t-21 50.5zM491 850q0 31 21 51.5t51 20.5q31 0 52 -20.5t21 -51.5q0 -30 -21 -50.5t-52 -20.5q-30 0 -51 20.5t-21 50.5z" />
    <glyph glyph-name="uni04F9" unicode="&#x4f9;" horiz-adv-x="737" 
d="M553 500h112v-500h-112v500zM175 96h115q39 0 61.5 21.5t22.5 56.5t-22.5 56.5t-61.5 21.5h-115v-156zM303 0h-234v500h106v-152h128q40 0 73 -13t56 -36t36 -55t13 -70t-13 -70t-36 -55t-56 -36t-73 -13zM192 662q0 30 20 49.5t49 19.5t49 -19.5t20 -49.5
q0 -29 -20 -48.5t-49 -19.5t-49 19.5t-20 48.5zM409 662q0 30 20 49.5t49 19.5t48.5 -19.5t19.5 -49.5q0 -29 -19.5 -48.5t-48.5 -19.5t-49 19.5t-20 48.5z" />
    <glyph glyph-name="endash" unicode="&#x2013;" horiz-adv-x="592" 
d="M49 316h494v-97h-494v97z" />
    <glyph glyph-name="emdash" unicode="&#x2014;" horiz-adv-x="732" 
d="M49 316h634v-97h-634v97z" />
    <glyph glyph-name="quoteleft" unicode="&#x2018;" horiz-adv-x="261" 
d="M207.003 477.004q0 -29.998 -20.498 -50.4971q-20.499 -20.498 -52.4971 -20.498q-34.998 0 -56.9961 27.998q-21.999 27.998 -21.999 73.9951q0 47.9971 25.498 98.4941q25.499 50.4971 76.4951 99.4941l48.9971 -46.9971q-28.998 -29.998 -46.4971 -55.4971
q-17.499 -25.498 -26.498 -54.4961q31.998 0 52.9971 -19.999q20.998 -19.999 20.998 -51.9971z" />
    <glyph glyph-name="quoteright" unicode="&#x2019;" horiz-adv-x="261" 
d="M54 660q0 30 20.5 50.5t52.5 20.5q35 0 57 -28t22 -74q0 -48 -25.5 -98.5t-76.5 -99.5l-49 47q29 30 46.5 55.5t26.5 54.5q-32 0 -53 20t-21 52z" />
    <glyph glyph-name="quotesinglbase" unicode="&#x201a;" horiz-adv-x="243" 
d="M54 66q0 30 20.5 50.5t52.5 20.5q35 0 57 -28t22 -74q0 -48 -25.5 -98.5t-76.5 -99.5l-49 47q29 30 46.5 55.5t26.5 54.5q-32 0 -53 20t-21 52z" />
    <glyph glyph-name="quotedblleft" unicode="&#x201c;" horiz-adv-x="447" 
d="M203.003 477.004q0 -29.998 -20.498 -50.4971q-20.499 -20.498 -52.4971 -20.498q-34.998 0 -56.9961 27.998q-21.999 27.998 -21.999 73.9951q0 47.9971 25.498 98.4941q25.499 50.4971 76.4951 99.4941l48.9971 -46.9971q-28.998 -29.998 -46.4971 -55.4971
q-17.499 -25.498 -26.498 -54.4961q31.998 0 52.9971 -19.999q20.998 -19.999 20.998 -51.9971zM398.003 477.004q0 -29.998 -20.498 -50.4971q-20.499 -20.498 -52.4971 -20.498q-34.998 0 -56.9961 27.998q-21.999 27.998 -21.999 73.9951q0 47.9971 25.498 98.4941
q25.499 50.4971 76.4951 99.4941l48.9971 -46.9971q-28.998 -29.998 -46.4971 -55.4971q-17.499 -25.498 -26.498 -54.4961q31.998 0 52.9971 -19.999q20.998 -19.999 20.998 -51.9971z" />
    <glyph glyph-name="quotedblright" unicode="&#x201d;" horiz-adv-x="447" 
d="M49 635q0 30 20.5 50.5t52.5 20.5q35 0 57 -28t22 -74q0 -48 -25.5 -98.5t-76.5 -99.5l-49 47q29 30 46.5 55.5t26.5 54.5q-32 0 -53 20t-21 52zM245 635q0 30 20.5 50.5t52.5 20.5q35 0 57 -28t22 -74q0 -48 -25.5 -98.5t-76.5 -99.5l-49 47q29 30 46.5 55.5t26.5 54.5
q-32 0 -53 20t-21 52z" />
    <glyph glyph-name="quotedblbase" unicode="&#x201e;" horiz-adv-x="447" 
d="M245 66q0 30 20.5 50.5t52.5 20.5q35 0 57 -28t22 -74q0 -48 -25.5 -98.5t-76.5 -99.5l-49 47q29 30 46.5 55.5t26.5 54.5q-32 0 -53 20t-21 52zM49 66q0 30 20.5 50.5t52.5 20.5q35 0 57 -28t22 -74q0 -48 -25.5 -98.5t-76.5 -99.5l-49 47q29 30 46.5 55.5t26.5 54.5
q-32 0 -53 20t-21 52z" />
    <glyph glyph-name="ellipsis" unicode="&#x2026;" horiz-adv-x="628" 
d="M54 65q0 31 21 51.5t51 20.5t51 -20.5t21 -51.5q0 -30 -21 -50.5t-51 -20.5t-51 20.5t-21 50.5zM241 65q0 31 21 51.5t51 20.5t51 -20.5t21 -51.5q0 -30 -21 -50.5t-51 -20.5t-51 20.5t-21 50.5zM429 65q0 31 21 51.5t51 20.5t51 -20.5t21 -51.5q0 -30 -21 -50.5
t-51 -20.5t-51 20.5t-21 50.5z" />
    <glyph glyph-name="perthousand" unicode="&#x2030;" horiz-adv-x="1179" 
d="M212 -24l486 708l-74 49l-486 -707zM208 356q-36 0 -65.5 14t-50.5 38t-32.5 56.5t-11.5 69.5t11.5 69.5t32.5 56.5t50.5 37.5t65.5 13.5t65.5 -13.5t50.5 -37.5t32.5 -56.5t11.5 -69.5t-11.5 -69.5t-32.5 -56.5t-50.5 -38t-65.5 -14zM208 443q31 0 50.5 24.5t19.5 66.5
q0 41 -19.5 66t-50.5 25t-50.5 -25t-19.5 -66q0 -42 19.5 -66.5t50.5 -24.5zM629 -11q-36 0 -65.5 13.5t-50.5 37.5t-32.5 56.5t-11.5 69.5q0 38 11.5 70.5t32.5 56.5t50.5 37.5t65.5 13.5t65.5 -13.5t50.5 -37.5t32.5 -56.5t11.5 -70.5q0 -37 -11.5 -69.5t-32.5 -56.5
t-50.5 -37.5t-65.5 -13.5zM629 75q31 0 50.5 25t19.5 66q0 42 -19.5 66.5t-50.5 24.5q-30 0 -50 -24.5t-20 -66.5q0 -41 20 -66t50 -25zM996 -11q-36 0 -65.5 13.5t-50.5 37.5t-32.5 56.5t-11.5 69.5q0 38 11.5 70.5t32.5 56.5t50.5 37.5t65.5 13.5t65.5 -13.5t50.5 -37.5
t32.5 -56.5t11.5 -70.5q0 -37 -11.5 -69.5t-32.5 -56.5t-50.5 -37.5t-65.5 -13.5zM996 75q31 0 50.5 25t19.5 66q0 42 -19.5 66.5t-50.5 24.5t-50.5 -24.5t-19.5 -66.5q0 -41 19.5 -66t50.5 -25z" />
    <glyph glyph-name="guilsinglleft" unicode="&#x2039;" horiz-adv-x="366" 
d="M35 250l209 261l82 -60l-163 -201l163 -201l-82 -60z" />
    <glyph glyph-name="guilsinglright" unicode="&#x203a;" horiz-adv-x="366" 
d="M332 250l-209 -261l-83 60l164 201l-163 201l82 60z" />
    <glyph glyph-name="Euro" unicode="&#x20ac;" horiz-adv-x="711" 
d="M31 227v84h77q-1 10 -1 19.5v19.5v19.5t1 19.5h-77v84h94q17 54 49 99t75.5 77t98 49.5t116.5 17.5q60 0 112.5 -16.5t95.5 -47.5l-50 -102q-33 29 -71 42.5t-86 13.5q-79 0 -134.5 -35.5t-82.5 -97.5h304v-84h-326q-2 -10 -2 -19.5v-19.5v-19.5t2 -19.5h326v-84h-304
q27 -62 82.5 -97.5t135.5 -35.5q105 0 168 65l58 -94q-45 -39 -102 -60t-126 -21q-62 0 -116.5 17.5t-98 49.5t-75.5 77t-49 99h-94z" />
    <glyph glyph-name="uni20B4" unicode="&#x20b4;" horiz-adv-x="614" 
d="M27 387v87h402q4 11 6.5 21.5t2.5 21.5q0 45 -37 73t-96 28q-103 0 -153 -88l-82 64q42 60 101 90.5t137 30.5q53 0 96 -13.5t73.5 -38.5t47 -59.5t16.5 -76.5q0 -12 -2 -25.5t-8 -27.5h60v-87h-564zM312 -16q-57 0 -103.5 14t-79.5 40t-50.5 62.5t-17.5 82.5q0 26 8 53
h-42v87h564v-87h-417q-4 -10 -6.5 -20t-2.5 -22q0 -51 41 -81t106 -30q59 0 102 25.5t68 75.5l89 -54q-40 -74 -103.5 -110t-155.5 -36z" />
    <glyph glyph-name="uni20BD" unicode="&#x20bd;" horiz-adv-x="638" 
d="M230 380h130q56 0 88.5 29.5t32.5 79.5q0 48 -32.5 77t-88.5 29h-130v-215zM31 106v91h88v83h-88v100h88v320h244q52 0 94.5 -15t73 -42.5t47 -66t16.5 -86.5t-16.5 -86.5t-47 -66t-73.5 -42.5t-95 -15h-132v-83h232v-91h-232v-106h-111v106h-88z" />
    <glyph glyph-name="a.ss01" horiz-adv-x="628" 
d="M302 91q32 0 59 12t47 33.5t31 51t11 63.5q0 35 -11 64t-31 50t-47 32.5t-59 11.5t-59 -11.5t-47 -32.5t-31 -50t-11 -64q0 -34 11 -63.5t31 -51t47 -33.5t59 -12zM275 -14q-52 0 -95.5 20t-74.5 55.5t-48.5 83.5t-17.5 105t17.5 105t48.5 83.5t74.5 55.5t95.5 20
q60 0 104 -25.5t71 -70.5v82h112v-500h-112v82q-27 -45 -71 -70.5t-104 -25.5z" />
    <glyph glyph-name="uni0430.ss01" horiz-adv-x="645" 
d="M311 91q32 0 59 12t47 33.5t31 51t11 63.5q0 35 -11 64t-31 50t-47 32.5t-59 11.5t-59 -11.5t-47 -32.5t-31 -50t-11 -64q0 -34 11 -63.5t31 -51t47 -33.5t59 -12zM284 -14q-52 0 -95.5 20t-74.5 55.5t-48.5 83.5t-17.5 105t17.5 105t48.5 83.5t74.5 55.5t95.5 20
q60 0 104 -25.5t71 -70.5v82h112v-500h-112v82q-27 -45 -71 -70.5t-104 -25.5z" />
    <glyph glyph-name="g.ss02" horiz-adv-x="607" 
d="M292 117q31 0 57 11t44.5 31t29 47.5t10.5 60.5q0 32 -10.5 58.5t-29 46t-44.5 30.5t-57 11t-56.5 -11t-44.5 -30.5t-29.5 -46t-10.5 -58.5q0 -33 10.5 -60.5t29.5 -47.5t44.5 -31t56.5 -11zM267 16q-50 0 -92 19t-72 52.5t-47 79t-17 98.5t17 98.5t47 79t72 52.5t92 19
q56 0 98 -23.5t68 -64.5v74h109v-452q0 -58 -18.5 -106.5t-53 -83t-82.5 -53.5t-108 -19q-78 0 -136.5 32t-92.5 94l88 55q51 -80 142 -80q70 0 111 45t41 120v52q-26 -41 -68 -64.5t-98 -23.5z" />
    <glyph glyph-name="J.1" horiz-adv-x="386" 
d="M184 700h122v-458q0 -122 -58 -186t-169 -64h-46v115h32q63 0 91 38t28 118v437z" />
    <glyph glyph-name="grave.case" horiz-adv-x="308" 
d="M159 784l-129 151h138l111 -151h-120z" />
    <glyph glyph-name="dieresis.case" horiz-adv-x="431" 
d="M30 850q0 31 21 51.5t51 20.5q31 0 52 -20.5t21 -51.5q0 -30 -21 -50.5t-52 -20.5q-30 0 -51 20.5t-21 50.5zM256 850q0 31 21 51.5t51 20.5q31 0 52 -20.5t21 -51.5q0 -30 -21 -50.5t-52 -20.5q-30 0 -51 20.5t-21 50.5z" />
    <glyph glyph-name="macron.case" horiz-adv-x="388" 
d="M30 888h328v-88h-328v88z" />
    <glyph glyph-name="acute.case" horiz-adv-x="308" 
d="M141 935h138l-129 -151h-120z" />
    <glyph glyph-name="circumflex.case" horiz-adv-x="482" 
d="M194 935h94l164 -151h-119l-92 76l-91 -76h-120z" />
    <glyph glyph-name="caron.case" horiz-adv-x="482" 
d="M149 936l92 -75l92 75h119l-164 -152h-94l-164 152h119z" />
    <glyph glyph-name="breve.case" horiz-adv-x="463" 
d="M231 780q-87 0 -139 42t-61 114h103q4 -32 29 -52.5t68 -20.5t68.5 20.5t30.5 52.5h102q-8 -72 -60.5 -114t-140.5 -42z" />
    <glyph glyph-name="dotaccent.case" horiz-adv-x="205" 
d="M30 867q0 31 21 51.5t51 20.5q31 0 52 -20.5t21 -51.5t-21 -51.5t-52 -20.5q-30 0 -51 20.5t-21 51.5z" />
    <glyph glyph-name="ring.case" horiz-adv-x="305" 
d="M153 779q-53 0 -87.5 33.5t-34.5 86.5q0 26 9 48t25.5 37.5t39 24.5t48.5 9t48 -9t38.5 -24.5t26 -37.5t9.5 -48t-9.5 -48t-26 -38t-38.5 -25t-48 -9zM153 849q20 0 34 14t14 36q0 21 -14 35t-34 14t-34 -14t-14 -35q0 -22 14 -36t34 -14z" />
    <glyph glyph-name="tilde.case" horiz-adv-x="455" 
d="M30 792q0 40 10.5 67.5t28 45t40 25t47.5 7.5q32 0 51 -10t32.5 -21.5t25.5 -21.5t30 -10q42 0 42 63h87q0 -40 -10 -68.5t-26.5 -45.5t-39 -25t-47.5 -8q-32 0 -51 10t-33 22t-26 22t-29 10q-21 0 -32.5 -16.5t-11.5 -45.5h-88z" />
    <glyph glyph-name="agrave.ss01" horiz-adv-x="628" 
d="M302 91q32 0 59 12t47 33.5t31 51t11 63.5q0 35 -11 64t-31 50t-47 32.5t-59 11.5t-59 -11.5t-47 -32.5t-31 -50t-11 -64q0 -34 11 -63.5t31 -51t47 -33.5t59 -12zM275 -14q-52 0 -95.5 20t-74.5 55.5t-48.5 83.5t-17.5 105t17.5 105t48.5 83.5t74.5 55.5t95.5 20
q60 0 104 -25.5t71 -70.5v82h112v-500h-112v82q-27 -45 -71 -70.5t-104 -25.5zM160 747h126l92 -160h-106z" />
    <glyph glyph-name="aacute.ss01" horiz-adv-x="628" 
d="M302 91q32 0 59 12t47 33.5t31 51t11 63.5q0 35 -11 64t-31 50t-47 32.5t-59 11.5t-59 -11.5t-47 -32.5t-31 -50t-11 -64q0 -34 11 -63.5t31 -51t47 -33.5t59 -12zM275 -14q-52 0 -95.5 20t-74.5 55.5t-48.5 83.5t-17.5 105t17.5 105t48.5 83.5t74.5 55.5t95.5 20
q60 0 104 -25.5t71 -70.5v82h112v-500h-112v82q-27 -45 -71 -70.5t-104 -25.5zM336 747h126l-108 -160h-106z" />
    <glyph glyph-name="acircumflex.ss01" horiz-adv-x="628" 
d="M302 91q32 0 59 12t47 33.5t31 51t11 63.5q0 35 -11 64t-31 50t-47 32.5t-59 11.5t-59 -11.5t-47 -32.5t-31 -50t-11 -64q0 -34 11 -63.5t31 -51t47 -33.5t59 -12zM275 -14q-52 0 -95.5 20t-74.5 55.5t-48.5 83.5t-17.5 105t17.5 105t48.5 83.5t74.5 55.5t95.5 20
q60 0 104 -25.5t71 -70.5v82h112v-500h-112v82q-27 -45 -71 -70.5t-104 -25.5zM261 747h84l142 -160h-104l-80 84l-80 -84h-104z" />
    <glyph glyph-name="atilde.ss01" horiz-adv-x="628" 
d="M302 91q32 0 59 12t47 33.5t31 51t11 63.5q0 35 -11 64t-31 50t-47 32.5t-59 11.5t-59 -11.5t-47 -32.5t-31 -50t-11 -64q0 -34 11 -63.5t31 -51t47 -33.5t59 -12zM275 -14q-52 0 -95.5 20t-74.5 55.5t-48.5 83.5t-17.5 105t17.5 105t48.5 83.5t74.5 55.5t95.5 20
q60 0 104 -25.5t71 -70.5v82h112v-500h-112v82q-27 -45 -71 -70.5t-104 -25.5zM246 647q-38 0 -38 -60h-74q0 39 8.5 66t23.5 43.5t34 23.5t40 7q27 0 44 -9.5t29 -20.5t22.5 -20.5t25.5 -9.5q36 0 36 60h74q0 -39 -8.5 -65.5t-22.5 -43.5t-33.5 -24.5t-40.5 -7.5
q-27 0 -43.5 9.5t-28.5 21t-22.5 21t-25.5 9.5z" />
    <glyph glyph-name="adieresis.ss01" horiz-adv-x="628" 
d="M302 91q32 0 59 12t47 33.5t31 51t11 63.5q0 35 -11 64t-31 50t-47 32.5t-59 11.5t-59 -11.5t-47 -32.5t-31 -50t-11 -64q0 -34 11 -63.5t31 -51t47 -33.5t59 -12zM275 -14q-52 0 -95.5 20t-74.5 55.5t-48.5 83.5t-17.5 105t17.5 105t48.5 83.5t74.5 55.5t95.5 20
q60 0 104 -25.5t71 -70.5v82h112v-500h-112v82q-27 -45 -71 -70.5t-104 -25.5zM126 662q0 30 20 49.5t49 19.5t49 -19.5t20 -49.5q0 -29 -20 -48.5t-49 -19.5t-49 19.5t-20 48.5zM343 662q0 30 20 49.5t49 19.5t48.5 -19.5t19.5 -49.5q0 -29 -19.5 -48.5t-48.5 -19.5
t-49 19.5t-20 48.5z" />
    <glyph glyph-name="aring.ss01" horiz-adv-x="628" 
d="M312 579q-52 0 -86.5 32.5t-34.5 84.5t34.5 84.5t86.5 32.5q26 0 47.5 -8.5t38 -24t25.5 -37t9 -47.5t-9 -47.5t-25.5 -37t-38 -24t-47.5 -8.5zM312 645q21 0 35 14t14 37t-14 37t-35 14q-22 0 -36 -14t-14 -37t14 -37t36 -14zM302 91q32 0 59 12t47 33.5t31 51t11 63.5
q0 35 -11 64t-31 50t-47 32.5t-59 11.5t-59 -11.5t-47 -32.5t-31 -50t-11 -64q0 -34 11 -63.5t31 -51t47 -33.5t59 -12zM275 -14q-52 0 -95.5 20t-74.5 55.5t-48.5 83.5t-17.5 105t17.5 105t48.5 83.5t74.5 55.5t95.5 20q60 0 104 -25.5t71 -70.5v82h112v-500h-112v82
q-27 -45 -71 -70.5t-104 -25.5z" />
    <glyph glyph-name="amacron.ss01" horiz-adv-x="628" 
d="M165 691h293v-89h-293v89zM302 91q32 0 59 12t47 33.5t31 51t11 63.5q0 35 -11 64t-31 50t-47 32.5t-59 11.5t-59 -11.5t-47 -32.5t-31 -50t-11 -64q0 -34 11 -63.5t31 -51t47 -33.5t59 -12zM275 -14q-52 0 -95.5 20t-74.5 55.5t-48.5 83.5t-17.5 105t17.5 105t48.5 83.5
t74.5 55.5t95.5 20q60 0 104 -25.5t71 -70.5v82h112v-500h-112v82q-27 -45 -71 -70.5t-104 -25.5z" />
    <glyph glyph-name="abreve.ss01" horiz-adv-x="628" 
d="M310 589q-76 0 -123.5 41.5t-53.5 113.5h95q4 -35 26.5 -54t55.5 -19q34 0 57 19t27 54h95q-6 -72 -54 -113.5t-125 -41.5zM302 91q32 0 59 12t47 33.5t31 51t11 63.5q0 35 -11 64t-31 50t-47 32.5t-59 11.5t-59 -11.5t-47 -32.5t-31 -50t-11 -64q0 -34 11 -63.5t31 -51
t47 -33.5t59 -12zM275 -14q-52 0 -95.5 20t-74.5 55.5t-48.5 83.5t-17.5 105t17.5 105t48.5 83.5t74.5 55.5t95.5 20q60 0 104 -25.5t71 -70.5v82h112v-500h-112v82q-27 -45 -71 -70.5t-104 -25.5z" />
    <glyph glyph-name="aogonek.ss01" horiz-adv-x="628" 
d="M303 91q32 0 59 12t47 33.5t31 51t11 63.5q0 35 -11 64t-31 50t-47 32.5t-59 11.5t-59 -11.5t-47 -32.5t-31 -50t-11 -64q0 -34 11 -63.5t31 -51t47 -33.5t59 -12zM275 -14q-52 0 -95 20t-74.5 55.5t-49 83.5t-17.5 105t17.5 105t49 83.5t74.5 55.5t95 20q60 0 104 -25.5
t72 -70.5v82h112v-500q-57 -26 -80 -47t-23 -48q0 -25 15 -39t41 -14q17 0 31 5.5t24 13.5l24 -75q-37 -24 -90 -24q-60 0 -95 31t-35 84q0 35 18 64t58 56v75q-28 -45 -72 -70.5t-104 -25.5z" />
    <glyph glyph-name="gcircumflex.ss02" horiz-adv-x="607" 
d="M292 117q31 0 57 11t44.5 31t29 47.5t10.5 60.5q0 32 -10.5 58.5t-29 46t-44.5 30.5t-57 11t-56.5 -11t-44.5 -30.5t-29.5 -46t-10.5 -58.5q0 -33 10.5 -60.5t29.5 -47.5t44.5 -31t56.5 -11zM267 16q-50 0 -92 19t-72 52.5t-47 79t-17 98.5t17 98.5t47 79t72 52.5t92 19
q56 0 98 -23.5t68 -64.5v74h109v-452q0 -58 -18.5 -106.5t-53 -83t-82.5 -53.5t-108 -19q-78 0 -136.5 32t-92.5 94l88 55q51 -80 142 -80q70 0 111 45t41 120v52q-26 -41 -68 -64.5t-98 -23.5zM261 747h84l142 -160h-104l-80 84l-80 -84h-104z" />
    <glyph glyph-name="gbreve.ss02" horiz-adv-x="607" 
d="M292 117q31 0 57 11t44.5 31t29 47.5t10.5 60.5q0 32 -10.5 58.5t-29 46t-44.5 30.5t-57 11t-56.5 -11t-44.5 -30.5t-29.5 -46t-10.5 -58.5q0 -33 10.5 -60.5t29.5 -47.5t44.5 -31t56.5 -11zM267 16q-50 0 -92 19t-72 52.5t-47 79t-17 98.5t17 98.5t47 79t72 52.5t92 19
q56 0 98 -23.5t68 -64.5v74h109v-452q0 -58 -18.5 -106.5t-53 -83t-82.5 -53.5t-108 -19q-78 0 -136.5 32t-92.5 94l88 55q51 -80 142 -80q70 0 111 45t41 120v52q-26 -41 -68 -64.5t-98 -23.5zM310 589q-76 0 -123.5 41.5t-53.5 113.5h95q4 -35 26.5 -54t55.5 -19
q34 0 57 19t27 54h95q-6 -72 -54 -113.5t-125 -41.5z" />
    <glyph glyph-name=".ttfautohint" horiz-adv-x="737" 
d="M0 0z" />
    </font>
</defs>
</svg>
